<?xml version="1.0" encoding="utf-8" standalone="no"?>
<!DOCTYPE svg PUBLIC "-//W3C//DTD SVG 1.1//EN"
  "http://www.w3.org/Graphics/SVG/1.1/DTD/svg11.dtd">
<svg xmlns:xlink="http://www.w3.org/1999/xlink" width="990.516562pt" height="549.797813pt" viewBox="0 0 990.516562 549.797813" xmlns="http://www.w3.org/2000/svg" version="1.1">
 <metadata>
  <rdf:RDF xmlns:dc="http://purl.org/dc/elements/1.1/" xmlns:cc="http://creativecommons.org/ns#" xmlns:rdf="http://www.w3.org/1999/02/22-rdf-syntax-ns#">
   <cc:Work>
    <dc:type rdf:resource="http://purl.org/dc/dcmitype/StillImage"/>
    <dc:date>2025-06-12T13:59:00.777622</dc:date>
    <dc:format>image/svg+xml</dc:format>
    <dc:creator>
     <cc:Agent>
      <dc:title>Matplotlib v3.8.4, https://matplotlib.org/</dc:title>
     </cc:Agent>
    </dc:creator>
   </cc:Work>
  </rdf:RDF>
 </metadata>
 <defs>
  <style type="text/css">*{stroke-linejoin: round; stroke-linecap: butt}</style>
 </defs>
 <g id="figure_1">
  <g id="patch_1">
   <path d="M 0 549.797813 
L 990.516562 549.797813 
L 990.516562 0 
L 0 0 
z
" style="fill: #ffffff"/>
  </g>
  <g id="axes_1">
   <g id="patch_2">
    <path d="M 78.68125 491.256563 
L 975.59125 491.256563 
L 975.59125 29.916562 
L 78.68125 29.916562 
z
" style="fill: #ffffff"/>
   </g>
   <g id="matplotlib.axis_1">
    <g id="xtick_1">
     <g id="line2d_1">
      <path d="M 93.969489 491.256563 
L 93.969489 29.916562 
" clip-path="url(#p45c0910349)" style="fill: none; stroke-dasharray: 5.55,2.4; stroke-dashoffset: 0; stroke: #cccccc; stroke-opacity: 0.7; stroke-width: 1.5"/>
     </g>
     <g id="text_1">
      <!-- 0 -->
      <g style="fill: #262626" transform="translate(88.879489 515.914063) scale(0.16 -0.16)">
       <defs>
        <path id="DejaVuSans-30" d="M 2034 4250 
Q 1547 4250 1301 3770 
Q 1056 3291 1056 2328 
Q 1056 1369 1301 889 
Q 1547 409 2034 409 
Q 2525 409 2770 889 
Q 3016 1369 3016 2328 
Q 3016 3291 2770 3770 
Q 2525 4250 2034 4250 
z
M 2034 4750 
Q 2819 4750 3233 4129 
Q 3647 3509 3647 2328 
Q 3647 1150 3233 529 
Q 2819 -91 2034 -91 
Q 1250 -91 836 529 
Q 422 1150 422 2328 
Q 422 3509 836 4129 
Q 1250 4750 2034 4750 
z
" transform="scale(0.015625)"/>
       </defs>
       <use xlink:href="#DejaVuSans-30"/>
      </g>
     </g>
    </g>
    <g id="xtick_2">
     <g id="line2d_2">
      <path d="M 195.89108 491.256563 
L 195.89108 29.916562 
" clip-path="url(#p45c0910349)" style="fill: none; stroke-dasharray: 5.55,2.4; stroke-dashoffset: 0; stroke: #cccccc; stroke-opacity: 0.7; stroke-width: 1.5"/>
     </g>
     <g id="text_2">
      <!-- 20 -->
      <g style="fill: #262626" transform="translate(185.71108 515.914063) scale(0.16 -0.16)">
       <defs>
        <path id="DejaVuSans-32" d="M 1228 531 
L 3431 531 
L 3431 0 
L 469 0 
L 469 531 
Q 828 903 1448 1529 
Q 2069 2156 2228 2338 
Q 2531 2678 2651 2914 
Q 2772 3150 2772 3378 
Q 2772 3750 2511 3984 
Q 2250 4219 1831 4219 
Q 1534 4219 1204 4116 
Q 875 4013 500 3803 
L 500 4441 
Q 881 4594 1212 4672 
Q 1544 4750 1819 4750 
Q 2544 4750 2975 4387 
Q 3406 4025 3406 3419 
Q 3406 3131 3298 2873 
Q 3191 2616 2906 2266 
Q 2828 2175 2409 1742 
Q 1991 1309 1228 531 
z
" transform="scale(0.015625)"/>
       </defs>
       <use xlink:href="#DejaVuSans-32"/>
       <use xlink:href="#DejaVuSans-30" x="63.623047"/>
      </g>
     </g>
    </g>
    <g id="xtick_3">
     <g id="line2d_3">
      <path d="M 297.81267 491.256563 
L 297.81267 29.916562 
" clip-path="url(#p45c0910349)" style="fill: none; stroke-dasharray: 5.55,2.4; stroke-dashoffset: 0; stroke: #cccccc; stroke-opacity: 0.7; stroke-width: 1.5"/>
     </g>
     <g id="text_3">
      <!-- 40 -->
      <g style="fill: #262626" transform="translate(287.63267 515.914063) scale(0.16 -0.16)">
       <defs>
        <path id="DejaVuSans-34" d="M 2419 4116 
L 825 1625 
L 2419 1625 
L 2419 4116 
z
M 2253 4666 
L 3047 4666 
L 3047 1625 
L 3713 1625 
L 3713 1100 
L 3047 1100 
L 3047 0 
L 2419 0 
L 2419 1100 
L 313 1100 
L 313 1709 
L 2253 4666 
z
" transform="scale(0.015625)"/>
       </defs>
       <use xlink:href="#DejaVuSans-34"/>
       <use xlink:href="#DejaVuSans-30" x="63.623047"/>
      </g>
     </g>
    </g>
    <g id="xtick_4">
     <g id="line2d_4">
      <path d="M 399.734261 491.256563 
L 399.734261 29.916562 
" clip-path="url(#p45c0910349)" style="fill: none; stroke-dasharray: 5.55,2.4; stroke-dashoffset: 0; stroke: #cccccc; stroke-opacity: 0.7; stroke-width: 1.5"/>
     </g>
     <g id="text_4">
      <!-- 60 -->
      <g style="fill: #262626" transform="translate(389.554261 515.914063) scale(0.16 -0.16)">
       <defs>
        <path id="DejaVuSans-36" d="M 2113 2584 
Q 1688 2584 1439 2293 
Q 1191 2003 1191 1497 
Q 1191 994 1439 701 
Q 1688 409 2113 409 
Q 2538 409 2786 701 
Q 3034 994 3034 1497 
Q 3034 2003 2786 2293 
Q 2538 2584 2113 2584 
z
M 3366 4563 
L 3366 3988 
Q 3128 4100 2886 4159 
Q 2644 4219 2406 4219 
Q 1781 4219 1451 3797 
Q 1122 3375 1075 2522 
Q 1259 2794 1537 2939 
Q 1816 3084 2150 3084 
Q 2853 3084 3261 2657 
Q 3669 2231 3669 1497 
Q 3669 778 3244 343 
Q 2819 -91 2113 -91 
Q 1303 -91 875 529 
Q 447 1150 447 2328 
Q 447 3434 972 4092 
Q 1497 4750 2381 4750 
Q 2619 4750 2861 4703 
Q 3103 4656 3366 4563 
z
" transform="scale(0.015625)"/>
       </defs>
       <use xlink:href="#DejaVuSans-36"/>
       <use xlink:href="#DejaVuSans-30" x="63.623047"/>
      </g>
     </g>
    </g>
    <g id="xtick_5">
     <g id="line2d_5">
      <path d="M 501.655852 491.256563 
L 501.655852 29.916562 
" clip-path="url(#p45c0910349)" style="fill: none; stroke-dasharray: 5.55,2.4; stroke-dashoffset: 0; stroke: #cccccc; stroke-opacity: 0.7; stroke-width: 1.5"/>
     </g>
     <g id="text_5">
      <!-- 80 -->
      <g style="fill: #262626" transform="translate(491.475852 515.914063) scale(0.16 -0.16)">
       <defs>
        <path id="DejaVuSans-38" d="M 2034 2216 
Q 1584 2216 1326 1975 
Q 1069 1734 1069 1313 
Q 1069 891 1326 650 
Q 1584 409 2034 409 
Q 2484 409 2743 651 
Q 3003 894 3003 1313 
Q 3003 1734 2745 1975 
Q 2488 2216 2034 2216 
z
M 1403 2484 
Q 997 2584 770 2862 
Q 544 3141 544 3541 
Q 544 4100 942 4425 
Q 1341 4750 2034 4750 
Q 2731 4750 3128 4425 
Q 3525 4100 3525 3541 
Q 3525 3141 3298 2862 
Q 3072 2584 2669 2484 
Q 3125 2378 3379 2068 
Q 3634 1759 3634 1313 
Q 3634 634 3220 271 
Q 2806 -91 2034 -91 
Q 1263 -91 848 271 
Q 434 634 434 1313 
Q 434 1759 690 2068 
Q 947 2378 1403 2484 
z
M 1172 3481 
Q 1172 3119 1398 2916 
Q 1625 2713 2034 2713 
Q 2441 2713 2670 2916 
Q 2900 3119 2900 3481 
Q 2900 3844 2670 4047 
Q 2441 4250 2034 4250 
Q 1625 4250 1398 4047 
Q 1172 3844 1172 3481 
z
" transform="scale(0.015625)"/>
       </defs>
       <use xlink:href="#DejaVuSans-38"/>
       <use xlink:href="#DejaVuSans-30" x="63.623047"/>
      </g>
     </g>
    </g>
    <g id="xtick_6">
     <g id="line2d_6">
      <path d="M 603.577443 491.256563 
L 603.577443 29.916562 
" clip-path="url(#p45c0910349)" style="fill: none; stroke-dasharray: 5.55,2.4; stroke-dashoffset: 0; stroke: #cccccc; stroke-opacity: 0.7; stroke-width: 1.5"/>
     </g>
     <g id="text_6">
      <!-- 100 -->
      <g style="fill: #262626" transform="translate(588.307443 515.914063) scale(0.16 -0.16)">
       <defs>
        <path id="DejaVuSans-31" d="M 794 531 
L 1825 531 
L 1825 4091 
L 703 3866 
L 703 4441 
L 1819 4666 
L 2450 4666 
L 2450 531 
L 3481 531 
L 3481 0 
L 794 0 
L 794 531 
z
" transform="scale(0.015625)"/>
       </defs>
       <use xlink:href="#DejaVuSans-31"/>
       <use xlink:href="#DejaVuSans-30" x="63.623047"/>
       <use xlink:href="#DejaVuSans-30" x="127.246094"/>
      </g>
     </g>
    </g>
    <g id="xtick_7">
     <g id="line2d_7">
      <path d="M 705.499034 491.256563 
L 705.499034 29.916562 
" clip-path="url(#p45c0910349)" style="fill: none; stroke-dasharray: 5.55,2.4; stroke-dashoffset: 0; stroke: #cccccc; stroke-opacity: 0.7; stroke-width: 1.5"/>
     </g>
     <g id="text_7">
      <!-- 120 -->
      <g style="fill: #262626" transform="translate(690.229034 515.914063) scale(0.16 -0.16)">
       <use xlink:href="#DejaVuSans-31"/>
       <use xlink:href="#DejaVuSans-32" x="63.623047"/>
       <use xlink:href="#DejaVuSans-30" x="127.246094"/>
      </g>
     </g>
    </g>
    <g id="xtick_8">
     <g id="line2d_8">
      <path d="M 807.420625 491.256563 
L 807.420625 29.916562 
" clip-path="url(#p45c0910349)" style="fill: none; stroke-dasharray: 5.55,2.4; stroke-dashoffset: 0; stroke: #cccccc; stroke-opacity: 0.7; stroke-width: 1.5"/>
     </g>
     <g id="text_8">
      <!-- 140 -->
      <g style="fill: #262626" transform="translate(792.150625 515.914063) scale(0.16 -0.16)">
       <use xlink:href="#DejaVuSans-31"/>
       <use xlink:href="#DejaVuSans-34" x="63.623047"/>
       <use xlink:href="#DejaVuSans-30" x="127.246094"/>
      </g>
     </g>
    </g>
    <g id="xtick_9">
     <g id="line2d_9">
      <path d="M 909.342216 491.256563 
L 909.342216 29.916562 
" clip-path="url(#p45c0910349)" style="fill: none; stroke-dasharray: 5.55,2.4; stroke-dashoffset: 0; stroke: #cccccc; stroke-opacity: 0.7; stroke-width: 1.5"/>
     </g>
     <g id="text_9">
      <!-- 160 -->
      <g style="fill: #262626" transform="translate(894.072216 515.914063) scale(0.16 -0.16)">
       <use xlink:href="#DejaVuSans-31"/>
       <use xlink:href="#DejaVuSans-36" x="63.623047"/>
       <use xlink:href="#DejaVuSans-30" x="127.246094"/>
      </g>
     </g>
    </g>
    <g id="text_10">
     <!-- Epochs -->
     <g style="fill: #262626" transform="translate(487.278438 538.438438) scale(0.2 -0.2)">
      <defs>
       <path id="DejaVuSans-Bold-45" d="M 588 4666 
L 3834 4666 
L 3834 3756 
L 1791 3756 
L 1791 2888 
L 3713 2888 
L 3713 1978 
L 1791 1978 
L 1791 909 
L 3903 909 
L 3903 0 
L 588 0 
L 588 4666 
z
" transform="scale(0.015625)"/>
       <path id="DejaVuSans-Bold-70" d="M 1656 506 
L 1656 -1331 
L 538 -1331 
L 538 3500 
L 1656 3500 
L 1656 2988 
Q 1888 3294 2169 3439 
Q 2450 3584 2816 3584 
Q 3463 3584 3878 3070 
Q 4294 2556 4294 1747 
Q 4294 938 3878 423 
Q 3463 -91 2816 -91 
Q 2450 -91 2169 54 
Q 1888 200 1656 506 
z
M 2400 2772 
Q 2041 2772 1848 2508 
Q 1656 2244 1656 1747 
Q 1656 1250 1848 986 
Q 2041 722 2400 722 
Q 2759 722 2948 984 
Q 3138 1247 3138 1747 
Q 3138 2247 2948 2509 
Q 2759 2772 2400 2772 
z
" transform="scale(0.015625)"/>
       <path id="DejaVuSans-Bold-6f" d="M 2203 2784 
Q 1831 2784 1636 2517 
Q 1441 2250 1441 1747 
Q 1441 1244 1636 976 
Q 1831 709 2203 709 
Q 2569 709 2762 976 
Q 2956 1244 2956 1747 
Q 2956 2250 2762 2517 
Q 2569 2784 2203 2784 
z
M 2203 3584 
Q 3106 3584 3614 3096 
Q 4122 2609 4122 1747 
Q 4122 884 3614 396 
Q 3106 -91 2203 -91 
Q 1297 -91 786 396 
Q 275 884 275 1747 
Q 275 2609 786 3096 
Q 1297 3584 2203 3584 
z
" transform="scale(0.015625)"/>
       <path id="DejaVuSans-Bold-63" d="M 3366 3391 
L 3366 2478 
Q 3138 2634 2908 2709 
Q 2678 2784 2431 2784 
Q 1963 2784 1702 2511 
Q 1441 2238 1441 1747 
Q 1441 1256 1702 982 
Q 1963 709 2431 709 
Q 2694 709 2930 787 
Q 3166 866 3366 1019 
L 3366 103 
Q 3103 6 2833 -42 
Q 2563 -91 2291 -91 
Q 1344 -91 809 395 
Q 275 881 275 1747 
Q 275 2613 809 3098 
Q 1344 3584 2291 3584 
Q 2566 3584 2833 3536 
Q 3100 3488 3366 3391 
z
" transform="scale(0.015625)"/>
       <path id="DejaVuSans-Bold-68" d="M 4056 2131 
L 4056 0 
L 2931 0 
L 2931 347 
L 2931 1625 
Q 2931 2084 2911 2256 
Q 2891 2428 2841 2509 
Q 2775 2619 2662 2680 
Q 2550 2741 2406 2741 
Q 2056 2741 1856 2470 
Q 1656 2200 1656 1722 
L 1656 0 
L 538 0 
L 538 4863 
L 1656 4863 
L 1656 2988 
Q 1909 3294 2193 3439 
Q 2478 3584 2822 3584 
Q 3428 3584 3742 3212 
Q 4056 2841 4056 2131 
z
" transform="scale(0.015625)"/>
       <path id="DejaVuSans-Bold-73" d="M 3272 3391 
L 3272 2541 
Q 2913 2691 2578 2766 
Q 2244 2841 1947 2841 
Q 1628 2841 1473 2761 
Q 1319 2681 1319 2516 
Q 1319 2381 1436 2309 
Q 1553 2238 1856 2203 
L 2053 2175 
Q 2913 2066 3209 1816 
Q 3506 1566 3506 1031 
Q 3506 472 3093 190 
Q 2681 -91 1863 -91 
Q 1516 -91 1145 -36 
Q 775 19 384 128 
L 384 978 
Q 719 816 1070 734 
Q 1422 653 1784 653 
Q 2113 653 2278 743 
Q 2444 834 2444 1013 
Q 2444 1163 2330 1236 
Q 2216 1309 1875 1350 
L 1678 1375 
Q 931 1469 631 1722 
Q 331 1975 331 2491 
Q 331 3047 712 3315 
Q 1094 3584 1881 3584 
Q 2191 3584 2531 3537 
Q 2872 3491 3272 3391 
z
" transform="scale(0.015625)"/>
      </defs>
      <use xlink:href="#DejaVuSans-Bold-45"/>
      <use xlink:href="#DejaVuSans-Bold-70" x="68.310547"/>
      <use xlink:href="#DejaVuSans-Bold-6f" x="139.892578"/>
      <use xlink:href="#DejaVuSans-Bold-63" x="208.59375"/>
      <use xlink:href="#DejaVuSans-Bold-68" x="267.871094"/>
      <use xlink:href="#DejaVuSans-Bold-73" x="339.0625"/>
     </g>
    </g>
   </g>
   <g id="matplotlib.axis_2">
    <g id="ytick_1">
     <g id="line2d_10">
      <path d="M 78.68125 468.862277 
L 975.59125 468.862277 
" clip-path="url(#p45c0910349)" style="fill: none; stroke-dasharray: 5.55,2.4; stroke-dashoffset: 0; stroke: #cccccc; stroke-opacity: 0.7; stroke-width: 1.5"/>
     </g>
     <g id="text_11">
      <!-- 0.35 -->
      <g style="fill: #262626" transform="translate(30.55625 474.941027) scale(0.16 -0.16)">
       <defs>
        <path id="DejaVuSans-2e" d="M 684 794 
L 1344 794 
L 1344 0 
L 684 0 
L 684 794 
z
" transform="scale(0.015625)"/>
        <path id="DejaVuSans-33" d="M 2597 2516 
Q 3050 2419 3304 2112 
Q 3559 1806 3559 1356 
Q 3559 666 3084 287 
Q 2609 -91 1734 -91 
Q 1441 -91 1130 -33 
Q 819 25 488 141 
L 488 750 
Q 750 597 1062 519 
Q 1375 441 1716 441 
Q 2309 441 2620 675 
Q 2931 909 2931 1356 
Q 2931 1769 2642 2001 
Q 2353 2234 1838 2234 
L 1294 2234 
L 1294 2753 
L 1863 2753 
Q 2328 2753 2575 2939 
Q 2822 3125 2822 3475 
Q 2822 3834 2567 4026 
Q 2313 4219 1838 4219 
Q 1578 4219 1281 4162 
Q 984 4106 628 3988 
L 628 4550 
Q 988 4650 1302 4700 
Q 1616 4750 1894 4750 
Q 2613 4750 3031 4423 
Q 3450 4097 3450 3541 
Q 3450 3153 3228 2886 
Q 3006 2619 2597 2516 
z
" transform="scale(0.015625)"/>
        <path id="DejaVuSans-35" d="M 691 4666 
L 3169 4666 
L 3169 4134 
L 1269 4134 
L 1269 2991 
Q 1406 3038 1543 3061 
Q 1681 3084 1819 3084 
Q 2600 3084 3056 2656 
Q 3513 2228 3513 1497 
Q 3513 744 3044 326 
Q 2575 -91 1722 -91 
Q 1428 -91 1123 -41 
Q 819 9 494 109 
L 494 744 
Q 775 591 1075 516 
Q 1375 441 1709 441 
Q 2250 441 2565 725 
Q 2881 1009 2881 1497 
Q 2881 1984 2565 2268 
Q 2250 2553 1709 2553 
Q 1456 2553 1204 2497 
Q 953 2441 691 2322 
L 691 4666 
z
" transform="scale(0.015625)"/>
       </defs>
       <use xlink:href="#DejaVuSans-30"/>
       <use xlink:href="#DejaVuSans-2e" x="63.623047"/>
       <use xlink:href="#DejaVuSans-33" x="95.410156"/>
       <use xlink:href="#DejaVuSans-35" x="159.033203"/>
      </g>
     </g>
    </g>
    <g id="ytick_2">
     <g id="line2d_11">
      <path d="M 78.68125 408.916841 
L 975.59125 408.916841 
" clip-path="url(#p45c0910349)" style="fill: none; stroke-dasharray: 5.55,2.4; stroke-dashoffset: 0; stroke: #cccccc; stroke-opacity: 0.7; stroke-width: 1.5"/>
     </g>
     <g id="text_12">
      <!-- 0.40 -->
      <g style="fill: #262626" transform="translate(30.55625 414.995591) scale(0.16 -0.16)">
       <use xlink:href="#DejaVuSans-30"/>
       <use xlink:href="#DejaVuSans-2e" x="63.623047"/>
       <use xlink:href="#DejaVuSans-34" x="95.410156"/>
       <use xlink:href="#DejaVuSans-30" x="159.033203"/>
      </g>
     </g>
    </g>
    <g id="ytick_3">
     <g id="line2d_12">
      <path d="M 78.68125 348.971404 
L 975.59125 348.971404 
" clip-path="url(#p45c0910349)" style="fill: none; stroke-dasharray: 5.55,2.4; stroke-dashoffset: 0; stroke: #cccccc; stroke-opacity: 0.7; stroke-width: 1.5"/>
     </g>
     <g id="text_13">
      <!-- 0.45 -->
      <g style="fill: #262626" transform="translate(30.55625 355.050154) scale(0.16 -0.16)">
       <use xlink:href="#DejaVuSans-30"/>
       <use xlink:href="#DejaVuSans-2e" x="63.623047"/>
       <use xlink:href="#DejaVuSans-34" x="95.410156"/>
       <use xlink:href="#DejaVuSans-35" x="159.033203"/>
      </g>
     </g>
    </g>
    <g id="ytick_4">
     <g id="line2d_13">
      <path d="M 78.68125 289.025968 
L 975.59125 289.025968 
" clip-path="url(#p45c0910349)" style="fill: none; stroke-dasharray: 5.55,2.4; stroke-dashoffset: 0; stroke: #cccccc; stroke-opacity: 0.7; stroke-width: 1.5"/>
     </g>
     <g id="text_14">
      <!-- 0.50 -->
      <g style="fill: #262626" transform="translate(30.55625 295.104718) scale(0.16 -0.16)">
       <use xlink:href="#DejaVuSans-30"/>
       <use xlink:href="#DejaVuSans-2e" x="63.623047"/>
       <use xlink:href="#DejaVuSans-35" x="95.410156"/>
       <use xlink:href="#DejaVuSans-30" x="159.033203"/>
      </g>
     </g>
    </g>
    <g id="ytick_5">
     <g id="line2d_14">
      <path d="M 78.68125 229.080531 
L 975.59125 229.080531 
" clip-path="url(#p45c0910349)" style="fill: none; stroke-dasharray: 5.55,2.4; stroke-dashoffset: 0; stroke: #cccccc; stroke-opacity: 0.7; stroke-width: 1.5"/>
     </g>
     <g id="text_15">
      <!-- 0.55 -->
      <g style="fill: #262626" transform="translate(30.55625 235.159281) scale(0.16 -0.16)">
       <use xlink:href="#DejaVuSans-30"/>
       <use xlink:href="#DejaVuSans-2e" x="63.623047"/>
       <use xlink:href="#DejaVuSans-35" x="95.410156"/>
       <use xlink:href="#DejaVuSans-35" x="159.033203"/>
      </g>
     </g>
    </g>
    <g id="ytick_6">
     <g id="line2d_15">
      <path d="M 78.68125 169.135095 
L 975.59125 169.135095 
" clip-path="url(#p45c0910349)" style="fill: none; stroke-dasharray: 5.55,2.4; stroke-dashoffset: 0; stroke: #cccccc; stroke-opacity: 0.7; stroke-width: 1.5"/>
     </g>
     <g id="text_16">
      <!-- 0.60 -->
      <g style="fill: #262626" transform="translate(30.55625 175.213845) scale(0.16 -0.16)">
       <use xlink:href="#DejaVuSans-30"/>
       <use xlink:href="#DejaVuSans-2e" x="63.623047"/>
       <use xlink:href="#DejaVuSans-36" x="95.410156"/>
       <use xlink:href="#DejaVuSans-30" x="159.033203"/>
      </g>
     </g>
    </g>
    <g id="ytick_7">
     <g id="line2d_16">
      <path d="M 78.68125 109.189658 
L 975.59125 109.189658 
" clip-path="url(#p45c0910349)" style="fill: none; stroke-dasharray: 5.55,2.4; stroke-dashoffset: 0; stroke: #cccccc; stroke-opacity: 0.7; stroke-width: 1.5"/>
     </g>
     <g id="text_17">
      <!-- 0.65 -->
      <g style="fill: #262626" transform="translate(30.55625 115.268408) scale(0.16 -0.16)">
       <use xlink:href="#DejaVuSans-30"/>
       <use xlink:href="#DejaVuSans-2e" x="63.623047"/>
       <use xlink:href="#DejaVuSans-36" x="95.410156"/>
       <use xlink:href="#DejaVuSans-35" x="159.033203"/>
      </g>
     </g>
    </g>
    <g id="ytick_8">
     <g id="line2d_17">
      <path d="M 78.68125 49.244222 
L 975.59125 49.244222 
" clip-path="url(#p45c0910349)" style="fill: none; stroke-dasharray: 5.55,2.4; stroke-dashoffset: 0; stroke: #cccccc; stroke-opacity: 0.7; stroke-width: 1.5"/>
     </g>
     <g id="text_18">
      <!-- 0.70 -->
      <g style="fill: #262626" transform="translate(30.55625 55.322972) scale(0.16 -0.16)">
       <defs>
        <path id="DejaVuSans-37" d="M 525 4666 
L 3525 4666 
L 3525 4397 
L 1831 0 
L 1172 0 
L 2766 4134 
L 525 4134 
L 525 4666 
z
" transform="scale(0.015625)"/>
       </defs>
       <use xlink:href="#DejaVuSans-30"/>
       <use xlink:href="#DejaVuSans-2e" x="63.623047"/>
       <use xlink:href="#DejaVuSans-37" x="95.410156"/>
       <use xlink:href="#DejaVuSans-30" x="159.033203"/>
      </g>
     </g>
    </g>
    <g id="text_19">
     <!-- Metric Value -->
     <g style="fill: #262626" transform="translate(22.396875 331.136563) rotate(-90) scale(0.2 -0.2)">
      <defs>
       <path id="DejaVuSans-Bold-4d" d="M 588 4666 
L 2119 4666 
L 3181 2169 
L 4250 4666 
L 5778 4666 
L 5778 0 
L 4641 0 
L 4641 3413 
L 3566 897 
L 2803 897 
L 1728 3413 
L 1728 0 
L 588 0 
L 588 4666 
z
" transform="scale(0.015625)"/>
       <path id="DejaVuSans-Bold-65" d="M 4031 1759 
L 4031 1441 
L 1416 1441 
Q 1456 1047 1700 850 
Q 1944 653 2381 653 
Q 2734 653 3104 758 
Q 3475 863 3866 1075 
L 3866 213 
Q 3469 63 3072 -14 
Q 2675 -91 2278 -91 
Q 1328 -91 801 392 
Q 275 875 275 1747 
Q 275 2603 792 3093 
Q 1309 3584 2216 3584 
Q 3041 3584 3536 3087 
Q 4031 2591 4031 1759 
z
M 2881 2131 
Q 2881 2450 2695 2645 
Q 2509 2841 2209 2841 
Q 1884 2841 1681 2658 
Q 1478 2475 1428 2131 
L 2881 2131 
z
" transform="scale(0.015625)"/>
       <path id="DejaVuSans-Bold-74" d="M 1759 4494 
L 1759 3500 
L 2913 3500 
L 2913 2700 
L 1759 2700 
L 1759 1216 
Q 1759 972 1856 886 
Q 1953 800 2241 800 
L 2816 800 
L 2816 0 
L 1856 0 
Q 1194 0 917 276 
Q 641 553 641 1216 
L 641 2700 
L 84 2700 
L 84 3500 
L 641 3500 
L 641 4494 
L 1759 4494 
z
" transform="scale(0.015625)"/>
       <path id="DejaVuSans-Bold-72" d="M 3138 2547 
Q 2991 2616 2845 2648 
Q 2700 2681 2553 2681 
Q 2122 2681 1889 2404 
Q 1656 2128 1656 1613 
L 1656 0 
L 538 0 
L 538 3500 
L 1656 3500 
L 1656 2925 
Q 1872 3269 2151 3426 
Q 2431 3584 2822 3584 
Q 2878 3584 2943 3579 
Q 3009 3575 3134 3559 
L 3138 2547 
z
" transform="scale(0.015625)"/>
       <path id="DejaVuSans-Bold-69" d="M 538 3500 
L 1656 3500 
L 1656 0 
L 538 0 
L 538 3500 
z
M 538 4863 
L 1656 4863 
L 1656 3950 
L 538 3950 
L 538 4863 
z
" transform="scale(0.015625)"/>
       <path id="DejaVuSans-Bold-20" transform="scale(0.015625)"/>
       <path id="DejaVuSans-Bold-56" d="M 31 4666 
L 1241 4666 
L 2478 1222 
L 3713 4666 
L 4922 4666 
L 3194 0 
L 1759 0 
L 31 4666 
z
" transform="scale(0.015625)"/>
       <path id="DejaVuSans-Bold-61" d="M 2106 1575 
Q 1756 1575 1579 1456 
Q 1403 1338 1403 1106 
Q 1403 894 1545 773 
Q 1688 653 1941 653 
Q 2256 653 2472 879 
Q 2688 1106 2688 1447 
L 2688 1575 
L 2106 1575 
z
M 3816 1997 
L 3816 0 
L 2688 0 
L 2688 519 
Q 2463 200 2181 54 
Q 1900 -91 1497 -91 
Q 953 -91 614 226 
Q 275 544 275 1050 
Q 275 1666 698 1953 
Q 1122 2241 2028 2241 
L 2688 2241 
L 2688 2328 
Q 2688 2594 2478 2717 
Q 2269 2841 1825 2841 
Q 1466 2841 1156 2769 
Q 847 2697 581 2553 
L 581 3406 
Q 941 3494 1303 3539 
Q 1666 3584 2028 3584 
Q 2975 3584 3395 3211 
Q 3816 2838 3816 1997 
z
" transform="scale(0.015625)"/>
       <path id="DejaVuSans-Bold-6c" d="M 538 4863 
L 1656 4863 
L 1656 0 
L 538 0 
L 538 4863 
z
" transform="scale(0.015625)"/>
       <path id="DejaVuSans-Bold-75" d="M 500 1363 
L 500 3500 
L 1625 3500 
L 1625 3150 
Q 1625 2866 1622 2436 
Q 1619 2006 1619 1863 
Q 1619 1441 1641 1255 
Q 1663 1069 1716 984 
Q 1784 875 1895 815 
Q 2006 756 2150 756 
Q 2500 756 2700 1025 
Q 2900 1294 2900 1772 
L 2900 3500 
L 4019 3500 
L 4019 0 
L 2900 0 
L 2900 506 
Q 2647 200 2364 54 
Q 2081 -91 1741 -91 
Q 1134 -91 817 281 
Q 500 653 500 1363 
z
" transform="scale(0.015625)"/>
      </defs>
      <use xlink:href="#DejaVuSans-Bold-4d"/>
      <use xlink:href="#DejaVuSans-Bold-65" x="99.511719"/>
      <use xlink:href="#DejaVuSans-Bold-74" x="167.333984"/>
      <use xlink:href="#DejaVuSans-Bold-72" x="215.136719"/>
      <use xlink:href="#DejaVuSans-Bold-69" x="264.453125"/>
      <use xlink:href="#DejaVuSans-Bold-63" x="298.730469"/>
      <use xlink:href="#DejaVuSans-Bold-20" x="358.007812"/>
      <use xlink:href="#DejaVuSans-Bold-56" x="392.822266"/>
      <use xlink:href="#DejaVuSans-Bold-61" x="464.714844"/>
      <use xlink:href="#DejaVuSans-Bold-6c" x="532.195312"/>
      <use xlink:href="#DejaVuSans-Bold-75" x="566.472656"/>
      <use xlink:href="#DejaVuSans-Bold-65" x="637.664062"/>
     </g>
    </g>
   </g>
   <g id="PolyCollection_1">
    <defs>
     <path id="md5b539c216" d="M 119.449886 -494.601247 
L 119.449886 -490.915543 
L 144.930284 -489.712358 
L 170.410682 -488.809953 
L 195.89108 -488.283371 
L 221.371477 -488.236908 
L 246.851875 -488.161241 
L 272.332273 -487.596741 
L 297.81267 -487.80164 
L 323.293068 -488.452626 
L 348.773466 -487.440656 
L 374.253864 -487.414597 
L 399.734261 -486.819147 
L 425.214659 -486.275539 
L 450.695057 -487.279569 
L 476.175455 -487.297958 
L 501.655852 -486.097731 
L 527.13625 -486.014241 
L 552.616648 -486.726393 
L 578.097045 -486.514965 
L 603.577443 -486.0494 
L 629.057841 -486.105044 
L 654.538239 -486.19749 
L 680.018636 -486.671892 
L 705.499034 -486.396364 
L 730.979432 -485.672469 
L 756.45983 -485.95924 
L 781.940227 -486.633232 
L 807.420625 -485.870248 
L 832.901023 -486.50577 
L 858.38142 -486.287268 
L 883.861818 -486.833727 
L 909.342216 -486.883773 
L 934.822614 -486.593452 
L 934.822614 -486.593452 
L 934.822614 -486.593452 
L 909.342216 -486.883773 
L 883.861818 -486.833727 
L 858.38142 -486.287268 
L 832.901023 -486.50577 
L 807.420625 -485.870248 
L 781.940227 -486.633232 
L 756.45983 -485.95924 
L 730.979432 -485.672469 
L 705.499034 -486.396364 
L 680.018636 -486.671892 
L 654.538239 -486.19749 
L 629.057841 -486.105044 
L 603.577443 -486.892539 
L 578.097045 -487.137362 
L 552.616648 -487.093033 
L 527.13625 -486.966834 
L 501.655852 -487.259298 
L 476.175455 -487.453385 
L 450.695057 -487.714239 
L 425.214659 -494.808262 
L 399.734261 -493.797533 
L 374.253864 -493.823337 
L 348.773466 -494.022855 
L 323.293068 -494.92738 
L 297.81267 -494.483095 
L 272.332273 -494.248083 
L 246.851875 -494.473194 
L 221.371477 -494.048533 
L 195.89108 -494.40018 
L 170.410682 -494.536371 
L 144.930284 -494.519734 
L 119.449886 -494.601247 
z
" style="stroke: #66c2a5; stroke-opacity: 0.2; stroke-width: 1.5"/>
    </defs>
    <g clip-path="url(#p45c0910349)">
     <use xlink:href="#md5b539c216" x="0" y="549.797813" style="fill: #66c2a5; fill-opacity: 0.2; stroke: #66c2a5; stroke-opacity: 0.2; stroke-width: 1.5"/>
    </g>
   </g>
   <g id="PolyCollection_2">
    <defs>
     <path id="mda706e9c3c" d="M 119.449886 -495.681866 
L 119.449886 -215.574371 
L 144.930284 -266.289111 
L 170.410682 -301.086479 
L 195.89108 -301.086479 
L 221.371477 -299.358659 
L 246.851875 -306.27234 
L 272.332273 -341.203074 
L 297.81267 -343.138918 
L 323.293068 -311.164439 
L 348.773466 -317.947131 
L 374.253864 -356.228335 
L 399.734261 -379.107111 
L 425.214659 -351.282488 
L 450.695057 -422.786538 
L 476.175455 -406.585069 
L 501.655852 -422.786538 
L 527.13625 -406.585069 
L 552.616648 -406.585069 
L 578.097045 -422.786538 
L 603.577443 -406.585069 
L 629.057841 -422.786538 
L 654.538239 -390.383599 
L 680.018636 -406.585069 
L 705.499034 -422.786538 
L 730.979432 -422.786538 
L 756.45983 -455.189477 
L 781.940227 -438.988007 
L 807.420625 -422.786538 
L 832.901023 -390.383599 
L 858.38142 -406.585069 
L 883.861818 -406.585069 
L 909.342216 -406.585069 
L 934.822614 -406.585069 
L 934.822614 -406.585069 
L 934.822614 -406.585069 
L 909.342216 -406.585069 
L 883.861818 -406.585069 
L 858.38142 -406.585069 
L 832.901023 -390.383599 
L 807.420625 -422.786538 
L 781.940227 -438.988007 
L 756.45983 -455.189477 
L 730.979432 -422.786538 
L 705.499034 -422.786538 
L 680.018636 -406.585069 
L 654.538239 -390.383599 
L 629.057841 -422.786538 
L 603.577443 -498.91125 
L 578.097045 -466.064435 
L 552.616648 -482.487843 
L 527.13625 -498.91125 
L 501.655852 -466.064435 
L 476.175455 -466.064435 
L 450.695057 -466.064435 
L 425.214659 -480.234519 
L 399.734261 -480.115148 
L 374.253864 -486.903424 
L 348.773466 -492.781689 
L 323.293068 -477.6813 
L 297.81267 -465.326135 
L 272.332273 -473.831342 
L 246.851875 -469.700999 
L 221.371477 -470.045318 
L 195.89108 -461.925684 
L 170.410682 -461.925684 
L 144.930284 -477.547615 
L 119.449886 -495.681866 
z
" style="stroke: #fc8d62; stroke-opacity: 0.2; stroke-width: 1.5"/>
    </defs>
    <g clip-path="url(#p45c0910349)">
     <use xlink:href="#mda706e9c3c" x="0" y="549.797813" style="fill: #fc8d62; fill-opacity: 0.2; stroke: #fc8d62; stroke-opacity: 0.2; stroke-width: 1.5"/>
    </g>
   </g>
   <g id="PolyCollection_3">
    <defs>
     <path id="m58f5957865" d="M 119.449886 -317.653937 
L 119.449886 -79.51125 
L 144.930284 -159.758502 
L 170.410682 -183.921853 
L 195.89108 -187.326629 
L 221.371477 -190.627266 
L 246.851875 -189.743659 
L 272.332273 -194.046459 
L 297.81267 -190.453362 
L 323.293068 -193.955689 
L 348.773466 -161.388371 
L 374.253864 -175.019731 
L 399.734261 -157.278394 
L 425.214659 -227.456129 
L 450.695057 -142.846396 
L 476.175455 -142.846396 
L 501.655852 -142.846396 
L 527.13625 -243.095626 
L 552.616648 -194.782323 
L 578.097045 -142.846396 
L 603.577443 -243.095626 
L 629.057841 -314.199393 
L 654.538239 -273.752963 
L 680.018636 -302.24353 
L 705.499034 -314.199393 
L 730.979432 -314.199393 
L 756.45983 -354.645824 
L 781.940227 -342.099436 
L 807.420625 -329.679223 
L 832.901023 -273.752963 
L 858.38142 -285.194059 
L 883.861818 -265.934609 
L 909.342216 -285.194059 
L 934.822614 -302.24353 
L 934.822614 -302.24353 
L 934.822614 -302.24353 
L 909.342216 -285.194059 
L 883.861818 -265.934609 
L 858.38142 -285.194059 
L 832.901023 -273.752963 
L 807.420625 -329.679223 
L 781.940227 -342.099436 
L 756.45983 -354.645824 
L 730.979432 -314.199393 
L 705.499034 -314.199393 
L 680.018636 -302.24353 
L 654.538239 -273.752963 
L 629.057841 -314.199393 
L 603.577443 -302.24353 
L 578.097045 -329.679223 
L 552.616648 -302.24353 
L 527.13625 -302.24353 
L 501.655852 -329.679223 
L 476.175455 -302.24353 
L 450.695057 -343.415068 
L 425.214659 -322.947073 
L 399.734261 -319.327929 
L 374.253864 -297.331819 
L 348.773466 -288.47316 
L 323.293068 -298.118854 
L 297.81267 -310.903422 
L 272.332273 -314.707228 
L 246.851875 -299.705033 
L 221.371477 -299.730988 
L 195.89108 -307.399459 
L 170.410682 -311.597106 
L 144.930284 -317.804685 
L 119.449886 -317.653937 
z
" style="stroke: #8da0cb; stroke-opacity: 0.2; stroke-width: 1.5"/>
    </defs>
    <g clip-path="url(#p45c0910349)">
     <use xlink:href="#m58f5957865" x="0" y="549.797813" style="fill: #8da0cb; fill-opacity: 0.2; stroke: #8da0cb; stroke-opacity: 0.2; stroke-width: 1.5"/>
    </g>
   </g>
   <g id="line2d_18">
    <path d="M 119.449886 57.039417 
L 144.930284 57.681767 
L 170.410682 58.12465 
L 195.89108 58.456037 
L 221.371477 58.655092 
L 246.851875 58.480595 
L 272.332273 58.8754 
L 297.81267 58.655445 
L 323.293068 58.107809 
L 348.773466 59.066057 
L 374.253864 59.178846 
L 399.734261 59.489473 
L 425.214659 59.255912 
L 450.695057 62.300908 
L 476.175455 62.422141 
L 501.655852 63.119298 
L 527.13625 63.307275 
L 552.616648 62.8881 
L 578.097045 62.971649 
L 603.577443 63.326843 
L 629.057841 63.692769 
L 654.538239 63.600323 
L 680.018636 63.12592 
L 705.499034 63.401448 
L 730.979432 64.125343 
L 756.45983 63.838572 
L 781.940227 63.16458 
L 807.420625 63.927564 
L 832.901023 63.292042 
L 858.38142 63.510545 
L 883.861818 62.964086 
L 909.342216 62.91404 
L 934.822614 63.20436 
" clip-path="url(#p45c0910349)" style="fill: none; stroke: #66c2a5; stroke-width: 2.5; stroke-linecap: round"/>
    <defs>
     <path id="m555a81785b" d="M 0 4 
C 1.060812 4 2.078319 3.578535 2.828427 2.828427 
C 3.578535 2.078319 4 1.060812 4 0 
C 4 -1.060812 3.578535 -2.078319 2.828427 -2.828427 
C 2.078319 -3.578535 1.060812 -4 0 -4 
C -1.060812 -4 -2.078319 -3.578535 -2.828427 -2.828427 
C -3.578535 -2.078319 -4 -1.060812 -4 0 
C -4 1.060812 -3.578535 2.078319 -2.828427 2.828427 
C -2.078319 3.578535 -1.060812 4 0 4 
z
" style="stroke: #66c2a5"/>
    </defs>
    <g clip-path="url(#p45c0910349)">
     <use xlink:href="#m555a81785b" x="119.449886" y="57.039417" style="fill: #66c2a5; stroke: #66c2a5"/>
     <use xlink:href="#m555a81785b" x="144.930284" y="57.681767" style="fill: #66c2a5; stroke: #66c2a5"/>
     <use xlink:href="#m555a81785b" x="170.410682" y="58.12465" style="fill: #66c2a5; stroke: #66c2a5"/>
     <use xlink:href="#m555a81785b" x="195.89108" y="58.456037" style="fill: #66c2a5; stroke: #66c2a5"/>
     <use xlink:href="#m555a81785b" x="221.371477" y="58.655092" style="fill: #66c2a5; stroke: #66c2a5"/>
     <use xlink:href="#m555a81785b" x="246.851875" y="58.480595" style="fill: #66c2a5; stroke: #66c2a5"/>
     <use xlink:href="#m555a81785b" x="272.332273" y="58.8754" style="fill: #66c2a5; stroke: #66c2a5"/>
     <use xlink:href="#m555a81785b" x="297.81267" y="58.655445" style="fill: #66c2a5; stroke: #66c2a5"/>
     <use xlink:href="#m555a81785b" x="323.293068" y="58.107809" style="fill: #66c2a5; stroke: #66c2a5"/>
     <use xlink:href="#m555a81785b" x="348.773466" y="59.066057" style="fill: #66c2a5; stroke: #66c2a5"/>
     <use xlink:href="#m555a81785b" x="374.253864" y="59.178846" style="fill: #66c2a5; stroke: #66c2a5"/>
     <use xlink:href="#m555a81785b" x="399.734261" y="59.489473" style="fill: #66c2a5; stroke: #66c2a5"/>
     <use xlink:href="#m555a81785b" x="425.214659" y="59.255912" style="fill: #66c2a5; stroke: #66c2a5"/>
     <use xlink:href="#m555a81785b" x="450.695057" y="62.300908" style="fill: #66c2a5; stroke: #66c2a5"/>
     <use xlink:href="#m555a81785b" x="476.175455" y="62.422141" style="fill: #66c2a5; stroke: #66c2a5"/>
     <use xlink:href="#m555a81785b" x="501.655852" y="63.119298" style="fill: #66c2a5; stroke: #66c2a5"/>
     <use xlink:href="#m555a81785b" x="527.13625" y="63.307275" style="fill: #66c2a5; stroke: #66c2a5"/>
     <use xlink:href="#m555a81785b" x="552.616648" y="62.8881" style="fill: #66c2a5; stroke: #66c2a5"/>
     <use xlink:href="#m555a81785b" x="578.097045" y="62.971649" style="fill: #66c2a5; stroke: #66c2a5"/>
     <use xlink:href="#m555a81785b" x="603.577443" y="63.326843" style="fill: #66c2a5; stroke: #66c2a5"/>
     <use xlink:href="#m555a81785b" x="629.057841" y="63.692769" style="fill: #66c2a5; stroke: #66c2a5"/>
     <use xlink:href="#m555a81785b" x="654.538239" y="63.600323" style="fill: #66c2a5; stroke: #66c2a5"/>
     <use xlink:href="#m555a81785b" x="680.018636" y="63.12592" style="fill: #66c2a5; stroke: #66c2a5"/>
     <use xlink:href="#m555a81785b" x="705.499034" y="63.401448" style="fill: #66c2a5; stroke: #66c2a5"/>
     <use xlink:href="#m555a81785b" x="730.979432" y="64.125343" style="fill: #66c2a5; stroke: #66c2a5"/>
     <use xlink:href="#m555a81785b" x="756.45983" y="63.838572" style="fill: #66c2a5; stroke: #66c2a5"/>
     <use xlink:href="#m555a81785b" x="781.940227" y="63.16458" style="fill: #66c2a5; stroke: #66c2a5"/>
     <use xlink:href="#m555a81785b" x="807.420625" y="63.927564" style="fill: #66c2a5; stroke: #66c2a5"/>
     <use xlink:href="#m555a81785b" x="832.901023" y="63.292042" style="fill: #66c2a5; stroke: #66c2a5"/>
     <use xlink:href="#m555a81785b" x="858.38142" y="63.510545" style="fill: #66c2a5; stroke: #66c2a5"/>
     <use xlink:href="#m555a81785b" x="883.861818" y="62.964086" style="fill: #66c2a5; stroke: #66c2a5"/>
     <use xlink:href="#m555a81785b" x="909.342216" y="62.91404" style="fill: #66c2a5; stroke: #66c2a5"/>
     <use xlink:href="#m555a81785b" x="934.822614" y="63.20436" style="fill: #66c2a5; stroke: #66c2a5"/>
    </g>
   </g>
   <g id="line2d_19">
    <path d="M 119.449886 194.169694 
L 144.930284 177.87945 
L 170.410682 168.291731 
L 195.89108 168.291731 
L 221.371477 165.095824 
L 246.851875 161.811143 
L 272.332273 142.280605 
L 297.81267 145.565286 
L 323.293068 155.374943 
L 348.773466 144.433403 
L 374.253864 128.231933 
L 399.734261 120.186683 
L 425.214659 134.039309 
L 450.695057 105.372326 
L 476.175455 113.47306 
L 501.655852 105.372326 
L 527.13625 97.049653 
L 552.616648 105.261357 
L 578.097045 105.372326 
L 603.577443 97.049653 
L 629.057841 127.011275 
L 654.538239 159.414213 
L 680.018636 143.212744 
L 705.499034 127.011275 
L 730.979432 127.011275 
L 756.45983 94.608336 
L 781.940227 110.809805 
L 807.420625 127.011275 
L 832.901023 159.414213 
L 858.38142 143.212744 
L 883.861818 143.212744 
L 909.342216 143.212744 
L 934.822614 143.212744 
" clip-path="url(#p45c0910349)" style="fill: none; stroke: #fc8d62; stroke-width: 2.5; stroke-linecap: round"/>
    <defs>
     <path id="mde5179b001" d="M -4 4 
L 4 4 
L 4 -4 
L -4 -4 
z
" style="stroke: #fc8d62; stroke-linejoin: miter"/>
    </defs>
    <g clip-path="url(#p45c0910349)">
     <use xlink:href="#mde5179b001" x="119.449886" y="194.169694" style="fill: #fc8d62; stroke: #fc8d62; stroke-linejoin: miter"/>
     <use xlink:href="#mde5179b001" x="144.930284" y="177.87945" style="fill: #fc8d62; stroke: #fc8d62; stroke-linejoin: miter"/>
     <use xlink:href="#mde5179b001" x="170.410682" y="168.291731" style="fill: #fc8d62; stroke: #fc8d62; stroke-linejoin: miter"/>
     <use xlink:href="#mde5179b001" x="195.89108" y="168.291731" style="fill: #fc8d62; stroke: #fc8d62; stroke-linejoin: miter"/>
     <use xlink:href="#mde5179b001" x="221.371477" y="165.095824" style="fill: #fc8d62; stroke: #fc8d62; stroke-linejoin: miter"/>
     <use xlink:href="#mde5179b001" x="246.851875" y="161.811143" style="fill: #fc8d62; stroke: #fc8d62; stroke-linejoin: miter"/>
     <use xlink:href="#mde5179b001" x="272.332273" y="142.280605" style="fill: #fc8d62; stroke: #fc8d62; stroke-linejoin: miter"/>
     <use xlink:href="#mde5179b001" x="297.81267" y="145.565286" style="fill: #fc8d62; stroke: #fc8d62; stroke-linejoin: miter"/>
     <use xlink:href="#mde5179b001" x="323.293068" y="155.374943" style="fill: #fc8d62; stroke: #fc8d62; stroke-linejoin: miter"/>
     <use xlink:href="#mde5179b001" x="348.773466" y="144.433403" style="fill: #fc8d62; stroke: #fc8d62; stroke-linejoin: miter"/>
     <use xlink:href="#mde5179b001" x="374.253864" y="128.231933" style="fill: #fc8d62; stroke: #fc8d62; stroke-linejoin: miter"/>
     <use xlink:href="#mde5179b001" x="399.734261" y="120.186683" style="fill: #fc8d62; stroke: #fc8d62; stroke-linejoin: miter"/>
     <use xlink:href="#mde5179b001" x="425.214659" y="134.039309" style="fill: #fc8d62; stroke: #fc8d62; stroke-linejoin: miter"/>
     <use xlink:href="#mde5179b001" x="450.695057" y="105.372326" style="fill: #fc8d62; stroke: #fc8d62; stroke-linejoin: miter"/>
     <use xlink:href="#mde5179b001" x="476.175455" y="113.47306" style="fill: #fc8d62; stroke: #fc8d62; stroke-linejoin: miter"/>
     <use xlink:href="#mde5179b001" x="501.655852" y="105.372326" style="fill: #fc8d62; stroke: #fc8d62; stroke-linejoin: miter"/>
     <use xlink:href="#mde5179b001" x="527.13625" y="97.049653" style="fill: #fc8d62; stroke: #fc8d62; stroke-linejoin: miter"/>
     <use xlink:href="#mde5179b001" x="552.616648" y="105.261357" style="fill: #fc8d62; stroke: #fc8d62; stroke-linejoin: miter"/>
     <use xlink:href="#mde5179b001" x="578.097045" y="105.372326" style="fill: #fc8d62; stroke: #fc8d62; stroke-linejoin: miter"/>
     <use xlink:href="#mde5179b001" x="603.577443" y="97.049653" style="fill: #fc8d62; stroke: #fc8d62; stroke-linejoin: miter"/>
     <use xlink:href="#mde5179b001" x="629.057841" y="127.011275" style="fill: #fc8d62; stroke: #fc8d62; stroke-linejoin: miter"/>
     <use xlink:href="#mde5179b001" x="654.538239" y="159.414213" style="fill: #fc8d62; stroke: #fc8d62; stroke-linejoin: miter"/>
     <use xlink:href="#mde5179b001" x="680.018636" y="143.212744" style="fill: #fc8d62; stroke: #fc8d62; stroke-linejoin: miter"/>
     <use xlink:href="#mde5179b001" x="705.499034" y="127.011275" style="fill: #fc8d62; stroke: #fc8d62; stroke-linejoin: miter"/>
     <use xlink:href="#mde5179b001" x="730.979432" y="127.011275" style="fill: #fc8d62; stroke: #fc8d62; stroke-linejoin: miter"/>
     <use xlink:href="#mde5179b001" x="756.45983" y="94.608336" style="fill: #fc8d62; stroke: #fc8d62; stroke-linejoin: miter"/>
     <use xlink:href="#mde5179b001" x="781.940227" y="110.809805" style="fill: #fc8d62; stroke: #fc8d62; stroke-linejoin: miter"/>
     <use xlink:href="#mde5179b001" x="807.420625" y="127.011275" style="fill: #fc8d62; stroke: #fc8d62; stroke-linejoin: miter"/>
     <use xlink:href="#mde5179b001" x="832.901023" y="159.414213" style="fill: #fc8d62; stroke: #fc8d62; stroke-linejoin: miter"/>
     <use xlink:href="#mde5179b001" x="858.38142" y="143.212744" style="fill: #fc8d62; stroke: #fc8d62; stroke-linejoin: miter"/>
     <use xlink:href="#mde5179b001" x="883.861818" y="143.212744" style="fill: #fc8d62; stroke: #fc8d62; stroke-linejoin: miter"/>
     <use xlink:href="#mde5179b001" x="909.342216" y="143.212744" style="fill: #fc8d62; stroke: #fc8d62; stroke-linejoin: miter"/>
     <use xlink:href="#mde5179b001" x="934.822614" y="143.212744" style="fill: #fc8d62; stroke: #fc8d62; stroke-linejoin: miter"/>
    </g>
   </g>
   <g id="line2d_20">
    <path d="M 119.449886 351.215219 
L 144.930284 311.016219 
L 170.410682 302.038333 
L 195.89108 302.434768 
L 221.371477 304.618685 
L 246.851875 305.073467 
L 272.332273 295.420969 
L 297.81267 299.119421 
L 323.293068 303.760541 
L 348.773466 324.867047 
L 374.253864 313.622038 
L 399.734261 311.494651 
L 425.214659 274.596212 
L 450.695057 306.667081 
L 476.175455 327.25285 
L 501.655852 313.535003 
L 527.13625 277.128234 
L 552.616648 301.284886 
L 578.097045 313.535003 
L 603.577443 277.128234 
L 629.057841 235.598419 
L 654.538239 276.04485 
L 680.018636 247.554282 
L 705.499034 235.598419 
L 730.979432 235.598419 
L 756.45983 195.151988 
L 781.940227 207.698377 
L 807.420625 220.118589 
L 832.901023 276.04485 
L 858.38142 264.603753 
L 883.861818 283.863203 
L 909.342216 264.603753 
L 934.822614 247.554282 
" clip-path="url(#p45c0910349)" style="fill: none; stroke: #8da0cb; stroke-width: 2.5; stroke-linecap: round"/>
    <defs>
     <path id="mcc9969d28d" d="M -0 5.656854 
L 5.656854 0 
L 0 -5.656854 
L -5.656854 -0 
z
" style="stroke: #8da0cb; stroke-linejoin: miter"/>
    </defs>
    <g clip-path="url(#p45c0910349)">
     <use xlink:href="#mcc9969d28d" x="119.449886" y="351.215219" style="fill: #8da0cb; stroke: #8da0cb; stroke-linejoin: miter"/>
     <use xlink:href="#mcc9969d28d" x="144.930284" y="311.016219" style="fill: #8da0cb; stroke: #8da0cb; stroke-linejoin: miter"/>
     <use xlink:href="#mcc9969d28d" x="170.410682" y="302.038333" style="fill: #8da0cb; stroke: #8da0cb; stroke-linejoin: miter"/>
     <use xlink:href="#mcc9969d28d" x="195.89108" y="302.434768" style="fill: #8da0cb; stroke: #8da0cb; stroke-linejoin: miter"/>
     <use xlink:href="#mcc9969d28d" x="221.371477" y="304.618685" style="fill: #8da0cb; stroke: #8da0cb; stroke-linejoin: miter"/>
     <use xlink:href="#mcc9969d28d" x="246.851875" y="305.073467" style="fill: #8da0cb; stroke: #8da0cb; stroke-linejoin: miter"/>
     <use xlink:href="#mcc9969d28d" x="272.332273" y="295.420969" style="fill: #8da0cb; stroke: #8da0cb; stroke-linejoin: miter"/>
     <use xlink:href="#mcc9969d28d" x="297.81267" y="299.119421" style="fill: #8da0cb; stroke: #8da0cb; stroke-linejoin: miter"/>
     <use xlink:href="#mcc9969d28d" x="323.293068" y="303.760541" style="fill: #8da0cb; stroke: #8da0cb; stroke-linejoin: miter"/>
     <use xlink:href="#mcc9969d28d" x="348.773466" y="324.867047" style="fill: #8da0cb; stroke: #8da0cb; stroke-linejoin: miter"/>
     <use xlink:href="#mcc9969d28d" x="374.253864" y="313.622038" style="fill: #8da0cb; stroke: #8da0cb; stroke-linejoin: miter"/>
     <use xlink:href="#mcc9969d28d" x="399.734261" y="311.494651" style="fill: #8da0cb; stroke: #8da0cb; stroke-linejoin: miter"/>
     <use xlink:href="#mcc9969d28d" x="425.214659" y="274.596212" style="fill: #8da0cb; stroke: #8da0cb; stroke-linejoin: miter"/>
     <use xlink:href="#mcc9969d28d" x="450.695057" y="306.667081" style="fill: #8da0cb; stroke: #8da0cb; stroke-linejoin: miter"/>
     <use xlink:href="#mcc9969d28d" x="476.175455" y="327.25285" style="fill: #8da0cb; stroke: #8da0cb; stroke-linejoin: miter"/>
     <use xlink:href="#mcc9969d28d" x="501.655852" y="313.535003" style="fill: #8da0cb; stroke: #8da0cb; stroke-linejoin: miter"/>
     <use xlink:href="#mcc9969d28d" x="527.13625" y="277.128234" style="fill: #8da0cb; stroke: #8da0cb; stroke-linejoin: miter"/>
     <use xlink:href="#mcc9969d28d" x="552.616648" y="301.284886" style="fill: #8da0cb; stroke: #8da0cb; stroke-linejoin: miter"/>
     <use xlink:href="#mcc9969d28d" x="578.097045" y="313.535003" style="fill: #8da0cb; stroke: #8da0cb; stroke-linejoin: miter"/>
     <use xlink:href="#mcc9969d28d" x="603.577443" y="277.128234" style="fill: #8da0cb; stroke: #8da0cb; stroke-linejoin: miter"/>
     <use xlink:href="#mcc9969d28d" x="629.057841" y="235.598419" style="fill: #8da0cb; stroke: #8da0cb; stroke-linejoin: miter"/>
     <use xlink:href="#mcc9969d28d" x="654.538239" y="276.04485" style="fill: #8da0cb; stroke: #8da0cb; stroke-linejoin: miter"/>
     <use xlink:href="#mcc9969d28d" x="680.018636" y="247.554282" style="fill: #8da0cb; stroke: #8da0cb; stroke-linejoin: miter"/>
     <use xlink:href="#mcc9969d28d" x="705.499034" y="235.598419" style="fill: #8da0cb; stroke: #8da0cb; stroke-linejoin: miter"/>
     <use xlink:href="#mcc9969d28d" x="730.979432" y="235.598419" style="fill: #8da0cb; stroke: #8da0cb; stroke-linejoin: miter"/>
     <use xlink:href="#mcc9969d28d" x="756.45983" y="195.151988" style="fill: #8da0cb; stroke: #8da0cb; stroke-linejoin: miter"/>
     <use xlink:href="#mcc9969d28d" x="781.940227" y="207.698377" style="fill: #8da0cb; stroke: #8da0cb; stroke-linejoin: miter"/>
     <use xlink:href="#mcc9969d28d" x="807.420625" y="220.118589" style="fill: #8da0cb; stroke: #8da0cb; stroke-linejoin: miter"/>
     <use xlink:href="#mcc9969d28d" x="832.901023" y="276.04485" style="fill: #8da0cb; stroke: #8da0cb; stroke-linejoin: miter"/>
     <use xlink:href="#mcc9969d28d" x="858.38142" y="264.603753" style="fill: #8da0cb; stroke: #8da0cb; stroke-linejoin: miter"/>
     <use xlink:href="#mcc9969d28d" x="883.861818" y="283.863203" style="fill: #8da0cb; stroke: #8da0cb; stroke-linejoin: miter"/>
     <use xlink:href="#mcc9969d28d" x="909.342216" y="264.603753" style="fill: #8da0cb; stroke: #8da0cb; stroke-linejoin: miter"/>
     <use xlink:href="#mcc9969d28d" x="934.822614" y="247.554282" style="fill: #8da0cb; stroke: #8da0cb; stroke-linejoin: miter"/>
    </g>
   </g>
   <g id="line2d_21">
    <path d="M 730.979432 491.256563 
L 730.979432 29.916562 
" clip-path="url(#p45c0910349)" style="fill: none; stroke-dasharray: 8.325,3.6; stroke-dashoffset: 0; stroke: #808080; stroke-opacity: 0.6; stroke-width: 2.25"/>
   </g>
   <g id="patch_3">
    <path d="M 78.68125 491.256563 
L 78.68125 29.916562 
" style="fill: none; stroke: #cccccc; stroke-width: 1.875; stroke-linejoin: miter; stroke-linecap: square"/>
   </g>
   <g id="patch_4">
    <path d="M 975.59125 491.256563 
L 975.59125 29.916562 
" style="fill: none; stroke: #cccccc; stroke-width: 1.875; stroke-linejoin: miter; stroke-linecap: square"/>
   </g>
   <g id="patch_5">
    <path d="M 78.68125 491.256563 
L 975.59125 491.256563 
" style="fill: none; stroke: #cccccc; stroke-width: 1.875; stroke-linejoin: miter; stroke-linecap: square"/>
   </g>
   <g id="patch_6">
    <path d="M 78.68125 29.916562 
L 975.59125 29.916562 
" style="fill: none; stroke: #cccccc; stroke-width: 1.875; stroke-linejoin: miter; stroke-linecap: square"/>
   </g>
   <g id="text_20">
    <g id="patch_7">
     <path d="M 732.115511 58.591881 
L 930.503636 58.591881 
L 930.503636 25.620756 
L 732.115511 25.620756 
z
" style="fill: #ffffff; opacity: 0.85; stroke: #808080; stroke-width: 1.5; stroke-linejoin: miter"/>
    </g>
    <!-- Overall Best Epoch (Mean): 125 -->
    <g style="fill: #262626" transform="translate(736.075511 38.698881) scale(0.12 -0.12)">
     <defs>
      <path id="DejaVuSans-4f" d="M 2522 4238 
Q 1834 4238 1429 3725 
Q 1025 3213 1025 2328 
Q 1025 1447 1429 934 
Q 1834 422 2522 422 
Q 3209 422 3611 934 
Q 4013 1447 4013 2328 
Q 4013 3213 3611 3725 
Q 3209 4238 2522 4238 
z
M 2522 4750 
Q 3503 4750 4090 4092 
Q 4678 3434 4678 2328 
Q 4678 1225 4090 567 
Q 3503 -91 2522 -91 
Q 1538 -91 948 565 
Q 359 1222 359 2328 
Q 359 3434 948 4092 
Q 1538 4750 2522 4750 
z
" transform="scale(0.015625)"/>
      <path id="DejaVuSans-76" d="M 191 3500 
L 800 3500 
L 1894 563 
L 2988 3500 
L 3597 3500 
L 2284 0 
L 1503 0 
L 191 3500 
z
" transform="scale(0.015625)"/>
      <path id="DejaVuSans-65" d="M 3597 1894 
L 3597 1613 
L 953 1613 
Q 991 1019 1311 708 
Q 1631 397 2203 397 
Q 2534 397 2845 478 
Q 3156 559 3463 722 
L 3463 178 
Q 3153 47 2828 -22 
Q 2503 -91 2169 -91 
Q 1331 -91 842 396 
Q 353 884 353 1716 
Q 353 2575 817 3079 
Q 1281 3584 2069 3584 
Q 2775 3584 3186 3129 
Q 3597 2675 3597 1894 
z
M 3022 2063 
Q 3016 2534 2758 2815 
Q 2500 3097 2075 3097 
Q 1594 3097 1305 2825 
Q 1016 2553 972 2059 
L 3022 2063 
z
" transform="scale(0.015625)"/>
      <path id="DejaVuSans-72" d="M 2631 2963 
Q 2534 3019 2420 3045 
Q 2306 3072 2169 3072 
Q 1681 3072 1420 2755 
Q 1159 2438 1159 1844 
L 1159 0 
L 581 0 
L 581 3500 
L 1159 3500 
L 1159 2956 
Q 1341 3275 1631 3429 
Q 1922 3584 2338 3584 
Q 2397 3584 2469 3576 
Q 2541 3569 2628 3553 
L 2631 2963 
z
" transform="scale(0.015625)"/>
      <path id="DejaVuSans-61" d="M 2194 1759 
Q 1497 1759 1228 1600 
Q 959 1441 959 1056 
Q 959 750 1161 570 
Q 1363 391 1709 391 
Q 2188 391 2477 730 
Q 2766 1069 2766 1631 
L 2766 1759 
L 2194 1759 
z
M 3341 1997 
L 3341 0 
L 2766 0 
L 2766 531 
Q 2569 213 2275 61 
Q 1981 -91 1556 -91 
Q 1019 -91 701 211 
Q 384 513 384 1019 
Q 384 1609 779 1909 
Q 1175 2209 1959 2209 
L 2766 2209 
L 2766 2266 
Q 2766 2663 2505 2880 
Q 2244 3097 1772 3097 
Q 1472 3097 1187 3025 
Q 903 2953 641 2809 
L 641 3341 
Q 956 3463 1253 3523 
Q 1550 3584 1831 3584 
Q 2591 3584 2966 3190 
Q 3341 2797 3341 1997 
z
" transform="scale(0.015625)"/>
      <path id="DejaVuSans-6c" d="M 603 4863 
L 1178 4863 
L 1178 0 
L 603 0 
L 603 4863 
z
" transform="scale(0.015625)"/>
      <path id="DejaVuSans-20" transform="scale(0.015625)"/>
      <path id="DejaVuSans-42" d="M 1259 2228 
L 1259 519 
L 2272 519 
Q 2781 519 3026 730 
Q 3272 941 3272 1375 
Q 3272 1813 3026 2020 
Q 2781 2228 2272 2228 
L 1259 2228 
z
M 1259 4147 
L 1259 2741 
L 2194 2741 
Q 2656 2741 2882 2914 
Q 3109 3088 3109 3444 
Q 3109 3797 2882 3972 
Q 2656 4147 2194 4147 
L 1259 4147 
z
M 628 4666 
L 2241 4666 
Q 2963 4666 3353 4366 
Q 3744 4066 3744 3513 
Q 3744 3084 3544 2831 
Q 3344 2578 2956 2516 
Q 3422 2416 3680 2098 
Q 3938 1781 3938 1306 
Q 3938 681 3513 340 
Q 3088 0 2303 0 
L 628 0 
L 628 4666 
z
" transform="scale(0.015625)"/>
      <path id="DejaVuSans-73" d="M 2834 3397 
L 2834 2853 
Q 2591 2978 2328 3040 
Q 2066 3103 1784 3103 
Q 1356 3103 1142 2972 
Q 928 2841 928 2578 
Q 928 2378 1081 2264 
Q 1234 2150 1697 2047 
L 1894 2003 
Q 2506 1872 2764 1633 
Q 3022 1394 3022 966 
Q 3022 478 2636 193 
Q 2250 -91 1575 -91 
Q 1294 -91 989 -36 
Q 684 19 347 128 
L 347 722 
Q 666 556 975 473 
Q 1284 391 1588 391 
Q 1994 391 2212 530 
Q 2431 669 2431 922 
Q 2431 1156 2273 1281 
Q 2116 1406 1581 1522 
L 1381 1569 
Q 847 1681 609 1914 
Q 372 2147 372 2553 
Q 372 3047 722 3315 
Q 1072 3584 1716 3584 
Q 2034 3584 2315 3537 
Q 2597 3491 2834 3397 
z
" transform="scale(0.015625)"/>
      <path id="DejaVuSans-74" d="M 1172 4494 
L 1172 3500 
L 2356 3500 
L 2356 3053 
L 1172 3053 
L 1172 1153 
Q 1172 725 1289 603 
Q 1406 481 1766 481 
L 2356 481 
L 2356 0 
L 1766 0 
Q 1100 0 847 248 
Q 594 497 594 1153 
L 594 3053 
L 172 3053 
L 172 3500 
L 594 3500 
L 594 4494 
L 1172 4494 
z
" transform="scale(0.015625)"/>
      <path id="DejaVuSans-45" d="M 628 4666 
L 3578 4666 
L 3578 4134 
L 1259 4134 
L 1259 2753 
L 3481 2753 
L 3481 2222 
L 1259 2222 
L 1259 531 
L 3634 531 
L 3634 0 
L 628 0 
L 628 4666 
z
" transform="scale(0.015625)"/>
      <path id="DejaVuSans-70" d="M 1159 525 
L 1159 -1331 
L 581 -1331 
L 581 3500 
L 1159 3500 
L 1159 2969 
Q 1341 3281 1617 3432 
Q 1894 3584 2278 3584 
Q 2916 3584 3314 3078 
Q 3713 2572 3713 1747 
Q 3713 922 3314 415 
Q 2916 -91 2278 -91 
Q 1894 -91 1617 61 
Q 1341 213 1159 525 
z
M 3116 1747 
Q 3116 2381 2855 2742 
Q 2594 3103 2138 3103 
Q 1681 3103 1420 2742 
Q 1159 2381 1159 1747 
Q 1159 1113 1420 752 
Q 1681 391 2138 391 
Q 2594 391 2855 752 
Q 3116 1113 3116 1747 
z
" transform="scale(0.015625)"/>
      <path id="DejaVuSans-6f" d="M 1959 3097 
Q 1497 3097 1228 2736 
Q 959 2375 959 1747 
Q 959 1119 1226 758 
Q 1494 397 1959 397 
Q 2419 397 2687 759 
Q 2956 1122 2956 1747 
Q 2956 2369 2687 2733 
Q 2419 3097 1959 3097 
z
M 1959 3584 
Q 2709 3584 3137 3096 
Q 3566 2609 3566 1747 
Q 3566 888 3137 398 
Q 2709 -91 1959 -91 
Q 1206 -91 779 398 
Q 353 888 353 1747 
Q 353 2609 779 3096 
Q 1206 3584 1959 3584 
z
" transform="scale(0.015625)"/>
      <path id="DejaVuSans-63" d="M 3122 3366 
L 3122 2828 
Q 2878 2963 2633 3030 
Q 2388 3097 2138 3097 
Q 1578 3097 1268 2742 
Q 959 2388 959 1747 
Q 959 1106 1268 751 
Q 1578 397 2138 397 
Q 2388 397 2633 464 
Q 2878 531 3122 666 
L 3122 134 
Q 2881 22 2623 -34 
Q 2366 -91 2075 -91 
Q 1284 -91 818 406 
Q 353 903 353 1747 
Q 353 2603 823 3093 
Q 1294 3584 2113 3584 
Q 2378 3584 2631 3529 
Q 2884 3475 3122 3366 
z
" transform="scale(0.015625)"/>
      <path id="DejaVuSans-68" d="M 3513 2113 
L 3513 0 
L 2938 0 
L 2938 2094 
Q 2938 2591 2744 2837 
Q 2550 3084 2163 3084 
Q 1697 3084 1428 2787 
Q 1159 2491 1159 1978 
L 1159 0 
L 581 0 
L 581 4863 
L 1159 4863 
L 1159 2956 
Q 1366 3272 1645 3428 
Q 1925 3584 2291 3584 
Q 2894 3584 3203 3211 
Q 3513 2838 3513 2113 
z
" transform="scale(0.015625)"/>
      <path id="DejaVuSans-28" d="M 1984 4856 
Q 1566 4138 1362 3434 
Q 1159 2731 1159 2009 
Q 1159 1288 1364 580 
Q 1569 -128 1984 -844 
L 1484 -844 
Q 1016 -109 783 600 
Q 550 1309 550 2009 
Q 550 2706 781 3412 
Q 1013 4119 1484 4856 
L 1984 4856 
z
" transform="scale(0.015625)"/>
      <path id="DejaVuSans-4d" d="M 628 4666 
L 1569 4666 
L 2759 1491 
L 3956 4666 
L 4897 4666 
L 4897 0 
L 4281 0 
L 4281 4097 
L 3078 897 
L 2444 897 
L 1241 4097 
L 1241 0 
L 628 0 
L 628 4666 
z
" transform="scale(0.015625)"/>
      <path id="DejaVuSans-6e" d="M 3513 2113 
L 3513 0 
L 2938 0 
L 2938 2094 
Q 2938 2591 2744 2837 
Q 2550 3084 2163 3084 
Q 1697 3084 1428 2787 
Q 1159 2491 1159 1978 
L 1159 0 
L 581 0 
L 581 3500 
L 1159 3500 
L 1159 2956 
Q 1366 3272 1645 3428 
Q 1925 3584 2291 3584 
Q 2894 3584 3203 3211 
Q 3513 2838 3513 2113 
z
" transform="scale(0.015625)"/>
      <path id="DejaVuSans-29" d="M 513 4856 
L 1013 4856 
Q 1481 4119 1714 3412 
Q 1947 2706 1947 2009 
Q 1947 1309 1714 600 
Q 1481 -109 1013 -844 
L 513 -844 
Q 928 -128 1133 580 
Q 1338 1288 1338 2009 
Q 1338 2731 1133 3434 
Q 928 4138 513 4856 
z
" transform="scale(0.015625)"/>
      <path id="DejaVuSans-3a" d="M 750 794 
L 1409 794 
L 1409 0 
L 750 0 
L 750 794 
z
M 750 3309 
L 1409 3309 
L 1409 2516 
L 750 2516 
L 750 3309 
z
" transform="scale(0.015625)"/>
     </defs>
     <use xlink:href="#DejaVuSans-4f"/>
     <use xlink:href="#DejaVuSans-76" x="78.710938"/>
     <use xlink:href="#DejaVuSans-65" x="137.890625"/>
     <use xlink:href="#DejaVuSans-72" x="199.414062"/>
     <use xlink:href="#DejaVuSans-61" x="240.527344"/>
     <use xlink:href="#DejaVuSans-6c" x="301.806641"/>
     <use xlink:href="#DejaVuSans-6c" x="329.589844"/>
     <use xlink:href="#DejaVuSans-20" x="357.373047"/>
     <use xlink:href="#DejaVuSans-42" x="389.160156"/>
     <use xlink:href="#DejaVuSans-65" x="457.763672"/>
     <use xlink:href="#DejaVuSans-73" x="519.287109"/>
     <use xlink:href="#DejaVuSans-74" x="571.386719"/>
     <use xlink:href="#DejaVuSans-20" x="610.595703"/>
     <use xlink:href="#DejaVuSans-45" x="642.382812"/>
     <use xlink:href="#DejaVuSans-70" x="705.566406"/>
     <use xlink:href="#DejaVuSans-6f" x="769.042969"/>
     <use xlink:href="#DejaVuSans-63" x="830.224609"/>
     <use xlink:href="#DejaVuSans-68" x="885.205078"/>
     <use xlink:href="#DejaVuSans-20" x="948.583984"/>
     <use xlink:href="#DejaVuSans-28" x="980.371094"/>
     <use xlink:href="#DejaVuSans-4d" x="1019.384766"/>
     <use xlink:href="#DejaVuSans-65" x="1105.664062"/>
     <use xlink:href="#DejaVuSans-61" x="1167.1875"/>
     <use xlink:href="#DejaVuSans-6e" x="1228.466797"/>
     <use xlink:href="#DejaVuSans-29" x="1291.845703"/>
     <use xlink:href="#DejaVuSans-3a" x="1330.859375"/>
     <use xlink:href="#DejaVuSans-20" x="1364.550781"/>
     <use xlink:href="#DejaVuSans-31" x="1396.337891"/>
     <use xlink:href="#DejaVuSans-32" x="1459.960938"/>
     <use xlink:href="#DejaVuSans-35" x="1523.583984"/>
    </g>
    <!-- Mean Loss: 0.6876 -->
    <g style="fill: #262626" transform="translate(736.075511 52.136256) scale(0.12 -0.12)">
     <defs>
      <path id="DejaVuSans-4c" d="M 628 4666 
L 1259 4666 
L 1259 531 
L 3531 531 
L 3531 0 
L 628 0 
L 628 4666 
z
" transform="scale(0.015625)"/>
     </defs>
     <use xlink:href="#DejaVuSans-4d"/>
     <use xlink:href="#DejaVuSans-65" x="86.279297"/>
     <use xlink:href="#DejaVuSans-61" x="147.802734"/>
     <use xlink:href="#DejaVuSans-6e" x="209.082031"/>
     <use xlink:href="#DejaVuSans-20" x="272.460938"/>
     <use xlink:href="#DejaVuSans-4c" x="304.248047"/>
     <use xlink:href="#DejaVuSans-6f" x="358.210938"/>
     <use xlink:href="#DejaVuSans-73" x="419.392578"/>
     <use xlink:href="#DejaVuSans-73" x="471.492188"/>
     <use xlink:href="#DejaVuSans-3a" x="523.591797"/>
     <use xlink:href="#DejaVuSans-20" x="557.283203"/>
     <use xlink:href="#DejaVuSans-30" x="589.070312"/>
     <use xlink:href="#DejaVuSans-2e" x="652.693359"/>
     <use xlink:href="#DejaVuSans-36" x="684.480469"/>
     <use xlink:href="#DejaVuSans-38" x="748.103516"/>
     <use xlink:href="#DejaVuSans-37" x="811.726562"/>
     <use xlink:href="#DejaVuSans-36" x="875.349609"/>
    </g>
   </g>
   <g id="text_21">
    <!-- Gene Model CV Metrics (Mean  Std across 5 Folds, CV Random State 42) -->
    <g style="fill: #262626" transform="translate(70.955938 23.916562) scale(0.22 -0.22)">
     <defs>
      <path id="DejaVuSans-Bold-47" d="M 4781 347 
Q 4331 128 3847 18 
Q 3363 -91 2847 -91 
Q 1681 -91 1000 561 
Q 319 1213 319 2328 
Q 319 3456 1012 4103 
Q 1706 4750 2913 4750 
Q 3378 4750 3804 4662 
Q 4231 4575 4609 4403 
L 4609 3438 
Q 4219 3659 3833 3768 
Q 3447 3878 3059 3878 
Q 2341 3878 1952 3476 
Q 1563 3075 1563 2328 
Q 1563 1588 1938 1184 
Q 2313 781 3003 781 
Q 3191 781 3352 804 
Q 3513 828 3641 878 
L 3641 1784 
L 2906 1784 
L 2906 2591 
L 4781 2591 
L 4781 347 
z
" transform="scale(0.015625)"/>
      <path id="DejaVuSans-Bold-6e" d="M 4056 2131 
L 4056 0 
L 2931 0 
L 2931 347 
L 2931 1631 
Q 2931 2084 2911 2256 
Q 2891 2428 2841 2509 
Q 2775 2619 2662 2680 
Q 2550 2741 2406 2741 
Q 2056 2741 1856 2470 
Q 1656 2200 1656 1722 
L 1656 0 
L 538 0 
L 538 3500 
L 1656 3500 
L 1656 2988 
Q 1909 3294 2193 3439 
Q 2478 3584 2822 3584 
Q 3428 3584 3742 3212 
Q 4056 2841 4056 2131 
z
" transform="scale(0.015625)"/>
      <path id="DejaVuSans-Bold-64" d="M 2919 2988 
L 2919 4863 
L 4044 4863 
L 4044 0 
L 2919 0 
L 2919 506 
Q 2688 197 2409 53 
Q 2131 -91 1766 -91 
Q 1119 -91 703 423 
Q 288 938 288 1747 
Q 288 2556 703 3070 
Q 1119 3584 1766 3584 
Q 2128 3584 2408 3439 
Q 2688 3294 2919 2988 
z
M 2181 722 
Q 2541 722 2730 984 
Q 2919 1247 2919 1747 
Q 2919 2247 2730 2509 
Q 2541 2772 2181 2772 
Q 1825 2772 1636 2509 
Q 1447 2247 1447 1747 
Q 1447 1247 1636 984 
Q 1825 722 2181 722 
z
" transform="scale(0.015625)"/>
      <path id="DejaVuSans-Bold-43" d="M 4288 256 
Q 3956 84 3597 -3 
Q 3238 -91 2847 -91 
Q 1681 -91 1000 561 
Q 319 1213 319 2328 
Q 319 3447 1000 4098 
Q 1681 4750 2847 4750 
Q 3238 4750 3597 4662 
Q 3956 4575 4288 4403 
L 4288 3438 
Q 3953 3666 3628 3772 
Q 3303 3878 2944 3878 
Q 2300 3878 1931 3465 
Q 1563 3053 1563 2328 
Q 1563 1606 1931 1193 
Q 2300 781 2944 781 
Q 3303 781 3628 887 
Q 3953 994 4288 1222 
L 4288 256 
z
" transform="scale(0.015625)"/>
      <path id="DejaVuSans-Bold-28" d="M 2413 -844 
L 1484 -844 
Q 1006 -72 778 623 
Q 550 1319 550 2003 
Q 550 2688 779 3389 
Q 1009 4091 1484 4856 
L 2413 4856 
Q 2013 4116 1813 3408 
Q 1613 2700 1613 2009 
Q 1613 1319 1811 609 
Q 2009 -100 2413 -844 
z
" transform="scale(0.015625)"/>
      <path id="DejaVuSans-Bold-b1" d="M 3053 4013 
L 3053 2906 
L 4684 2906 
L 4684 2169 
L 3053 2169 
L 3053 1063 
L 2309 1063 
L 2309 2169 
L 678 2169 
L 678 2906 
L 2309 2906 
L 2309 4013 
L 3053 4013 
z
M 678 744 
L 4684 744 
L 4684 0 
L 678 0 
L 678 744 
z
" transform="scale(0.015625)"/>
      <path id="DejaVuSans-Bold-53" d="M 3834 4519 
L 3834 3531 
Q 3450 3703 3084 3790 
Q 2719 3878 2394 3878 
Q 1963 3878 1756 3759 
Q 1550 3641 1550 3391 
Q 1550 3203 1689 3098 
Q 1828 2994 2194 2919 
L 2706 2816 
Q 3484 2659 3812 2340 
Q 4141 2022 4141 1434 
Q 4141 663 3683 286 
Q 3225 -91 2284 -91 
Q 1841 -91 1394 -6 
Q 947 78 500 244 
L 500 1259 
Q 947 1022 1364 901 
Q 1781 781 2169 781 
Q 2563 781 2772 912 
Q 2981 1044 2981 1288 
Q 2981 1506 2839 1625 
Q 2697 1744 2272 1838 
L 1806 1941 
Q 1106 2091 782 2419 
Q 459 2747 459 3303 
Q 459 4000 909 4375 
Q 1359 4750 2203 4750 
Q 2588 4750 2994 4692 
Q 3400 4634 3834 4519 
z
" transform="scale(0.015625)"/>
      <path id="DejaVuSans-Bold-35" d="M 678 4666 
L 3669 4666 
L 3669 3781 
L 1638 3781 
L 1638 3059 
Q 1775 3097 1914 3117 
Q 2053 3138 2203 3138 
Q 3056 3138 3531 2711 
Q 4006 2284 4006 1522 
Q 4006 766 3489 337 
Q 2972 -91 2053 -91 
Q 1656 -91 1267 -14 
Q 878 63 494 219 
L 494 1166 
Q 875 947 1217 837 
Q 1559 728 1863 728 
Q 2300 728 2551 942 
Q 2803 1156 2803 1522 
Q 2803 1891 2551 2103 
Q 2300 2316 1863 2316 
Q 1603 2316 1309 2248 
Q 1016 2181 678 2041 
L 678 4666 
z
" transform="scale(0.015625)"/>
      <path id="DejaVuSans-Bold-46" d="M 588 4666 
L 3834 4666 
L 3834 3756 
L 1791 3756 
L 1791 2888 
L 3713 2888 
L 3713 1978 
L 1791 1978 
L 1791 0 
L 588 0 
L 588 4666 
z
" transform="scale(0.015625)"/>
      <path id="DejaVuSans-Bold-2c" d="M 653 1209 
L 1778 1209 
L 1778 256 
L 1006 -909 
L 341 -909 
L 653 256 
L 653 1209 
z
" transform="scale(0.015625)"/>
      <path id="DejaVuSans-Bold-52" d="M 2297 2597 
Q 2675 2597 2839 2737 
Q 3003 2878 3003 3200 
Q 3003 3519 2839 3656 
Q 2675 3794 2297 3794 
L 1791 3794 
L 1791 2597 
L 2297 2597 
z
M 1791 1766 
L 1791 0 
L 588 0 
L 588 4666 
L 2425 4666 
Q 3347 4666 3776 4356 
Q 4206 4047 4206 3378 
Q 4206 2916 3982 2619 
Q 3759 2322 3309 2181 
Q 3556 2125 3751 1926 
Q 3947 1728 4147 1325 
L 4800 0 
L 3519 0 
L 2950 1159 
Q 2778 1509 2601 1637 
Q 2425 1766 2131 1766 
L 1791 1766 
z
" transform="scale(0.015625)"/>
      <path id="DejaVuSans-Bold-6d" d="M 3781 2919 
Q 3994 3244 4286 3414 
Q 4578 3584 4928 3584 
Q 5531 3584 5847 3212 
Q 6163 2841 6163 2131 
L 6163 0 
L 5038 0 
L 5038 1825 
Q 5041 1866 5042 1909 
Q 5044 1953 5044 2034 
Q 5044 2406 4934 2573 
Q 4825 2741 4581 2741 
Q 4263 2741 4089 2478 
Q 3916 2216 3909 1719 
L 3909 0 
L 2784 0 
L 2784 1825 
Q 2784 2406 2684 2573 
Q 2584 2741 2328 2741 
Q 2006 2741 1831 2477 
Q 1656 2213 1656 1722 
L 1656 0 
L 531 0 
L 531 3500 
L 1656 3500 
L 1656 2988 
Q 1863 3284 2130 3434 
Q 2397 3584 2719 3584 
Q 3081 3584 3359 3409 
Q 3638 3234 3781 2919 
z
" transform="scale(0.015625)"/>
      <path id="DejaVuSans-Bold-34" d="M 2356 3675 
L 1038 1722 
L 2356 1722 
L 2356 3675 
z
M 2156 4666 
L 3494 4666 
L 3494 1722 
L 4159 1722 
L 4159 850 
L 3494 850 
L 3494 0 
L 2356 0 
L 2356 850 
L 288 850 
L 288 1881 
L 2156 4666 
z
" transform="scale(0.015625)"/>
      <path id="DejaVuSans-Bold-32" d="M 1844 884 
L 3897 884 
L 3897 0 
L 506 0 
L 506 884 
L 2209 2388 
Q 2438 2594 2547 2791 
Q 2656 2988 2656 3200 
Q 2656 3528 2436 3728 
Q 2216 3928 1850 3928 
Q 1569 3928 1234 3808 
Q 900 3688 519 3450 
L 519 4475 
Q 925 4609 1322 4679 
Q 1719 4750 2100 4750 
Q 2938 4750 3402 4381 
Q 3866 4013 3866 3353 
Q 3866 2972 3669 2642 
Q 3472 2313 2841 1759 
L 1844 884 
z
" transform="scale(0.015625)"/>
      <path id="DejaVuSans-Bold-29" d="M 513 -844 
Q 913 -100 1113 609 
Q 1313 1319 1313 2009 
Q 1313 2700 1113 3408 
Q 913 4116 513 4856 
L 1441 4856 
Q 1916 4091 2145 3389 
Q 2375 2688 2375 2003 
Q 2375 1319 2147 623 
Q 1919 -72 1441 -844 
L 513 -844 
z
" transform="scale(0.015625)"/>
     </defs>
     <use xlink:href="#DejaVuSans-Bold-47"/>
     <use xlink:href="#DejaVuSans-Bold-65" x="82.080078"/>
     <use xlink:href="#DejaVuSans-Bold-6e" x="149.902344"/>
     <use xlink:href="#DejaVuSans-Bold-65" x="221.09375"/>
     <use xlink:href="#DejaVuSans-Bold-20" x="288.916016"/>
     <use xlink:href="#DejaVuSans-Bold-4d" x="323.730469"/>
     <use xlink:href="#DejaVuSans-Bold-6f" x="423.242188"/>
     <use xlink:href="#DejaVuSans-Bold-64" x="491.943359"/>
     <use xlink:href="#DejaVuSans-Bold-65" x="563.525391"/>
     <use xlink:href="#DejaVuSans-Bold-6c" x="631.347656"/>
     <use xlink:href="#DejaVuSans-Bold-20" x="665.625"/>
     <use xlink:href="#DejaVuSans-Bold-43" x="700.439453"/>
     <use xlink:href="#DejaVuSans-Bold-56" x="773.828125"/>
     <use xlink:href="#DejaVuSans-Bold-20" x="851.220703"/>
     <use xlink:href="#DejaVuSans-Bold-4d" x="886.035156"/>
     <use xlink:href="#DejaVuSans-Bold-65" x="985.546875"/>
     <use xlink:href="#DejaVuSans-Bold-74" x="1053.369141"/>
     <use xlink:href="#DejaVuSans-Bold-72" x="1101.171875"/>
     <use xlink:href="#DejaVuSans-Bold-69" x="1150.488281"/>
     <use xlink:href="#DejaVuSans-Bold-63" x="1184.765625"/>
     <use xlink:href="#DejaVuSans-Bold-73" x="1244.042969"/>
     <use xlink:href="#DejaVuSans-Bold-20" x="1303.564453"/>
     <use xlink:href="#DejaVuSans-Bold-28" x="1338.378906"/>
     <use xlink:href="#DejaVuSans-Bold-4d" x="1384.082031"/>
     <use xlink:href="#DejaVuSans-Bold-65" x="1483.59375"/>
     <use xlink:href="#DejaVuSans-Bold-61" x="1551.416016"/>
     <use xlink:href="#DejaVuSans-Bold-6e" x="1618.896484"/>
     <use xlink:href="#DejaVuSans-Bold-20" x="1690.087891"/>
     <use xlink:href="#DejaVuSans-Bold-b1" x="1724.902344"/>
     <use xlink:href="#DejaVuSans-Bold-20" x="1808.691406"/>
     <use xlink:href="#DejaVuSans-Bold-53" x="1843.505859"/>
     <use xlink:href="#DejaVuSans-Bold-74" x="1915.527344"/>
     <use xlink:href="#DejaVuSans-Bold-64" x="1963.330078"/>
     <use xlink:href="#DejaVuSans-Bold-20" x="2034.912109"/>
     <use xlink:href="#DejaVuSans-Bold-61" x="2069.726562"/>
     <use xlink:href="#DejaVuSans-Bold-63" x="2137.207031"/>
     <use xlink:href="#DejaVuSans-Bold-72" x="2196.484375"/>
     <use xlink:href="#DejaVuSans-Bold-6f" x="2245.800781"/>
     <use xlink:href="#DejaVuSans-Bold-73" x="2314.501953"/>
     <use xlink:href="#DejaVuSans-Bold-73" x="2374.023438"/>
     <use xlink:href="#DejaVuSans-Bold-20" x="2433.544922"/>
     <use xlink:href="#DejaVuSans-Bold-35" x="2468.359375"/>
     <use xlink:href="#DejaVuSans-Bold-20" x="2537.939453"/>
     <use xlink:href="#DejaVuSans-Bold-46" x="2572.753906"/>
     <use xlink:href="#DejaVuSans-Bold-6f" x="2637.064453"/>
     <use xlink:href="#DejaVuSans-Bold-6c" x="2705.765625"/>
     <use xlink:href="#DejaVuSans-Bold-64" x="2740.042969"/>
     <use xlink:href="#DejaVuSans-Bold-73" x="2811.625"/>
     <use xlink:href="#DejaVuSans-Bold-2c" x="2871.146484"/>
     <use xlink:href="#DejaVuSans-Bold-20" x="2909.134766"/>
     <use xlink:href="#DejaVuSans-Bold-43" x="2943.949219"/>
     <use xlink:href="#DejaVuSans-Bold-56" x="3017.337891"/>
     <use xlink:href="#DejaVuSans-Bold-20" x="3094.730469"/>
     <use xlink:href="#DejaVuSans-Bold-52" x="3129.544922"/>
     <use xlink:href="#DejaVuSans-Bold-61" x="3206.546875"/>
     <use xlink:href="#DejaVuSans-Bold-6e" x="3274.027344"/>
     <use xlink:href="#DejaVuSans-Bold-64" x="3345.21875"/>
     <use xlink:href="#DejaVuSans-Bold-6f" x="3416.800781"/>
     <use xlink:href="#DejaVuSans-Bold-6d" x="3485.501953"/>
     <use xlink:href="#DejaVuSans-Bold-20" x="3589.701172"/>
     <use xlink:href="#DejaVuSans-Bold-53" x="3624.515625"/>
     <use xlink:href="#DejaVuSans-Bold-74" x="3696.537109"/>
     <use xlink:href="#DejaVuSans-Bold-61" x="3744.339844"/>
     <use xlink:href="#DejaVuSans-Bold-74" x="3811.820312"/>
     <use xlink:href="#DejaVuSans-Bold-65" x="3859.623047"/>
     <use xlink:href="#DejaVuSans-Bold-20" x="3927.445312"/>
     <use xlink:href="#DejaVuSans-Bold-34" x="3962.259766"/>
     <use xlink:href="#DejaVuSans-Bold-32" x="4031.839844"/>
     <use xlink:href="#DejaVuSans-Bold-29" x="4101.419922"/>
    </g>
   </g>
   <g id="legend_1">
    <g id="patch_8">
     <path d="M 89.88125 483.256563 
L 371.36375 483.256563 
Q 374.56375 483.256563 374.56375 480.056563 
L 374.56375 385.780938 
Q 374.56375 382.580938 371.36375 382.580938 
L 89.88125 382.580938 
Q 86.68125 382.580938 86.68125 385.780938 
L 86.68125 480.056563 
Q 86.68125 483.256563 89.88125 483.256563 
z
" style="fill: #ffffff; opacity: 0.8; stroke: #cccccc; stroke-width: 1.5; stroke-linejoin: miter"/>
    </g>
    <g id="text_22">
     <!-- Metric -->
     <g style="fill: #262626" transform="translate(202.642344 402.658125) scale(0.18 -0.18)">
      <defs>
       <path id="DejaVuSans-69" d="M 603 3500 
L 1178 3500 
L 1178 0 
L 603 0 
L 603 3500 
z
M 603 4863 
L 1178 4863 
L 1178 4134 
L 603 4134 
L 603 4863 
z
" transform="scale(0.015625)"/>
      </defs>
      <use xlink:href="#DejaVuSans-4d"/>
      <use xlink:href="#DejaVuSans-65" x="86.279297"/>
      <use xlink:href="#DejaVuSans-74" x="147.802734"/>
      <use xlink:href="#DejaVuSans-72" x="187.011719"/>
      <use xlink:href="#DejaVuSans-69" x="228.125"/>
      <use xlink:href="#DejaVuSans-63" x="255.908203"/>
     </g>
    </g>
    <g id="line2d_22">
     <path d="M 93.08125 420.959063 
L 109.08125 420.959063 
L 125.08125 420.959063 
" style="fill: none; stroke: #66c2a5; stroke-width: 2.5; stroke-linecap: round"/>
     <g>
      <use xlink:href="#m555a81785b" x="109.08125" y="420.959063" style="fill: #66c2a5; stroke: #66c2a5"/>
     </g>
    </g>
    <g id="text_23">
     <!-- Validation CrossEntropy Loss -->
     <g style="fill: #262626" transform="translate(137.88125 426.559063) scale(0.16 -0.16)">
      <defs>
       <path id="DejaVuSans-56" d="M 1831 0 
L 50 4666 
L 709 4666 
L 2188 738 
L 3669 4666 
L 4325 4666 
L 2547 0 
L 1831 0 
z
" transform="scale(0.015625)"/>
       <path id="DejaVuSans-64" d="M 2906 2969 
L 2906 4863 
L 3481 4863 
L 3481 0 
L 2906 0 
L 2906 525 
Q 2725 213 2448 61 
Q 2172 -91 1784 -91 
Q 1150 -91 751 415 
Q 353 922 353 1747 
Q 353 2572 751 3078 
Q 1150 3584 1784 3584 
Q 2172 3584 2448 3432 
Q 2725 3281 2906 2969 
z
M 947 1747 
Q 947 1113 1208 752 
Q 1469 391 1925 391 
Q 2381 391 2643 752 
Q 2906 1113 2906 1747 
Q 2906 2381 2643 2742 
Q 2381 3103 1925 3103 
Q 1469 3103 1208 2742 
Q 947 2381 947 1747 
z
" transform="scale(0.015625)"/>
       <path id="DejaVuSans-43" d="M 4122 4306 
L 4122 3641 
Q 3803 3938 3442 4084 
Q 3081 4231 2675 4231 
Q 1875 4231 1450 3742 
Q 1025 3253 1025 2328 
Q 1025 1406 1450 917 
Q 1875 428 2675 428 
Q 3081 428 3442 575 
Q 3803 722 4122 1019 
L 4122 359 
Q 3791 134 3420 21 
Q 3050 -91 2638 -91 
Q 1578 -91 968 557 
Q 359 1206 359 2328 
Q 359 3453 968 4101 
Q 1578 4750 2638 4750 
Q 3056 4750 3426 4639 
Q 3797 4528 4122 4306 
z
" transform="scale(0.015625)"/>
       <path id="DejaVuSans-79" d="M 2059 -325 
Q 1816 -950 1584 -1140 
Q 1353 -1331 966 -1331 
L 506 -1331 
L 506 -850 
L 844 -850 
Q 1081 -850 1212 -737 
Q 1344 -625 1503 -206 
L 1606 56 
L 191 3500 
L 800 3500 
L 1894 763 
L 2988 3500 
L 3597 3500 
L 2059 -325 
z
" transform="scale(0.015625)"/>
      </defs>
      <use xlink:href="#DejaVuSans-56"/>
      <use xlink:href="#DejaVuSans-61" x="60.658203"/>
      <use xlink:href="#DejaVuSans-6c" x="121.9375"/>
      <use xlink:href="#DejaVuSans-69" x="149.720703"/>
      <use xlink:href="#DejaVuSans-64" x="177.503906"/>
      <use xlink:href="#DejaVuSans-61" x="240.980469"/>
      <use xlink:href="#DejaVuSans-74" x="302.259766"/>
      <use xlink:href="#DejaVuSans-69" x="341.46875"/>
      <use xlink:href="#DejaVuSans-6f" x="369.251953"/>
      <use xlink:href="#DejaVuSans-6e" x="430.433594"/>
      <use xlink:href="#DejaVuSans-20" x="493.8125"/>
      <use xlink:href="#DejaVuSans-43" x="525.599609"/>
      <use xlink:href="#DejaVuSans-72" x="595.423828"/>
      <use xlink:href="#DejaVuSans-6f" x="634.287109"/>
      <use xlink:href="#DejaVuSans-73" x="695.46875"/>
      <use xlink:href="#DejaVuSans-73" x="747.568359"/>
      <use xlink:href="#DejaVuSans-45" x="799.667969"/>
      <use xlink:href="#DejaVuSans-6e" x="862.851562"/>
      <use xlink:href="#DejaVuSans-74" x="926.230469"/>
      <use xlink:href="#DejaVuSans-72" x="965.439453"/>
      <use xlink:href="#DejaVuSans-6f" x="1004.302734"/>
      <use xlink:href="#DejaVuSans-70" x="1065.484375"/>
      <use xlink:href="#DejaVuSans-79" x="1128.960938"/>
      <use xlink:href="#DejaVuSans-20" x="1188.140625"/>
      <use xlink:href="#DejaVuSans-4c" x="1219.927734"/>
      <use xlink:href="#DejaVuSans-6f" x="1273.890625"/>
      <use xlink:href="#DejaVuSans-73" x="1335.072266"/>
      <use xlink:href="#DejaVuSans-73" x="1387.171875"/>
     </g>
    </g>
    <g id="line2d_23">
     <path d="M 93.08125 444.444063 
L 109.08125 444.444063 
L 125.08125 444.444063 
" style="fill: none; stroke: #fc8d62; stroke-width: 2.5; stroke-linecap: round"/>
     <g>
      <use xlink:href="#mde5179b001" x="109.08125" y="444.444063" style="fill: #fc8d62; stroke: #fc8d62; stroke-linejoin: miter"/>
     </g>
    </g>
    <g id="text_24">
     <!-- Validation Accuracy -->
     <g style="fill: #262626" transform="translate(137.88125 450.044063) scale(0.16 -0.16)">
      <defs>
       <path id="DejaVuSans-41" d="M 2188 4044 
L 1331 1722 
L 3047 1722 
L 2188 4044 
z
M 1831 4666 
L 2547 4666 
L 4325 0 
L 3669 0 
L 3244 1197 
L 1141 1197 
L 716 0 
L 50 0 
L 1831 4666 
z
" transform="scale(0.015625)"/>
       <path id="DejaVuSans-75" d="M 544 1381 
L 544 3500 
L 1119 3500 
L 1119 1403 
Q 1119 906 1312 657 
Q 1506 409 1894 409 
Q 2359 409 2629 706 
Q 2900 1003 2900 1516 
L 2900 3500 
L 3475 3500 
L 3475 0 
L 2900 0 
L 2900 538 
Q 2691 219 2414 64 
Q 2138 -91 1772 -91 
Q 1169 -91 856 284 
Q 544 659 544 1381 
z
M 1991 3584 
L 1991 3584 
z
" transform="scale(0.015625)"/>
      </defs>
      <use xlink:href="#DejaVuSans-56"/>
      <use xlink:href="#DejaVuSans-61" x="60.658203"/>
      <use xlink:href="#DejaVuSans-6c" x="121.9375"/>
      <use xlink:href="#DejaVuSans-69" x="149.720703"/>
      <use xlink:href="#DejaVuSans-64" x="177.503906"/>
      <use xlink:href="#DejaVuSans-61" x="240.980469"/>
      <use xlink:href="#DejaVuSans-74" x="302.259766"/>
      <use xlink:href="#DejaVuSans-69" x="341.46875"/>
      <use xlink:href="#DejaVuSans-6f" x="369.251953"/>
      <use xlink:href="#DejaVuSans-6e" x="430.433594"/>
      <use xlink:href="#DejaVuSans-20" x="493.8125"/>
      <use xlink:href="#DejaVuSans-41" x="525.599609"/>
      <use xlink:href="#DejaVuSans-63" x="592.257812"/>
      <use xlink:href="#DejaVuSans-63" x="647.238281"/>
      <use xlink:href="#DejaVuSans-75" x="702.21875"/>
      <use xlink:href="#DejaVuSans-72" x="765.597656"/>
      <use xlink:href="#DejaVuSans-61" x="806.710938"/>
      <use xlink:href="#DejaVuSans-63" x="867.990234"/>
      <use xlink:href="#DejaVuSans-79" x="922.970703"/>
     </g>
    </g>
    <g id="line2d_24">
     <path d="M 93.08125 467.929063 
L 109.08125 467.929063 
L 125.08125 467.929063 
" style="fill: none; stroke: #8da0cb; stroke-width: 2.5; stroke-linecap: round"/>
     <g>
      <use xlink:href="#mcc9969d28d" x="109.08125" y="467.929063" style="fill: #8da0cb; stroke: #8da0cb; stroke-linejoin: miter"/>
     </g>
    </g>
    <g id="text_25">
     <!-- Validation F1 Score (Macro) -->
     <g style="fill: #262626" transform="translate(137.88125 473.529063) scale(0.16 -0.16)">
      <defs>
       <path id="DejaVuSans-46" d="M 628 4666 
L 3309 4666 
L 3309 4134 
L 1259 4134 
L 1259 2759 
L 3109 2759 
L 3109 2228 
L 1259 2228 
L 1259 0 
L 628 0 
L 628 4666 
z
" transform="scale(0.015625)"/>
       <path id="DejaVuSans-53" d="M 3425 4513 
L 3425 3897 
Q 3066 4069 2747 4153 
Q 2428 4238 2131 4238 
Q 1616 4238 1336 4038 
Q 1056 3838 1056 3469 
Q 1056 3159 1242 3001 
Q 1428 2844 1947 2747 
L 2328 2669 
Q 3034 2534 3370 2195 
Q 3706 1856 3706 1288 
Q 3706 609 3251 259 
Q 2797 -91 1919 -91 
Q 1588 -91 1214 -16 
Q 841 59 441 206 
L 441 856 
Q 825 641 1194 531 
Q 1563 422 1919 422 
Q 2459 422 2753 634 
Q 3047 847 3047 1241 
Q 3047 1584 2836 1778 
Q 2625 1972 2144 2069 
L 1759 2144 
Q 1053 2284 737 2584 
Q 422 2884 422 3419 
Q 422 4038 858 4394 
Q 1294 4750 2059 4750 
Q 2388 4750 2728 4690 
Q 3069 4631 3425 4513 
z
" transform="scale(0.015625)"/>
      </defs>
      <use xlink:href="#DejaVuSans-56"/>
      <use xlink:href="#DejaVuSans-61" x="60.658203"/>
      <use xlink:href="#DejaVuSans-6c" x="121.9375"/>
      <use xlink:href="#DejaVuSans-69" x="149.720703"/>
      <use xlink:href="#DejaVuSans-64" x="177.503906"/>
      <use xlink:href="#DejaVuSans-61" x="240.980469"/>
      <use xlink:href="#DejaVuSans-74" x="302.259766"/>
      <use xlink:href="#DejaVuSans-69" x="341.46875"/>
      <use xlink:href="#DejaVuSans-6f" x="369.251953"/>
      <use xlink:href="#DejaVuSans-6e" x="430.433594"/>
      <use xlink:href="#DejaVuSans-20" x="493.8125"/>
      <use xlink:href="#DejaVuSans-46" x="525.599609"/>
      <use xlink:href="#DejaVuSans-31" x="583.119141"/>
      <use xlink:href="#DejaVuSans-20" x="646.742188"/>
      <use xlink:href="#DejaVuSans-53" x="678.529297"/>
      <use xlink:href="#DejaVuSans-63" x="742.005859"/>
      <use xlink:href="#DejaVuSans-6f" x="796.986328"/>
      <use xlink:href="#DejaVuSans-72" x="858.167969"/>
      <use xlink:href="#DejaVuSans-65" x="897.03125"/>
      <use xlink:href="#DejaVuSans-20" x="958.554688"/>
      <use xlink:href="#DejaVuSans-28" x="990.341797"/>
      <use xlink:href="#DejaVuSans-4d" x="1029.355469"/>
      <use xlink:href="#DejaVuSans-61" x="1115.634766"/>
      <use xlink:href="#DejaVuSans-63" x="1176.914062"/>
      <use xlink:href="#DejaVuSans-72" x="1231.894531"/>
      <use xlink:href="#DejaVuSans-6f" x="1270.757812"/>
      <use xlink:href="#DejaVuSans-29" x="1331.939453"/>
     </g>
    </g>
   </g>
  </g>
 </g>
 <defs>
  <clipPath id="p45c0910349">
   <rect x="78.68125" y="29.916562" width="896.91" height="461.34"/>
  </clipPath>
 </defs>
</svg>
