<?xml version="1.0" encoding="utf-8" standalone="no"?>
<!DOCTYPE svg PUBLIC "-//W3C//DTD SVG 1.1//EN"
  "http://www.w3.org/Graphics/SVG/1.1/DTD/svg11.dtd">
<svg xmlns:xlink="http://www.w3.org/1999/xlink" width="982.78125pt" height="549.797813pt" viewBox="0 0 982.78125 549.797813" xmlns="http://www.w3.org/2000/svg" version="1.1">
 <metadata>
  <rdf:RDF xmlns:dc="http://purl.org/dc/elements/1.1/" xmlns:cc="http://creativecommons.org/ns#" xmlns:rdf="http://www.w3.org/1999/02/22-rdf-syntax-ns#">
   <cc:Work>
    <dc:type rdf:resource="http://purl.org/dc/dcmitype/StillImage"/>
    <dc:date>2025-08-09T18:48:37.001451</dc:date>
    <dc:format>image/svg+xml</dc:format>
    <dc:creator>
     <cc:Agent>
      <dc:title>Matplotlib v3.8.4, https://matplotlib.org/</dc:title>
     </cc:Agent>
    </dc:creator>
   </cc:Work>
  </rdf:RDF>
 </metadata>
 <defs>
  <style type="text/css">*{stroke-linejoin: round; stroke-linecap: butt}</style>
 </defs>
 <g id="figure_1">
  <g id="patch_1">
   <path d="M 0 549.797813 
L 982.78125 549.797813 
L 982.78125 0 
L 0 0 
z
" style="fill: #ffffff"/>
  </g>
  <g id="axes_1">
   <g id="patch_2">
    <path d="M 68.50125 491.256563 
L 975.58125 491.256563 
L 975.58125 29.916562 
L 68.50125 29.916562 
z
" style="fill: #ffffff"/>
   </g>
   <g id="matplotlib.axis_1">
    <g id="xtick_1">
     <g id="line2d_1">
      <path d="M 92.903217 491.256563 
L 92.903217 29.916562 
" clip-path="url(#p04dbb4b090)" style="fill: none; stroke-dasharray: 5.55,2.4; stroke-dashoffset: 0; stroke: #cccccc; stroke-opacity: 0.7; stroke-width: 1.5"/>
     </g>
     <g id="text_1">
      <!-- 0 -->
      <g style="fill: #262626" transform="translate(87.813217 515.914063) scale(0.16 -0.16)">
       <defs>
        <path id="DejaVuSans-30" d="M 2034 4250 
Q 1547 4250 1301 3770 
Q 1056 3291 1056 2328 
Q 1056 1369 1301 889 
Q 1547 409 2034 409 
Q 2525 409 2770 889 
Q 3016 1369 3016 2328 
Q 3016 3291 2770 3770 
Q 2525 4250 2034 4250 
z
M 2034 4750 
Q 2819 4750 3233 4129 
Q 3647 3509 3647 2328 
Q 3647 1150 3233 529 
Q 2819 -91 2034 -91 
Q 1250 -91 836 529 
Q 422 1150 422 2328 
Q 422 3509 836 4129 
Q 1250 4750 2034 4750 
z
" transform="scale(0.015625)"/>
       </defs>
       <use xlink:href="#DejaVuSans-30"/>
      </g>
     </g>
    </g>
    <g id="xtick_2">
     <g id="line2d_2">
      <path d="M 261.192641 491.256563 
L 261.192641 29.916562 
" clip-path="url(#p04dbb4b090)" style="fill: none; stroke-dasharray: 5.55,2.4; stroke-dashoffset: 0; stroke: #cccccc; stroke-opacity: 0.7; stroke-width: 1.5"/>
     </g>
     <g id="text_2">
      <!-- 10 -->
      <g style="fill: #262626" transform="translate(251.012641 515.914063) scale(0.16 -0.16)">
       <defs>
        <path id="DejaVuSans-31" d="M 794 531 
L 1825 531 
L 1825 4091 
L 703 3866 
L 703 4441 
L 1819 4666 
L 2450 4666 
L 2450 531 
L 3481 531 
L 3481 0 
L 794 0 
L 794 531 
z
" transform="scale(0.015625)"/>
       </defs>
       <use xlink:href="#DejaVuSans-31"/>
       <use xlink:href="#DejaVuSans-30" x="63.623047"/>
      </g>
     </g>
    </g>
    <g id="xtick_3">
     <g id="line2d_3">
      <path d="M 429.482066 491.256563 
L 429.482066 29.916562 
" clip-path="url(#p04dbb4b090)" style="fill: none; stroke-dasharray: 5.55,2.4; stroke-dashoffset: 0; stroke: #cccccc; stroke-opacity: 0.7; stroke-width: 1.5"/>
     </g>
     <g id="text_3">
      <!-- 20 -->
      <g style="fill: #262626" transform="translate(419.302066 515.914063) scale(0.16 -0.16)">
       <defs>
        <path id="DejaVuSans-32" d="M 1228 531 
L 3431 531 
L 3431 0 
L 469 0 
L 469 531 
Q 828 903 1448 1529 
Q 2069 2156 2228 2338 
Q 2531 2678 2651 2914 
Q 2772 3150 2772 3378 
Q 2772 3750 2511 3984 
Q 2250 4219 1831 4219 
Q 1534 4219 1204 4116 
Q 875 4013 500 3803 
L 500 4441 
Q 881 4594 1212 4672 
Q 1544 4750 1819 4750 
Q 2544 4750 2975 4387 
Q 3406 4025 3406 3419 
Q 3406 3131 3298 2873 
Q 3191 2616 2906 2266 
Q 2828 2175 2409 1742 
Q 1991 1309 1228 531 
z
" transform="scale(0.015625)"/>
       </defs>
       <use xlink:href="#DejaVuSans-32"/>
       <use xlink:href="#DejaVuSans-30" x="63.623047"/>
      </g>
     </g>
    </g>
    <g id="xtick_4">
     <g id="line2d_4">
      <path d="M 597.771491 491.256563 
L 597.771491 29.916562 
" clip-path="url(#p04dbb4b090)" style="fill: none; stroke-dasharray: 5.55,2.4; stroke-dashoffset: 0; stroke: #cccccc; stroke-opacity: 0.7; stroke-width: 1.5"/>
     </g>
     <g id="text_4">
      <!-- 30 -->
      <g style="fill: #262626" transform="translate(587.591491 515.914063) scale(0.16 -0.16)">
       <defs>
        <path id="DejaVuSans-33" d="M 2597 2516 
Q 3050 2419 3304 2112 
Q 3559 1806 3559 1356 
Q 3559 666 3084 287 
Q 2609 -91 1734 -91 
Q 1441 -91 1130 -33 
Q 819 25 488 141 
L 488 750 
Q 750 597 1062 519 
Q 1375 441 1716 441 
Q 2309 441 2620 675 
Q 2931 909 2931 1356 
Q 2931 1769 2642 2001 
Q 2353 2234 1838 2234 
L 1294 2234 
L 1294 2753 
L 1863 2753 
Q 2328 2753 2575 2939 
Q 2822 3125 2822 3475 
Q 2822 3834 2567 4026 
Q 2313 4219 1838 4219 
Q 1578 4219 1281 4162 
Q 984 4106 628 3988 
L 628 4550 
Q 988 4650 1302 4700 
Q 1616 4750 1894 4750 
Q 2613 4750 3031 4423 
Q 3450 4097 3450 3541 
Q 3450 3153 3228 2886 
Q 3006 2619 2597 2516 
z
" transform="scale(0.015625)"/>
       </defs>
       <use xlink:href="#DejaVuSans-33"/>
       <use xlink:href="#DejaVuSans-30" x="63.623047"/>
      </g>
     </g>
    </g>
    <g id="xtick_5">
     <g id="line2d_5">
      <path d="M 766.060916 491.256563 
L 766.060916 29.916562 
" clip-path="url(#p04dbb4b090)" style="fill: none; stroke-dasharray: 5.55,2.4; stroke-dashoffset: 0; stroke: #cccccc; stroke-opacity: 0.7; stroke-width: 1.5"/>
     </g>
     <g id="text_5">
      <!-- 40 -->
      <g style="fill: #262626" transform="translate(755.880916 515.914063) scale(0.16 -0.16)">
       <defs>
        <path id="DejaVuSans-34" d="M 2419 4116 
L 825 1625 
L 2419 1625 
L 2419 4116 
z
M 2253 4666 
L 3047 4666 
L 3047 1625 
L 3713 1625 
L 3713 1100 
L 3047 1100 
L 3047 0 
L 2419 0 
L 2419 1100 
L 313 1100 
L 313 1709 
L 2253 4666 
z
" transform="scale(0.015625)"/>
       </defs>
       <use xlink:href="#DejaVuSans-34"/>
       <use xlink:href="#DejaVuSans-30" x="63.623047"/>
      </g>
     </g>
    </g>
    <g id="xtick_6">
     <g id="line2d_6">
      <path d="M 934.350341 491.256563 
L 934.350341 29.916562 
" clip-path="url(#p04dbb4b090)" style="fill: none; stroke-dasharray: 5.55,2.4; stroke-dashoffset: 0; stroke: #cccccc; stroke-opacity: 0.7; stroke-width: 1.5"/>
     </g>
     <g id="text_6">
      <!-- 50 -->
      <g style="fill: #262626" transform="translate(924.170341 515.914063) scale(0.16 -0.16)">
       <defs>
        <path id="DejaVuSans-35" d="M 691 4666 
L 3169 4666 
L 3169 4134 
L 1269 4134 
L 1269 2991 
Q 1406 3038 1543 3061 
Q 1681 3084 1819 3084 
Q 2600 3084 3056 2656 
Q 3513 2228 3513 1497 
Q 3513 744 3044 326 
Q 2575 -91 1722 -91 
Q 1428 -91 1123 -41 
Q 819 9 494 109 
L 494 744 
Q 775 591 1075 516 
Q 1375 441 1709 441 
Q 2250 441 2565 725 
Q 2881 1009 2881 1497 
Q 2881 1984 2565 2268 
Q 2250 2553 1709 2553 
Q 1456 2553 1204 2497 
Q 953 2441 691 2322 
L 691 4666 
z
" transform="scale(0.015625)"/>
       </defs>
       <use xlink:href="#DejaVuSans-35"/>
       <use xlink:href="#DejaVuSans-30" x="63.623047"/>
      </g>
     </g>
    </g>
    <g id="text_7">
     <!-- Epochs -->
     <g style="fill: #262626" transform="translate(486.21 538.438438) scale(0.2 -0.2)">
      <defs>
       <path id="DejaVuSans-45" d="M 628 4666 
L 3578 4666 
L 3578 4134 
L 1259 4134 
L 1259 2753 
L 3481 2753 
L 3481 2222 
L 1259 2222 
L 1259 531 
L 3634 531 
L 3634 0 
L 628 0 
L 628 4666 
z
" transform="scale(0.015625)"/>
       <path id="DejaVuSans-70" d="M 1159 525 
L 1159 -1331 
L 581 -1331 
L 581 3500 
L 1159 3500 
L 1159 2969 
Q 1341 3281 1617 3432 
Q 1894 3584 2278 3584 
Q 2916 3584 3314 3078 
Q 3713 2572 3713 1747 
Q 3713 922 3314 415 
Q 2916 -91 2278 -91 
Q 1894 -91 1617 61 
Q 1341 213 1159 525 
z
M 3116 1747 
Q 3116 2381 2855 2742 
Q 2594 3103 2138 3103 
Q 1681 3103 1420 2742 
Q 1159 2381 1159 1747 
Q 1159 1113 1420 752 
Q 1681 391 2138 391 
Q 2594 391 2855 752 
Q 3116 1113 3116 1747 
z
" transform="scale(0.015625)"/>
       <path id="DejaVuSans-6f" d="M 1959 3097 
Q 1497 3097 1228 2736 
Q 959 2375 959 1747 
Q 959 1119 1226 758 
Q 1494 397 1959 397 
Q 2419 397 2687 759 
Q 2956 1122 2956 1747 
Q 2956 2369 2687 2733 
Q 2419 3097 1959 3097 
z
M 1959 3584 
Q 2709 3584 3137 3096 
Q 3566 2609 3566 1747 
Q 3566 888 3137 398 
Q 2709 -91 1959 -91 
Q 1206 -91 779 398 
Q 353 888 353 1747 
Q 353 2609 779 3096 
Q 1206 3584 1959 3584 
z
" transform="scale(0.015625)"/>
       <path id="DejaVuSans-63" d="M 3122 3366 
L 3122 2828 
Q 2878 2963 2633 3030 
Q 2388 3097 2138 3097 
Q 1578 3097 1268 2742 
Q 959 2388 959 1747 
Q 959 1106 1268 751 
Q 1578 397 2138 397 
Q 2388 397 2633 464 
Q 2878 531 3122 666 
L 3122 134 
Q 2881 22 2623 -34 
Q 2366 -91 2075 -91 
Q 1284 -91 818 406 
Q 353 903 353 1747 
Q 353 2603 823 3093 
Q 1294 3584 2113 3584 
Q 2378 3584 2631 3529 
Q 2884 3475 3122 3366 
z
" transform="scale(0.015625)"/>
       <path id="DejaVuSans-68" d="M 3513 2113 
L 3513 0 
L 2938 0 
L 2938 2094 
Q 2938 2591 2744 2837 
Q 2550 3084 2163 3084 
Q 1697 3084 1428 2787 
Q 1159 2491 1159 1978 
L 1159 0 
L 581 0 
L 581 4863 
L 1159 4863 
L 1159 2956 
Q 1366 3272 1645 3428 
Q 1925 3584 2291 3584 
Q 2894 3584 3203 3211 
Q 3513 2838 3513 2113 
z
" transform="scale(0.015625)"/>
       <path id="DejaVuSans-73" d="M 2834 3397 
L 2834 2853 
Q 2591 2978 2328 3040 
Q 2066 3103 1784 3103 
Q 1356 3103 1142 2972 
Q 928 2841 928 2578 
Q 928 2378 1081 2264 
Q 1234 2150 1697 2047 
L 1894 2003 
Q 2506 1872 2764 1633 
Q 3022 1394 3022 966 
Q 3022 478 2636 193 
Q 2250 -91 1575 -91 
Q 1294 -91 989 -36 
Q 684 19 347 128 
L 347 722 
Q 666 556 975 473 
Q 1284 391 1588 391 
Q 1994 391 2212 530 
Q 2431 669 2431 922 
Q 2431 1156 2273 1281 
Q 2116 1406 1581 1522 
L 1381 1569 
Q 847 1681 609 1914 
Q 372 2147 372 2553 
Q 372 3047 722 3315 
Q 1072 3584 1716 3584 
Q 2034 3584 2315 3537 
Q 2597 3491 2834 3397 
z
" transform="scale(0.015625)"/>
      </defs>
      <use xlink:href="#DejaVuSans-45"/>
      <use xlink:href="#DejaVuSans-70" x="63.183594"/>
      <use xlink:href="#DejaVuSans-6f" x="126.660156"/>
      <use xlink:href="#DejaVuSans-63" x="187.841797"/>
      <use xlink:href="#DejaVuSans-68" x="242.822266"/>
      <use xlink:href="#DejaVuSans-73" x="306.201172"/>
     </g>
    </g>
   </g>
   <g id="matplotlib.axis_2">
    <g id="ytick_1">
     <g id="line2d_7">
      <path d="M 68.50125 490.072931 
L 975.58125 490.072931 
" clip-path="url(#p04dbb4b090)" style="fill: none; stroke-dasharray: 5.55,2.4; stroke-dashoffset: 0; stroke: #cccccc; stroke-opacity: 0.7; stroke-width: 1.5"/>
     </g>
     <g id="text_8">
      <!-- 0.1 -->
      <g style="fill: #262626" transform="translate(30.55625 496.151681) scale(0.16 -0.16)">
       <defs>
        <path id="DejaVuSans-2e" d="M 684 794 
L 1344 794 
L 1344 0 
L 684 0 
L 684 794 
z
" transform="scale(0.015625)"/>
       </defs>
       <use xlink:href="#DejaVuSans-30"/>
       <use xlink:href="#DejaVuSans-2e" x="63.623047"/>
       <use xlink:href="#DejaVuSans-31" x="95.410156"/>
      </g>
     </g>
    </g>
    <g id="ytick_2">
     <g id="line2d_8">
      <path d="M 68.50125 419.407554 
L 975.58125 419.407554 
" clip-path="url(#p04dbb4b090)" style="fill: none; stroke-dasharray: 5.55,2.4; stroke-dashoffset: 0; stroke: #cccccc; stroke-opacity: 0.7; stroke-width: 1.5"/>
     </g>
     <g id="text_9">
      <!-- 0.2 -->
      <g style="fill: #262626" transform="translate(30.55625 425.486304) scale(0.16 -0.16)">
       <use xlink:href="#DejaVuSans-30"/>
       <use xlink:href="#DejaVuSans-2e" x="63.623047"/>
       <use xlink:href="#DejaVuSans-32" x="95.410156"/>
      </g>
     </g>
    </g>
    <g id="ytick_3">
     <g id="line2d_9">
      <path d="M 68.50125 348.742176 
L 975.58125 348.742176 
" clip-path="url(#p04dbb4b090)" style="fill: none; stroke-dasharray: 5.55,2.4; stroke-dashoffset: 0; stroke: #cccccc; stroke-opacity: 0.7; stroke-width: 1.5"/>
     </g>
     <g id="text_10">
      <!-- 0.3 -->
      <g style="fill: #262626" transform="translate(30.55625 354.820926) scale(0.16 -0.16)">
       <use xlink:href="#DejaVuSans-30"/>
       <use xlink:href="#DejaVuSans-2e" x="63.623047"/>
       <use xlink:href="#DejaVuSans-33" x="95.410156"/>
      </g>
     </g>
    </g>
    <g id="ytick_4">
     <g id="line2d_10">
      <path d="M 68.50125 278.076798 
L 975.58125 278.076798 
" clip-path="url(#p04dbb4b090)" style="fill: none; stroke-dasharray: 5.55,2.4; stroke-dashoffset: 0; stroke: #cccccc; stroke-opacity: 0.7; stroke-width: 1.5"/>
     </g>
     <g id="text_11">
      <!-- 0.4 -->
      <g style="fill: #262626" transform="translate(30.55625 284.155548) scale(0.16 -0.16)">
       <use xlink:href="#DejaVuSans-30"/>
       <use xlink:href="#DejaVuSans-2e" x="63.623047"/>
       <use xlink:href="#DejaVuSans-34" x="95.410156"/>
      </g>
     </g>
    </g>
    <g id="ytick_5">
     <g id="line2d_11">
      <path d="M 68.50125 207.411421 
L 975.58125 207.411421 
" clip-path="url(#p04dbb4b090)" style="fill: none; stroke-dasharray: 5.55,2.4; stroke-dashoffset: 0; stroke: #cccccc; stroke-opacity: 0.7; stroke-width: 1.5"/>
     </g>
     <g id="text_12">
      <!-- 0.5 -->
      <g style="fill: #262626" transform="translate(30.55625 213.490171) scale(0.16 -0.16)">
       <use xlink:href="#DejaVuSans-30"/>
       <use xlink:href="#DejaVuSans-2e" x="63.623047"/>
       <use xlink:href="#DejaVuSans-35" x="95.410156"/>
      </g>
     </g>
    </g>
    <g id="ytick_6">
     <g id="line2d_12">
      <path d="M 68.50125 136.746043 
L 975.58125 136.746043 
" clip-path="url(#p04dbb4b090)" style="fill: none; stroke-dasharray: 5.55,2.4; stroke-dashoffset: 0; stroke: #cccccc; stroke-opacity: 0.7; stroke-width: 1.5"/>
     </g>
     <g id="text_13">
      <!-- 0.6 -->
      <g style="fill: #262626" transform="translate(30.55625 142.824793) scale(0.16 -0.16)">
       <defs>
        <path id="DejaVuSans-36" d="M 2113 2584 
Q 1688 2584 1439 2293 
Q 1191 2003 1191 1497 
Q 1191 994 1439 701 
Q 1688 409 2113 409 
Q 2538 409 2786 701 
Q 3034 994 3034 1497 
Q 3034 2003 2786 2293 
Q 2538 2584 2113 2584 
z
M 3366 4563 
L 3366 3988 
Q 3128 4100 2886 4159 
Q 2644 4219 2406 4219 
Q 1781 4219 1451 3797 
Q 1122 3375 1075 2522 
Q 1259 2794 1537 2939 
Q 1816 3084 2150 3084 
Q 2853 3084 3261 2657 
Q 3669 2231 3669 1497 
Q 3669 778 3244 343 
Q 2819 -91 2113 -91 
Q 1303 -91 875 529 
Q 447 1150 447 2328 
Q 447 3434 972 4092 
Q 1497 4750 2381 4750 
Q 2619 4750 2861 4703 
Q 3103 4656 3366 4563 
z
" transform="scale(0.015625)"/>
       </defs>
       <use xlink:href="#DejaVuSans-30"/>
       <use xlink:href="#DejaVuSans-2e" x="63.623047"/>
       <use xlink:href="#DejaVuSans-36" x="95.410156"/>
      </g>
     </g>
    </g>
    <g id="ytick_7">
     <g id="line2d_13">
      <path d="M 68.50125 66.080665 
L 975.58125 66.080665 
" clip-path="url(#p04dbb4b090)" style="fill: none; stroke-dasharray: 5.55,2.4; stroke-dashoffset: 0; stroke: #cccccc; stroke-opacity: 0.7; stroke-width: 1.5"/>
     </g>
     <g id="text_14">
      <!-- 0.7 -->
      <g style="fill: #262626" transform="translate(30.55625 72.159415) scale(0.16 -0.16)">
       <defs>
        <path id="DejaVuSans-37" d="M 525 4666 
L 3525 4666 
L 3525 4397 
L 1831 0 
L 1172 0 
L 2766 4134 
L 525 4134 
L 525 4666 
z
" transform="scale(0.015625)"/>
       </defs>
       <use xlink:href="#DejaVuSans-30"/>
       <use xlink:href="#DejaVuSans-2e" x="63.623047"/>
       <use xlink:href="#DejaVuSans-37" x="95.410156"/>
      </g>
     </g>
    </g>
    <g id="text_15">
     <!-- Metric Value -->
     <g style="fill: #262626" transform="translate(22.396875 322.31625) rotate(-90) scale(0.2 -0.2)">
      <defs>
       <path id="DejaVuSans-4d" d="M 628 4666 
L 1569 4666 
L 2759 1491 
L 3956 4666 
L 4897 4666 
L 4897 0 
L 4281 0 
L 4281 4097 
L 3078 897 
L 2444 897 
L 1241 4097 
L 1241 0 
L 628 0 
L 628 4666 
z
" transform="scale(0.015625)"/>
       <path id="DejaVuSans-65" d="M 3597 1894 
L 3597 1613 
L 953 1613 
Q 991 1019 1311 708 
Q 1631 397 2203 397 
Q 2534 397 2845 478 
Q 3156 559 3463 722 
L 3463 178 
Q 3153 47 2828 -22 
Q 2503 -91 2169 -91 
Q 1331 -91 842 396 
Q 353 884 353 1716 
Q 353 2575 817 3079 
Q 1281 3584 2069 3584 
Q 2775 3584 3186 3129 
Q 3597 2675 3597 1894 
z
M 3022 2063 
Q 3016 2534 2758 2815 
Q 2500 3097 2075 3097 
Q 1594 3097 1305 2825 
Q 1016 2553 972 2059 
L 3022 2063 
z
" transform="scale(0.015625)"/>
       <path id="DejaVuSans-74" d="M 1172 4494 
L 1172 3500 
L 2356 3500 
L 2356 3053 
L 1172 3053 
L 1172 1153 
Q 1172 725 1289 603 
Q 1406 481 1766 481 
L 2356 481 
L 2356 0 
L 1766 0 
Q 1100 0 847 248 
Q 594 497 594 1153 
L 594 3053 
L 172 3053 
L 172 3500 
L 594 3500 
L 594 4494 
L 1172 4494 
z
" transform="scale(0.015625)"/>
       <path id="DejaVuSans-72" d="M 2631 2963 
Q 2534 3019 2420 3045 
Q 2306 3072 2169 3072 
Q 1681 3072 1420 2755 
Q 1159 2438 1159 1844 
L 1159 0 
L 581 0 
L 581 3500 
L 1159 3500 
L 1159 2956 
Q 1341 3275 1631 3429 
Q 1922 3584 2338 3584 
Q 2397 3584 2469 3576 
Q 2541 3569 2628 3553 
L 2631 2963 
z
" transform="scale(0.015625)"/>
       <path id="DejaVuSans-69" d="M 603 3500 
L 1178 3500 
L 1178 0 
L 603 0 
L 603 3500 
z
M 603 4863 
L 1178 4863 
L 1178 4134 
L 603 4134 
L 603 4863 
z
" transform="scale(0.015625)"/>
       <path id="DejaVuSans-20" transform="scale(0.015625)"/>
       <path id="DejaVuSans-56" d="M 1831 0 
L 50 4666 
L 709 4666 
L 2188 738 
L 3669 4666 
L 4325 4666 
L 2547 0 
L 1831 0 
z
" transform="scale(0.015625)"/>
       <path id="DejaVuSans-61" d="M 2194 1759 
Q 1497 1759 1228 1600 
Q 959 1441 959 1056 
Q 959 750 1161 570 
Q 1363 391 1709 391 
Q 2188 391 2477 730 
Q 2766 1069 2766 1631 
L 2766 1759 
L 2194 1759 
z
M 3341 1997 
L 3341 0 
L 2766 0 
L 2766 531 
Q 2569 213 2275 61 
Q 1981 -91 1556 -91 
Q 1019 -91 701 211 
Q 384 513 384 1019 
Q 384 1609 779 1909 
Q 1175 2209 1959 2209 
L 2766 2209 
L 2766 2266 
Q 2766 2663 2505 2880 
Q 2244 3097 1772 3097 
Q 1472 3097 1187 3025 
Q 903 2953 641 2809 
L 641 3341 
Q 956 3463 1253 3523 
Q 1550 3584 1831 3584 
Q 2591 3584 2966 3190 
Q 3341 2797 3341 1997 
z
" transform="scale(0.015625)"/>
       <path id="DejaVuSans-6c" d="M 603 4863 
L 1178 4863 
L 1178 0 
L 603 0 
L 603 4863 
z
" transform="scale(0.015625)"/>
       <path id="DejaVuSans-75" d="M 544 1381 
L 544 3500 
L 1119 3500 
L 1119 1403 
Q 1119 906 1312 657 
Q 1506 409 1894 409 
Q 2359 409 2629 706 
Q 2900 1003 2900 1516 
L 2900 3500 
L 3475 3500 
L 3475 0 
L 2900 0 
L 2900 538 
Q 2691 219 2414 64 
Q 2138 -91 1772 -91 
Q 1169 -91 856 284 
Q 544 659 544 1381 
z
M 1991 3584 
L 1991 3584 
z
" transform="scale(0.015625)"/>
      </defs>
      <use xlink:href="#DejaVuSans-4d"/>
      <use xlink:href="#DejaVuSans-65" x="86.279297"/>
      <use xlink:href="#DejaVuSans-74" x="147.802734"/>
      <use xlink:href="#DejaVuSans-72" x="187.011719"/>
      <use xlink:href="#DejaVuSans-69" x="228.125"/>
      <use xlink:href="#DejaVuSans-63" x="255.908203"/>
      <use xlink:href="#DejaVuSans-20" x="310.888672"/>
      <use xlink:href="#DejaVuSans-56" x="342.675781"/>
      <use xlink:href="#DejaVuSans-61" x="403.333984"/>
      <use xlink:href="#DejaVuSans-6c" x="464.613281"/>
      <use xlink:href="#DejaVuSans-75" x="492.396484"/>
      <use xlink:href="#DejaVuSans-65" x="555.775391"/>
     </g>
    </g>
   </g>
   <g id="PolyCollection_1">
    <defs>
     <path id="m7ede0f8689" d="M 109.732159 -498.91125 
L 109.732159 -478.821599 
L 126.561102 -476.526757 
L 143.390044 -474.286476 
L 160.218987 -471.828904 
L 177.047929 -467.309359 
L 193.876872 -461.476557 
L 210.705814 -456.313252 
L 227.534756 -451.723814 
L 244.363699 -448.020786 
L 261.192641 -444.779011 
L 278.021584 -442.3141 
L 294.850526 -440.497011 
L 311.679469 -439.255933 
L 328.508411 -438.28023 
L 345.337354 -437.622944 
L 362.166296 -437.20538 
L 378.995239 -437.092241 
L 395.824181 -436.95063 
L 412.653124 -436.629289 
L 429.482066 -436.275498 
L 446.311009 -436.026908 
L 463.139951 -435.658407 
L 479.968894 -435.34332 
L 496.797836 -435.156291 
L 513.626779 -435.02394 
L 530.455721 -434.817826 
L 547.284664 -434.688127 
L 564.113606 -434.562215 
L 580.942549 -434.45788 
L 597.771491 -434.431682 
L 614.600434 -434.360582 
L 631.429376 -434.228228 
L 648.258319 -434.129014 
L 665.087261 -434.071161 
L 681.916204 -434.103639 
L 698.745146 -434.096478 
L 715.574089 -434.092779 
L 732.403031 -434.155601 
L 749.231974 -434.208048 
L 766.060916 -434.229889 
L 782.889859 -434.255492 
L 799.718801 -434.255492 
L 816.547744 -434.255492 
L 833.376686 -434.255492 
L 850.205628 -434.255492 
L 867.034571 -434.255492 
L 883.863513 -434.255492 
L 900.692456 -434.255492 
L 917.521398 -434.255492 
L 934.350341 -434.255492 
L 934.350341 -459.121159 
L 934.350341 -459.121159 
L 917.521398 -459.121159 
L 900.692456 -459.121159 
L 883.863513 -459.121159 
L 867.034571 -459.121159 
L 850.205628 -459.121159 
L 833.376686 -459.121159 
L 816.547744 -459.121159 
L 799.718801 -459.121159 
L 782.889859 -459.121159 
L 766.060916 -459.122401 
L 749.231974 -459.123485 
L 732.403031 -459.125809 
L 715.574089 -459.128619 
L 698.745146 -459.128845 
L 681.916204 -459.127901 
L 665.087261 -459.129109 
L 648.258319 -459.126568 
L 631.429376 -459.122359 
L 614.600434 -459.116634 
L 597.771491 -459.11387 
L 580.942549 -459.112489 
L 564.113606 -459.107827 
L 547.284664 -459.102697 
L 530.455721 -459.097909 
L 513.626779 -459.090651 
L 496.797836 -459.087642 
L 479.968894 -459.083531 
L 463.139951 -459.076778 
L 446.311009 -459.067374 
L 429.482066 -459.00305 
L 412.653124 -458.857769 
L 395.824181 -458.426832 
L 378.995239 -457.739584 
L 362.166296 -457.051458 
L 345.337354 -456.792653 
L 328.508411 -456.630612 
L 311.679469 -456.926557 
L 294.850526 -457.676636 
L 278.021584 -458.948567 
L 261.192641 -460.469608 
L 244.363699 -462.237214 
L 227.534756 -464.400166 
L 210.705814 -466.61711 
L 193.876872 -469.099973 
L 177.047929 -471.845787 
L 160.218987 -476.390383 
L 143.390044 -483.141103 
L 126.561102 -491.025877 
L 109.732159 -498.91125 
z
" style="stroke: #66c2a5; stroke-opacity: 0.2; stroke-width: 1.5"/>
    </defs>
    <g clip-path="url(#p04dbb4b090)">
     <use xlink:href="#m7ede0f8689" x="0" y="549.797813" style="fill: #66c2a5; fill-opacity: 0.2; stroke: #66c2a5; stroke-opacity: 0.2; stroke-width: 1.5"/>
    </g>
   </g>
   <g id="PolyCollection_2">
    <defs>
     <path id="m2dbccd7a24" d="M 109.732159 -327.748994 
L 109.732159 -183.8269 
L 126.561102 -230.191769 
L 143.390044 -303.804706 
L 160.218987 -363.394697 
L 177.047929 -406.368381 
L 193.876872 -419.553016 
L 210.705814 -429.006894 
L 227.534756 -434.235858 
L 244.363699 -436.92938 
L 261.192641 -436.361614 
L 278.021584 -443.897612 
L 294.850526 -427.664262 
L 311.679469 -430.480082 
L 328.508411 -447.037641 
L 345.337354 -445.862836 
L 362.166296 -441.751953 
L 378.995239 -439.956853 
L 395.824181 -436.460714 
L 412.653124 -436.460714 
L 429.482066 -441.751953 
L 446.311009 -437.919422 
L 463.139951 -436.460714 
L 479.968894 -436.460714 
L 496.797836 -436.460714 
L 513.626779 -439.392851 
L 530.455721 -440.431431 
L 547.284664 -440.271802 
L 564.113606 -440.271802 
L 580.942549 -439.392851 
L 597.771491 -439.392851 
L 614.600434 -439.392851 
L 631.429376 -439.392851 
L 648.258319 -439.392851 
L 665.087261 -439.392851 
L 681.916204 -436.460714 
L 698.745146 -436.460714 
L 715.574089 -436.460714 
L 732.403031 -438.128268 
L 749.231974 -436.460714 
L 766.060916 -436.460714 
L 782.889859 -436.460714 
L 799.718801 -436.460714 
L 816.547744 -436.460714 
L 833.376686 -436.460714 
L 850.205628 -436.460714 
L 867.034571 -436.460714 
L 883.863513 -436.460714 
L 900.692456 -436.460714 
L 917.521398 -436.460714 
L 934.350341 -436.460714 
L 934.350341 -490.526089 
L 934.350341 -490.526089 
L 917.521398 -490.526089 
L 900.692456 -490.526089 
L 883.863513 -490.526089 
L 867.034571 -490.526089 
L 850.205628 -490.526089 
L 833.376686 -490.526089 
L 816.547744 -490.526089 
L 799.718801 -490.526089 
L 782.889859 -490.526089 
L 766.060916 -490.526089 
L 749.231974 -490.526089 
L 732.403031 -492.730611 
L 715.574089 -490.526089 
L 698.745146 -490.526089 
L 681.916204 -490.526089 
L 665.087261 -487.593952 
L 648.258319 -487.593952 
L 631.429376 -487.593952 
L 614.600434 -487.593952 
L 597.771491 -487.593952 
L 580.942549 -487.593952 
L 564.113606 -490.587076 
L 547.284664 -490.587076 
L 530.455721 -482.683296 
L 513.626779 -487.593952 
L 496.797836 -490.526089 
L 479.968894 -490.526089 
L 463.139951 -490.526089 
L 446.311009 -485.195305 
L 429.482066 -492.926675 
L 412.653124 -490.526089 
L 395.824181 -490.526089 
L 378.995239 -490.8497 
L 362.166296 -492.926675 
L 345.337354 -481.019316 
L 328.508411 -483.664261 
L 311.679469 -481.123069 
L 294.850526 -487.810965 
L 278.021584 -482.98454 
L 261.192641 -471.317137 
L 244.363699 -466.82497 
L 227.534756 -469.466167 
L 210.705814 -463.026578 
L 193.876872 -464.893282 
L 177.047929 -447.310614 
L 160.218987 -440.313594 
L 143.390044 -434.54923 
L 126.561102 -381.273207 
L 109.732159 -327.748994 
z
" style="stroke: #fc8d62; stroke-opacity: 0.2; stroke-width: 1.5"/>
    </defs>
    <g clip-path="url(#p04dbb4b090)">
     <use xlink:href="#m2dbccd7a24" x="0" y="549.797813" style="fill: #fc8d62; fill-opacity: 0.2; stroke: #fc8d62; stroke-opacity: 0.2; stroke-width: 1.5"/>
    </g>
   </g>
   <g id="PolyCollection_3">
    <defs>
     <path id="m7b853903cc" d="M 109.732159 -269.214394 
L 109.732159 -79.51125 
L 126.561102 -155.880762 
L 143.390044 -294.328783 
L 160.218987 -365.506896 
L 177.047929 -376.225706 
L 193.876872 -352.353581 
L 210.705814 -371.887647 
L 227.534756 -375.651016 
L 244.363699 -377.920332 
L 261.192641 -378.728944 
L 278.021584 -393.459127 
L 294.850526 -384.070604 
L 311.679469 -393.558911 
L 328.508411 -419.793763 
L 345.337354 -423.306144 
L 362.166296 -420.235166 
L 378.995239 -419.576888 
L 395.824181 -417.385205 
L 412.653124 -416.566604 
L 429.482066 -419.771958 
L 446.311009 -417.500347 
L 463.139951 -416.566604 
L 479.968894 -416.566604 
L 496.797836 -416.566604 
L 513.626779 -418.305387 
L 530.455721 -419.00108 
L 547.284664 -418.736056 
L 564.113606 -418.736056 
L 580.942549 -418.497542 
L 597.771491 -418.497542 
L 614.600434 -418.497542 
L 631.429376 -418.497542 
L 648.258319 -418.497542 
L 665.087261 -418.497542 
L 681.916204 -416.15093 
L 698.745146 -416.15093 
L 715.574089 -416.717922 
L 732.403031 -417.833369 
L 749.231974 -417.101653 
L 766.060916 -417.101653 
L 782.889859 -417.101653 
L 799.718801 -417.101653 
L 816.547744 -417.101653 
L 833.376686 -417.101653 
L 850.205628 -417.101653 
L 867.034571 -417.101653 
L 883.863513 -417.101653 
L 900.692456 -417.101653 
L 917.521398 -417.101653 
L 934.350341 -417.101653 
L 934.350341 -476.913647 
L 934.350341 -476.913647 
L 917.521398 -476.913647 
L 900.692456 -476.913647 
L 883.863513 -476.913647 
L 867.034571 -476.913647 
L 850.205628 -476.913647 
L 833.376686 -476.913647 
L 816.547744 -476.913647 
L 799.718801 -476.913647 
L 782.889859 -476.913647 
L 766.060916 -476.913647 
L 749.231974 -476.913647 
L 732.403031 -479.498971 
L 715.574089 -475.986365 
L 698.745146 -478.382396 
L 681.916204 -478.382396 
L 665.087261 -475.582083 
L 648.258319 -475.582083 
L 631.429376 -475.582083 
L 614.600434 -475.582083 
L 597.771491 -475.582083 
L 580.942549 -475.582083 
L 564.113606 -479.86159 
L 547.284664 -479.86159 
L 530.455721 -472.996595 
L 513.626779 -478.705141 
L 496.797836 -479.277735 
L 479.968894 -479.277735 
L 463.139951 -479.277735 
L 446.311009 -475.044826 
L 429.482066 -482.466674 
L 412.653124 -479.277735 
L 395.824181 -478.752852 
L 378.995239 -479.712378 
L 362.166296 -480.247908 
L 345.337354 -462.833475 
L 328.508411 -465.58378 
L 311.679469 -464.350488 
L 294.850526 -469.012752 
L 278.021584 -464.859554 
L 261.192641 -452.151864 
L 244.363699 -444.523625 
L 227.534756 -442.684263 
L 210.705814 -434.575137 
L 193.876872 -442.33206 
L 177.047929 -413.112303 
L 160.218987 -387.899692 
L 143.390044 -389.220601 
L 126.561102 -332.051465 
L 109.732159 -269.214394 
z
" style="stroke: #8da0cb; stroke-opacity: 0.2; stroke-width: 1.5"/>
    </defs>
    <g clip-path="url(#p04dbb4b090)">
     <use xlink:href="#m7b853903cc" x="0" y="549.797813" style="fill: #8da0cb; fill-opacity: 0.2; stroke: #8da0cb; stroke-opacity: 0.2; stroke-width: 1.5"/>
    </g>
   </g>
   <g id="PolyCollection_4">
    <defs>
     <path id="m7a412cfcc9" d="M 109.732159 -386.794386 
L 109.732159 -236.73507 
L 126.561102 -264.226935 
L 143.390044 -285.921329 
L 160.218987 -297.9584 
L 177.047929 -306.521235 
L 193.876872 -316.832178 
L 210.705814 -321.889164 
L 227.534756 -331.629551 
L 244.363699 -339.162845 
L 261.192641 -348.960979 
L 278.021584 -357.005884 
L 294.850526 -365.034852 
L 311.679469 -368.078162 
L 328.508411 -371.934877 
L 345.337354 -373.377005 
L 362.166296 -375.25407 
L 378.995239 -375.005985 
L 395.824181 -376.895633 
L 412.653124 -372.964132 
L 429.482066 -372.934291 
L 446.311009 -372.679938 
L 463.139951 -372.395259 
L 479.968894 -372.498163 
L 496.797836 -373.367612 
L 513.626779 -373.194529 
L 530.455721 -373.51177 
L 547.284664 -372.961274 
L 564.113606 -373.238566 
L 580.942549 -373.150216 
L 597.771491 -373.285724 
L 614.600434 -373.142386 
L 631.429376 -373.006317 
L 648.258319 -373.281229 
L 665.087261 -373.41138 
L 681.916204 -373.75351 
L 698.745146 -373.872285 
L 715.574089 -374.231623 
L 732.403031 -373.962156 
L 749.231974 -373.931611 
L 766.060916 -373.613321 
L 782.889859 -373.41791 
L 799.718801 -373.41791 
L 816.547744 -373.41791 
L 833.376686 -373.41791 
L 850.205628 -373.41791 
L 867.034571 -373.41791 
L 883.863513 -373.41791 
L 900.692456 -373.41791 
L 917.521398 -373.41791 
L 934.350341 -373.41791 
L 934.350341 -472.072939 
L 934.350341 -472.072939 
L 917.521398 -472.072939 
L 900.692456 -472.072939 
L 883.863513 -472.072939 
L 867.034571 -472.072939 
L 850.205628 -472.072939 
L 833.376686 -472.072939 
L 816.547744 -472.072939 
L 799.718801 -472.072939 
L 782.889859 -472.072939 
L 766.060916 -470.916095 
L 749.231974 -468.915296 
L 732.403031 -470.086543 
L 715.574089 -471.018868 
L 698.745146 -470.657131 
L 681.916204 -470.05483 
L 665.087261 -469.435526 
L 648.258319 -468.844603 
L 631.429376 -468.398439 
L 614.600434 -468.983446 
L 597.771491 -468.119032 
L 580.942549 -467.533465 
L 564.113606 -468.406549 
L 547.284664 -467.962766 
L 530.455721 -467.412269 
L 513.626779 -465.806643 
L 496.797836 -464.672126 
L 479.968894 -463.378349 
L 463.139951 -463.240895 
L 446.311009 -460.552632 
L 429.482066 -459.091679 
L 412.653124 -458.335956 
L 395.824181 -455.779305 
L 378.995239 -453.164637 
L 362.166296 -453.161717 
L 345.337354 -451.269961 
L 328.508411 -449.65473 
L 311.679469 -449.045586 
L 294.850526 -445.152151 
L 278.021584 -444.91279 
L 261.192641 -440.136976 
L 244.363699 -431.682292 
L 227.534756 -427.139978 
L 210.705814 -418.377573 
L 193.876872 -413.930787 
L 177.047929 -411.281604 
L 160.218987 -405.90365 
L 143.390044 -405.307482 
L 126.561102 -399.927903 
L 109.732159 -386.794386 
z
" style="stroke: #e78ac3; stroke-opacity: 0.2; stroke-width: 1.5"/>
    </defs>
    <g clip-path="url(#p04dbb4b090)">
     <use xlink:href="#m7a412cfcc9" x="0" y="549.797813" style="fill: #e78ac3; fill-opacity: 0.2; stroke: #e78ac3; stroke-opacity: 0.2; stroke-width: 1.5"/>
    </g>
   </g>
   <g id="line2d_14">
    <path d="M 109.732159 60.931388 
L 126.561102 66.021496 
L 143.390044 71.084023 
L 160.218987 75.688169 
L 177.047929 80.220239 
L 193.876872 84.509548 
L 210.705814 88.332631 
L 227.534756 91.735822 
L 244.363699 94.668813 
L 261.192641 97.173503 
L 278.021584 99.166479 
L 294.850526 100.710989 
L 311.679469 101.706567 
L 328.508411 102.342392 
L 345.337354 102.590014 
L 362.166296 102.669393 
L 378.995239 102.3819 
L 395.824181 102.109081 
L 412.653124 102.054284 
L 429.482066 102.158539 
L 446.311009 102.250672 
L 463.139951 102.43022 
L 479.968894 102.584387 
L 496.797836 102.675846 
L 513.626779 102.740517 
L 530.455721 102.839945 
L 547.284664 102.9024 
L 564.113606 102.962792 
L 580.942549 103.012628 
L 597.771491 103.025037 
L 614.600434 103.059204 
L 631.429376 103.122519 
L 648.258319 103.170021 
L 665.087261 103.197677 
L 681.916204 103.182042 
L 698.745146 103.185151 
L 715.574089 103.187114 
L 732.403031 103.157108 
L 749.231974 103.132046 
L 766.060916 103.121668 
L 782.889859 103.109487 
L 799.718801 103.109487 
L 816.547744 103.109487 
L 833.376686 103.109487 
L 850.205628 103.109487 
L 867.034571 103.109487 
L 883.863513 103.109487 
L 900.692456 103.109487 
L 917.521398 103.109487 
L 934.350341 103.109487 
" clip-path="url(#p04dbb4b090)" style="fill: none; stroke: #66c2a5; stroke-width: 2.5; stroke-linecap: round"/>
    <defs>
     <path id="mf49de303e7" d="M 0 4 
C 1.060812 4 2.078319 3.578535 2.828427 2.828427 
C 3.578535 2.078319 4 1.060812 4 0 
C 4 -1.060812 3.578535 -2.078319 2.828427 -2.828427 
C 2.078319 -3.578535 1.060812 -4 0 -4 
C -1.060812 -4 -2.078319 -3.578535 -2.828427 -2.828427 
C -3.578535 -2.078319 -4 -1.060812 -4 0 
C -4 1.060812 -3.578535 2.078319 -2.828427 2.828427 
C -2.078319 3.578535 -1.060812 4 0 4 
z
" style="stroke: #66c2a5"/>
    </defs>
    <g clip-path="url(#p04dbb4b090)">
     <use xlink:href="#mf49de303e7" x="109.732159" y="60.931388" style="fill: #66c2a5; stroke: #66c2a5"/>
     <use xlink:href="#mf49de303e7" x="126.561102" y="66.021496" style="fill: #66c2a5; stroke: #66c2a5"/>
     <use xlink:href="#mf49de303e7" x="143.390044" y="71.084023" style="fill: #66c2a5; stroke: #66c2a5"/>
     <use xlink:href="#mf49de303e7" x="160.218987" y="75.688169" style="fill: #66c2a5; stroke: #66c2a5"/>
     <use xlink:href="#mf49de303e7" x="177.047929" y="80.220239" style="fill: #66c2a5; stroke: #66c2a5"/>
     <use xlink:href="#mf49de303e7" x="193.876872" y="84.509548" style="fill: #66c2a5; stroke: #66c2a5"/>
     <use xlink:href="#mf49de303e7" x="210.705814" y="88.332631" style="fill: #66c2a5; stroke: #66c2a5"/>
     <use xlink:href="#mf49de303e7" x="227.534756" y="91.735822" style="fill: #66c2a5; stroke: #66c2a5"/>
     <use xlink:href="#mf49de303e7" x="244.363699" y="94.668813" style="fill: #66c2a5; stroke: #66c2a5"/>
     <use xlink:href="#mf49de303e7" x="261.192641" y="97.173503" style="fill: #66c2a5; stroke: #66c2a5"/>
     <use xlink:href="#mf49de303e7" x="278.021584" y="99.166479" style="fill: #66c2a5; stroke: #66c2a5"/>
     <use xlink:href="#mf49de303e7" x="294.850526" y="100.710989" style="fill: #66c2a5; stroke: #66c2a5"/>
     <use xlink:href="#mf49de303e7" x="311.679469" y="101.706567" style="fill: #66c2a5; stroke: #66c2a5"/>
     <use xlink:href="#mf49de303e7" x="328.508411" y="102.342392" style="fill: #66c2a5; stroke: #66c2a5"/>
     <use xlink:href="#mf49de303e7" x="345.337354" y="102.590014" style="fill: #66c2a5; stroke: #66c2a5"/>
     <use xlink:href="#mf49de303e7" x="362.166296" y="102.669393" style="fill: #66c2a5; stroke: #66c2a5"/>
     <use xlink:href="#mf49de303e7" x="378.995239" y="102.3819" style="fill: #66c2a5; stroke: #66c2a5"/>
     <use xlink:href="#mf49de303e7" x="395.824181" y="102.109081" style="fill: #66c2a5; stroke: #66c2a5"/>
     <use xlink:href="#mf49de303e7" x="412.653124" y="102.054284" style="fill: #66c2a5; stroke: #66c2a5"/>
     <use xlink:href="#mf49de303e7" x="429.482066" y="102.158539" style="fill: #66c2a5; stroke: #66c2a5"/>
     <use xlink:href="#mf49de303e7" x="446.311009" y="102.250672" style="fill: #66c2a5; stroke: #66c2a5"/>
     <use xlink:href="#mf49de303e7" x="463.139951" y="102.43022" style="fill: #66c2a5; stroke: #66c2a5"/>
     <use xlink:href="#mf49de303e7" x="479.968894" y="102.584387" style="fill: #66c2a5; stroke: #66c2a5"/>
     <use xlink:href="#mf49de303e7" x="496.797836" y="102.675846" style="fill: #66c2a5; stroke: #66c2a5"/>
     <use xlink:href="#mf49de303e7" x="513.626779" y="102.740517" style="fill: #66c2a5; stroke: #66c2a5"/>
     <use xlink:href="#mf49de303e7" x="530.455721" y="102.839945" style="fill: #66c2a5; stroke: #66c2a5"/>
     <use xlink:href="#mf49de303e7" x="547.284664" y="102.9024" style="fill: #66c2a5; stroke: #66c2a5"/>
     <use xlink:href="#mf49de303e7" x="564.113606" y="102.962792" style="fill: #66c2a5; stroke: #66c2a5"/>
     <use xlink:href="#mf49de303e7" x="580.942549" y="103.012628" style="fill: #66c2a5; stroke: #66c2a5"/>
     <use xlink:href="#mf49de303e7" x="597.771491" y="103.025037" style="fill: #66c2a5; stroke: #66c2a5"/>
     <use xlink:href="#mf49de303e7" x="614.600434" y="103.059204" style="fill: #66c2a5; stroke: #66c2a5"/>
     <use xlink:href="#mf49de303e7" x="631.429376" y="103.122519" style="fill: #66c2a5; stroke: #66c2a5"/>
     <use xlink:href="#mf49de303e7" x="648.258319" y="103.170021" style="fill: #66c2a5; stroke: #66c2a5"/>
     <use xlink:href="#mf49de303e7" x="665.087261" y="103.197677" style="fill: #66c2a5; stroke: #66c2a5"/>
     <use xlink:href="#mf49de303e7" x="681.916204" y="103.182042" style="fill: #66c2a5; stroke: #66c2a5"/>
     <use xlink:href="#mf49de303e7" x="698.745146" y="103.185151" style="fill: #66c2a5; stroke: #66c2a5"/>
     <use xlink:href="#mf49de303e7" x="715.574089" y="103.187114" style="fill: #66c2a5; stroke: #66c2a5"/>
     <use xlink:href="#mf49de303e7" x="732.403031" y="103.157108" style="fill: #66c2a5; stroke: #66c2a5"/>
     <use xlink:href="#mf49de303e7" x="749.231974" y="103.132046" style="fill: #66c2a5; stroke: #66c2a5"/>
     <use xlink:href="#mf49de303e7" x="766.060916" y="103.121668" style="fill: #66c2a5; stroke: #66c2a5"/>
     <use xlink:href="#mf49de303e7" x="782.889859" y="103.109487" style="fill: #66c2a5; stroke: #66c2a5"/>
     <use xlink:href="#mf49de303e7" x="799.718801" y="103.109487" style="fill: #66c2a5; stroke: #66c2a5"/>
     <use xlink:href="#mf49de303e7" x="816.547744" y="103.109487" style="fill: #66c2a5; stroke: #66c2a5"/>
     <use xlink:href="#mf49de303e7" x="833.376686" y="103.109487" style="fill: #66c2a5; stroke: #66c2a5"/>
     <use xlink:href="#mf49de303e7" x="850.205628" y="103.109487" style="fill: #66c2a5; stroke: #66c2a5"/>
     <use xlink:href="#mf49de303e7" x="867.034571" y="103.109487" style="fill: #66c2a5; stroke: #66c2a5"/>
     <use xlink:href="#mf49de303e7" x="883.863513" y="103.109487" style="fill: #66c2a5; stroke: #66c2a5"/>
     <use xlink:href="#mf49de303e7" x="900.692456" y="103.109487" style="fill: #66c2a5; stroke: #66c2a5"/>
     <use xlink:href="#mf49de303e7" x="917.521398" y="103.109487" style="fill: #66c2a5; stroke: #66c2a5"/>
     <use xlink:href="#mf49de303e7" x="934.350341" y="103.109487" style="fill: #66c2a5; stroke: #66c2a5"/>
    </g>
   </g>
   <g id="line2d_15">
    <path d="M 109.732159 294.009866 
L 126.561102 244.065324 
L 143.390044 180.620844 
L 160.218987 147.943667 
L 177.047929 122.958315 
L 193.876872 107.574664 
L 210.705814 103.781076 
L 227.534756 97.9468 
L 244.363699 97.920638 
L 261.192641 95.958437 
L 278.021584 86.356736 
L 294.850526 92.060199 
L 311.679469 93.996237 
L 328.508411 84.446861 
L 345.337354 86.356736 
L 362.166296 82.458498 
L 378.995239 84.394536 
L 395.824181 86.304411 
L 412.653124 86.304411 
L 429.482066 82.458498 
L 446.311009 88.240449 
L 463.139951 86.304411 
L 479.968894 86.304411 
L 496.797836 86.304411 
L 513.626779 86.304411 
L 530.455721 88.240449 
L 547.284664 84.368373 
L 564.113606 84.368373 
L 580.942549 86.304411 
L 597.771491 86.304411 
L 614.600434 86.304411 
L 631.429376 86.304411 
L 648.258319 86.304411 
L 665.087261 86.304411 
L 681.916204 86.304411 
L 698.745146 86.304411 
L 715.574089 86.304411 
L 732.403031 84.368373 
L 749.231974 86.304411 
L 766.060916 86.304411 
L 782.889859 86.304411 
L 799.718801 86.304411 
L 816.547744 86.304411 
L 833.376686 86.304411 
L 850.205628 86.304411 
L 867.034571 86.304411 
L 883.863513 86.304411 
L 900.692456 86.304411 
L 917.521398 86.304411 
L 934.350341 86.304411 
" clip-path="url(#p04dbb4b090)" style="fill: none; stroke: #fc8d62; stroke-width: 2.5; stroke-linecap: round"/>
    <defs>
     <path id="m9018e285d9" d="M -4 4 
L 4 4 
L 4 -4 
L -4 -4 
z
" style="stroke: #fc8d62; stroke-linejoin: miter"/>
    </defs>
    <g clip-path="url(#p04dbb4b090)">
     <use xlink:href="#m9018e285d9" x="109.732159" y="294.009866" style="fill: #fc8d62; stroke: #fc8d62; stroke-linejoin: miter"/>
     <use xlink:href="#m9018e285d9" x="126.561102" y="244.065324" style="fill: #fc8d62; stroke: #fc8d62; stroke-linejoin: miter"/>
     <use xlink:href="#m9018e285d9" x="143.390044" y="180.620844" style="fill: #fc8d62; stroke: #fc8d62; stroke-linejoin: miter"/>
     <use xlink:href="#m9018e285d9" x="160.218987" y="147.943667" style="fill: #fc8d62; stroke: #fc8d62; stroke-linejoin: miter"/>
     <use xlink:href="#m9018e285d9" x="177.047929" y="122.958315" style="fill: #fc8d62; stroke: #fc8d62; stroke-linejoin: miter"/>
     <use xlink:href="#m9018e285d9" x="193.876872" y="107.574664" style="fill: #fc8d62; stroke: #fc8d62; stroke-linejoin: miter"/>
     <use xlink:href="#m9018e285d9" x="210.705814" y="103.781076" style="fill: #fc8d62; stroke: #fc8d62; stroke-linejoin: miter"/>
     <use xlink:href="#m9018e285d9" x="227.534756" y="97.9468" style="fill: #fc8d62; stroke: #fc8d62; stroke-linejoin: miter"/>
     <use xlink:href="#m9018e285d9" x="244.363699" y="97.920638" style="fill: #fc8d62; stroke: #fc8d62; stroke-linejoin: miter"/>
     <use xlink:href="#m9018e285d9" x="261.192641" y="95.958437" style="fill: #fc8d62; stroke: #fc8d62; stroke-linejoin: miter"/>
     <use xlink:href="#m9018e285d9" x="278.021584" y="86.356736" style="fill: #fc8d62; stroke: #fc8d62; stroke-linejoin: miter"/>
     <use xlink:href="#m9018e285d9" x="294.850526" y="92.060199" style="fill: #fc8d62; stroke: #fc8d62; stroke-linejoin: miter"/>
     <use xlink:href="#m9018e285d9" x="311.679469" y="93.996237" style="fill: #fc8d62; stroke: #fc8d62; stroke-linejoin: miter"/>
     <use xlink:href="#m9018e285d9" x="328.508411" y="84.446861" style="fill: #fc8d62; stroke: #fc8d62; stroke-linejoin: miter"/>
     <use xlink:href="#m9018e285d9" x="345.337354" y="86.356736" style="fill: #fc8d62; stroke: #fc8d62; stroke-linejoin: miter"/>
     <use xlink:href="#m9018e285d9" x="362.166296" y="82.458498" style="fill: #fc8d62; stroke: #fc8d62; stroke-linejoin: miter"/>
     <use xlink:href="#m9018e285d9" x="378.995239" y="84.394536" style="fill: #fc8d62; stroke: #fc8d62; stroke-linejoin: miter"/>
     <use xlink:href="#m9018e285d9" x="395.824181" y="86.304411" style="fill: #fc8d62; stroke: #fc8d62; stroke-linejoin: miter"/>
     <use xlink:href="#m9018e285d9" x="412.653124" y="86.304411" style="fill: #fc8d62; stroke: #fc8d62; stroke-linejoin: miter"/>
     <use xlink:href="#m9018e285d9" x="429.482066" y="82.458498" style="fill: #fc8d62; stroke: #fc8d62; stroke-linejoin: miter"/>
     <use xlink:href="#m9018e285d9" x="446.311009" y="88.240449" style="fill: #fc8d62; stroke: #fc8d62; stroke-linejoin: miter"/>
     <use xlink:href="#m9018e285d9" x="463.139951" y="86.304411" style="fill: #fc8d62; stroke: #fc8d62; stroke-linejoin: miter"/>
     <use xlink:href="#m9018e285d9" x="479.968894" y="86.304411" style="fill: #fc8d62; stroke: #fc8d62; stroke-linejoin: miter"/>
     <use xlink:href="#m9018e285d9" x="496.797836" y="86.304411" style="fill: #fc8d62; stroke: #fc8d62; stroke-linejoin: miter"/>
     <use xlink:href="#m9018e285d9" x="513.626779" y="86.304411" style="fill: #fc8d62; stroke: #fc8d62; stroke-linejoin: miter"/>
     <use xlink:href="#m9018e285d9" x="530.455721" y="88.240449" style="fill: #fc8d62; stroke: #fc8d62; stroke-linejoin: miter"/>
     <use xlink:href="#m9018e285d9" x="547.284664" y="84.368373" style="fill: #fc8d62; stroke: #fc8d62; stroke-linejoin: miter"/>
     <use xlink:href="#m9018e285d9" x="564.113606" y="84.368373" style="fill: #fc8d62; stroke: #fc8d62; stroke-linejoin: miter"/>
     <use xlink:href="#m9018e285d9" x="580.942549" y="86.304411" style="fill: #fc8d62; stroke: #fc8d62; stroke-linejoin: miter"/>
     <use xlink:href="#m9018e285d9" x="597.771491" y="86.304411" style="fill: #fc8d62; stroke: #fc8d62; stroke-linejoin: miter"/>
     <use xlink:href="#m9018e285d9" x="614.600434" y="86.304411" style="fill: #fc8d62; stroke: #fc8d62; stroke-linejoin: miter"/>
     <use xlink:href="#m9018e285d9" x="631.429376" y="86.304411" style="fill: #fc8d62; stroke: #fc8d62; stroke-linejoin: miter"/>
     <use xlink:href="#m9018e285d9" x="648.258319" y="86.304411" style="fill: #fc8d62; stroke: #fc8d62; stroke-linejoin: miter"/>
     <use xlink:href="#m9018e285d9" x="665.087261" y="86.304411" style="fill: #fc8d62; stroke: #fc8d62; stroke-linejoin: miter"/>
     <use xlink:href="#m9018e285d9" x="681.916204" y="86.304411" style="fill: #fc8d62; stroke: #fc8d62; stroke-linejoin: miter"/>
     <use xlink:href="#m9018e285d9" x="698.745146" y="86.304411" style="fill: #fc8d62; stroke: #fc8d62; stroke-linejoin: miter"/>
     <use xlink:href="#m9018e285d9" x="715.574089" y="86.304411" style="fill: #fc8d62; stroke: #fc8d62; stroke-linejoin: miter"/>
     <use xlink:href="#m9018e285d9" x="732.403031" y="84.368373" style="fill: #fc8d62; stroke: #fc8d62; stroke-linejoin: miter"/>
     <use xlink:href="#m9018e285d9" x="749.231974" y="86.304411" style="fill: #fc8d62; stroke: #fc8d62; stroke-linejoin: miter"/>
     <use xlink:href="#m9018e285d9" x="766.060916" y="86.304411" style="fill: #fc8d62; stroke: #fc8d62; stroke-linejoin: miter"/>
     <use xlink:href="#m9018e285d9" x="782.889859" y="86.304411" style="fill: #fc8d62; stroke: #fc8d62; stroke-linejoin: miter"/>
     <use xlink:href="#m9018e285d9" x="799.718801" y="86.304411" style="fill: #fc8d62; stroke: #fc8d62; stroke-linejoin: miter"/>
     <use xlink:href="#m9018e285d9" x="816.547744" y="86.304411" style="fill: #fc8d62; stroke: #fc8d62; stroke-linejoin: miter"/>
     <use xlink:href="#m9018e285d9" x="833.376686" y="86.304411" style="fill: #fc8d62; stroke: #fc8d62; stroke-linejoin: miter"/>
     <use xlink:href="#m9018e285d9" x="850.205628" y="86.304411" style="fill: #fc8d62; stroke: #fc8d62; stroke-linejoin: miter"/>
     <use xlink:href="#m9018e285d9" x="867.034571" y="86.304411" style="fill: #fc8d62; stroke: #fc8d62; stroke-linejoin: miter"/>
     <use xlink:href="#m9018e285d9" x="883.863513" y="86.304411" style="fill: #fc8d62; stroke: #fc8d62; stroke-linejoin: miter"/>
     <use xlink:href="#m9018e285d9" x="900.692456" y="86.304411" style="fill: #fc8d62; stroke: #fc8d62; stroke-linejoin: miter"/>
     <use xlink:href="#m9018e285d9" x="917.521398" y="86.304411" style="fill: #fc8d62; stroke: #fc8d62; stroke-linejoin: miter"/>
     <use xlink:href="#m9018e285d9" x="934.350341" y="86.304411" style="fill: #fc8d62; stroke: #fc8d62; stroke-linejoin: miter"/>
    </g>
   </g>
   <g id="line2d_16">
    <path d="M 109.732159 375.43499 
L 126.561102 305.831699 
L 143.390044 208.023121 
L 160.218987 173.094518 
L 177.047929 155.128808 
L 193.876872 152.454992 
L 210.705814 146.56642 
L 227.534756 140.630173 
L 244.363699 138.575834 
L 261.192641 134.357409 
L 278.021584 120.638472 
L 294.850526 123.256135 
L 311.679469 120.843113 
L 328.508411 107.109041 
L 345.337354 106.728003 
L 362.166296 99.556275 
L 378.995239 100.15318 
L 395.824181 101.728784 
L 412.653124 101.875643 
L 429.482066 98.678496 
L 446.311009 103.525226 
L 463.139951 101.875643 
L 479.968894 101.875643 
L 496.797836 101.875643 
L 513.626779 101.292549 
L 530.455721 103.798975 
L 547.284664 100.498989 
L 564.113606 100.498989 
L 580.942549 102.758 
L 597.771491 102.758 
L 614.600434 102.758 
L 631.429376 102.758 
L 648.258319 102.758 
L 665.087261 102.758 
L 681.916204 102.53115 
L 698.745146 102.53115 
L 715.574089 103.445669 
L 732.403031 101.131643 
L 749.231974 102.790162 
L 766.060916 102.790162 
L 782.889859 102.790162 
L 799.718801 102.790162 
L 816.547744 102.790162 
L 833.376686 102.790162 
L 850.205628 102.790162 
L 867.034571 102.790162 
L 883.863513 102.790162 
L 900.692456 102.790162 
L 917.521398 102.790162 
L 934.350341 102.790162 
" clip-path="url(#p04dbb4b090)" style="fill: none; stroke: #8da0cb; stroke-width: 2.5; stroke-linecap: round"/>
    <defs>
     <path id="m3f582ee8c2" d="M -0 5.656854 
L 5.656854 0 
L 0 -5.656854 
L -5.656854 -0 
z
" style="stroke: #8da0cb; stroke-linejoin: miter"/>
    </defs>
    <g clip-path="url(#p04dbb4b090)">
     <use xlink:href="#m3f582ee8c2" x="109.732159" y="375.43499" style="fill: #8da0cb; stroke: #8da0cb; stroke-linejoin: miter"/>
     <use xlink:href="#m3f582ee8c2" x="126.561102" y="305.831699" style="fill: #8da0cb; stroke: #8da0cb; stroke-linejoin: miter"/>
     <use xlink:href="#m3f582ee8c2" x="143.390044" y="208.023121" style="fill: #8da0cb; stroke: #8da0cb; stroke-linejoin: miter"/>
     <use xlink:href="#m3f582ee8c2" x="160.218987" y="173.094518" style="fill: #8da0cb; stroke: #8da0cb; stroke-linejoin: miter"/>
     <use xlink:href="#m3f582ee8c2" x="177.047929" y="155.128808" style="fill: #8da0cb; stroke: #8da0cb; stroke-linejoin: miter"/>
     <use xlink:href="#m3f582ee8c2" x="193.876872" y="152.454992" style="fill: #8da0cb; stroke: #8da0cb; stroke-linejoin: miter"/>
     <use xlink:href="#m3f582ee8c2" x="210.705814" y="146.56642" style="fill: #8da0cb; stroke: #8da0cb; stroke-linejoin: miter"/>
     <use xlink:href="#m3f582ee8c2" x="227.534756" y="140.630173" style="fill: #8da0cb; stroke: #8da0cb; stroke-linejoin: miter"/>
     <use xlink:href="#m3f582ee8c2" x="244.363699" y="138.575834" style="fill: #8da0cb; stroke: #8da0cb; stroke-linejoin: miter"/>
     <use xlink:href="#m3f582ee8c2" x="261.192641" y="134.357409" style="fill: #8da0cb; stroke: #8da0cb; stroke-linejoin: miter"/>
     <use xlink:href="#m3f582ee8c2" x="278.021584" y="120.638472" style="fill: #8da0cb; stroke: #8da0cb; stroke-linejoin: miter"/>
     <use xlink:href="#m3f582ee8c2" x="294.850526" y="123.256135" style="fill: #8da0cb; stroke: #8da0cb; stroke-linejoin: miter"/>
     <use xlink:href="#m3f582ee8c2" x="311.679469" y="120.843113" style="fill: #8da0cb; stroke: #8da0cb; stroke-linejoin: miter"/>
     <use xlink:href="#m3f582ee8c2" x="328.508411" y="107.109041" style="fill: #8da0cb; stroke: #8da0cb; stroke-linejoin: miter"/>
     <use xlink:href="#m3f582ee8c2" x="345.337354" y="106.728003" style="fill: #8da0cb; stroke: #8da0cb; stroke-linejoin: miter"/>
     <use xlink:href="#m3f582ee8c2" x="362.166296" y="99.556275" style="fill: #8da0cb; stroke: #8da0cb; stroke-linejoin: miter"/>
     <use xlink:href="#m3f582ee8c2" x="378.995239" y="100.15318" style="fill: #8da0cb; stroke: #8da0cb; stroke-linejoin: miter"/>
     <use xlink:href="#m3f582ee8c2" x="395.824181" y="101.728784" style="fill: #8da0cb; stroke: #8da0cb; stroke-linejoin: miter"/>
     <use xlink:href="#m3f582ee8c2" x="412.653124" y="101.875643" style="fill: #8da0cb; stroke: #8da0cb; stroke-linejoin: miter"/>
     <use xlink:href="#m3f582ee8c2" x="429.482066" y="98.678496" style="fill: #8da0cb; stroke: #8da0cb; stroke-linejoin: miter"/>
     <use xlink:href="#m3f582ee8c2" x="446.311009" y="103.525226" style="fill: #8da0cb; stroke: #8da0cb; stroke-linejoin: miter"/>
     <use xlink:href="#m3f582ee8c2" x="463.139951" y="101.875643" style="fill: #8da0cb; stroke: #8da0cb; stroke-linejoin: miter"/>
     <use xlink:href="#m3f582ee8c2" x="479.968894" y="101.875643" style="fill: #8da0cb; stroke: #8da0cb; stroke-linejoin: miter"/>
     <use xlink:href="#m3f582ee8c2" x="496.797836" y="101.875643" style="fill: #8da0cb; stroke: #8da0cb; stroke-linejoin: miter"/>
     <use xlink:href="#m3f582ee8c2" x="513.626779" y="101.292549" style="fill: #8da0cb; stroke: #8da0cb; stroke-linejoin: miter"/>
     <use xlink:href="#m3f582ee8c2" x="530.455721" y="103.798975" style="fill: #8da0cb; stroke: #8da0cb; stroke-linejoin: miter"/>
     <use xlink:href="#m3f582ee8c2" x="547.284664" y="100.498989" style="fill: #8da0cb; stroke: #8da0cb; stroke-linejoin: miter"/>
     <use xlink:href="#m3f582ee8c2" x="564.113606" y="100.498989" style="fill: #8da0cb; stroke: #8da0cb; stroke-linejoin: miter"/>
     <use xlink:href="#m3f582ee8c2" x="580.942549" y="102.758" style="fill: #8da0cb; stroke: #8da0cb; stroke-linejoin: miter"/>
     <use xlink:href="#m3f582ee8c2" x="597.771491" y="102.758" style="fill: #8da0cb; stroke: #8da0cb; stroke-linejoin: miter"/>
     <use xlink:href="#m3f582ee8c2" x="614.600434" y="102.758" style="fill: #8da0cb; stroke: #8da0cb; stroke-linejoin: miter"/>
     <use xlink:href="#m3f582ee8c2" x="631.429376" y="102.758" style="fill: #8da0cb; stroke: #8da0cb; stroke-linejoin: miter"/>
     <use xlink:href="#m3f582ee8c2" x="648.258319" y="102.758" style="fill: #8da0cb; stroke: #8da0cb; stroke-linejoin: miter"/>
     <use xlink:href="#m3f582ee8c2" x="665.087261" y="102.758" style="fill: #8da0cb; stroke: #8da0cb; stroke-linejoin: miter"/>
     <use xlink:href="#m3f582ee8c2" x="681.916204" y="102.53115" style="fill: #8da0cb; stroke: #8da0cb; stroke-linejoin: miter"/>
     <use xlink:href="#m3f582ee8c2" x="698.745146" y="102.53115" style="fill: #8da0cb; stroke: #8da0cb; stroke-linejoin: miter"/>
     <use xlink:href="#m3f582ee8c2" x="715.574089" y="103.445669" style="fill: #8da0cb; stroke: #8da0cb; stroke-linejoin: miter"/>
     <use xlink:href="#m3f582ee8c2" x="732.403031" y="101.131643" style="fill: #8da0cb; stroke: #8da0cb; stroke-linejoin: miter"/>
     <use xlink:href="#m3f582ee8c2" x="749.231974" y="102.790162" style="fill: #8da0cb; stroke: #8da0cb; stroke-linejoin: miter"/>
     <use xlink:href="#m3f582ee8c2" x="766.060916" y="102.790162" style="fill: #8da0cb; stroke: #8da0cb; stroke-linejoin: miter"/>
     <use xlink:href="#m3f582ee8c2" x="782.889859" y="102.790162" style="fill: #8da0cb; stroke: #8da0cb; stroke-linejoin: miter"/>
     <use xlink:href="#m3f582ee8c2" x="799.718801" y="102.790162" style="fill: #8da0cb; stroke: #8da0cb; stroke-linejoin: miter"/>
     <use xlink:href="#m3f582ee8c2" x="816.547744" y="102.790162" style="fill: #8da0cb; stroke: #8da0cb; stroke-linejoin: miter"/>
     <use xlink:href="#m3f582ee8c2" x="833.376686" y="102.790162" style="fill: #8da0cb; stroke: #8da0cb; stroke-linejoin: miter"/>
     <use xlink:href="#m3f582ee8c2" x="850.205628" y="102.790162" style="fill: #8da0cb; stroke: #8da0cb; stroke-linejoin: miter"/>
     <use xlink:href="#m3f582ee8c2" x="867.034571" y="102.790162" style="fill: #8da0cb; stroke: #8da0cb; stroke-linejoin: miter"/>
     <use xlink:href="#m3f582ee8c2" x="883.863513" y="102.790162" style="fill: #8da0cb; stroke: #8da0cb; stroke-linejoin: miter"/>
     <use xlink:href="#m3f582ee8c2" x="900.692456" y="102.790162" style="fill: #8da0cb; stroke: #8da0cb; stroke-linejoin: miter"/>
     <use xlink:href="#m3f582ee8c2" x="917.521398" y="102.790162" style="fill: #8da0cb; stroke: #8da0cb; stroke-linejoin: miter"/>
     <use xlink:href="#m3f582ee8c2" x="934.350341" y="102.790162" style="fill: #8da0cb; stroke: #8da0cb; stroke-linejoin: miter"/>
    </g>
   </g>
   <g id="line2d_17">
    <path d="M 109.732159 238.033084 
L 126.561102 217.720394 
L 143.390044 204.183407 
L 160.218987 197.866788 
L 177.047929 190.896393 
L 193.876872 184.41633 
L 210.705814 179.664444 
L 227.534756 170.413048 
L 244.363699 164.375244 
L 261.192641 155.248835 
L 278.021584 148.838476 
L 294.850526 144.704311 
L 311.679469 141.235939 
L 328.508411 139.003009 
L 345.337354 137.474329 
L 362.166296 135.589919 
L 378.995239 135.712502 
L 395.824181 133.460343 
L 412.653124 134.147769 
L 429.482066 133.784827 
L 446.311009 133.181528 
L 463.139951 131.979735 
L 479.968894 131.859556 
L 496.797836 130.777943 
L 513.626779 130.297226 
L 530.455721 129.335793 
L 547.284664 129.335793 
L 564.113606 128.975255 
L 580.942549 129.455972 
L 597.771491 129.095434 
L 614.600434 128.734897 
L 631.429376 129.095434 
L 648.258319 128.734897 
L 665.087261 128.374359 
L 681.916204 127.893642 
L 698.745146 127.533105 
L 715.574089 127.172567 
L 732.403031 127.773463 
L 749.231974 128.374359 
L 766.060916 127.533105 
L 782.889859 127.052388 
L 799.718801 127.052388 
L 816.547744 127.052388 
L 833.376686 127.052388 
L 850.205628 127.052388 
L 867.034571 127.052388 
L 883.863513 127.052388 
L 900.692456 127.052388 
L 917.521398 127.052388 
L 934.350341 127.052388 
" clip-path="url(#p04dbb4b090)" style="fill: none; stroke: #e78ac3; stroke-width: 2.5; stroke-linecap: round"/>
    <defs>
     <path id="m946f2c45ed" d="M 0 -4 
L -4 4 
L 4 4 
z
" style="stroke: #e78ac3; stroke-linejoin: miter"/>
    </defs>
    <g clip-path="url(#p04dbb4b090)">
     <use xlink:href="#m946f2c45ed" x="109.732159" y="238.033084" style="fill: #e78ac3; stroke: #e78ac3; stroke-linejoin: miter"/>
     <use xlink:href="#m946f2c45ed" x="126.561102" y="217.720394" style="fill: #e78ac3; stroke: #e78ac3; stroke-linejoin: miter"/>
     <use xlink:href="#m946f2c45ed" x="143.390044" y="204.183407" style="fill: #e78ac3; stroke: #e78ac3; stroke-linejoin: miter"/>
     <use xlink:href="#m946f2c45ed" x="160.218987" y="197.866788" style="fill: #e78ac3; stroke: #e78ac3; stroke-linejoin: miter"/>
     <use xlink:href="#m946f2c45ed" x="177.047929" y="190.896393" style="fill: #e78ac3; stroke: #e78ac3; stroke-linejoin: miter"/>
     <use xlink:href="#m946f2c45ed" x="193.876872" y="184.41633" style="fill: #e78ac3; stroke: #e78ac3; stroke-linejoin: miter"/>
     <use xlink:href="#m946f2c45ed" x="210.705814" y="179.664444" style="fill: #e78ac3; stroke: #e78ac3; stroke-linejoin: miter"/>
     <use xlink:href="#m946f2c45ed" x="227.534756" y="170.413048" style="fill: #e78ac3; stroke: #e78ac3; stroke-linejoin: miter"/>
     <use xlink:href="#m946f2c45ed" x="244.363699" y="164.375244" style="fill: #e78ac3; stroke: #e78ac3; stroke-linejoin: miter"/>
     <use xlink:href="#m946f2c45ed" x="261.192641" y="155.248835" style="fill: #e78ac3; stroke: #e78ac3; stroke-linejoin: miter"/>
     <use xlink:href="#m946f2c45ed" x="278.021584" y="148.838476" style="fill: #e78ac3; stroke: #e78ac3; stroke-linejoin: miter"/>
     <use xlink:href="#m946f2c45ed" x="294.850526" y="144.704311" style="fill: #e78ac3; stroke: #e78ac3; stroke-linejoin: miter"/>
     <use xlink:href="#m946f2c45ed" x="311.679469" y="141.235939" style="fill: #e78ac3; stroke: #e78ac3; stroke-linejoin: miter"/>
     <use xlink:href="#m946f2c45ed" x="328.508411" y="139.003009" style="fill: #e78ac3; stroke: #e78ac3; stroke-linejoin: miter"/>
     <use xlink:href="#m946f2c45ed" x="345.337354" y="137.474329" style="fill: #e78ac3; stroke: #e78ac3; stroke-linejoin: miter"/>
     <use xlink:href="#m946f2c45ed" x="362.166296" y="135.589919" style="fill: #e78ac3; stroke: #e78ac3; stroke-linejoin: miter"/>
     <use xlink:href="#m946f2c45ed" x="378.995239" y="135.712502" style="fill: #e78ac3; stroke: #e78ac3; stroke-linejoin: miter"/>
     <use xlink:href="#m946f2c45ed" x="395.824181" y="133.460343" style="fill: #e78ac3; stroke: #e78ac3; stroke-linejoin: miter"/>
     <use xlink:href="#m946f2c45ed" x="412.653124" y="134.147769" style="fill: #e78ac3; stroke: #e78ac3; stroke-linejoin: miter"/>
     <use xlink:href="#m946f2c45ed" x="429.482066" y="133.784827" style="fill: #e78ac3; stroke: #e78ac3; stroke-linejoin: miter"/>
     <use xlink:href="#m946f2c45ed" x="446.311009" y="133.181528" style="fill: #e78ac3; stroke: #e78ac3; stroke-linejoin: miter"/>
     <use xlink:href="#m946f2c45ed" x="463.139951" y="131.979735" style="fill: #e78ac3; stroke: #e78ac3; stroke-linejoin: miter"/>
     <use xlink:href="#m946f2c45ed" x="479.968894" y="131.859556" style="fill: #e78ac3; stroke: #e78ac3; stroke-linejoin: miter"/>
     <use xlink:href="#m946f2c45ed" x="496.797836" y="130.777943" style="fill: #e78ac3; stroke: #e78ac3; stroke-linejoin: miter"/>
     <use xlink:href="#m946f2c45ed" x="513.626779" y="130.297226" style="fill: #e78ac3; stroke: #e78ac3; stroke-linejoin: miter"/>
     <use xlink:href="#m946f2c45ed" x="530.455721" y="129.335793" style="fill: #e78ac3; stroke: #e78ac3; stroke-linejoin: miter"/>
     <use xlink:href="#m946f2c45ed" x="547.284664" y="129.335793" style="fill: #e78ac3; stroke: #e78ac3; stroke-linejoin: miter"/>
     <use xlink:href="#m946f2c45ed" x="564.113606" y="128.975255" style="fill: #e78ac3; stroke: #e78ac3; stroke-linejoin: miter"/>
     <use xlink:href="#m946f2c45ed" x="580.942549" y="129.455972" style="fill: #e78ac3; stroke: #e78ac3; stroke-linejoin: miter"/>
     <use xlink:href="#m946f2c45ed" x="597.771491" y="129.095434" style="fill: #e78ac3; stroke: #e78ac3; stroke-linejoin: miter"/>
     <use xlink:href="#m946f2c45ed" x="614.600434" y="128.734897" style="fill: #e78ac3; stroke: #e78ac3; stroke-linejoin: miter"/>
     <use xlink:href="#m946f2c45ed" x="631.429376" y="129.095434" style="fill: #e78ac3; stroke: #e78ac3; stroke-linejoin: miter"/>
     <use xlink:href="#m946f2c45ed" x="648.258319" y="128.734897" style="fill: #e78ac3; stroke: #e78ac3; stroke-linejoin: miter"/>
     <use xlink:href="#m946f2c45ed" x="665.087261" y="128.374359" style="fill: #e78ac3; stroke: #e78ac3; stroke-linejoin: miter"/>
     <use xlink:href="#m946f2c45ed" x="681.916204" y="127.893642" style="fill: #e78ac3; stroke: #e78ac3; stroke-linejoin: miter"/>
     <use xlink:href="#m946f2c45ed" x="698.745146" y="127.533105" style="fill: #e78ac3; stroke: #e78ac3; stroke-linejoin: miter"/>
     <use xlink:href="#m946f2c45ed" x="715.574089" y="127.172567" style="fill: #e78ac3; stroke: #e78ac3; stroke-linejoin: miter"/>
     <use xlink:href="#m946f2c45ed" x="732.403031" y="127.773463" style="fill: #e78ac3; stroke: #e78ac3; stroke-linejoin: miter"/>
     <use xlink:href="#m946f2c45ed" x="749.231974" y="128.374359" style="fill: #e78ac3; stroke: #e78ac3; stroke-linejoin: miter"/>
     <use xlink:href="#m946f2c45ed" x="766.060916" y="127.533105" style="fill: #e78ac3; stroke: #e78ac3; stroke-linejoin: miter"/>
     <use xlink:href="#m946f2c45ed" x="782.889859" y="127.052388" style="fill: #e78ac3; stroke: #e78ac3; stroke-linejoin: miter"/>
     <use xlink:href="#m946f2c45ed" x="799.718801" y="127.052388" style="fill: #e78ac3; stroke: #e78ac3; stroke-linejoin: miter"/>
     <use xlink:href="#m946f2c45ed" x="816.547744" y="127.052388" style="fill: #e78ac3; stroke: #e78ac3; stroke-linejoin: miter"/>
     <use xlink:href="#m946f2c45ed" x="833.376686" y="127.052388" style="fill: #e78ac3; stroke: #e78ac3; stroke-linejoin: miter"/>
     <use xlink:href="#m946f2c45ed" x="850.205628" y="127.052388" style="fill: #e78ac3; stroke: #e78ac3; stroke-linejoin: miter"/>
     <use xlink:href="#m946f2c45ed" x="867.034571" y="127.052388" style="fill: #e78ac3; stroke: #e78ac3; stroke-linejoin: miter"/>
     <use xlink:href="#m946f2c45ed" x="883.863513" y="127.052388" style="fill: #e78ac3; stroke: #e78ac3; stroke-linejoin: miter"/>
     <use xlink:href="#m946f2c45ed" x="900.692456" y="127.052388" style="fill: #e78ac3; stroke: #e78ac3; stroke-linejoin: miter"/>
     <use xlink:href="#m946f2c45ed" x="917.521398" y="127.052388" style="fill: #e78ac3; stroke: #e78ac3; stroke-linejoin: miter"/>
     <use xlink:href="#m946f2c45ed" x="934.350341" y="127.052388" style="fill: #e78ac3; stroke: #e78ac3; stroke-linejoin: miter"/>
    </g>
   </g>
   <g id="line2d_18">
    <path d="M 665.087261 491.256563 
L 665.087261 29.916562 
" clip-path="url(#p04dbb4b090)" style="fill: none; stroke-dasharray: 8.325,3.6; stroke-dashoffset: 0; stroke: #808080; stroke-opacity: 0.6; stroke-width: 2.25"/>
   </g>
   <g id="patch_3">
    <path d="M 68.50125 491.256563 
L 68.50125 29.916562 
" style="fill: none; stroke: #cccccc; stroke-width: 1.875; stroke-linejoin: miter; stroke-linecap: square"/>
   </g>
   <g id="patch_4">
    <path d="M 975.58125 491.256563 
L 975.58125 29.916562 
" style="fill: none; stroke: #cccccc; stroke-width: 1.875; stroke-linejoin: miter; stroke-linecap: square"/>
   </g>
   <g id="patch_5">
    <path d="M 68.50125 491.256563 
L 975.58125 491.256563 
" style="fill: none; stroke: #cccccc; stroke-width: 1.875; stroke-linejoin: miter; stroke-linecap: square"/>
   </g>
   <g id="patch_6">
    <path d="M 68.50125 29.916562 
L 975.58125 29.916562 
" style="fill: none; stroke: #cccccc; stroke-width: 1.875; stroke-linejoin: miter; stroke-linecap: square"/>
   </g>
   <g id="text_16">
    <g id="patch_7">
     <path d="M 677.956204 102.586765 
L 776.134954 102.586765 
L 776.134954 69.61564 
L 677.956204 69.61564 
z
" style="fill: #ffffff; opacity: 0.85; stroke: #808080; stroke-width: 1.5; stroke-linejoin: miter"/>
    </g>
    <!-- Best Epoch: 34 -->
    <g style="fill: #262626" transform="translate(681.916204 82.693765) scale(0.12 -0.12)">
     <defs>
      <path id="DejaVuSans-42" d="M 1259 2228 
L 1259 519 
L 2272 519 
Q 2781 519 3026 730 
Q 3272 941 3272 1375 
Q 3272 1813 3026 2020 
Q 2781 2228 2272 2228 
L 1259 2228 
z
M 1259 4147 
L 1259 2741 
L 2194 2741 
Q 2656 2741 2882 2914 
Q 3109 3088 3109 3444 
Q 3109 3797 2882 3972 
Q 2656 4147 2194 4147 
L 1259 4147 
z
M 628 4666 
L 2241 4666 
Q 2963 4666 3353 4366 
Q 3744 4066 3744 3513 
Q 3744 3084 3544 2831 
Q 3344 2578 2956 2516 
Q 3422 2416 3680 2098 
Q 3938 1781 3938 1306 
Q 3938 681 3513 340 
Q 3088 0 2303 0 
L 628 0 
L 628 4666 
z
" transform="scale(0.015625)"/>
      <path id="DejaVuSans-3a" d="M 750 794 
L 1409 794 
L 1409 0 
L 750 0 
L 750 794 
z
M 750 3309 
L 1409 3309 
L 1409 2516 
L 750 2516 
L 750 3309 
z
" transform="scale(0.015625)"/>
     </defs>
     <use xlink:href="#DejaVuSans-42"/>
     <use xlink:href="#DejaVuSans-65" x="68.603516"/>
     <use xlink:href="#DejaVuSans-73" x="130.126953"/>
     <use xlink:href="#DejaVuSans-74" x="182.226562"/>
     <use xlink:href="#DejaVuSans-20" x="221.435547"/>
     <use xlink:href="#DejaVuSans-45" x="253.222656"/>
     <use xlink:href="#DejaVuSans-70" x="316.40625"/>
     <use xlink:href="#DejaVuSans-6f" x="379.882812"/>
     <use xlink:href="#DejaVuSans-63" x="441.064453"/>
     <use xlink:href="#DejaVuSans-68" x="496.044922"/>
     <use xlink:href="#DejaVuSans-3a" x="559.423828"/>
     <use xlink:href="#DejaVuSans-20" x="593.115234"/>
     <use xlink:href="#DejaVuSans-33" x="624.902344"/>
     <use xlink:href="#DejaVuSans-34" x="688.525391"/>
    </g>
    <!-- Loss: 0.6475 -->
    <g style="fill: #262626" transform="translate(681.916204 96.13114) scale(0.12 -0.12)">
     <defs>
      <path id="DejaVuSans-4c" d="M 628 4666 
L 1259 4666 
L 1259 531 
L 3531 531 
L 3531 0 
L 628 0 
L 628 4666 
z
" transform="scale(0.015625)"/>
     </defs>
     <use xlink:href="#DejaVuSans-4c"/>
     <use xlink:href="#DejaVuSans-6f" x="53.962891"/>
     <use xlink:href="#DejaVuSans-73" x="115.144531"/>
     <use xlink:href="#DejaVuSans-73" x="167.244141"/>
     <use xlink:href="#DejaVuSans-3a" x="219.34375"/>
     <use xlink:href="#DejaVuSans-20" x="253.035156"/>
     <use xlink:href="#DejaVuSans-30" x="284.822266"/>
     <use xlink:href="#DejaVuSans-2e" x="348.445312"/>
     <use xlink:href="#DejaVuSans-36" x="380.232422"/>
     <use xlink:href="#DejaVuSans-34" x="443.855469"/>
     <use xlink:href="#DejaVuSans-37" x="507.478516"/>
     <use xlink:href="#DejaVuSans-35" x="571.101562"/>
    </g>
   </g>
   <g id="text_17">
    <!-- Gene Model Test Metrics (Mean  Std across 5 Folds) -->
    <g style="fill: #262626" transform="translate(230.195781 23.916562) scale(0.22 -0.22)">
     <defs>
      <path id="DejaVuSans-47" d="M 3809 666 
L 3809 1919 
L 2778 1919 
L 2778 2438 
L 4434 2438 
L 4434 434 
Q 4069 175 3628 42 
Q 3188 -91 2688 -91 
Q 1594 -91 976 548 
Q 359 1188 359 2328 
Q 359 3472 976 4111 
Q 1594 4750 2688 4750 
Q 3144 4750 3555 4637 
Q 3966 4525 4313 4306 
L 4313 3634 
Q 3963 3931 3569 4081 
Q 3175 4231 2741 4231 
Q 1884 4231 1454 3753 
Q 1025 3275 1025 2328 
Q 1025 1384 1454 906 
Q 1884 428 2741 428 
Q 3075 428 3337 486 
Q 3600 544 3809 666 
z
" transform="scale(0.015625)"/>
      <path id="DejaVuSans-6e" d="M 3513 2113 
L 3513 0 
L 2938 0 
L 2938 2094 
Q 2938 2591 2744 2837 
Q 2550 3084 2163 3084 
Q 1697 3084 1428 2787 
Q 1159 2491 1159 1978 
L 1159 0 
L 581 0 
L 581 3500 
L 1159 3500 
L 1159 2956 
Q 1366 3272 1645 3428 
Q 1925 3584 2291 3584 
Q 2894 3584 3203 3211 
Q 3513 2838 3513 2113 
z
" transform="scale(0.015625)"/>
      <path id="DejaVuSans-64" d="M 2906 2969 
L 2906 4863 
L 3481 4863 
L 3481 0 
L 2906 0 
L 2906 525 
Q 2725 213 2448 61 
Q 2172 -91 1784 -91 
Q 1150 -91 751 415 
Q 353 922 353 1747 
Q 353 2572 751 3078 
Q 1150 3584 1784 3584 
Q 2172 3584 2448 3432 
Q 2725 3281 2906 2969 
z
M 947 1747 
Q 947 1113 1208 752 
Q 1469 391 1925 391 
Q 2381 391 2643 752 
Q 2906 1113 2906 1747 
Q 2906 2381 2643 2742 
Q 2381 3103 1925 3103 
Q 1469 3103 1208 2742 
Q 947 2381 947 1747 
z
" transform="scale(0.015625)"/>
      <path id="DejaVuSans-54" d="M -19 4666 
L 3928 4666 
L 3928 4134 
L 2272 4134 
L 2272 0 
L 1638 0 
L 1638 4134 
L -19 4134 
L -19 4666 
z
" transform="scale(0.015625)"/>
      <path id="DejaVuSans-28" d="M 1984 4856 
Q 1566 4138 1362 3434 
Q 1159 2731 1159 2009 
Q 1159 1288 1364 580 
Q 1569 -128 1984 -844 
L 1484 -844 
Q 1016 -109 783 600 
Q 550 1309 550 2009 
Q 550 2706 781 3412 
Q 1013 4119 1484 4856 
L 1984 4856 
z
" transform="scale(0.015625)"/>
      <path id="DejaVuSans-b1" d="M 2944 4013 
L 2944 2803 
L 4684 2803 
L 4684 2272 
L 2944 2272 
L 2944 1063 
L 2419 1063 
L 2419 2272 
L 678 2272 
L 678 2803 
L 2419 2803 
L 2419 4013 
L 2944 4013 
z
M 678 531 
L 4684 531 
L 4684 0 
L 678 0 
L 678 531 
z
" transform="scale(0.015625)"/>
      <path id="DejaVuSans-53" d="M 3425 4513 
L 3425 3897 
Q 3066 4069 2747 4153 
Q 2428 4238 2131 4238 
Q 1616 4238 1336 4038 
Q 1056 3838 1056 3469 
Q 1056 3159 1242 3001 
Q 1428 2844 1947 2747 
L 2328 2669 
Q 3034 2534 3370 2195 
Q 3706 1856 3706 1288 
Q 3706 609 3251 259 
Q 2797 -91 1919 -91 
Q 1588 -91 1214 -16 
Q 841 59 441 206 
L 441 856 
Q 825 641 1194 531 
Q 1563 422 1919 422 
Q 2459 422 2753 634 
Q 3047 847 3047 1241 
Q 3047 1584 2836 1778 
Q 2625 1972 2144 2069 
L 1759 2144 
Q 1053 2284 737 2584 
Q 422 2884 422 3419 
Q 422 4038 858 4394 
Q 1294 4750 2059 4750 
Q 2388 4750 2728 4690 
Q 3069 4631 3425 4513 
z
" transform="scale(0.015625)"/>
      <path id="DejaVuSans-46" d="M 628 4666 
L 3309 4666 
L 3309 4134 
L 1259 4134 
L 1259 2759 
L 3109 2759 
L 3109 2228 
L 1259 2228 
L 1259 0 
L 628 0 
L 628 4666 
z
" transform="scale(0.015625)"/>
      <path id="DejaVuSans-29" d="M 513 4856 
L 1013 4856 
Q 1481 4119 1714 3412 
Q 1947 2706 1947 2009 
Q 1947 1309 1714 600 
Q 1481 -109 1013 -844 
L 513 -844 
Q 928 -128 1133 580 
Q 1338 1288 1338 2009 
Q 1338 2731 1133 3434 
Q 928 4138 513 4856 
z
" transform="scale(0.015625)"/>
     </defs>
     <use xlink:href="#DejaVuSans-47"/>
     <use xlink:href="#DejaVuSans-65" x="77.490234"/>
     <use xlink:href="#DejaVuSans-6e" x="139.013672"/>
     <use xlink:href="#DejaVuSans-65" x="202.392578"/>
     <use xlink:href="#DejaVuSans-20" x="263.916016"/>
     <use xlink:href="#DejaVuSans-4d" x="295.703125"/>
     <use xlink:href="#DejaVuSans-6f" x="381.982422"/>
     <use xlink:href="#DejaVuSans-64" x="443.164062"/>
     <use xlink:href="#DejaVuSans-65" x="506.640625"/>
     <use xlink:href="#DejaVuSans-6c" x="568.164062"/>
     <use xlink:href="#DejaVuSans-20" x="595.947266"/>
     <use xlink:href="#DejaVuSans-54" x="627.734375"/>
     <use xlink:href="#DejaVuSans-65" x="671.818359"/>
     <use xlink:href="#DejaVuSans-73" x="733.341797"/>
     <use xlink:href="#DejaVuSans-74" x="785.441406"/>
     <use xlink:href="#DejaVuSans-20" x="824.650391"/>
     <use xlink:href="#DejaVuSans-4d" x="856.4375"/>
     <use xlink:href="#DejaVuSans-65" x="942.716797"/>
     <use xlink:href="#DejaVuSans-74" x="1004.240234"/>
     <use xlink:href="#DejaVuSans-72" x="1043.449219"/>
     <use xlink:href="#DejaVuSans-69" x="1084.5625"/>
     <use xlink:href="#DejaVuSans-63" x="1112.345703"/>
     <use xlink:href="#DejaVuSans-73" x="1167.326172"/>
     <use xlink:href="#DejaVuSans-20" x="1219.425781"/>
     <use xlink:href="#DejaVuSans-28" x="1251.212891"/>
     <use xlink:href="#DejaVuSans-4d" x="1290.226562"/>
     <use xlink:href="#DejaVuSans-65" x="1376.505859"/>
     <use xlink:href="#DejaVuSans-61" x="1438.029297"/>
     <use xlink:href="#DejaVuSans-6e" x="1499.308594"/>
     <use xlink:href="#DejaVuSans-20" x="1562.6875"/>
     <use xlink:href="#DejaVuSans-b1" x="1594.474609"/>
     <use xlink:href="#DejaVuSans-20" x="1678.263672"/>
     <use xlink:href="#DejaVuSans-53" x="1710.050781"/>
     <use xlink:href="#DejaVuSans-74" x="1773.527344"/>
     <use xlink:href="#DejaVuSans-64" x="1812.736328"/>
     <use xlink:href="#DejaVuSans-20" x="1876.212891"/>
     <use xlink:href="#DejaVuSans-61" x="1908"/>
     <use xlink:href="#DejaVuSans-63" x="1969.279297"/>
     <use xlink:href="#DejaVuSans-72" x="2024.259766"/>
     <use xlink:href="#DejaVuSans-6f" x="2063.123047"/>
     <use xlink:href="#DejaVuSans-73" x="2124.304688"/>
     <use xlink:href="#DejaVuSans-73" x="2176.404297"/>
     <use xlink:href="#DejaVuSans-20" x="2228.503906"/>
     <use xlink:href="#DejaVuSans-35" x="2260.291016"/>
     <use xlink:href="#DejaVuSans-20" x="2323.914062"/>
     <use xlink:href="#DejaVuSans-46" x="2355.701172"/>
     <use xlink:href="#DejaVuSans-6f" x="2409.595703"/>
     <use xlink:href="#DejaVuSans-6c" x="2470.777344"/>
     <use xlink:href="#DejaVuSans-64" x="2498.560547"/>
     <use xlink:href="#DejaVuSans-73" x="2562.037109"/>
     <use xlink:href="#DejaVuSans-29" x="2614.136719"/>
    </g>
   </g>
   <g id="legend_1">
    <g id="patch_8">
     <path d="M 730.40375 483.256563 
L 964.38125 483.256563 
Q 967.58125 483.256563 967.58125 480.056563 
L 967.58125 362.295938 
Q 967.58125 359.095938 964.38125 359.095938 
L 730.40375 359.095938 
Q 727.20375 359.095938 727.20375 362.295938 
L 727.20375 480.056563 
Q 727.20375 483.256563 730.40375 483.256563 
z
" style="fill: #ffffff; opacity: 0.8; stroke: #cccccc; stroke-width: 1.5; stroke-linejoin: miter"/>
    </g>
    <g id="text_18">
     <!-- Metric -->
     <g style="fill: #262626" transform="translate(819.412344 379.173125) scale(0.18 -0.18)">
      <use xlink:href="#DejaVuSans-4d"/>
      <use xlink:href="#DejaVuSans-65" x="86.279297"/>
      <use xlink:href="#DejaVuSans-74" x="147.802734"/>
      <use xlink:href="#DejaVuSans-72" x="187.011719"/>
      <use xlink:href="#DejaVuSans-69" x="228.125"/>
      <use xlink:href="#DejaVuSans-63" x="255.908203"/>
     </g>
    </g>
    <g id="line2d_19">
     <path d="M 733.60375 397.474063 
L 749.60375 397.474063 
L 765.60375 397.474063 
" style="fill: none; stroke: #66c2a5; stroke-width: 2.5; stroke-linecap: round"/>
     <g>
      <use xlink:href="#mf49de303e7" x="749.60375" y="397.474063" style="fill: #66c2a5; stroke: #66c2a5"/>
     </g>
    </g>
    <g id="text_19">
     <!-- Test CrossEntropy Loss -->
     <g style="fill: #262626" transform="translate(778.40375 403.074063) scale(0.16 -0.16)">
      <defs>
       <path id="DejaVuSans-43" d="M 4122 4306 
L 4122 3641 
Q 3803 3938 3442 4084 
Q 3081 4231 2675 4231 
Q 1875 4231 1450 3742 
Q 1025 3253 1025 2328 
Q 1025 1406 1450 917 
Q 1875 428 2675 428 
Q 3081 428 3442 575 
Q 3803 722 4122 1019 
L 4122 359 
Q 3791 134 3420 21 
Q 3050 -91 2638 -91 
Q 1578 -91 968 557 
Q 359 1206 359 2328 
Q 359 3453 968 4101 
Q 1578 4750 2638 4750 
Q 3056 4750 3426 4639 
Q 3797 4528 4122 4306 
z
" transform="scale(0.015625)"/>
       <path id="DejaVuSans-79" d="M 2059 -325 
Q 1816 -950 1584 -1140 
Q 1353 -1331 966 -1331 
L 506 -1331 
L 506 -850 
L 844 -850 
Q 1081 -850 1212 -737 
Q 1344 -625 1503 -206 
L 1606 56 
L 191 3500 
L 800 3500 
L 1894 763 
L 2988 3500 
L 3597 3500 
L 2059 -325 
z
" transform="scale(0.015625)"/>
      </defs>
      <use xlink:href="#DejaVuSans-54"/>
      <use xlink:href="#DejaVuSans-65" x="44.083984"/>
      <use xlink:href="#DejaVuSans-73" x="105.607422"/>
      <use xlink:href="#DejaVuSans-74" x="157.707031"/>
      <use xlink:href="#DejaVuSans-20" x="196.916016"/>
      <use xlink:href="#DejaVuSans-43" x="228.703125"/>
      <use xlink:href="#DejaVuSans-72" x="298.527344"/>
      <use xlink:href="#DejaVuSans-6f" x="337.390625"/>
      <use xlink:href="#DejaVuSans-73" x="398.572266"/>
      <use xlink:href="#DejaVuSans-73" x="450.671875"/>
      <use xlink:href="#DejaVuSans-45" x="502.771484"/>
      <use xlink:href="#DejaVuSans-6e" x="565.955078"/>
      <use xlink:href="#DejaVuSans-74" x="629.333984"/>
      <use xlink:href="#DejaVuSans-72" x="668.542969"/>
      <use xlink:href="#DejaVuSans-6f" x="707.40625"/>
      <use xlink:href="#DejaVuSans-70" x="768.587891"/>
      <use xlink:href="#DejaVuSans-79" x="832.064453"/>
      <use xlink:href="#DejaVuSans-20" x="891.244141"/>
      <use xlink:href="#DejaVuSans-4c" x="923.03125"/>
      <use xlink:href="#DejaVuSans-6f" x="976.994141"/>
      <use xlink:href="#DejaVuSans-73" x="1038.175781"/>
      <use xlink:href="#DejaVuSans-73" x="1090.275391"/>
     </g>
    </g>
    <g id="line2d_20">
     <path d="M 733.60375 420.959063 
L 749.60375 420.959063 
L 765.60375 420.959063 
" style="fill: none; stroke: #fc8d62; stroke-width: 2.5; stroke-linecap: round"/>
     <g>
      <use xlink:href="#m9018e285d9" x="749.60375" y="420.959063" style="fill: #fc8d62; stroke: #fc8d62; stroke-linejoin: miter"/>
     </g>
    </g>
    <g id="text_20">
     <!-- Test Accuracy -->
     <g style="fill: #262626" transform="translate(778.40375 426.559063) scale(0.16 -0.16)">
      <defs>
       <path id="DejaVuSans-41" d="M 2188 4044 
L 1331 1722 
L 3047 1722 
L 2188 4044 
z
M 1831 4666 
L 2547 4666 
L 4325 0 
L 3669 0 
L 3244 1197 
L 1141 1197 
L 716 0 
L 50 0 
L 1831 4666 
z
" transform="scale(0.015625)"/>
      </defs>
      <use xlink:href="#DejaVuSans-54"/>
      <use xlink:href="#DejaVuSans-65" x="44.083984"/>
      <use xlink:href="#DejaVuSans-73" x="105.607422"/>
      <use xlink:href="#DejaVuSans-74" x="157.707031"/>
      <use xlink:href="#DejaVuSans-20" x="196.916016"/>
      <use xlink:href="#DejaVuSans-41" x="228.703125"/>
      <use xlink:href="#DejaVuSans-63" x="295.361328"/>
      <use xlink:href="#DejaVuSans-63" x="350.341797"/>
      <use xlink:href="#DejaVuSans-75" x="405.322266"/>
      <use xlink:href="#DejaVuSans-72" x="468.701172"/>
      <use xlink:href="#DejaVuSans-61" x="509.814453"/>
      <use xlink:href="#DejaVuSans-63" x="571.09375"/>
      <use xlink:href="#DejaVuSans-79" x="626.074219"/>
     </g>
    </g>
    <g id="line2d_21">
     <path d="M 733.60375 444.444063 
L 749.60375 444.444063 
L 765.60375 444.444063 
" style="fill: none; stroke: #8da0cb; stroke-width: 2.5; stroke-linecap: round"/>
     <g>
      <use xlink:href="#m3f582ee8c2" x="749.60375" y="444.444063" style="fill: #8da0cb; stroke: #8da0cb; stroke-linejoin: miter"/>
     </g>
    </g>
    <g id="text_21">
     <!-- Test F1 Score -->
     <g style="fill: #262626" transform="translate(778.40375 450.044063) scale(0.16 -0.16)">
      <use xlink:href="#DejaVuSans-54"/>
      <use xlink:href="#DejaVuSans-65" x="44.083984"/>
      <use xlink:href="#DejaVuSans-73" x="105.607422"/>
      <use xlink:href="#DejaVuSans-74" x="157.707031"/>
      <use xlink:href="#DejaVuSans-20" x="196.916016"/>
      <use xlink:href="#DejaVuSans-46" x="228.703125"/>
      <use xlink:href="#DejaVuSans-31" x="286.222656"/>
      <use xlink:href="#DejaVuSans-20" x="349.845703"/>
      <use xlink:href="#DejaVuSans-53" x="381.632812"/>
      <use xlink:href="#DejaVuSans-63" x="445.109375"/>
      <use xlink:href="#DejaVuSans-6f" x="500.089844"/>
      <use xlink:href="#DejaVuSans-72" x="561.271484"/>
      <use xlink:href="#DejaVuSans-65" x="600.134766"/>
     </g>
    </g>
    <g id="line2d_22">
     <path d="M 733.60375 467.929063 
L 749.60375 467.929063 
L 765.60375 467.929063 
" style="fill: none; stroke: #e78ac3; stroke-width: 2.5; stroke-linecap: round"/>
     <g>
      <use xlink:href="#m946f2c45ed" x="749.60375" y="467.929063" style="fill: #e78ac3; stroke: #e78ac3; stroke-linejoin: miter"/>
     </g>
    </g>
    <g id="text_22">
     <!-- Test AUC -->
     <g style="fill: #262626" transform="translate(778.40375 473.529063) scale(0.16 -0.16)">
      <defs>
       <path id="DejaVuSans-55" d="M 556 4666 
L 1191 4666 
L 1191 1831 
Q 1191 1081 1462 751 
Q 1734 422 2344 422 
Q 2950 422 3222 751 
Q 3494 1081 3494 1831 
L 3494 4666 
L 4128 4666 
L 4128 1753 
Q 4128 841 3676 375 
Q 3225 -91 2344 -91 
Q 1459 -91 1007 375 
Q 556 841 556 1753 
L 556 4666 
z
" transform="scale(0.015625)"/>
      </defs>
      <use xlink:href="#DejaVuSans-54"/>
      <use xlink:href="#DejaVuSans-65" x="44.083984"/>
      <use xlink:href="#DejaVuSans-73" x="105.607422"/>
      <use xlink:href="#DejaVuSans-74" x="157.707031"/>
      <use xlink:href="#DejaVuSans-20" x="196.916016"/>
      <use xlink:href="#DejaVuSans-41" x="228.703125"/>
      <use xlink:href="#DejaVuSans-55" x="297.111328"/>
      <use xlink:href="#DejaVuSans-43" x="370.304688"/>
     </g>
    </g>
   </g>
  </g>
 </g>
 <defs>
  <clipPath id="p04dbb4b090">
   <rect x="68.50125" y="29.916562" width="907.08" height="461.34"/>
  </clipPath>
 </defs>
</svg>
