<?xml version="1.0" encoding="utf-8" standalone="no"?>
<!DOCTYPE svg PUBLIC "-//W3C//DTD SVG 1.1//EN"
  "http://www.w3.org/Graphics/SVG/1.1/DTD/svg11.dtd">
<svg xmlns:xlink="http://www.w3.org/1999/xlink" width="979.656561pt" height="550.742188pt" viewBox="0 0 979.656561 550.742188" xmlns="http://www.w3.org/2000/svg" version="1.1">
 <metadata>
  <rdf:RDF xmlns:dc="http://purl.org/dc/elements/1.1/" xmlns:cc="http://creativecommons.org/ns#" xmlns:rdf="http://www.w3.org/1999/02/22-rdf-syntax-ns#">
   <cc:Work>
    <dc:type rdf:resource="http://purl.org/dc/dcmitype/StillImage"/>
    <dc:date>2025-06-19T19:48:04.652072</dc:date>
    <dc:format>image/svg+xml</dc:format>
    <dc:creator>
     <cc:Agent>
      <dc:title>Matplotlib v3.8.4, https://matplotlib.org/</dc:title>
     </cc:Agent>
    </dc:creator>
   </cc:Work>
  </rdf:RDF>
 </metadata>
 <defs>
  <style type="text/css">*{stroke-linejoin: round; stroke-linecap: butt}</style>
 </defs>
 <g id="figure_1">
  <g id="patch_1">
   <path d="M 0 550.742188 
L 979.656561 550.742188 
L 979.656561 0 
L 0 0 
z
" style="fill: #ffffff"/>
  </g>
  <g id="axes_1">
   <g id="patch_2">
    <path d="M 65.320625 494.136563 
L 893.94517 494.136563 
L 893.94517 38.916562 
L 65.320625 38.916562 
z
" style="fill: #ffffff"/>
   </g>
   <g id="matplotlib.axis_1">
    <g id="xtick_1">
     <g id="line2d_1">
      <path d="M 87.612009 494.136563 
L 87.612009 38.916562 
" clip-path="url(#p334568eee4)" style="fill: none; stroke-dasharray: 5.55,2.4; stroke-dashoffset: 0; stroke: #cccccc; stroke-opacity: 0.7; stroke-width: 1.5"/>
     </g>
     <g id="text_1">
      <!-- 0 -->
      <g style="fill: #262626" transform="translate(83.158259 517.274375) scale(0.14 -0.14)">
       <defs>
        <path id="DejaVuSans-30" d="M 2034 4250 
Q 1547 4250 1301 3770 
Q 1056 3291 1056 2328 
Q 1056 1369 1301 889 
Q 1547 409 2034 409 
Q 2525 409 2770 889 
Q 3016 1369 3016 2328 
Q 3016 3291 2770 3770 
Q 2525 4250 2034 4250 
z
M 2034 4750 
Q 2819 4750 3233 4129 
Q 3647 3509 3647 2328 
Q 3647 1150 3233 529 
Q 2819 -91 2034 -91 
Q 1250 -91 836 529 
Q 422 1150 422 2328 
Q 422 3509 836 4129 
Q 1250 4750 2034 4750 
z
" transform="scale(0.015625)"/>
       </defs>
       <use xlink:href="#DejaVuSans-30"/>
      </g>
     </g>
    </g>
    <g id="xtick_2">
     <g id="line2d_2">
      <path d="M 241.345691 494.136563 
L 241.345691 38.916562 
" clip-path="url(#p334568eee4)" style="fill: none; stroke-dasharray: 5.55,2.4; stroke-dashoffset: 0; stroke: #cccccc; stroke-opacity: 0.7; stroke-width: 1.5"/>
     </g>
     <g id="text_2">
      <!-- 10 -->
      <g style="fill: #262626" transform="translate(232.438191 517.274375) scale(0.14 -0.14)">
       <defs>
        <path id="DejaVuSans-31" d="M 794 531 
L 1825 531 
L 1825 4091 
L 703 3866 
L 703 4441 
L 1819 4666 
L 2450 4666 
L 2450 531 
L 3481 531 
L 3481 0 
L 794 0 
L 794 531 
z
" transform="scale(0.015625)"/>
       </defs>
       <use xlink:href="#DejaVuSans-31"/>
       <use xlink:href="#DejaVuSans-30" x="63.623047"/>
      </g>
     </g>
    </g>
    <g id="xtick_3">
     <g id="line2d_3">
      <path d="M 395.079373 494.136563 
L 395.079373 38.916562 
" clip-path="url(#p334568eee4)" style="fill: none; stroke-dasharray: 5.55,2.4; stroke-dashoffset: 0; stroke: #cccccc; stroke-opacity: 0.7; stroke-width: 1.5"/>
     </g>
     <g id="text_3">
      <!-- 20 -->
      <g style="fill: #262626" transform="translate(386.171873 517.274375) scale(0.14 -0.14)">
       <defs>
        <path id="DejaVuSans-32" d="M 1228 531 
L 3431 531 
L 3431 0 
L 469 0 
L 469 531 
Q 828 903 1448 1529 
Q 2069 2156 2228 2338 
Q 2531 2678 2651 2914 
Q 2772 3150 2772 3378 
Q 2772 3750 2511 3984 
Q 2250 4219 1831 4219 
Q 1534 4219 1204 4116 
Q 875 4013 500 3803 
L 500 4441 
Q 881 4594 1212 4672 
Q 1544 4750 1819 4750 
Q 2544 4750 2975 4387 
Q 3406 4025 3406 3419 
Q 3406 3131 3298 2873 
Q 3191 2616 2906 2266 
Q 2828 2175 2409 1742 
Q 1991 1309 1228 531 
z
" transform="scale(0.015625)"/>
       </defs>
       <use xlink:href="#DejaVuSans-32"/>
       <use xlink:href="#DejaVuSans-30" x="63.623047"/>
      </g>
     </g>
    </g>
    <g id="xtick_4">
     <g id="line2d_4">
      <path d="M 548.813055 494.136563 
L 548.813055 38.916562 
" clip-path="url(#p334568eee4)" style="fill: none; stroke-dasharray: 5.55,2.4; stroke-dashoffset: 0; stroke: #cccccc; stroke-opacity: 0.7; stroke-width: 1.5"/>
     </g>
     <g id="text_4">
      <!-- 30 -->
      <g style="fill: #262626" transform="translate(539.905555 517.274375) scale(0.14 -0.14)">
       <defs>
        <path id="DejaVuSans-33" d="M 2597 2516 
Q 3050 2419 3304 2112 
Q 3559 1806 3559 1356 
Q 3559 666 3084 287 
Q 2609 -91 1734 -91 
Q 1441 -91 1130 -33 
Q 819 25 488 141 
L 488 750 
Q 750 597 1062 519 
Q 1375 441 1716 441 
Q 2309 441 2620 675 
Q 2931 909 2931 1356 
Q 2931 1769 2642 2001 
Q 2353 2234 1838 2234 
L 1294 2234 
L 1294 2753 
L 1863 2753 
Q 2328 2753 2575 2939 
Q 2822 3125 2822 3475 
Q 2822 3834 2567 4026 
Q 2313 4219 1838 4219 
Q 1578 4219 1281 4162 
Q 984 4106 628 3988 
L 628 4550 
Q 988 4650 1302 4700 
Q 1616 4750 1894 4750 
Q 2613 4750 3031 4423 
Q 3450 4097 3450 3541 
Q 3450 3153 3228 2886 
Q 3006 2619 2597 2516 
z
" transform="scale(0.015625)"/>
       </defs>
       <use xlink:href="#DejaVuSans-33"/>
       <use xlink:href="#DejaVuSans-30" x="63.623047"/>
      </g>
     </g>
    </g>
    <g id="xtick_5">
     <g id="line2d_5">
      <path d="M 702.546736 494.136563 
L 702.546736 38.916562 
" clip-path="url(#p334568eee4)" style="fill: none; stroke-dasharray: 5.55,2.4; stroke-dashoffset: 0; stroke: #cccccc; stroke-opacity: 0.7; stroke-width: 1.5"/>
     </g>
     <g id="text_5">
      <!-- 40 -->
      <g style="fill: #262626" transform="translate(693.639236 517.274375) scale(0.14 -0.14)">
       <defs>
        <path id="DejaVuSans-34" d="M 2419 4116 
L 825 1625 
L 2419 1625 
L 2419 4116 
z
M 2253 4666 
L 3047 4666 
L 3047 1625 
L 3713 1625 
L 3713 1100 
L 3047 1100 
L 3047 0 
L 2419 0 
L 2419 1100 
L 313 1100 
L 313 1709 
L 2253 4666 
z
" transform="scale(0.015625)"/>
       </defs>
       <use xlink:href="#DejaVuSans-34"/>
       <use xlink:href="#DejaVuSans-30" x="63.623047"/>
      </g>
     </g>
    </g>
    <g id="xtick_6">
     <g id="line2d_6">
      <path d="M 856.280418 494.136563 
L 856.280418 38.916562 
" clip-path="url(#p334568eee4)" style="fill: none; stroke-dasharray: 5.55,2.4; stroke-dashoffset: 0; stroke: #cccccc; stroke-opacity: 0.7; stroke-width: 1.5"/>
     </g>
     <g id="text_6">
      <!-- 50 -->
      <g style="fill: #262626" transform="translate(847.372918 517.274375) scale(0.14 -0.14)">
       <defs>
        <path id="DejaVuSans-35" d="M 691 4666 
L 3169 4666 
L 3169 4134 
L 1269 4134 
L 1269 2991 
Q 1406 3038 1543 3061 
Q 1681 3084 1819 3084 
Q 2600 3084 3056 2656 
Q 3513 2228 3513 1497 
Q 3513 744 3044 326 
Q 2575 -91 1722 -91 
Q 1428 -91 1123 -41 
Q 819 9 494 109 
L 494 744 
Q 775 591 1075 516 
Q 1375 441 1709 441 
Q 2250 441 2565 725 
Q 2881 1009 2881 1497 
Q 2881 1984 2565 2268 
Q 2250 2553 1709 2553 
Q 1456 2553 1204 2497 
Q 953 2441 691 2322 
L 691 4666 
z
" transform="scale(0.015625)"/>
       </defs>
       <use xlink:href="#DejaVuSans-35"/>
       <use xlink:href="#DejaVuSans-30" x="63.623047"/>
      </g>
     </g>
    </g>
    <g id="text_7">
     <!-- Epochs -->
     <g style="fill: #262626" transform="translate(439.775085 539.382813) scale(0.2 -0.2)">
      <defs>
       <path id="DejaVuSans-Bold-45" d="M 588 4666 
L 3834 4666 
L 3834 3756 
L 1791 3756 
L 1791 2888 
L 3713 2888 
L 3713 1978 
L 1791 1978 
L 1791 909 
L 3903 909 
L 3903 0 
L 588 0 
L 588 4666 
z
" transform="scale(0.015625)"/>
       <path id="DejaVuSans-Bold-70" d="M 1656 506 
L 1656 -1331 
L 538 -1331 
L 538 3500 
L 1656 3500 
L 1656 2988 
Q 1888 3294 2169 3439 
Q 2450 3584 2816 3584 
Q 3463 3584 3878 3070 
Q 4294 2556 4294 1747 
Q 4294 938 3878 423 
Q 3463 -91 2816 -91 
Q 2450 -91 2169 54 
Q 1888 200 1656 506 
z
M 2400 2772 
Q 2041 2772 1848 2508 
Q 1656 2244 1656 1747 
Q 1656 1250 1848 986 
Q 2041 722 2400 722 
Q 2759 722 2948 984 
Q 3138 1247 3138 1747 
Q 3138 2247 2948 2509 
Q 2759 2772 2400 2772 
z
" transform="scale(0.015625)"/>
       <path id="DejaVuSans-Bold-6f" d="M 2203 2784 
Q 1831 2784 1636 2517 
Q 1441 2250 1441 1747 
Q 1441 1244 1636 976 
Q 1831 709 2203 709 
Q 2569 709 2762 976 
Q 2956 1244 2956 1747 
Q 2956 2250 2762 2517 
Q 2569 2784 2203 2784 
z
M 2203 3584 
Q 3106 3584 3614 3096 
Q 4122 2609 4122 1747 
Q 4122 884 3614 396 
Q 3106 -91 2203 -91 
Q 1297 -91 786 396 
Q 275 884 275 1747 
Q 275 2609 786 3096 
Q 1297 3584 2203 3584 
z
" transform="scale(0.015625)"/>
       <path id="DejaVuSans-Bold-63" d="M 3366 3391 
L 3366 2478 
Q 3138 2634 2908 2709 
Q 2678 2784 2431 2784 
Q 1963 2784 1702 2511 
Q 1441 2238 1441 1747 
Q 1441 1256 1702 982 
Q 1963 709 2431 709 
Q 2694 709 2930 787 
Q 3166 866 3366 1019 
L 3366 103 
Q 3103 6 2833 -42 
Q 2563 -91 2291 -91 
Q 1344 -91 809 395 
Q 275 881 275 1747 
Q 275 2613 809 3098 
Q 1344 3584 2291 3584 
Q 2566 3584 2833 3536 
Q 3100 3488 3366 3391 
z
" transform="scale(0.015625)"/>
       <path id="DejaVuSans-Bold-68" d="M 4056 2131 
L 4056 0 
L 2931 0 
L 2931 347 
L 2931 1625 
Q 2931 2084 2911 2256 
Q 2891 2428 2841 2509 
Q 2775 2619 2662 2680 
Q 2550 2741 2406 2741 
Q 2056 2741 1856 2470 
Q 1656 2200 1656 1722 
L 1656 0 
L 538 0 
L 538 4863 
L 1656 4863 
L 1656 2988 
Q 1909 3294 2193 3439 
Q 2478 3584 2822 3584 
Q 3428 3584 3742 3212 
Q 4056 2841 4056 2131 
z
" transform="scale(0.015625)"/>
       <path id="DejaVuSans-Bold-73" d="M 3272 3391 
L 3272 2541 
Q 2913 2691 2578 2766 
Q 2244 2841 1947 2841 
Q 1628 2841 1473 2761 
Q 1319 2681 1319 2516 
Q 1319 2381 1436 2309 
Q 1553 2238 1856 2203 
L 2053 2175 
Q 2913 2066 3209 1816 
Q 3506 1566 3506 1031 
Q 3506 472 3093 190 
Q 2681 -91 1863 -91 
Q 1516 -91 1145 -36 
Q 775 19 384 128 
L 384 978 
Q 719 816 1070 734 
Q 1422 653 1784 653 
Q 2113 653 2278 743 
Q 2444 834 2444 1013 
Q 2444 1163 2330 1236 
Q 2216 1309 1875 1350 
L 1678 1375 
Q 931 1469 631 1722 
Q 331 1975 331 2491 
Q 331 3047 712 3315 
Q 1094 3584 1881 3584 
Q 2191 3584 2531 3537 
Q 2872 3491 3272 3391 
z
" transform="scale(0.015625)"/>
      </defs>
      <use xlink:href="#DejaVuSans-Bold-45"/>
      <use xlink:href="#DejaVuSans-Bold-70" x="68.310547"/>
      <use xlink:href="#DejaVuSans-Bold-6f" x="139.892578"/>
      <use xlink:href="#DejaVuSans-Bold-63" x="208.59375"/>
      <use xlink:href="#DejaVuSans-Bold-68" x="267.871094"/>
      <use xlink:href="#DejaVuSans-Bold-73" x="339.0625"/>
     </g>
    </g>
   </g>
   <g id="matplotlib.axis_2">
    <g id="ytick_1">
     <g id="line2d_7">
      <path d="M 65.320625 473.444744 
L 893.94517 473.444744 
" clip-path="url(#p334568eee4)" style="fill: none; stroke-dasharray: 5.55,2.4; stroke-dashoffset: 0; stroke: #cccccc; stroke-opacity: 0.7; stroke-width: 1.5"/>
     </g>
     <g id="text_8">
      <!-- 0.0 -->
      <g style="fill: #262626" transform="translate(30.55625 478.763651) scale(0.14 -0.14)">
       <defs>
        <path id="DejaVuSans-2e" d="M 684 794 
L 1344 794 
L 1344 0 
L 684 0 
L 684 794 
z
" transform="scale(0.015625)"/>
       </defs>
       <use xlink:href="#DejaVuSans-30"/>
       <use xlink:href="#DejaVuSans-2e" x="63.623047"/>
       <use xlink:href="#DejaVuSans-30" x="95.410156"/>
      </g>
     </g>
    </g>
    <g id="ytick_2">
     <g id="line2d_8">
      <path d="M 65.320625 390.677472 
L 893.94517 390.677472 
" clip-path="url(#p334568eee4)" style="fill: none; stroke-dasharray: 5.55,2.4; stroke-dashoffset: 0; stroke: #cccccc; stroke-opacity: 0.7; stroke-width: 1.5"/>
     </g>
     <g id="text_9">
      <!-- 0.2 -->
      <g style="fill: #262626" transform="translate(30.55625 395.996378) scale(0.14 -0.14)">
       <use xlink:href="#DejaVuSans-30"/>
       <use xlink:href="#DejaVuSans-2e" x="63.623047"/>
       <use xlink:href="#DejaVuSans-32" x="95.410156"/>
      </g>
     </g>
    </g>
    <g id="ytick_3">
     <g id="line2d_9">
      <path d="M 65.320625 307.910199 
L 893.94517 307.910199 
" clip-path="url(#p334568eee4)" style="fill: none; stroke-dasharray: 5.55,2.4; stroke-dashoffset: 0; stroke: #cccccc; stroke-opacity: 0.7; stroke-width: 1.5"/>
     </g>
     <g id="text_10">
      <!-- 0.4 -->
      <g style="fill: #262626" transform="translate(30.55625 313.229105) scale(0.14 -0.14)">
       <use xlink:href="#DejaVuSans-30"/>
       <use xlink:href="#DejaVuSans-2e" x="63.623047"/>
       <use xlink:href="#DejaVuSans-34" x="95.410156"/>
      </g>
     </g>
    </g>
    <g id="ytick_4">
     <g id="line2d_10">
      <path d="M 65.320625 225.142926 
L 893.94517 225.142926 
" clip-path="url(#p334568eee4)" style="fill: none; stroke-dasharray: 5.55,2.4; stroke-dashoffset: 0; stroke: #cccccc; stroke-opacity: 0.7; stroke-width: 1.5"/>
     </g>
     <g id="text_11">
      <!-- 0.6 -->
      <g style="fill: #262626" transform="translate(30.55625 230.461832) scale(0.14 -0.14)">
       <defs>
        <path id="DejaVuSans-36" d="M 2113 2584 
Q 1688 2584 1439 2293 
Q 1191 2003 1191 1497 
Q 1191 994 1439 701 
Q 1688 409 2113 409 
Q 2538 409 2786 701 
Q 3034 994 3034 1497 
Q 3034 2003 2786 2293 
Q 2538 2584 2113 2584 
z
M 3366 4563 
L 3366 3988 
Q 3128 4100 2886 4159 
Q 2644 4219 2406 4219 
Q 1781 4219 1451 3797 
Q 1122 3375 1075 2522 
Q 1259 2794 1537 2939 
Q 1816 3084 2150 3084 
Q 2853 3084 3261 2657 
Q 3669 2231 3669 1497 
Q 3669 778 3244 343 
Q 2819 -91 2113 -91 
Q 1303 -91 875 529 
Q 447 1150 447 2328 
Q 447 3434 972 4092 
Q 1497 4750 2381 4750 
Q 2619 4750 2861 4703 
Q 3103 4656 3366 4563 
z
" transform="scale(0.015625)"/>
       </defs>
       <use xlink:href="#DejaVuSans-30"/>
       <use xlink:href="#DejaVuSans-2e" x="63.623047"/>
       <use xlink:href="#DejaVuSans-36" x="95.410156"/>
      </g>
     </g>
    </g>
    <g id="ytick_5">
     <g id="line2d_11">
      <path d="M 65.320625 142.375653 
L 893.94517 142.375653 
" clip-path="url(#p334568eee4)" style="fill: none; stroke-dasharray: 5.55,2.4; stroke-dashoffset: 0; stroke: #cccccc; stroke-opacity: 0.7; stroke-width: 1.5"/>
     </g>
     <g id="text_12">
      <!-- 0.8 -->
      <g style="fill: #262626" transform="translate(30.55625 147.69456) scale(0.14 -0.14)">
       <defs>
        <path id="DejaVuSans-38" d="M 2034 2216 
Q 1584 2216 1326 1975 
Q 1069 1734 1069 1313 
Q 1069 891 1326 650 
Q 1584 409 2034 409 
Q 2484 409 2743 651 
Q 3003 894 3003 1313 
Q 3003 1734 2745 1975 
Q 2488 2216 2034 2216 
z
M 1403 2484 
Q 997 2584 770 2862 
Q 544 3141 544 3541 
Q 544 4100 942 4425 
Q 1341 4750 2034 4750 
Q 2731 4750 3128 4425 
Q 3525 4100 3525 3541 
Q 3525 3141 3298 2862 
Q 3072 2584 2669 2484 
Q 3125 2378 3379 2068 
Q 3634 1759 3634 1313 
Q 3634 634 3220 271 
Q 2806 -91 2034 -91 
Q 1263 -91 848 271 
Q 434 634 434 1313 
Q 434 1759 690 2068 
Q 947 2378 1403 2484 
z
M 1172 3481 
Q 1172 3119 1398 2916 
Q 1625 2713 2034 2713 
Q 2441 2713 2670 2916 
Q 2900 3119 2900 3481 
Q 2900 3844 2670 4047 
Q 2441 4250 2034 4250 
Q 1625 4250 1398 4047 
Q 1172 3844 1172 3481 
z
" transform="scale(0.015625)"/>
       </defs>
       <use xlink:href="#DejaVuSans-30"/>
       <use xlink:href="#DejaVuSans-2e" x="63.623047"/>
       <use xlink:href="#DejaVuSans-38" x="95.410156"/>
      </g>
     </g>
    </g>
    <g id="ytick_6">
     <g id="line2d_12">
      <path d="M 65.320625 59.608381 
L 893.94517 59.608381 
" clip-path="url(#p334568eee4)" style="fill: none; stroke-dasharray: 5.55,2.4; stroke-dashoffset: 0; stroke: #cccccc; stroke-opacity: 0.7; stroke-width: 1.5"/>
     </g>
     <g id="text_13">
      <!-- 1.0 -->
      <g style="fill: #262626" transform="translate(30.55625 64.927287) scale(0.14 -0.14)">
       <use xlink:href="#DejaVuSans-31"/>
       <use xlink:href="#DejaVuSans-2e" x="63.623047"/>
       <use xlink:href="#DejaVuSans-30" x="95.410156"/>
      </g>
     </g>
    </g>
    <g id="text_14">
     <!-- Score -->
     <g style="fill: #262626" transform="translate(22.396875 298.240625) rotate(-90) scale(0.2 -0.2)">
      <defs>
       <path id="DejaVuSans-Bold-53" d="M 3834 4519 
L 3834 3531 
Q 3450 3703 3084 3790 
Q 2719 3878 2394 3878 
Q 1963 3878 1756 3759 
Q 1550 3641 1550 3391 
Q 1550 3203 1689 3098 
Q 1828 2994 2194 2919 
L 2706 2816 
Q 3484 2659 3812 2340 
Q 4141 2022 4141 1434 
Q 4141 663 3683 286 
Q 3225 -91 2284 -91 
Q 1841 -91 1394 -6 
Q 947 78 500 244 
L 500 1259 
Q 947 1022 1364 901 
Q 1781 781 2169 781 
Q 2563 781 2772 912 
Q 2981 1044 2981 1288 
Q 2981 1506 2839 1625 
Q 2697 1744 2272 1838 
L 1806 1941 
Q 1106 2091 782 2419 
Q 459 2747 459 3303 
Q 459 4000 909 4375 
Q 1359 4750 2203 4750 
Q 2588 4750 2994 4692 
Q 3400 4634 3834 4519 
z
" transform="scale(0.015625)"/>
       <path id="DejaVuSans-Bold-72" d="M 3138 2547 
Q 2991 2616 2845 2648 
Q 2700 2681 2553 2681 
Q 2122 2681 1889 2404 
Q 1656 2128 1656 1613 
L 1656 0 
L 538 0 
L 538 3500 
L 1656 3500 
L 1656 2925 
Q 1872 3269 2151 3426 
Q 2431 3584 2822 3584 
Q 2878 3584 2943 3579 
Q 3009 3575 3134 3559 
L 3138 2547 
z
" transform="scale(0.015625)"/>
       <path id="DejaVuSans-Bold-65" d="M 4031 1759 
L 4031 1441 
L 1416 1441 
Q 1456 1047 1700 850 
Q 1944 653 2381 653 
Q 2734 653 3104 758 
Q 3475 863 3866 1075 
L 3866 213 
Q 3469 63 3072 -14 
Q 2675 -91 2278 -91 
Q 1328 -91 801 392 
Q 275 875 275 1747 
Q 275 2603 792 3093 
Q 1309 3584 2216 3584 
Q 3041 3584 3536 3087 
Q 4031 2591 4031 1759 
z
M 2881 2131 
Q 2881 2450 2695 2645 
Q 2509 2841 2209 2841 
Q 1884 2841 1681 2658 
Q 1478 2475 1428 2131 
L 2881 2131 
z
" transform="scale(0.015625)"/>
      </defs>
      <use xlink:href="#DejaVuSans-Bold-53"/>
      <use xlink:href="#DejaVuSans-Bold-63" x="72.021484"/>
      <use xlink:href="#DejaVuSans-Bold-6f" x="131.298828"/>
      <use xlink:href="#DejaVuSans-Bold-72" x="200"/>
      <use xlink:href="#DejaVuSans-Bold-65" x="249.316406"/>
     </g>
    </g>
   </g>
   <g id="line2d_13">
    <path d="M 102.985377 189.050718 
L 118.358745 191.732497 
L 133.732113 194.307154 
L 149.105482 196.838501 
L 164.47885 199.183912 
L 179.852218 201.399108 
L 195.225586 203.367165 
L 210.598954 205.097782 
L 225.972323 206.505532 
L 241.345691 207.657663 
L 256.719059 208.62369 
L 272.092427 209.456493 
L 287.465795 210.153994 
L 302.839164 210.712726 
L 318.212532 211.123874 
L 333.5859 211.402877 
L 348.959268 211.646849 
L 364.332636 211.861394 
L 379.706004 212.074583 
L 395.079373 212.262147 
L 410.452741 212.403783 
L 425.826109 212.560524 
L 441.199477 212.704478 
L 456.572845 212.836627 
L 471.946214 212.91076 
L 487.319582 212.984927 
L 502.69295 213.040738 
L 518.066318 213.080174 
L 533.439686 213.099483 
L 548.813055 213.104476 
L 564.186423 213.120958 
L 579.559791 213.12118 
L 594.933159 213.140978 
L 610.306527 213.162309 
L 625.679896 213.178851 
L 641.053264 213.212259 
L 656.426632 213.242683 
L 671.8 213.27065 
L 687.173368 213.293974 
L 702.546736 213.315094 
L 717.920105 213.321103 
L 733.293473 213.343909 
L 748.666841 213.389918 
L 764.040209 213.470252 
L 779.413577 213.571853 
L 794.786946 213.636041 
L 810.160314 213.766685 
L 825.533682 213.941156 
L 840.90705 214.040187 
L 856.280418 213.980312 
" clip-path="url(#p334568eee4)" style="fill: none; stroke: #3b528b; stroke-width: 2.5; stroke-linecap: round"/>
    <defs>
     <path id="md04b308d24" d="M 0 4 
C 1.060812 4 2.078319 3.578535 2.828427 2.828427 
C 3.578535 2.078319 4 1.060812 4 0 
C 4 -1.060812 3.578535 -2.078319 2.828427 -2.828427 
C 2.078319 -3.578535 1.060812 -4 0 -4 
C -1.060812 -4 -2.078319 -3.578535 -2.828427 -2.828427 
C -3.578535 -2.078319 -4 -1.060812 -4 0 
C -4 1.060812 -3.578535 2.078319 -2.828427 2.828427 
C -2.078319 3.578535 -1.060812 4 0 4 
z
" style="stroke: #3b528b"/>
    </defs>
    <g clip-path="url(#p334568eee4)">
     <use xlink:href="#md04b308d24" x="102.985377" y="189.050718" style="fill: #3b528b; stroke: #3b528b"/>
     <use xlink:href="#md04b308d24" x="118.358745" y="191.732497" style="fill: #3b528b; stroke: #3b528b"/>
     <use xlink:href="#md04b308d24" x="133.732113" y="194.307154" style="fill: #3b528b; stroke: #3b528b"/>
     <use xlink:href="#md04b308d24" x="149.105482" y="196.838501" style="fill: #3b528b; stroke: #3b528b"/>
     <use xlink:href="#md04b308d24" x="164.47885" y="199.183912" style="fill: #3b528b; stroke: #3b528b"/>
     <use xlink:href="#md04b308d24" x="179.852218" y="201.399108" style="fill: #3b528b; stroke: #3b528b"/>
     <use xlink:href="#md04b308d24" x="195.225586" y="203.367165" style="fill: #3b528b; stroke: #3b528b"/>
     <use xlink:href="#md04b308d24" x="210.598954" y="205.097782" style="fill: #3b528b; stroke: #3b528b"/>
     <use xlink:href="#md04b308d24" x="225.972323" y="206.505532" style="fill: #3b528b; stroke: #3b528b"/>
     <use xlink:href="#md04b308d24" x="241.345691" y="207.657663" style="fill: #3b528b; stroke: #3b528b"/>
     <use xlink:href="#md04b308d24" x="256.719059" y="208.62369" style="fill: #3b528b; stroke: #3b528b"/>
     <use xlink:href="#md04b308d24" x="272.092427" y="209.456493" style="fill: #3b528b; stroke: #3b528b"/>
     <use xlink:href="#md04b308d24" x="287.465795" y="210.153994" style="fill: #3b528b; stroke: #3b528b"/>
     <use xlink:href="#md04b308d24" x="302.839164" y="210.712726" style="fill: #3b528b; stroke: #3b528b"/>
     <use xlink:href="#md04b308d24" x="318.212532" y="211.123874" style="fill: #3b528b; stroke: #3b528b"/>
     <use xlink:href="#md04b308d24" x="333.5859" y="211.402877" style="fill: #3b528b; stroke: #3b528b"/>
     <use xlink:href="#md04b308d24" x="348.959268" y="211.646849" style="fill: #3b528b; stroke: #3b528b"/>
     <use xlink:href="#md04b308d24" x="364.332636" y="211.861394" style="fill: #3b528b; stroke: #3b528b"/>
     <use xlink:href="#md04b308d24" x="379.706004" y="212.074583" style="fill: #3b528b; stroke: #3b528b"/>
     <use xlink:href="#md04b308d24" x="395.079373" y="212.262147" style="fill: #3b528b; stroke: #3b528b"/>
     <use xlink:href="#md04b308d24" x="410.452741" y="212.403783" style="fill: #3b528b; stroke: #3b528b"/>
     <use xlink:href="#md04b308d24" x="425.826109" y="212.560524" style="fill: #3b528b; stroke: #3b528b"/>
     <use xlink:href="#md04b308d24" x="441.199477" y="212.704478" style="fill: #3b528b; stroke: #3b528b"/>
     <use xlink:href="#md04b308d24" x="456.572845" y="212.836627" style="fill: #3b528b; stroke: #3b528b"/>
     <use xlink:href="#md04b308d24" x="471.946214" y="212.91076" style="fill: #3b528b; stroke: #3b528b"/>
     <use xlink:href="#md04b308d24" x="487.319582" y="212.984927" style="fill: #3b528b; stroke: #3b528b"/>
     <use xlink:href="#md04b308d24" x="502.69295" y="213.040738" style="fill: #3b528b; stroke: #3b528b"/>
     <use xlink:href="#md04b308d24" x="518.066318" y="213.080174" style="fill: #3b528b; stroke: #3b528b"/>
     <use xlink:href="#md04b308d24" x="533.439686" y="213.099483" style="fill: #3b528b; stroke: #3b528b"/>
     <use xlink:href="#md04b308d24" x="548.813055" y="213.104476" style="fill: #3b528b; stroke: #3b528b"/>
     <use xlink:href="#md04b308d24" x="564.186423" y="213.120958" style="fill: #3b528b; stroke: #3b528b"/>
     <use xlink:href="#md04b308d24" x="579.559791" y="213.12118" style="fill: #3b528b; stroke: #3b528b"/>
     <use xlink:href="#md04b308d24" x="594.933159" y="213.140978" style="fill: #3b528b; stroke: #3b528b"/>
     <use xlink:href="#md04b308d24" x="610.306527" y="213.162309" style="fill: #3b528b; stroke: #3b528b"/>
     <use xlink:href="#md04b308d24" x="625.679896" y="213.178851" style="fill: #3b528b; stroke: #3b528b"/>
     <use xlink:href="#md04b308d24" x="641.053264" y="213.212259" style="fill: #3b528b; stroke: #3b528b"/>
     <use xlink:href="#md04b308d24" x="656.426632" y="213.242683" style="fill: #3b528b; stroke: #3b528b"/>
     <use xlink:href="#md04b308d24" x="671.8" y="213.27065" style="fill: #3b528b; stroke: #3b528b"/>
     <use xlink:href="#md04b308d24" x="687.173368" y="213.293974" style="fill: #3b528b; stroke: #3b528b"/>
     <use xlink:href="#md04b308d24" x="702.546736" y="213.315094" style="fill: #3b528b; stroke: #3b528b"/>
     <use xlink:href="#md04b308d24" x="717.920105" y="213.321103" style="fill: #3b528b; stroke: #3b528b"/>
     <use xlink:href="#md04b308d24" x="733.293473" y="213.343909" style="fill: #3b528b; stroke: #3b528b"/>
     <use xlink:href="#md04b308d24" x="748.666841" y="213.389918" style="fill: #3b528b; stroke: #3b528b"/>
     <use xlink:href="#md04b308d24" x="764.040209" y="213.470252" style="fill: #3b528b; stroke: #3b528b"/>
     <use xlink:href="#md04b308d24" x="779.413577" y="213.571853" style="fill: #3b528b; stroke: #3b528b"/>
     <use xlink:href="#md04b308d24" x="794.786946" y="213.636041" style="fill: #3b528b; stroke: #3b528b"/>
     <use xlink:href="#md04b308d24" x="810.160314" y="213.766685" style="fill: #3b528b; stroke: #3b528b"/>
     <use xlink:href="#md04b308d24" x="825.533682" y="213.941156" style="fill: #3b528b; stroke: #3b528b"/>
     <use xlink:href="#md04b308d24" x="840.90705" y="214.040187" style="fill: #3b528b; stroke: #3b528b"/>
     <use xlink:href="#md04b308d24" x="856.280418" y="213.980312" style="fill: #3b528b; stroke: #3b528b"/>
    </g>
   </g>
   <g id="line2d_14">
    <path d="M 102.985377 229.570868 
L 118.358745 187.78887 
L 133.732113 188.93799 
L 149.105482 190.056467 
L 164.47885 190.071788 
L 179.852218 190.071788 
L 195.225586 190.071788 
L 210.598954 190.056467 
L 225.972323 190.056467 
L 241.345691 188.93799 
L 256.719059 187.804192 
L 272.092427 183.28432 
L 287.465795 182.1352 
L 302.839164 180.986081 
L 318.212532 180.986081 
L 333.5859 180.986081 
L 348.959268 180.986081 
L 364.332636 179.867604 
L 379.706004 184.372154 
L 395.079373 184.387475 
L 410.452741 188.907347 
L 425.826109 188.907347 
L 441.199477 186.655072 
L 456.572845 184.418118 
L 471.946214 182.165844 
L 487.319582 182.165844 
L 502.69295 182.165844 
L 518.066318 181.032045 
L 533.439686 181.032045 
L 548.813055 179.898247 
L 564.186423 179.898247 
L 579.559791 181.032045 
L 594.933159 181.032045 
L 610.306527 179.913569 
L 625.679896 179.913569 
L 641.053264 179.913569 
L 656.426632 181.032045 
L 671.8 179.913569 
L 687.173368 178.795092 
L 702.546736 179.913569 
L 717.920105 179.913569 
L 733.293473 179.913569 
L 748.666841 178.795092 
L 764.040209 178.795092 
L 779.413577 177.676615 
L 794.786946 177.676615 
L 810.160314 177.676615 
L 825.533682 176.558139 
L 840.90705 177.676615 
L 856.280418 177.676615 
" clip-path="url(#p334568eee4)" style="fill: none; stroke: #21918c; stroke-width: 2.5; stroke-linecap: round"/>
    <defs>
     <path id="m3a343af321" d="M -4 4 
L 4 4 
L 4 -4 
L -4 -4 
z
" style="stroke: #21918c; stroke-linejoin: miter"/>
    </defs>
    <g clip-path="url(#p334568eee4)">
     <use xlink:href="#m3a343af321" x="102.985377" y="229.570868" style="fill: #21918c; stroke: #21918c; stroke-linejoin: miter"/>
     <use xlink:href="#m3a343af321" x="118.358745" y="187.78887" style="fill: #21918c; stroke: #21918c; stroke-linejoin: miter"/>
     <use xlink:href="#m3a343af321" x="133.732113" y="188.93799" style="fill: #21918c; stroke: #21918c; stroke-linejoin: miter"/>
     <use xlink:href="#m3a343af321" x="149.105482" y="190.056467" style="fill: #21918c; stroke: #21918c; stroke-linejoin: miter"/>
     <use xlink:href="#m3a343af321" x="164.47885" y="190.071788" style="fill: #21918c; stroke: #21918c; stroke-linejoin: miter"/>
     <use xlink:href="#m3a343af321" x="179.852218" y="190.071788" style="fill: #21918c; stroke: #21918c; stroke-linejoin: miter"/>
     <use xlink:href="#m3a343af321" x="195.225586" y="190.071788" style="fill: #21918c; stroke: #21918c; stroke-linejoin: miter"/>
     <use xlink:href="#m3a343af321" x="210.598954" y="190.056467" style="fill: #21918c; stroke: #21918c; stroke-linejoin: miter"/>
     <use xlink:href="#m3a343af321" x="225.972323" y="190.056467" style="fill: #21918c; stroke: #21918c; stroke-linejoin: miter"/>
     <use xlink:href="#m3a343af321" x="241.345691" y="188.93799" style="fill: #21918c; stroke: #21918c; stroke-linejoin: miter"/>
     <use xlink:href="#m3a343af321" x="256.719059" y="187.804192" style="fill: #21918c; stroke: #21918c; stroke-linejoin: miter"/>
     <use xlink:href="#m3a343af321" x="272.092427" y="183.28432" style="fill: #21918c; stroke: #21918c; stroke-linejoin: miter"/>
     <use xlink:href="#m3a343af321" x="287.465795" y="182.1352" style="fill: #21918c; stroke: #21918c; stroke-linejoin: miter"/>
     <use xlink:href="#m3a343af321" x="302.839164" y="180.986081" style="fill: #21918c; stroke: #21918c; stroke-linejoin: miter"/>
     <use xlink:href="#m3a343af321" x="318.212532" y="180.986081" style="fill: #21918c; stroke: #21918c; stroke-linejoin: miter"/>
     <use xlink:href="#m3a343af321" x="333.5859" y="180.986081" style="fill: #21918c; stroke: #21918c; stroke-linejoin: miter"/>
     <use xlink:href="#m3a343af321" x="348.959268" y="180.986081" style="fill: #21918c; stroke: #21918c; stroke-linejoin: miter"/>
     <use xlink:href="#m3a343af321" x="364.332636" y="179.867604" style="fill: #21918c; stroke: #21918c; stroke-linejoin: miter"/>
     <use xlink:href="#m3a343af321" x="379.706004" y="184.372154" style="fill: #21918c; stroke: #21918c; stroke-linejoin: miter"/>
     <use xlink:href="#m3a343af321" x="395.079373" y="184.387475" style="fill: #21918c; stroke: #21918c; stroke-linejoin: miter"/>
     <use xlink:href="#m3a343af321" x="410.452741" y="188.907347" style="fill: #21918c; stroke: #21918c; stroke-linejoin: miter"/>
     <use xlink:href="#m3a343af321" x="425.826109" y="188.907347" style="fill: #21918c; stroke: #21918c; stroke-linejoin: miter"/>
     <use xlink:href="#m3a343af321" x="441.199477" y="186.655072" style="fill: #21918c; stroke: #21918c; stroke-linejoin: miter"/>
     <use xlink:href="#m3a343af321" x="456.572845" y="184.418118" style="fill: #21918c; stroke: #21918c; stroke-linejoin: miter"/>
     <use xlink:href="#m3a343af321" x="471.946214" y="182.165844" style="fill: #21918c; stroke: #21918c; stroke-linejoin: miter"/>
     <use xlink:href="#m3a343af321" x="487.319582" y="182.165844" style="fill: #21918c; stroke: #21918c; stroke-linejoin: miter"/>
     <use xlink:href="#m3a343af321" x="502.69295" y="182.165844" style="fill: #21918c; stroke: #21918c; stroke-linejoin: miter"/>
     <use xlink:href="#m3a343af321" x="518.066318" y="181.032045" style="fill: #21918c; stroke: #21918c; stroke-linejoin: miter"/>
     <use xlink:href="#m3a343af321" x="533.439686" y="181.032045" style="fill: #21918c; stroke: #21918c; stroke-linejoin: miter"/>
     <use xlink:href="#m3a343af321" x="548.813055" y="179.898247" style="fill: #21918c; stroke: #21918c; stroke-linejoin: miter"/>
     <use xlink:href="#m3a343af321" x="564.186423" y="179.898247" style="fill: #21918c; stroke: #21918c; stroke-linejoin: miter"/>
     <use xlink:href="#m3a343af321" x="579.559791" y="181.032045" style="fill: #21918c; stroke: #21918c; stroke-linejoin: miter"/>
     <use xlink:href="#m3a343af321" x="594.933159" y="181.032045" style="fill: #21918c; stroke: #21918c; stroke-linejoin: miter"/>
     <use xlink:href="#m3a343af321" x="610.306527" y="179.913569" style="fill: #21918c; stroke: #21918c; stroke-linejoin: miter"/>
     <use xlink:href="#m3a343af321" x="625.679896" y="179.913569" style="fill: #21918c; stroke: #21918c; stroke-linejoin: miter"/>
     <use xlink:href="#m3a343af321" x="641.053264" y="179.913569" style="fill: #21918c; stroke: #21918c; stroke-linejoin: miter"/>
     <use xlink:href="#m3a343af321" x="656.426632" y="181.032045" style="fill: #21918c; stroke: #21918c; stroke-linejoin: miter"/>
     <use xlink:href="#m3a343af321" x="671.8" y="179.913569" style="fill: #21918c; stroke: #21918c; stroke-linejoin: miter"/>
     <use xlink:href="#m3a343af321" x="687.173368" y="178.795092" style="fill: #21918c; stroke: #21918c; stroke-linejoin: miter"/>
     <use xlink:href="#m3a343af321" x="702.546736" y="179.913569" style="fill: #21918c; stroke: #21918c; stroke-linejoin: miter"/>
     <use xlink:href="#m3a343af321" x="717.920105" y="179.913569" style="fill: #21918c; stroke: #21918c; stroke-linejoin: miter"/>
     <use xlink:href="#m3a343af321" x="733.293473" y="179.913569" style="fill: #21918c; stroke: #21918c; stroke-linejoin: miter"/>
     <use xlink:href="#m3a343af321" x="748.666841" y="178.795092" style="fill: #21918c; stroke: #21918c; stroke-linejoin: miter"/>
     <use xlink:href="#m3a343af321" x="764.040209" y="178.795092" style="fill: #21918c; stroke: #21918c; stroke-linejoin: miter"/>
     <use xlink:href="#m3a343af321" x="779.413577" y="177.676615" style="fill: #21918c; stroke: #21918c; stroke-linejoin: miter"/>
     <use xlink:href="#m3a343af321" x="794.786946" y="177.676615" style="fill: #21918c; stroke: #21918c; stroke-linejoin: miter"/>
     <use xlink:href="#m3a343af321" x="810.160314" y="177.676615" style="fill: #21918c; stroke: #21918c; stroke-linejoin: miter"/>
     <use xlink:href="#m3a343af321" x="825.533682" y="176.558139" style="fill: #21918c; stroke: #21918c; stroke-linejoin: miter"/>
     <use xlink:href="#m3a343af321" x="840.90705" y="177.676615" style="fill: #21918c; stroke: #21918c; stroke-linejoin: miter"/>
     <use xlink:href="#m3a343af321" x="856.280418" y="177.676615" style="fill: #21918c; stroke: #21918c; stroke-linejoin: miter"/>
    </g>
   </g>
   <g id="line2d_15">
    <path d="M 102.985377 239.110426 
L 118.358745 220.413485 
L 133.732113 231.675754 
L 149.105482 237.120369 
L 164.47885 237.149813 
L 179.852218 237.149813 
L 195.225586 235.487089 
L 210.598954 235.296339 
L 225.972323 235.296339 
L 241.345691 231.28777 
L 256.719059 227.383892 
L 272.092427 218.547209 
L 287.465795 213.659784 
L 302.839164 209.296554 
L 318.212532 208.387685 
L 333.5859 208.387685 
L 348.959268 208.387685 
L 364.332636 206.347175 
L 379.706004 209.757301 
L 395.079373 208.721839 
L 410.452741 212.074166 
L 425.826109 212.074166 
L 441.199477 208.603624 
L 456.572845 205.022881 
L 471.946214 201.762803 
L 487.319582 201.762803 
L 502.69295 201.762803 
L 518.066318 200.801992 
L 533.439686 200.801992 
L 548.813055 199.830855 
L 564.186423 199.830855 
L 579.559791 201.439981 
L 594.933159 201.439981 
L 610.306527 199.707753 
L 625.679896 199.707753 
L 641.053264 199.707753 
L 656.426632 200.568852 
L 671.8 198.935513 
L 687.173368 197.3618 
L 702.546736 198.271855 
L 717.920105 197.701934 
L 733.293473 197.701934 
L 748.666841 196.270934 
L 764.040209 196.270934 
L 779.413577 194.880407 
L 794.786946 194.880407 
L 810.160314 194.880407 
L 825.533682 193.916193 
L 840.90705 194.880407 
L 856.280418 194.502297 
" clip-path="url(#p334568eee4)" style="fill: none; stroke: #5ec962; stroke-width: 2.5; stroke-linecap: round"/>
    <defs>
     <path id="m28d19c6b6d" d="M -0 5.656854 
L 5.656854 0 
L 0 -5.656854 
L -5.656854 -0 
z
" style="stroke: #5ec962; stroke-linejoin: miter"/>
    </defs>
    <g clip-path="url(#p334568eee4)">
     <use xlink:href="#m28d19c6b6d" x="102.985377" y="239.110426" style="fill: #5ec962; stroke: #5ec962; stroke-linejoin: miter"/>
     <use xlink:href="#m28d19c6b6d" x="118.358745" y="220.413485" style="fill: #5ec962; stroke: #5ec962; stroke-linejoin: miter"/>
     <use xlink:href="#m28d19c6b6d" x="133.732113" y="231.675754" style="fill: #5ec962; stroke: #5ec962; stroke-linejoin: miter"/>
     <use xlink:href="#m28d19c6b6d" x="149.105482" y="237.120369" style="fill: #5ec962; stroke: #5ec962; stroke-linejoin: miter"/>
     <use xlink:href="#m28d19c6b6d" x="164.47885" y="237.149813" style="fill: #5ec962; stroke: #5ec962; stroke-linejoin: miter"/>
     <use xlink:href="#m28d19c6b6d" x="179.852218" y="237.149813" style="fill: #5ec962; stroke: #5ec962; stroke-linejoin: miter"/>
     <use xlink:href="#m28d19c6b6d" x="195.225586" y="235.487089" style="fill: #5ec962; stroke: #5ec962; stroke-linejoin: miter"/>
     <use xlink:href="#m28d19c6b6d" x="210.598954" y="235.296339" style="fill: #5ec962; stroke: #5ec962; stroke-linejoin: miter"/>
     <use xlink:href="#m28d19c6b6d" x="225.972323" y="235.296339" style="fill: #5ec962; stroke: #5ec962; stroke-linejoin: miter"/>
     <use xlink:href="#m28d19c6b6d" x="241.345691" y="231.28777" style="fill: #5ec962; stroke: #5ec962; stroke-linejoin: miter"/>
     <use xlink:href="#m28d19c6b6d" x="256.719059" y="227.383892" style="fill: #5ec962; stroke: #5ec962; stroke-linejoin: miter"/>
     <use xlink:href="#m28d19c6b6d" x="272.092427" y="218.547209" style="fill: #5ec962; stroke: #5ec962; stroke-linejoin: miter"/>
     <use xlink:href="#m28d19c6b6d" x="287.465795" y="213.659784" style="fill: #5ec962; stroke: #5ec962; stroke-linejoin: miter"/>
     <use xlink:href="#m28d19c6b6d" x="302.839164" y="209.296554" style="fill: #5ec962; stroke: #5ec962; stroke-linejoin: miter"/>
     <use xlink:href="#m28d19c6b6d" x="318.212532" y="208.387685" style="fill: #5ec962; stroke: #5ec962; stroke-linejoin: miter"/>
     <use xlink:href="#m28d19c6b6d" x="333.5859" y="208.387685" style="fill: #5ec962; stroke: #5ec962; stroke-linejoin: miter"/>
     <use xlink:href="#m28d19c6b6d" x="348.959268" y="208.387685" style="fill: #5ec962; stroke: #5ec962; stroke-linejoin: miter"/>
     <use xlink:href="#m28d19c6b6d" x="364.332636" y="206.347175" style="fill: #5ec962; stroke: #5ec962; stroke-linejoin: miter"/>
     <use xlink:href="#m28d19c6b6d" x="379.706004" y="209.757301" style="fill: #5ec962; stroke: #5ec962; stroke-linejoin: miter"/>
     <use xlink:href="#m28d19c6b6d" x="395.079373" y="208.721839" style="fill: #5ec962; stroke: #5ec962; stroke-linejoin: miter"/>
     <use xlink:href="#m28d19c6b6d" x="410.452741" y="212.074166" style="fill: #5ec962; stroke: #5ec962; stroke-linejoin: miter"/>
     <use xlink:href="#m28d19c6b6d" x="425.826109" y="212.074166" style="fill: #5ec962; stroke: #5ec962; stroke-linejoin: miter"/>
     <use xlink:href="#m28d19c6b6d" x="441.199477" y="208.603624" style="fill: #5ec962; stroke: #5ec962; stroke-linejoin: miter"/>
     <use xlink:href="#m28d19c6b6d" x="456.572845" y="205.022881" style="fill: #5ec962; stroke: #5ec962; stroke-linejoin: miter"/>
     <use xlink:href="#m28d19c6b6d" x="471.946214" y="201.762803" style="fill: #5ec962; stroke: #5ec962; stroke-linejoin: miter"/>
     <use xlink:href="#m28d19c6b6d" x="487.319582" y="201.762803" style="fill: #5ec962; stroke: #5ec962; stroke-linejoin: miter"/>
     <use xlink:href="#m28d19c6b6d" x="502.69295" y="201.762803" style="fill: #5ec962; stroke: #5ec962; stroke-linejoin: miter"/>
     <use xlink:href="#m28d19c6b6d" x="518.066318" y="200.801992" style="fill: #5ec962; stroke: #5ec962; stroke-linejoin: miter"/>
     <use xlink:href="#m28d19c6b6d" x="533.439686" y="200.801992" style="fill: #5ec962; stroke: #5ec962; stroke-linejoin: miter"/>
     <use xlink:href="#m28d19c6b6d" x="548.813055" y="199.830855" style="fill: #5ec962; stroke: #5ec962; stroke-linejoin: miter"/>
     <use xlink:href="#m28d19c6b6d" x="564.186423" y="199.830855" style="fill: #5ec962; stroke: #5ec962; stroke-linejoin: miter"/>
     <use xlink:href="#m28d19c6b6d" x="579.559791" y="201.439981" style="fill: #5ec962; stroke: #5ec962; stroke-linejoin: miter"/>
     <use xlink:href="#m28d19c6b6d" x="594.933159" y="201.439981" style="fill: #5ec962; stroke: #5ec962; stroke-linejoin: miter"/>
     <use xlink:href="#m28d19c6b6d" x="610.306527" y="199.707753" style="fill: #5ec962; stroke: #5ec962; stroke-linejoin: miter"/>
     <use xlink:href="#m28d19c6b6d" x="625.679896" y="199.707753" style="fill: #5ec962; stroke: #5ec962; stroke-linejoin: miter"/>
     <use xlink:href="#m28d19c6b6d" x="641.053264" y="199.707753" style="fill: #5ec962; stroke: #5ec962; stroke-linejoin: miter"/>
     <use xlink:href="#m28d19c6b6d" x="656.426632" y="200.568852" style="fill: #5ec962; stroke: #5ec962; stroke-linejoin: miter"/>
     <use xlink:href="#m28d19c6b6d" x="671.8" y="198.935513" style="fill: #5ec962; stroke: #5ec962; stroke-linejoin: miter"/>
     <use xlink:href="#m28d19c6b6d" x="687.173368" y="197.3618" style="fill: #5ec962; stroke: #5ec962; stroke-linejoin: miter"/>
     <use xlink:href="#m28d19c6b6d" x="702.546736" y="198.271855" style="fill: #5ec962; stroke: #5ec962; stroke-linejoin: miter"/>
     <use xlink:href="#m28d19c6b6d" x="717.920105" y="197.701934" style="fill: #5ec962; stroke: #5ec962; stroke-linejoin: miter"/>
     <use xlink:href="#m28d19c6b6d" x="733.293473" y="197.701934" style="fill: #5ec962; stroke: #5ec962; stroke-linejoin: miter"/>
     <use xlink:href="#m28d19c6b6d" x="748.666841" y="196.270934" style="fill: #5ec962; stroke: #5ec962; stroke-linejoin: miter"/>
     <use xlink:href="#m28d19c6b6d" x="764.040209" y="196.270934" style="fill: #5ec962; stroke: #5ec962; stroke-linejoin: miter"/>
     <use xlink:href="#m28d19c6b6d" x="779.413577" y="194.880407" style="fill: #5ec962; stroke: #5ec962; stroke-linejoin: miter"/>
     <use xlink:href="#m28d19c6b6d" x="794.786946" y="194.880407" style="fill: #5ec962; stroke: #5ec962; stroke-linejoin: miter"/>
     <use xlink:href="#m28d19c6b6d" x="810.160314" y="194.880407" style="fill: #5ec962; stroke: #5ec962; stroke-linejoin: miter"/>
     <use xlink:href="#m28d19c6b6d" x="825.533682" y="193.916193" style="fill: #5ec962; stroke: #5ec962; stroke-linejoin: miter"/>
     <use xlink:href="#m28d19c6b6d" x="840.90705" y="194.880407" style="fill: #5ec962; stroke: #5ec962; stroke-linejoin: miter"/>
     <use xlink:href="#m28d19c6b6d" x="856.280418" y="194.502297" style="fill: #5ec962; stroke: #5ec962; stroke-linejoin: miter"/>
    </g>
   </g>
   <g id="line2d_16">
    <path d="M 840.90705 494.136563 
L 840.90705 38.916562 
" clip-path="url(#p334568eee4)" style="fill: none; stroke-dasharray: 8.325,3.6; stroke-dashoffset: 0; stroke: #808080; stroke-opacity: 0.6; stroke-width: 2.25"/>
   </g>
   <g id="patch_3">
    <path d="M 65.320625 494.136563 
L 65.320625 38.916562 
" style="fill: none; stroke: #cccccc; stroke-width: 1.875; stroke-linejoin: miter; stroke-linecap: square"/>
   </g>
   <g id="patch_4">
    <path d="M 893.94517 494.136563 
L 893.94517 38.916562 
" style="fill: none; stroke: #cccccc; stroke-width: 1.875; stroke-linejoin: miter; stroke-linecap: square"/>
   </g>
   <g id="patch_5">
    <path d="M 65.320625 494.136563 
L 893.94517 494.136563 
" style="fill: none; stroke: #cccccc; stroke-width: 1.875; stroke-linejoin: miter; stroke-linecap: square"/>
   </g>
   <g id="patch_6">
    <path d="M 65.320625 38.916562 
L 893.94517 38.916562 
" style="fill: none; stroke: #cccccc; stroke-width: 1.875; stroke-linejoin: miter; stroke-linecap: square"/>
   </g>
   <g id="text_15">
    <g id="patch_7">
     <path d="M 841.559061 197.308369 
L 976.416561 197.308369 
L 976.416561 164.337244 
L 841.559061 164.337244 
z
" style="fill: #ffffff; opacity: 0.8; stroke: #808080; stroke-width: 1.5; stroke-linejoin: miter"/>
    </g>
    <!-- Best Epoch: 49 -->
    <g style="fill: #262626" transform="translate(845.519061 177.415369) scale(0.12 -0.12)">
     <defs>
      <path id="DejaVuSans-42" d="M 1259 2228 
L 1259 519 
L 2272 519 
Q 2781 519 3026 730 
Q 3272 941 3272 1375 
Q 3272 1813 3026 2020 
Q 2781 2228 2272 2228 
L 1259 2228 
z
M 1259 4147 
L 1259 2741 
L 2194 2741 
Q 2656 2741 2882 2914 
Q 3109 3088 3109 3444 
Q 3109 3797 2882 3972 
Q 2656 4147 2194 4147 
L 1259 4147 
z
M 628 4666 
L 2241 4666 
Q 2963 4666 3353 4366 
Q 3744 4066 3744 3513 
Q 3744 3084 3544 2831 
Q 3344 2578 2956 2516 
Q 3422 2416 3680 2098 
Q 3938 1781 3938 1306 
Q 3938 681 3513 340 
Q 3088 0 2303 0 
L 628 0 
L 628 4666 
z
" transform="scale(0.015625)"/>
      <path id="DejaVuSans-65" d="M 3597 1894 
L 3597 1613 
L 953 1613 
Q 991 1019 1311 708 
Q 1631 397 2203 397 
Q 2534 397 2845 478 
Q 3156 559 3463 722 
L 3463 178 
Q 3153 47 2828 -22 
Q 2503 -91 2169 -91 
Q 1331 -91 842 396 
Q 353 884 353 1716 
Q 353 2575 817 3079 
Q 1281 3584 2069 3584 
Q 2775 3584 3186 3129 
Q 3597 2675 3597 1894 
z
M 3022 2063 
Q 3016 2534 2758 2815 
Q 2500 3097 2075 3097 
Q 1594 3097 1305 2825 
Q 1016 2553 972 2059 
L 3022 2063 
z
" transform="scale(0.015625)"/>
      <path id="DejaVuSans-73" d="M 2834 3397 
L 2834 2853 
Q 2591 2978 2328 3040 
Q 2066 3103 1784 3103 
Q 1356 3103 1142 2972 
Q 928 2841 928 2578 
Q 928 2378 1081 2264 
Q 1234 2150 1697 2047 
L 1894 2003 
Q 2506 1872 2764 1633 
Q 3022 1394 3022 966 
Q 3022 478 2636 193 
Q 2250 -91 1575 -91 
Q 1294 -91 989 -36 
Q 684 19 347 128 
L 347 722 
Q 666 556 975 473 
Q 1284 391 1588 391 
Q 1994 391 2212 530 
Q 2431 669 2431 922 
Q 2431 1156 2273 1281 
Q 2116 1406 1581 1522 
L 1381 1569 
Q 847 1681 609 1914 
Q 372 2147 372 2553 
Q 372 3047 722 3315 
Q 1072 3584 1716 3584 
Q 2034 3584 2315 3537 
Q 2597 3491 2834 3397 
z
" transform="scale(0.015625)"/>
      <path id="DejaVuSans-74" d="M 1172 4494 
L 1172 3500 
L 2356 3500 
L 2356 3053 
L 1172 3053 
L 1172 1153 
Q 1172 725 1289 603 
Q 1406 481 1766 481 
L 2356 481 
L 2356 0 
L 1766 0 
Q 1100 0 847 248 
Q 594 497 594 1153 
L 594 3053 
L 172 3053 
L 172 3500 
L 594 3500 
L 594 4494 
L 1172 4494 
z
" transform="scale(0.015625)"/>
      <path id="DejaVuSans-20" transform="scale(0.015625)"/>
      <path id="DejaVuSans-45" d="M 628 4666 
L 3578 4666 
L 3578 4134 
L 1259 4134 
L 1259 2753 
L 3481 2753 
L 3481 2222 
L 1259 2222 
L 1259 531 
L 3634 531 
L 3634 0 
L 628 0 
L 628 4666 
z
" transform="scale(0.015625)"/>
      <path id="DejaVuSans-70" d="M 1159 525 
L 1159 -1331 
L 581 -1331 
L 581 3500 
L 1159 3500 
L 1159 2969 
Q 1341 3281 1617 3432 
Q 1894 3584 2278 3584 
Q 2916 3584 3314 3078 
Q 3713 2572 3713 1747 
Q 3713 922 3314 415 
Q 2916 -91 2278 -91 
Q 1894 -91 1617 61 
Q 1341 213 1159 525 
z
M 3116 1747 
Q 3116 2381 2855 2742 
Q 2594 3103 2138 3103 
Q 1681 3103 1420 2742 
Q 1159 2381 1159 1747 
Q 1159 1113 1420 752 
Q 1681 391 2138 391 
Q 2594 391 2855 752 
Q 3116 1113 3116 1747 
z
" transform="scale(0.015625)"/>
      <path id="DejaVuSans-6f" d="M 1959 3097 
Q 1497 3097 1228 2736 
Q 959 2375 959 1747 
Q 959 1119 1226 758 
Q 1494 397 1959 397 
Q 2419 397 2687 759 
Q 2956 1122 2956 1747 
Q 2956 2369 2687 2733 
Q 2419 3097 1959 3097 
z
M 1959 3584 
Q 2709 3584 3137 3096 
Q 3566 2609 3566 1747 
Q 3566 888 3137 398 
Q 2709 -91 1959 -91 
Q 1206 -91 779 398 
Q 353 888 353 1747 
Q 353 2609 779 3096 
Q 1206 3584 1959 3584 
z
" transform="scale(0.015625)"/>
      <path id="DejaVuSans-63" d="M 3122 3366 
L 3122 2828 
Q 2878 2963 2633 3030 
Q 2388 3097 2138 3097 
Q 1578 3097 1268 2742 
Q 959 2388 959 1747 
Q 959 1106 1268 751 
Q 1578 397 2138 397 
Q 2388 397 2633 464 
Q 2878 531 3122 666 
L 3122 134 
Q 2881 22 2623 -34 
Q 2366 -91 2075 -91 
Q 1284 -91 818 406 
Q 353 903 353 1747 
Q 353 2603 823 3093 
Q 1294 3584 2113 3584 
Q 2378 3584 2631 3529 
Q 2884 3475 3122 3366 
z
" transform="scale(0.015625)"/>
      <path id="DejaVuSans-68" d="M 3513 2113 
L 3513 0 
L 2938 0 
L 2938 2094 
Q 2938 2591 2744 2837 
Q 2550 3084 2163 3084 
Q 1697 3084 1428 2787 
Q 1159 2491 1159 1978 
L 1159 0 
L 581 0 
L 581 4863 
L 1159 4863 
L 1159 2956 
Q 1366 3272 1645 3428 
Q 1925 3584 2291 3584 
Q 2894 3584 3203 3211 
Q 3513 2838 3513 2113 
z
" transform="scale(0.015625)"/>
      <path id="DejaVuSans-3a" d="M 750 794 
L 1409 794 
L 1409 0 
L 750 0 
L 750 794 
z
M 750 3309 
L 1409 3309 
L 1409 2516 
L 750 2516 
L 750 3309 
z
" transform="scale(0.015625)"/>
      <path id="DejaVuSans-39" d="M 703 97 
L 703 672 
Q 941 559 1184 500 
Q 1428 441 1663 441 
Q 2288 441 2617 861 
Q 2947 1281 2994 2138 
Q 2813 1869 2534 1725 
Q 2256 1581 1919 1581 
Q 1219 1581 811 2004 
Q 403 2428 403 3163 
Q 403 3881 828 4315 
Q 1253 4750 1959 4750 
Q 2769 4750 3195 4129 
Q 3622 3509 3622 2328 
Q 3622 1225 3098 567 
Q 2575 -91 1691 -91 
Q 1453 -91 1209 -44 
Q 966 3 703 97 
z
M 1959 2075 
Q 2384 2075 2632 2365 
Q 2881 2656 2881 3163 
Q 2881 3666 2632 3958 
Q 2384 4250 1959 4250 
Q 1534 4250 1286 3958 
Q 1038 3666 1038 3163 
Q 1038 2656 1286 2365 
Q 1534 2075 1959 2075 
z
" transform="scale(0.015625)"/>
     </defs>
     <use xlink:href="#DejaVuSans-42"/>
     <use xlink:href="#DejaVuSans-65" x="68.603516"/>
     <use xlink:href="#DejaVuSans-73" x="130.126953"/>
     <use xlink:href="#DejaVuSans-74" x="182.226562"/>
     <use xlink:href="#DejaVuSans-20" x="221.435547"/>
     <use xlink:href="#DejaVuSans-45" x="253.222656"/>
     <use xlink:href="#DejaVuSans-70" x="316.40625"/>
     <use xlink:href="#DejaVuSans-6f" x="379.882812"/>
     <use xlink:href="#DejaVuSans-63" x="441.064453"/>
     <use xlink:href="#DejaVuSans-68" x="496.044922"/>
     <use xlink:href="#DejaVuSans-3a" x="559.423828"/>
     <use xlink:href="#DejaVuSans-20" x="593.115234"/>
     <use xlink:href="#DejaVuSans-34" x="624.902344"/>
     <use xlink:href="#DejaVuSans-39" x="688.525391"/>
    </g>
    <!-- Original Loss: 0.6268 -->
    <g style="fill: #262626" transform="translate(845.519061 190.852744) scale(0.12 -0.12)">
     <defs>
      <path id="DejaVuSans-4f" d="M 2522 4238 
Q 1834 4238 1429 3725 
Q 1025 3213 1025 2328 
Q 1025 1447 1429 934 
Q 1834 422 2522 422 
Q 3209 422 3611 934 
Q 4013 1447 4013 2328 
Q 4013 3213 3611 3725 
Q 3209 4238 2522 4238 
z
M 2522 4750 
Q 3503 4750 4090 4092 
Q 4678 3434 4678 2328 
Q 4678 1225 4090 567 
Q 3503 -91 2522 -91 
Q 1538 -91 948 565 
Q 359 1222 359 2328 
Q 359 3434 948 4092 
Q 1538 4750 2522 4750 
z
" transform="scale(0.015625)"/>
      <path id="DejaVuSans-72" d="M 2631 2963 
Q 2534 3019 2420 3045 
Q 2306 3072 2169 3072 
Q 1681 3072 1420 2755 
Q 1159 2438 1159 1844 
L 1159 0 
L 581 0 
L 581 3500 
L 1159 3500 
L 1159 2956 
Q 1341 3275 1631 3429 
Q 1922 3584 2338 3584 
Q 2397 3584 2469 3576 
Q 2541 3569 2628 3553 
L 2631 2963 
z
" transform="scale(0.015625)"/>
      <path id="DejaVuSans-69" d="M 603 3500 
L 1178 3500 
L 1178 0 
L 603 0 
L 603 3500 
z
M 603 4863 
L 1178 4863 
L 1178 4134 
L 603 4134 
L 603 4863 
z
" transform="scale(0.015625)"/>
      <path id="DejaVuSans-67" d="M 2906 1791 
Q 2906 2416 2648 2759 
Q 2391 3103 1925 3103 
Q 1463 3103 1205 2759 
Q 947 2416 947 1791 
Q 947 1169 1205 825 
Q 1463 481 1925 481 
Q 2391 481 2648 825 
Q 2906 1169 2906 1791 
z
M 3481 434 
Q 3481 -459 3084 -895 
Q 2688 -1331 1869 -1331 
Q 1566 -1331 1297 -1286 
Q 1028 -1241 775 -1147 
L 775 -588 
Q 1028 -725 1275 -790 
Q 1522 -856 1778 -856 
Q 2344 -856 2625 -561 
Q 2906 -266 2906 331 
L 2906 616 
Q 2728 306 2450 153 
Q 2172 0 1784 0 
Q 1141 0 747 490 
Q 353 981 353 1791 
Q 353 2603 747 3093 
Q 1141 3584 1784 3584 
Q 2172 3584 2450 3431 
Q 2728 3278 2906 2969 
L 2906 3500 
L 3481 3500 
L 3481 434 
z
" transform="scale(0.015625)"/>
      <path id="DejaVuSans-6e" d="M 3513 2113 
L 3513 0 
L 2938 0 
L 2938 2094 
Q 2938 2591 2744 2837 
Q 2550 3084 2163 3084 
Q 1697 3084 1428 2787 
Q 1159 2491 1159 1978 
L 1159 0 
L 581 0 
L 581 3500 
L 1159 3500 
L 1159 2956 
Q 1366 3272 1645 3428 
Q 1925 3584 2291 3584 
Q 2894 3584 3203 3211 
Q 3513 2838 3513 2113 
z
" transform="scale(0.015625)"/>
      <path id="DejaVuSans-61" d="M 2194 1759 
Q 1497 1759 1228 1600 
Q 959 1441 959 1056 
Q 959 750 1161 570 
Q 1363 391 1709 391 
Q 2188 391 2477 730 
Q 2766 1069 2766 1631 
L 2766 1759 
L 2194 1759 
z
M 3341 1997 
L 3341 0 
L 2766 0 
L 2766 531 
Q 2569 213 2275 61 
Q 1981 -91 1556 -91 
Q 1019 -91 701 211 
Q 384 513 384 1019 
Q 384 1609 779 1909 
Q 1175 2209 1959 2209 
L 2766 2209 
L 2766 2266 
Q 2766 2663 2505 2880 
Q 2244 3097 1772 3097 
Q 1472 3097 1187 3025 
Q 903 2953 641 2809 
L 641 3341 
Q 956 3463 1253 3523 
Q 1550 3584 1831 3584 
Q 2591 3584 2966 3190 
Q 3341 2797 3341 1997 
z
" transform="scale(0.015625)"/>
      <path id="DejaVuSans-6c" d="M 603 4863 
L 1178 4863 
L 1178 0 
L 603 0 
L 603 4863 
z
" transform="scale(0.015625)"/>
      <path id="DejaVuSans-4c" d="M 628 4666 
L 1259 4666 
L 1259 531 
L 3531 531 
L 3531 0 
L 628 0 
L 628 4666 
z
" transform="scale(0.015625)"/>
     </defs>
     <use xlink:href="#DejaVuSans-4f"/>
     <use xlink:href="#DejaVuSans-72" x="78.710938"/>
     <use xlink:href="#DejaVuSans-69" x="119.824219"/>
     <use xlink:href="#DejaVuSans-67" x="147.607422"/>
     <use xlink:href="#DejaVuSans-69" x="211.083984"/>
     <use xlink:href="#DejaVuSans-6e" x="238.867188"/>
     <use xlink:href="#DejaVuSans-61" x="302.246094"/>
     <use xlink:href="#DejaVuSans-6c" x="363.525391"/>
     <use xlink:href="#DejaVuSans-20" x="391.308594"/>
     <use xlink:href="#DejaVuSans-4c" x="423.095703"/>
     <use xlink:href="#DejaVuSans-6f" x="477.058594"/>
     <use xlink:href="#DejaVuSans-73" x="538.240234"/>
     <use xlink:href="#DejaVuSans-73" x="590.339844"/>
     <use xlink:href="#DejaVuSans-3a" x="642.439453"/>
     <use xlink:href="#DejaVuSans-20" x="676.130859"/>
     <use xlink:href="#DejaVuSans-30" x="707.917969"/>
     <use xlink:href="#DejaVuSans-2e" x="771.541016"/>
     <use xlink:href="#DejaVuSans-36" x="803.328125"/>
     <use xlink:href="#DejaVuSans-32" x="866.951172"/>
     <use xlink:href="#DejaVuSans-36" x="930.574219"/>
     <use xlink:href="#DejaVuSans-38" x="994.197266"/>
    </g>
   </g>
   <g id="text_16">
    <!-- ADNI - Gene Expression Model Performance (Metrics Across 5 Seeds) -->
    <g style="fill: #262626" transform="translate(51.225866 23.916562) scale(0.22 -0.22)">
     <defs>
      <path id="DejaVuSans-Bold-41" d="M 3419 850 
L 1538 850 
L 1241 0 
L 31 0 
L 1759 4666 
L 3194 4666 
L 4922 0 
L 3713 0 
L 3419 850 
z
M 1838 1716 
L 3116 1716 
L 2478 3572 
L 1838 1716 
z
" transform="scale(0.015625)"/>
      <path id="DejaVuSans-Bold-44" d="M 1791 3756 
L 1791 909 
L 2222 909 
Q 2959 909 3348 1275 
Q 3738 1641 3738 2338 
Q 3738 3031 3350 3393 
Q 2963 3756 2222 3756 
L 1791 3756 
z
M 588 4666 
L 1856 4666 
Q 2919 4666 3439 4514 
Q 3959 4363 4331 4000 
Q 4659 3684 4818 3271 
Q 4978 2859 4978 2338 
Q 4978 1809 4818 1395 
Q 4659 981 4331 666 
Q 3956 303 3431 151 
Q 2906 0 1856 0 
L 588 0 
L 588 4666 
z
" transform="scale(0.015625)"/>
      <path id="DejaVuSans-Bold-4e" d="M 588 4666 
L 1931 4666 
L 3628 1466 
L 3628 4666 
L 4769 4666 
L 4769 0 
L 3425 0 
L 1728 3200 
L 1728 0 
L 588 0 
L 588 4666 
z
" transform="scale(0.015625)"/>
      <path id="DejaVuSans-Bold-49" d="M 588 4666 
L 1791 4666 
L 1791 0 
L 588 0 
L 588 4666 
z
" transform="scale(0.015625)"/>
      <path id="DejaVuSans-Bold-20" transform="scale(0.015625)"/>
      <path id="DejaVuSans-Bold-2d" d="M 347 2297 
L 2309 2297 
L 2309 1388 
L 347 1388 
L 347 2297 
z
" transform="scale(0.015625)"/>
      <path id="DejaVuSans-Bold-47" d="M 4781 347 
Q 4331 128 3847 18 
Q 3363 -91 2847 -91 
Q 1681 -91 1000 561 
Q 319 1213 319 2328 
Q 319 3456 1012 4103 
Q 1706 4750 2913 4750 
Q 3378 4750 3804 4662 
Q 4231 4575 4609 4403 
L 4609 3438 
Q 4219 3659 3833 3768 
Q 3447 3878 3059 3878 
Q 2341 3878 1952 3476 
Q 1563 3075 1563 2328 
Q 1563 1588 1938 1184 
Q 2313 781 3003 781 
Q 3191 781 3352 804 
Q 3513 828 3641 878 
L 3641 1784 
L 2906 1784 
L 2906 2591 
L 4781 2591 
L 4781 347 
z
" transform="scale(0.015625)"/>
      <path id="DejaVuSans-Bold-6e" d="M 4056 2131 
L 4056 0 
L 2931 0 
L 2931 347 
L 2931 1631 
Q 2931 2084 2911 2256 
Q 2891 2428 2841 2509 
Q 2775 2619 2662 2680 
Q 2550 2741 2406 2741 
Q 2056 2741 1856 2470 
Q 1656 2200 1656 1722 
L 1656 0 
L 538 0 
L 538 3500 
L 1656 3500 
L 1656 2988 
Q 1909 3294 2193 3439 
Q 2478 3584 2822 3584 
Q 3428 3584 3742 3212 
Q 4056 2841 4056 2131 
z
" transform="scale(0.015625)"/>
      <path id="DejaVuSans-Bold-78" d="M 1422 1791 
L 159 3500 
L 1344 3500 
L 2059 2463 
L 2784 3500 
L 3969 3500 
L 2706 1797 
L 4031 0 
L 2847 0 
L 2059 1106 
L 1281 0 
L 97 0 
L 1422 1791 
z
" transform="scale(0.015625)"/>
      <path id="DejaVuSans-Bold-69" d="M 538 3500 
L 1656 3500 
L 1656 0 
L 538 0 
L 538 3500 
z
M 538 4863 
L 1656 4863 
L 1656 3950 
L 538 3950 
L 538 4863 
z
" transform="scale(0.015625)"/>
      <path id="DejaVuSans-Bold-4d" d="M 588 4666 
L 2119 4666 
L 3181 2169 
L 4250 4666 
L 5778 4666 
L 5778 0 
L 4641 0 
L 4641 3413 
L 3566 897 
L 2803 897 
L 1728 3413 
L 1728 0 
L 588 0 
L 588 4666 
z
" transform="scale(0.015625)"/>
      <path id="DejaVuSans-Bold-64" d="M 2919 2988 
L 2919 4863 
L 4044 4863 
L 4044 0 
L 2919 0 
L 2919 506 
Q 2688 197 2409 53 
Q 2131 -91 1766 -91 
Q 1119 -91 703 423 
Q 288 938 288 1747 
Q 288 2556 703 3070 
Q 1119 3584 1766 3584 
Q 2128 3584 2408 3439 
Q 2688 3294 2919 2988 
z
M 2181 722 
Q 2541 722 2730 984 
Q 2919 1247 2919 1747 
Q 2919 2247 2730 2509 
Q 2541 2772 2181 2772 
Q 1825 2772 1636 2509 
Q 1447 2247 1447 1747 
Q 1447 1247 1636 984 
Q 1825 722 2181 722 
z
" transform="scale(0.015625)"/>
      <path id="DejaVuSans-Bold-6c" d="M 538 4863 
L 1656 4863 
L 1656 0 
L 538 0 
L 538 4863 
z
" transform="scale(0.015625)"/>
      <path id="DejaVuSans-Bold-50" d="M 588 4666 
L 2584 4666 
Q 3475 4666 3951 4270 
Q 4428 3875 4428 3144 
Q 4428 2409 3951 2014 
Q 3475 1619 2584 1619 
L 1791 1619 
L 1791 0 
L 588 0 
L 588 4666 
z
M 1791 3794 
L 1791 2491 
L 2456 2491 
Q 2806 2491 2997 2661 
Q 3188 2831 3188 3144 
Q 3188 3456 2997 3625 
Q 2806 3794 2456 3794 
L 1791 3794 
z
" transform="scale(0.015625)"/>
      <path id="DejaVuSans-Bold-66" d="M 2841 4863 
L 2841 4128 
L 2222 4128 
Q 1984 4128 1890 4042 
Q 1797 3956 1797 3744 
L 1797 3500 
L 2753 3500 
L 2753 2700 
L 1797 2700 
L 1797 0 
L 678 0 
L 678 2700 
L 122 2700 
L 122 3500 
L 678 3500 
L 678 3744 
Q 678 4316 997 4589 
Q 1316 4863 1984 4863 
L 2841 4863 
z
" transform="scale(0.015625)"/>
      <path id="DejaVuSans-Bold-6d" d="M 3781 2919 
Q 3994 3244 4286 3414 
Q 4578 3584 4928 3584 
Q 5531 3584 5847 3212 
Q 6163 2841 6163 2131 
L 6163 0 
L 5038 0 
L 5038 1825 
Q 5041 1866 5042 1909 
Q 5044 1953 5044 2034 
Q 5044 2406 4934 2573 
Q 4825 2741 4581 2741 
Q 4263 2741 4089 2478 
Q 3916 2216 3909 1719 
L 3909 0 
L 2784 0 
L 2784 1825 
Q 2784 2406 2684 2573 
Q 2584 2741 2328 2741 
Q 2006 2741 1831 2477 
Q 1656 2213 1656 1722 
L 1656 0 
L 531 0 
L 531 3500 
L 1656 3500 
L 1656 2988 
Q 1863 3284 2130 3434 
Q 2397 3584 2719 3584 
Q 3081 3584 3359 3409 
Q 3638 3234 3781 2919 
z
" transform="scale(0.015625)"/>
      <path id="DejaVuSans-Bold-61" d="M 2106 1575 
Q 1756 1575 1579 1456 
Q 1403 1338 1403 1106 
Q 1403 894 1545 773 
Q 1688 653 1941 653 
Q 2256 653 2472 879 
Q 2688 1106 2688 1447 
L 2688 1575 
L 2106 1575 
z
M 3816 1997 
L 3816 0 
L 2688 0 
L 2688 519 
Q 2463 200 2181 54 
Q 1900 -91 1497 -91 
Q 953 -91 614 226 
Q 275 544 275 1050 
Q 275 1666 698 1953 
Q 1122 2241 2028 2241 
L 2688 2241 
L 2688 2328 
Q 2688 2594 2478 2717 
Q 2269 2841 1825 2841 
Q 1466 2841 1156 2769 
Q 847 2697 581 2553 
L 581 3406 
Q 941 3494 1303 3539 
Q 1666 3584 2028 3584 
Q 2975 3584 3395 3211 
Q 3816 2838 3816 1997 
z
" transform="scale(0.015625)"/>
      <path id="DejaVuSans-Bold-28" d="M 2413 -844 
L 1484 -844 
Q 1006 -72 778 623 
Q 550 1319 550 2003 
Q 550 2688 779 3389 
Q 1009 4091 1484 4856 
L 2413 4856 
Q 2013 4116 1813 3408 
Q 1613 2700 1613 2009 
Q 1613 1319 1811 609 
Q 2009 -100 2413 -844 
z
" transform="scale(0.015625)"/>
      <path id="DejaVuSans-Bold-74" d="M 1759 4494 
L 1759 3500 
L 2913 3500 
L 2913 2700 
L 1759 2700 
L 1759 1216 
Q 1759 972 1856 886 
Q 1953 800 2241 800 
L 2816 800 
L 2816 0 
L 1856 0 
Q 1194 0 917 276 
Q 641 553 641 1216 
L 641 2700 
L 84 2700 
L 84 3500 
L 641 3500 
L 641 4494 
L 1759 4494 
z
" transform="scale(0.015625)"/>
      <path id="DejaVuSans-Bold-35" d="M 678 4666 
L 3669 4666 
L 3669 3781 
L 1638 3781 
L 1638 3059 
Q 1775 3097 1914 3117 
Q 2053 3138 2203 3138 
Q 3056 3138 3531 2711 
Q 4006 2284 4006 1522 
Q 4006 766 3489 337 
Q 2972 -91 2053 -91 
Q 1656 -91 1267 -14 
Q 878 63 494 219 
L 494 1166 
Q 875 947 1217 837 
Q 1559 728 1863 728 
Q 2300 728 2551 942 
Q 2803 1156 2803 1522 
Q 2803 1891 2551 2103 
Q 2300 2316 1863 2316 
Q 1603 2316 1309 2248 
Q 1016 2181 678 2041 
L 678 4666 
z
" transform="scale(0.015625)"/>
      <path id="DejaVuSans-Bold-29" d="M 513 -844 
Q 913 -100 1113 609 
Q 1313 1319 1313 2009 
Q 1313 2700 1113 3408 
Q 913 4116 513 4856 
L 1441 4856 
Q 1916 4091 2145 3389 
Q 2375 2688 2375 2003 
Q 2375 1319 2147 623 
Q 1919 -72 1441 -844 
L 513 -844 
z
" transform="scale(0.015625)"/>
     </defs>
     <use xlink:href="#DejaVuSans-Bold-41"/>
     <use xlink:href="#DejaVuSans-Bold-44" x="77.392578"/>
     <use xlink:href="#DejaVuSans-Bold-4e" x="160.400391"/>
     <use xlink:href="#DejaVuSans-Bold-49" x="244.091797"/>
     <use xlink:href="#DejaVuSans-Bold-20" x="281.298828"/>
     <use xlink:href="#DejaVuSans-Bold-2d" x="316.113281"/>
     <use xlink:href="#DejaVuSans-Bold-20" x="357.617188"/>
     <use xlink:href="#DejaVuSans-Bold-47" x="392.431641"/>
     <use xlink:href="#DejaVuSans-Bold-65" x="474.511719"/>
     <use xlink:href="#DejaVuSans-Bold-6e" x="542.333984"/>
     <use xlink:href="#DejaVuSans-Bold-65" x="613.525391"/>
     <use xlink:href="#DejaVuSans-Bold-20" x="681.347656"/>
     <use xlink:href="#DejaVuSans-Bold-45" x="716.162109"/>
     <use xlink:href="#DejaVuSans-Bold-78" x="784.472656"/>
     <use xlink:href="#DejaVuSans-Bold-70" x="848.974609"/>
     <use xlink:href="#DejaVuSans-Bold-72" x="920.556641"/>
     <use xlink:href="#DejaVuSans-Bold-65" x="969.873047"/>
     <use xlink:href="#DejaVuSans-Bold-73" x="1037.695312"/>
     <use xlink:href="#DejaVuSans-Bold-73" x="1097.216797"/>
     <use xlink:href="#DejaVuSans-Bold-69" x="1156.738281"/>
     <use xlink:href="#DejaVuSans-Bold-6f" x="1191.015625"/>
     <use xlink:href="#DejaVuSans-Bold-6e" x="1259.716797"/>
     <use xlink:href="#DejaVuSans-Bold-20" x="1330.908203"/>
     <use xlink:href="#DejaVuSans-Bold-4d" x="1365.722656"/>
     <use xlink:href="#DejaVuSans-Bold-6f" x="1465.234375"/>
     <use xlink:href="#DejaVuSans-Bold-64" x="1533.935547"/>
     <use xlink:href="#DejaVuSans-Bold-65" x="1605.517578"/>
     <use xlink:href="#DejaVuSans-Bold-6c" x="1673.339844"/>
     <use xlink:href="#DejaVuSans-Bold-20" x="1707.617188"/>
     <use xlink:href="#DejaVuSans-Bold-50" x="1742.431641"/>
     <use xlink:href="#DejaVuSans-Bold-65" x="1815.722656"/>
     <use xlink:href="#DejaVuSans-Bold-72" x="1883.544922"/>
     <use xlink:href="#DejaVuSans-Bold-66" x="1932.861328"/>
     <use xlink:href="#DejaVuSans-Bold-6f" x="1976.367188"/>
     <use xlink:href="#DejaVuSans-Bold-72" x="2045.068359"/>
     <use xlink:href="#DejaVuSans-Bold-6d" x="2094.384766"/>
     <use xlink:href="#DejaVuSans-Bold-61" x="2198.583984"/>
     <use xlink:href="#DejaVuSans-Bold-6e" x="2266.064453"/>
     <use xlink:href="#DejaVuSans-Bold-63" x="2337.255859"/>
     <use xlink:href="#DejaVuSans-Bold-65" x="2396.533203"/>
     <use xlink:href="#DejaVuSans-Bold-20" x="2464.355469"/>
     <use xlink:href="#DejaVuSans-Bold-28" x="2499.169922"/>
     <use xlink:href="#DejaVuSans-Bold-4d" x="2544.873047"/>
     <use xlink:href="#DejaVuSans-Bold-65" x="2644.384766"/>
     <use xlink:href="#DejaVuSans-Bold-74" x="2712.207031"/>
     <use xlink:href="#DejaVuSans-Bold-72" x="2760.009766"/>
     <use xlink:href="#DejaVuSans-Bold-69" x="2809.326172"/>
     <use xlink:href="#DejaVuSans-Bold-63" x="2843.603516"/>
     <use xlink:href="#DejaVuSans-Bold-73" x="2902.880859"/>
     <use xlink:href="#DejaVuSans-Bold-20" x="2962.402344"/>
     <use xlink:href="#DejaVuSans-Bold-41" x="2997.216797"/>
     <use xlink:href="#DejaVuSans-Bold-63" x="3074.609375"/>
     <use xlink:href="#DejaVuSans-Bold-72" x="3133.886719"/>
     <use xlink:href="#DejaVuSans-Bold-6f" x="3183.203125"/>
     <use xlink:href="#DejaVuSans-Bold-73" x="3251.904297"/>
     <use xlink:href="#DejaVuSans-Bold-73" x="3311.425781"/>
     <use xlink:href="#DejaVuSans-Bold-20" x="3370.947266"/>
     <use xlink:href="#DejaVuSans-Bold-35" x="3405.761719"/>
     <use xlink:href="#DejaVuSans-Bold-20" x="3475.341797"/>
     <use xlink:href="#DejaVuSans-Bold-53" x="3510.15625"/>
     <use xlink:href="#DejaVuSans-Bold-65" x="3582.177734"/>
     <use xlink:href="#DejaVuSans-Bold-65" x="3650"/>
     <use xlink:href="#DejaVuSans-Bold-64" x="3717.822266"/>
     <use xlink:href="#DejaVuSans-Bold-73" x="3789.404297"/>
     <use xlink:href="#DejaVuSans-Bold-29" x="3848.925781"/>
    </g>
   </g>
   <g id="legend_1">
    <g id="patch_8">
     <path d="M 76.520625 147.592187 
L 273.908125 147.592187 
Q 277.108125 147.592187 277.108125 144.392187 
L 277.108125 50.116562 
Q 277.108125 46.916562 273.908125 46.916562 
L 76.520625 46.916562 
Q 73.320625 46.916562 73.320625 50.116562 
L 73.320625 144.392187 
Q 73.320625 147.592187 76.520625 147.592187 
z
" style="fill: #ffffff; opacity: 0.8; stroke: #cccccc; stroke-width: 1.5; stroke-linejoin: miter"/>
    </g>
    <g id="text_17">
     <!-- Metric -->
     <g style="fill: #262626" transform="translate(147.234219 66.99375) scale(0.18 -0.18)">
      <defs>
       <path id="DejaVuSans-4d" d="M 628 4666 
L 1569 4666 
L 2759 1491 
L 3956 4666 
L 4897 4666 
L 4897 0 
L 4281 0 
L 4281 4097 
L 3078 897 
L 2444 897 
L 1241 4097 
L 1241 0 
L 628 0 
L 628 4666 
z
" transform="scale(0.015625)"/>
      </defs>
      <use xlink:href="#DejaVuSans-4d"/>
      <use xlink:href="#DejaVuSans-65" x="86.279297"/>
      <use xlink:href="#DejaVuSans-74" x="147.802734"/>
      <use xlink:href="#DejaVuSans-72" x="187.011719"/>
      <use xlink:href="#DejaVuSans-69" x="228.125"/>
      <use xlink:href="#DejaVuSans-63" x="255.908203"/>
     </g>
    </g>
    <g id="line2d_17">
     <path d="M 79.720625 85.294687 
L 95.720625 85.294687 
L 111.720625 85.294687 
" style="fill: none; stroke: #3b528b; stroke-width: 2.5; stroke-linecap: round"/>
     <g>
      <use xlink:href="#md04b308d24" x="95.720625" y="85.294687" style="fill: #3b528b; stroke: #3b528b"/>
     </g>
    </g>
    <g id="text_18">
     <!-- CrossEntropy Loss -->
     <g style="fill: #262626" transform="translate(124.520625 90.894687) scale(0.16 -0.16)">
      <defs>
       <path id="DejaVuSans-43" d="M 4122 4306 
L 4122 3641 
Q 3803 3938 3442 4084 
Q 3081 4231 2675 4231 
Q 1875 4231 1450 3742 
Q 1025 3253 1025 2328 
Q 1025 1406 1450 917 
Q 1875 428 2675 428 
Q 3081 428 3442 575 
Q 3803 722 4122 1019 
L 4122 359 
Q 3791 134 3420 21 
Q 3050 -91 2638 -91 
Q 1578 -91 968 557 
Q 359 1206 359 2328 
Q 359 3453 968 4101 
Q 1578 4750 2638 4750 
Q 3056 4750 3426 4639 
Q 3797 4528 4122 4306 
z
" transform="scale(0.015625)"/>
       <path id="DejaVuSans-79" d="M 2059 -325 
Q 1816 -950 1584 -1140 
Q 1353 -1331 966 -1331 
L 506 -1331 
L 506 -850 
L 844 -850 
Q 1081 -850 1212 -737 
Q 1344 -625 1503 -206 
L 1606 56 
L 191 3500 
L 800 3500 
L 1894 763 
L 2988 3500 
L 3597 3500 
L 2059 -325 
z
" transform="scale(0.015625)"/>
      </defs>
      <use xlink:href="#DejaVuSans-43"/>
      <use xlink:href="#DejaVuSans-72" x="69.824219"/>
      <use xlink:href="#DejaVuSans-6f" x="108.6875"/>
      <use xlink:href="#DejaVuSans-73" x="169.869141"/>
      <use xlink:href="#DejaVuSans-73" x="221.96875"/>
      <use xlink:href="#DejaVuSans-45" x="274.068359"/>
      <use xlink:href="#DejaVuSans-6e" x="337.251953"/>
      <use xlink:href="#DejaVuSans-74" x="400.630859"/>
      <use xlink:href="#DejaVuSans-72" x="439.839844"/>
      <use xlink:href="#DejaVuSans-6f" x="478.703125"/>
      <use xlink:href="#DejaVuSans-70" x="539.884766"/>
      <use xlink:href="#DejaVuSans-79" x="603.361328"/>
      <use xlink:href="#DejaVuSans-20" x="662.541016"/>
      <use xlink:href="#DejaVuSans-4c" x="694.328125"/>
      <use xlink:href="#DejaVuSans-6f" x="748.291016"/>
      <use xlink:href="#DejaVuSans-73" x="809.472656"/>
      <use xlink:href="#DejaVuSans-73" x="861.572266"/>
     </g>
    </g>
    <g id="line2d_18">
     <path d="M 79.720625 108.779687 
L 95.720625 108.779687 
L 111.720625 108.779687 
" style="fill: none; stroke: #21918c; stroke-width: 2.5; stroke-linecap: round"/>
     <g>
      <use xlink:href="#m3a343af321" x="95.720625" y="108.779687" style="fill: #21918c; stroke: #21918c; stroke-linejoin: miter"/>
     </g>
    </g>
    <g id="text_19">
     <!-- Accuracy -->
     <g style="fill: #262626" transform="translate(124.520625 114.379687) scale(0.16 -0.16)">
      <defs>
       <path id="DejaVuSans-41" d="M 2188 4044 
L 1331 1722 
L 3047 1722 
L 2188 4044 
z
M 1831 4666 
L 2547 4666 
L 4325 0 
L 3669 0 
L 3244 1197 
L 1141 1197 
L 716 0 
L 50 0 
L 1831 4666 
z
" transform="scale(0.015625)"/>
       <path id="DejaVuSans-75" d="M 544 1381 
L 544 3500 
L 1119 3500 
L 1119 1403 
Q 1119 906 1312 657 
Q 1506 409 1894 409 
Q 2359 409 2629 706 
Q 2900 1003 2900 1516 
L 2900 3500 
L 3475 3500 
L 3475 0 
L 2900 0 
L 2900 538 
Q 2691 219 2414 64 
Q 2138 -91 1772 -91 
Q 1169 -91 856 284 
Q 544 659 544 1381 
z
M 1991 3584 
L 1991 3584 
z
" transform="scale(0.015625)"/>
      </defs>
      <use xlink:href="#DejaVuSans-41"/>
      <use xlink:href="#DejaVuSans-63" x="66.658203"/>
      <use xlink:href="#DejaVuSans-63" x="121.638672"/>
      <use xlink:href="#DejaVuSans-75" x="176.619141"/>
      <use xlink:href="#DejaVuSans-72" x="239.998047"/>
      <use xlink:href="#DejaVuSans-61" x="281.111328"/>
      <use xlink:href="#DejaVuSans-63" x="342.390625"/>
      <use xlink:href="#DejaVuSans-79" x="397.371094"/>
     </g>
    </g>
    <g id="line2d_19">
     <path d="M 79.720625 132.264687 
L 95.720625 132.264687 
L 111.720625 132.264687 
" style="fill: none; stroke: #5ec962; stroke-width: 2.5; stroke-linecap: round"/>
     <g>
      <use xlink:href="#m28d19c6b6d" x="95.720625" y="132.264687" style="fill: #5ec962; stroke: #5ec962; stroke-linejoin: miter"/>
     </g>
    </g>
    <g id="text_20">
     <!-- F1 Score -->
     <g style="fill: #262626" transform="translate(124.520625 137.864687) scale(0.16 -0.16)">
      <defs>
       <path id="DejaVuSans-46" d="M 628 4666 
L 3309 4666 
L 3309 4134 
L 1259 4134 
L 1259 2759 
L 3109 2759 
L 3109 2228 
L 1259 2228 
L 1259 0 
L 628 0 
L 628 4666 
z
" transform="scale(0.015625)"/>
       <path id="DejaVuSans-53" d="M 3425 4513 
L 3425 3897 
Q 3066 4069 2747 4153 
Q 2428 4238 2131 4238 
Q 1616 4238 1336 4038 
Q 1056 3838 1056 3469 
Q 1056 3159 1242 3001 
Q 1428 2844 1947 2747 
L 2328 2669 
Q 3034 2534 3370 2195 
Q 3706 1856 3706 1288 
Q 3706 609 3251 259 
Q 2797 -91 1919 -91 
Q 1588 -91 1214 -16 
Q 841 59 441 206 
L 441 856 
Q 825 641 1194 531 
Q 1563 422 1919 422 
Q 2459 422 2753 634 
Q 3047 847 3047 1241 
Q 3047 1584 2836 1778 
Q 2625 1972 2144 2069 
L 1759 2144 
Q 1053 2284 737 2584 
Q 422 2884 422 3419 
Q 422 4038 858 4394 
Q 1294 4750 2059 4750 
Q 2388 4750 2728 4690 
Q 3069 4631 3425 4513 
z
" transform="scale(0.015625)"/>
      </defs>
      <use xlink:href="#DejaVuSans-46"/>
      <use xlink:href="#DejaVuSans-31" x="57.519531"/>
      <use xlink:href="#DejaVuSans-20" x="121.142578"/>
      <use xlink:href="#DejaVuSans-53" x="152.929688"/>
      <use xlink:href="#DejaVuSans-63" x="216.40625"/>
      <use xlink:href="#DejaVuSans-6f" x="271.386719"/>
      <use xlink:href="#DejaVuSans-72" x="332.568359"/>
      <use xlink:href="#DejaVuSans-65" x="371.431641"/>
     </g>
    </g>
   </g>
  </g>
 </g>
 <defs>
  <clipPath id="p334568eee4">
   <rect x="65.320625" y="38.916562" width="828.624545" height="455.22"/>
  </clipPath>
 </defs>
</svg>
