<?xml version="1.0" encoding="utf-8" standalone="no"?>
<!DOCTYPE svg PUBLIC "-//W3C//DTD SVG 1.1//EN"
  "http://www.w3.org/Graphics/SVG/1.1/DTD/svg11.dtd">
<svg xmlns:xlink="http://www.w3.org/1999/xlink" width="694.315156pt" height="407.495937pt" viewBox="0 0 694.315156 407.495937" xmlns="http://www.w3.org/2000/svg" version="1.1">
 <metadata>
  <rdf:RDF xmlns:dc="http://purl.org/dc/elements/1.1/" xmlns:cc="http://creativecommons.org/ns#" xmlns:rdf="http://www.w3.org/1999/02/22-rdf-syntax-ns#">
   <cc:Work>
    <dc:type rdf:resource="http://purl.org/dc/dcmitype/StillImage"/>
    <dc:date>2025-06-19T22:22:44.977429</dc:date>
    <dc:format>image/svg+xml</dc:format>
    <dc:creator>
     <cc:Agent>
      <dc:title>Matplotlib v3.8.4, https://matplotlib.org/</dc:title>
     </cc:Agent>
    </dc:creator>
   </cc:Work>
  </rdf:RDF>
 </metadata>
 <defs>
  <style type="text/css">*{stroke-linejoin: round; stroke-linecap: butt}</style>
 </defs>
 <g id="figure_1">
  <g id="patch_1">
   <path d="M 0 407.495937 
L 694.315156 407.495937 
L 694.315156 0 
L 0 0 
z
" style="fill: #ffffff"/>
  </g>
  <g id="axes_1">
   <g id="patch_2">
    <path d="M 65.425156 374.137187 
L 687.115156 374.137187 
L 687.115156 35.877187 
L 65.425156 35.877187 
z
" style="fill: #ffffff"/>
   </g>
   <g id="matplotlib.axis_1">
    <g id="xtick_1">
     <g id="line2d_1">
      <path d="M 140.78152 374.137187 
L 140.78152 35.877187 
" clip-path="url(#pcc0a0b8cdf)" style="fill: none; stroke: #cccccc; stroke-width: 1.5; stroke-linecap: round"/>
     </g>
     <g id="text_1">
      <!-- MSE -->
      <g style="fill: #262626" transform="translate(123.992457 397.275) scale(0.14 -0.14)">
       <defs>
        <path id="DejaVuSans-Bold-4d" d="M 588 4666 
L 2119 4666 
L 3181 2169 
L 4250 4666 
L 5778 4666 
L 5778 0 
L 4641 0 
L 4641 3413 
L 3566 897 
L 2803 897 
L 1728 3413 
L 1728 0 
L 588 0 
L 588 4666 
z
" transform="scale(0.015625)"/>
        <path id="DejaVuSans-Bold-53" d="M 3834 4519 
L 3834 3531 
Q 3450 3703 3084 3790 
Q 2719 3878 2394 3878 
Q 1963 3878 1756 3759 
Q 1550 3641 1550 3391 
Q 1550 3203 1689 3098 
Q 1828 2994 2194 2919 
L 2706 2816 
Q 3484 2659 3812 2340 
Q 4141 2022 4141 1434 
Q 4141 663 3683 286 
Q 3225 -91 2284 -91 
Q 1841 -91 1394 -6 
Q 947 78 500 244 
L 500 1259 
Q 947 1022 1364 901 
Q 1781 781 2169 781 
Q 2563 781 2772 912 
Q 2981 1044 2981 1288 
Q 2981 1506 2839 1625 
Q 2697 1744 2272 1838 
L 1806 1941 
Q 1106 2091 782 2419 
Q 459 2747 459 3303 
Q 459 4000 909 4375 
Q 1359 4750 2203 4750 
Q 2588 4750 2994 4692 
Q 3400 4634 3834 4519 
z
" transform="scale(0.015625)"/>
        <path id="DejaVuSans-Bold-45" d="M 588 4666 
L 3834 4666 
L 3834 3756 
L 1791 3756 
L 1791 2888 
L 3713 2888 
L 3713 1978 
L 1791 1978 
L 1791 909 
L 3903 909 
L 3903 0 
L 588 0 
L 588 4666 
z
" transform="scale(0.015625)"/>
       </defs>
       <use xlink:href="#DejaVuSans-Bold-4d"/>
       <use xlink:href="#DejaVuSans-Bold-53" x="99.511719"/>
       <use xlink:href="#DejaVuSans-Bold-45" x="171.533203"/>
      </g>
     </g>
    </g>
    <g id="xtick_2">
     <g id="line2d_2">
      <path d="M 297.773944 374.137187 
L 297.773944 35.877187 
" clip-path="url(#pcc0a0b8cdf)" style="fill: none; stroke: #cccccc; stroke-width: 1.5; stroke-linecap: round"/>
     </g>
     <g id="text_2">
      <!-- MAE -->
      <g style="fill: #262626" transform="translate(280.608632 397.275) scale(0.14 -0.14)">
       <defs>
        <path id="DejaVuSans-Bold-41" d="M 3419 850 
L 1538 850 
L 1241 0 
L 31 0 
L 1759 4666 
L 3194 4666 
L 4922 0 
L 3713 0 
L 3419 850 
z
M 1838 1716 
L 3116 1716 
L 2478 3572 
L 1838 1716 
z
" transform="scale(0.015625)"/>
       </defs>
       <use xlink:href="#DejaVuSans-Bold-4d"/>
       <use xlink:href="#DejaVuSans-Bold-41" x="99.511719"/>
       <use xlink:href="#DejaVuSans-Bold-45" x="176.904297"/>
      </g>
     </g>
    </g>
    <g id="xtick_3">
     <g id="line2d_3">
      <path d="M 454.766368 374.137187 
L 454.766368 35.877187 
" clip-path="url(#pcc0a0b8cdf)" style="fill: none; stroke: #cccccc; stroke-width: 1.5; stroke-linecap: round"/>
     </g>
     <g id="text_3">
      <!-- MAPE -->
      <g style="fill: #262626" transform="translate(432.470275 397.275) scale(0.14 -0.14)">
       <defs>
        <path id="DejaVuSans-Bold-50" d="M 588 4666 
L 2584 4666 
Q 3475 4666 3951 4270 
Q 4428 3875 4428 3144 
Q 4428 2409 3951 2014 
Q 3475 1619 2584 1619 
L 1791 1619 
L 1791 0 
L 588 0 
L 588 4666 
z
M 1791 3794 
L 1791 2491 
L 2456 2491 
Q 2806 2491 2997 2661 
Q 3188 2831 3188 3144 
Q 3188 3456 2997 3625 
Q 2806 3794 2456 3794 
L 1791 3794 
z
" transform="scale(0.015625)"/>
       </defs>
       <use xlink:href="#DejaVuSans-Bold-4d"/>
       <use xlink:href="#DejaVuSans-Bold-41" x="99.511719"/>
       <use xlink:href="#DejaVuSans-Bold-50" x="176.904297"/>
       <use xlink:href="#DejaVuSans-Bold-45" x="250.195312"/>
      </g>
     </g>
    </g>
    <g id="xtick_4">
     <g id="line2d_4">
      <path d="M 611.758793 374.137187 
L 611.758793 35.877187 
" clip-path="url(#pcc0a0b8cdf)" style="fill: none; stroke: #cccccc; stroke-width: 1.5; stroke-linecap: round"/>
     </g>
     <g id="text_4">
      <!-- Cosine Similarity -->
      <g style="fill: #262626" transform="translate(545.05973 397.275) scale(0.14 -0.14)">
       <defs>
        <path id="DejaVuSans-Bold-43" d="M 4288 256 
Q 3956 84 3597 -3 
Q 3238 -91 2847 -91 
Q 1681 -91 1000 561 
Q 319 1213 319 2328 
Q 319 3447 1000 4098 
Q 1681 4750 2847 4750 
Q 3238 4750 3597 4662 
Q 3956 4575 4288 4403 
L 4288 3438 
Q 3953 3666 3628 3772 
Q 3303 3878 2944 3878 
Q 2300 3878 1931 3465 
Q 1563 3053 1563 2328 
Q 1563 1606 1931 1193 
Q 2300 781 2944 781 
Q 3303 781 3628 887 
Q 3953 994 4288 1222 
L 4288 256 
z
" transform="scale(0.015625)"/>
        <path id="DejaVuSans-Bold-6f" d="M 2203 2784 
Q 1831 2784 1636 2517 
Q 1441 2250 1441 1747 
Q 1441 1244 1636 976 
Q 1831 709 2203 709 
Q 2569 709 2762 976 
Q 2956 1244 2956 1747 
Q 2956 2250 2762 2517 
Q 2569 2784 2203 2784 
z
M 2203 3584 
Q 3106 3584 3614 3096 
Q 4122 2609 4122 1747 
Q 4122 884 3614 396 
Q 3106 -91 2203 -91 
Q 1297 -91 786 396 
Q 275 884 275 1747 
Q 275 2609 786 3096 
Q 1297 3584 2203 3584 
z
" transform="scale(0.015625)"/>
        <path id="DejaVuSans-Bold-73" d="M 3272 3391 
L 3272 2541 
Q 2913 2691 2578 2766 
Q 2244 2841 1947 2841 
Q 1628 2841 1473 2761 
Q 1319 2681 1319 2516 
Q 1319 2381 1436 2309 
Q 1553 2238 1856 2203 
L 2053 2175 
Q 2913 2066 3209 1816 
Q 3506 1566 3506 1031 
Q 3506 472 3093 190 
Q 2681 -91 1863 -91 
Q 1516 -91 1145 -36 
Q 775 19 384 128 
L 384 978 
Q 719 816 1070 734 
Q 1422 653 1784 653 
Q 2113 653 2278 743 
Q 2444 834 2444 1013 
Q 2444 1163 2330 1236 
Q 2216 1309 1875 1350 
L 1678 1375 
Q 931 1469 631 1722 
Q 331 1975 331 2491 
Q 331 3047 712 3315 
Q 1094 3584 1881 3584 
Q 2191 3584 2531 3537 
Q 2872 3491 3272 3391 
z
" transform="scale(0.015625)"/>
        <path id="DejaVuSans-Bold-69" d="M 538 3500 
L 1656 3500 
L 1656 0 
L 538 0 
L 538 3500 
z
M 538 4863 
L 1656 4863 
L 1656 3950 
L 538 3950 
L 538 4863 
z
" transform="scale(0.015625)"/>
        <path id="DejaVuSans-Bold-6e" d="M 4056 2131 
L 4056 0 
L 2931 0 
L 2931 347 
L 2931 1631 
Q 2931 2084 2911 2256 
Q 2891 2428 2841 2509 
Q 2775 2619 2662 2680 
Q 2550 2741 2406 2741 
Q 2056 2741 1856 2470 
Q 1656 2200 1656 1722 
L 1656 0 
L 538 0 
L 538 3500 
L 1656 3500 
L 1656 2988 
Q 1909 3294 2193 3439 
Q 2478 3584 2822 3584 
Q 3428 3584 3742 3212 
Q 4056 2841 4056 2131 
z
" transform="scale(0.015625)"/>
        <path id="DejaVuSans-Bold-65" d="M 4031 1759 
L 4031 1441 
L 1416 1441 
Q 1456 1047 1700 850 
Q 1944 653 2381 653 
Q 2734 653 3104 758 
Q 3475 863 3866 1075 
L 3866 213 
Q 3469 63 3072 -14 
Q 2675 -91 2278 -91 
Q 1328 -91 801 392 
Q 275 875 275 1747 
Q 275 2603 792 3093 
Q 1309 3584 2216 3584 
Q 3041 3584 3536 3087 
Q 4031 2591 4031 1759 
z
M 2881 2131 
Q 2881 2450 2695 2645 
Q 2509 2841 2209 2841 
Q 1884 2841 1681 2658 
Q 1478 2475 1428 2131 
L 2881 2131 
z
" transform="scale(0.015625)"/>
        <path id="DejaVuSans-Bold-20" transform="scale(0.015625)"/>
        <path id="DejaVuSans-Bold-6d" d="M 3781 2919 
Q 3994 3244 4286 3414 
Q 4578 3584 4928 3584 
Q 5531 3584 5847 3212 
Q 6163 2841 6163 2131 
L 6163 0 
L 5038 0 
L 5038 1825 
Q 5041 1866 5042 1909 
Q 5044 1953 5044 2034 
Q 5044 2406 4934 2573 
Q 4825 2741 4581 2741 
Q 4263 2741 4089 2478 
Q 3916 2216 3909 1719 
L 3909 0 
L 2784 0 
L 2784 1825 
Q 2784 2406 2684 2573 
Q 2584 2741 2328 2741 
Q 2006 2741 1831 2477 
Q 1656 2213 1656 1722 
L 1656 0 
L 531 0 
L 531 3500 
L 1656 3500 
L 1656 2988 
Q 1863 3284 2130 3434 
Q 2397 3584 2719 3584 
Q 3081 3584 3359 3409 
Q 3638 3234 3781 2919 
z
" transform="scale(0.015625)"/>
        <path id="DejaVuSans-Bold-6c" d="M 538 4863 
L 1656 4863 
L 1656 0 
L 538 0 
L 538 4863 
z
" transform="scale(0.015625)"/>
        <path id="DejaVuSans-Bold-61" d="M 2106 1575 
Q 1756 1575 1579 1456 
Q 1403 1338 1403 1106 
Q 1403 894 1545 773 
Q 1688 653 1941 653 
Q 2256 653 2472 879 
Q 2688 1106 2688 1447 
L 2688 1575 
L 2106 1575 
z
M 3816 1997 
L 3816 0 
L 2688 0 
L 2688 519 
Q 2463 200 2181 54 
Q 1900 -91 1497 -91 
Q 953 -91 614 226 
Q 275 544 275 1050 
Q 275 1666 698 1953 
Q 1122 2241 2028 2241 
L 2688 2241 
L 2688 2328 
Q 2688 2594 2478 2717 
Q 2269 2841 1825 2841 
Q 1466 2841 1156 2769 
Q 847 2697 581 2553 
L 581 3406 
Q 941 3494 1303 3539 
Q 1666 3584 2028 3584 
Q 2975 3584 3395 3211 
Q 3816 2838 3816 1997 
z
" transform="scale(0.015625)"/>
        <path id="DejaVuSans-Bold-72" d="M 3138 2547 
Q 2991 2616 2845 2648 
Q 2700 2681 2553 2681 
Q 2122 2681 1889 2404 
Q 1656 2128 1656 1613 
L 1656 0 
L 538 0 
L 538 3500 
L 1656 3500 
L 1656 2925 
Q 1872 3269 2151 3426 
Q 2431 3584 2822 3584 
Q 2878 3584 2943 3579 
Q 3009 3575 3134 3559 
L 3138 2547 
z
" transform="scale(0.015625)"/>
        <path id="DejaVuSans-Bold-74" d="M 1759 4494 
L 1759 3500 
L 2913 3500 
L 2913 2700 
L 1759 2700 
L 1759 1216 
Q 1759 972 1856 886 
Q 1953 800 2241 800 
L 2816 800 
L 2816 0 
L 1856 0 
Q 1194 0 917 276 
Q 641 553 641 1216 
L 641 2700 
L 84 2700 
L 84 3500 
L 641 3500 
L 641 4494 
L 1759 4494 
z
" transform="scale(0.015625)"/>
        <path id="DejaVuSans-Bold-79" d="M 78 3500 
L 1197 3500 
L 2138 1125 
L 2938 3500 
L 4056 3500 
L 2584 -331 
Q 2363 -916 2067 -1148 
Q 1772 -1381 1288 -1381 
L 641 -1381 
L 641 -647 
L 991 -647 
Q 1275 -647 1404 -556 
Q 1534 -466 1606 -231 
L 1638 -134 
L 78 3500 
z
" transform="scale(0.015625)"/>
       </defs>
       <use xlink:href="#DejaVuSans-Bold-43"/>
       <use xlink:href="#DejaVuSans-Bold-6f" x="73.388672"/>
       <use xlink:href="#DejaVuSans-Bold-73" x="142.089844"/>
       <use xlink:href="#DejaVuSans-Bold-69" x="201.611328"/>
       <use xlink:href="#DejaVuSans-Bold-6e" x="235.888672"/>
       <use xlink:href="#DejaVuSans-Bold-65" x="307.080078"/>
       <use xlink:href="#DejaVuSans-Bold-20" x="374.902344"/>
       <use xlink:href="#DejaVuSans-Bold-53" x="409.716797"/>
       <use xlink:href="#DejaVuSans-Bold-69" x="481.738281"/>
       <use xlink:href="#DejaVuSans-Bold-6d" x="516.015625"/>
       <use xlink:href="#DejaVuSans-Bold-69" x="620.214844"/>
       <use xlink:href="#DejaVuSans-Bold-6c" x="654.492188"/>
       <use xlink:href="#DejaVuSans-Bold-61" x="688.769531"/>
       <use xlink:href="#DejaVuSans-Bold-72" x="756.25"/>
       <use xlink:href="#DejaVuSans-Bold-69" x="805.566406"/>
       <use xlink:href="#DejaVuSans-Bold-74" x="839.84375"/>
       <use xlink:href="#DejaVuSans-Bold-79" x="887.646484"/>
      </g>
     </g>
    </g>
   </g>
   <g id="matplotlib.axis_2">
    <g id="ytick_1">
     <g id="line2d_5">
      <path d="M 65.425156 374.137187 
L 687.115156 374.137187 
" clip-path="url(#pcc0a0b8cdf)" style="fill: none; stroke-dasharray: 5.55,2.4; stroke-dashoffset: 0; stroke: #cccccc; stroke-opacity: 0.6; stroke-width: 1.5"/>
     </g>
     <g id="text_5">
      <!-- 0.0 -->
      <g style="fill: #262626" transform="translate(26.685 380.405898) scale(0.165 -0.165)">
       <defs>
        <path id="DejaVuSans-30" d="M 2034 4250 
Q 1547 4250 1301 3770 
Q 1056 3291 1056 2328 
Q 1056 1369 1301 889 
Q 1547 409 2034 409 
Q 2525 409 2770 889 
Q 3016 1369 3016 2328 
Q 3016 3291 2770 3770 
Q 2525 4250 2034 4250 
z
M 2034 4750 
Q 2819 4750 3233 4129 
Q 3647 3509 3647 2328 
Q 3647 1150 3233 529 
Q 2819 -91 2034 -91 
Q 1250 -91 836 529 
Q 422 1150 422 2328 
Q 422 3509 836 4129 
Q 1250 4750 2034 4750 
z
" transform="scale(0.015625)"/>
        <path id="DejaVuSans-2e" d="M 684 794 
L 1344 794 
L 1344 0 
L 684 0 
L 684 794 
z
" transform="scale(0.015625)"/>
       </defs>
       <use xlink:href="#DejaVuSans-30"/>
       <use xlink:href="#DejaVuSans-2e" x="63.623047"/>
       <use xlink:href="#DejaVuSans-30" x="95.410156"/>
      </g>
     </g>
    </g>
    <g id="ytick_2">
     <g id="line2d_6">
      <path d="M 65.425156 335.441395 
L 687.115156 335.441395 
" clip-path="url(#pcc0a0b8cdf)" style="fill: none; stroke-dasharray: 5.55,2.4; stroke-dashoffset: 0; stroke: #cccccc; stroke-opacity: 0.6; stroke-width: 1.5"/>
     </g>
     <g id="text_6">
      <!-- 0.5 -->
      <g style="fill: #262626" transform="translate(26.685 341.710106) scale(0.165 -0.165)">
       <defs>
        <path id="DejaVuSans-35" d="M 691 4666 
L 3169 4666 
L 3169 4134 
L 1269 4134 
L 1269 2991 
Q 1406 3038 1543 3061 
Q 1681 3084 1819 3084 
Q 2600 3084 3056 2656 
Q 3513 2228 3513 1497 
Q 3513 744 3044 326 
Q 2575 -91 1722 -91 
Q 1428 -91 1123 -41 
Q 819 9 494 109 
L 494 744 
Q 775 591 1075 516 
Q 1375 441 1709 441 
Q 2250 441 2565 725 
Q 2881 1009 2881 1497 
Q 2881 1984 2565 2268 
Q 2250 2553 1709 2553 
Q 1456 2553 1204 2497 
Q 953 2441 691 2322 
L 691 4666 
z
" transform="scale(0.015625)"/>
       </defs>
       <use xlink:href="#DejaVuSans-30"/>
       <use xlink:href="#DejaVuSans-2e" x="63.623047"/>
       <use xlink:href="#DejaVuSans-35" x="95.410156"/>
      </g>
     </g>
    </g>
    <g id="ytick_3">
     <g id="line2d_7">
      <path d="M 65.425156 296.745603 
L 687.115156 296.745603 
" clip-path="url(#pcc0a0b8cdf)" style="fill: none; stroke-dasharray: 5.55,2.4; stroke-dashoffset: 0; stroke: #cccccc; stroke-opacity: 0.6; stroke-width: 1.5"/>
     </g>
     <g id="text_7">
      <!-- 1.0 -->
      <g style="fill: #262626" transform="translate(26.685 303.014314) scale(0.165 -0.165)">
       <defs>
        <path id="DejaVuSans-31" d="M 794 531 
L 1825 531 
L 1825 4091 
L 703 3866 
L 703 4441 
L 1819 4666 
L 2450 4666 
L 2450 531 
L 3481 531 
L 3481 0 
L 794 0 
L 794 531 
z
" transform="scale(0.015625)"/>
       </defs>
       <use xlink:href="#DejaVuSans-31"/>
       <use xlink:href="#DejaVuSans-2e" x="63.623047"/>
       <use xlink:href="#DejaVuSans-30" x="95.410156"/>
      </g>
     </g>
    </g>
    <g id="ytick_4">
     <g id="line2d_8">
      <path d="M 65.425156 258.049811 
L 687.115156 258.049811 
" clip-path="url(#pcc0a0b8cdf)" style="fill: none; stroke-dasharray: 5.55,2.4; stroke-dashoffset: 0; stroke: #cccccc; stroke-opacity: 0.6; stroke-width: 1.5"/>
     </g>
     <g id="text_8">
      <!-- 1.5 -->
      <g style="fill: #262626" transform="translate(26.685 264.318522) scale(0.165 -0.165)">
       <use xlink:href="#DejaVuSans-31"/>
       <use xlink:href="#DejaVuSans-2e" x="63.623047"/>
       <use xlink:href="#DejaVuSans-35" x="95.410156"/>
      </g>
     </g>
    </g>
    <g id="ytick_5">
     <g id="line2d_9">
      <path d="M 65.425156 219.354019 
L 687.115156 219.354019 
" clip-path="url(#pcc0a0b8cdf)" style="fill: none; stroke-dasharray: 5.55,2.4; stroke-dashoffset: 0; stroke: #cccccc; stroke-opacity: 0.6; stroke-width: 1.5"/>
     </g>
     <g id="text_9">
      <!-- 2.0 -->
      <g style="fill: #262626" transform="translate(26.685 225.62273) scale(0.165 -0.165)">
       <defs>
        <path id="DejaVuSans-32" d="M 1228 531 
L 3431 531 
L 3431 0 
L 469 0 
L 469 531 
Q 828 903 1448 1529 
Q 2069 2156 2228 2338 
Q 2531 2678 2651 2914 
Q 2772 3150 2772 3378 
Q 2772 3750 2511 3984 
Q 2250 4219 1831 4219 
Q 1534 4219 1204 4116 
Q 875 4013 500 3803 
L 500 4441 
Q 881 4594 1212 4672 
Q 1544 4750 1819 4750 
Q 2544 4750 2975 4387 
Q 3406 4025 3406 3419 
Q 3406 3131 3298 2873 
Q 3191 2616 2906 2266 
Q 2828 2175 2409 1742 
Q 1991 1309 1228 531 
z
" transform="scale(0.015625)"/>
       </defs>
       <use xlink:href="#DejaVuSans-32"/>
       <use xlink:href="#DejaVuSans-2e" x="63.623047"/>
       <use xlink:href="#DejaVuSans-30" x="95.410156"/>
      </g>
     </g>
    </g>
    <g id="ytick_6">
     <g id="line2d_10">
      <path d="M 65.425156 180.658227 
L 687.115156 180.658227 
" clip-path="url(#pcc0a0b8cdf)" style="fill: none; stroke-dasharray: 5.55,2.4; stroke-dashoffset: 0; stroke: #cccccc; stroke-opacity: 0.6; stroke-width: 1.5"/>
     </g>
     <g id="text_10">
      <!-- 2.5 -->
      <g style="fill: #262626" transform="translate(26.685 186.926938) scale(0.165 -0.165)">
       <use xlink:href="#DejaVuSans-32"/>
       <use xlink:href="#DejaVuSans-2e" x="63.623047"/>
       <use xlink:href="#DejaVuSans-35" x="95.410156"/>
      </g>
     </g>
    </g>
    <g id="ytick_7">
     <g id="line2d_11">
      <path d="M 65.425156 141.962435 
L 687.115156 141.962435 
" clip-path="url(#pcc0a0b8cdf)" style="fill: none; stroke-dasharray: 5.55,2.4; stroke-dashoffset: 0; stroke: #cccccc; stroke-opacity: 0.6; stroke-width: 1.5"/>
     </g>
     <g id="text_11">
      <!-- 3.0 -->
      <g style="fill: #262626" transform="translate(26.685 148.231146) scale(0.165 -0.165)">
       <defs>
        <path id="DejaVuSans-33" d="M 2597 2516 
Q 3050 2419 3304 2112 
Q 3559 1806 3559 1356 
Q 3559 666 3084 287 
Q 2609 -91 1734 -91 
Q 1441 -91 1130 -33 
Q 819 25 488 141 
L 488 750 
Q 750 597 1062 519 
Q 1375 441 1716 441 
Q 2309 441 2620 675 
Q 2931 909 2931 1356 
Q 2931 1769 2642 2001 
Q 2353 2234 1838 2234 
L 1294 2234 
L 1294 2753 
L 1863 2753 
Q 2328 2753 2575 2939 
Q 2822 3125 2822 3475 
Q 2822 3834 2567 4026 
Q 2313 4219 1838 4219 
Q 1578 4219 1281 4162 
Q 984 4106 628 3988 
L 628 4550 
Q 988 4650 1302 4700 
Q 1616 4750 1894 4750 
Q 2613 4750 3031 4423 
Q 3450 4097 3450 3541 
Q 3450 3153 3228 2886 
Q 3006 2619 2597 2516 
z
" transform="scale(0.015625)"/>
       </defs>
       <use xlink:href="#DejaVuSans-33"/>
       <use xlink:href="#DejaVuSans-2e" x="63.623047"/>
       <use xlink:href="#DejaVuSans-30" x="95.410156"/>
      </g>
     </g>
    </g>
    <g id="ytick_8">
     <g id="line2d_12">
      <path d="M 65.425156 103.266643 
L 687.115156 103.266643 
" clip-path="url(#pcc0a0b8cdf)" style="fill: none; stroke-dasharray: 5.55,2.4; stroke-dashoffset: 0; stroke: #cccccc; stroke-opacity: 0.6; stroke-width: 1.5"/>
     </g>
     <g id="text_12">
      <!-- 3.5 -->
      <g style="fill: #262626" transform="translate(26.685 109.535354) scale(0.165 -0.165)">
       <use xlink:href="#DejaVuSans-33"/>
       <use xlink:href="#DejaVuSans-2e" x="63.623047"/>
       <use xlink:href="#DejaVuSans-35" x="95.410156"/>
      </g>
     </g>
    </g>
    <g id="ytick_9">
     <g id="line2d_13">
      <path d="M 65.425156 64.570851 
L 687.115156 64.570851 
" clip-path="url(#pcc0a0b8cdf)" style="fill: none; stroke-dasharray: 5.55,2.4; stroke-dashoffset: 0; stroke: #cccccc; stroke-opacity: 0.6; stroke-width: 1.5"/>
     </g>
     <g id="text_13">
      <!-- 4.0 -->
      <g style="fill: #262626" transform="translate(26.685 70.839562) scale(0.165 -0.165)">
       <defs>
        <path id="DejaVuSans-34" d="M 2419 4116 
L 825 1625 
L 2419 1625 
L 2419 4116 
z
M 2253 4666 
L 3047 4666 
L 3047 1625 
L 3713 1625 
L 3713 1100 
L 3047 1100 
L 3047 0 
L 2419 0 
L 2419 1100 
L 313 1100 
L 313 1709 
L 2253 4666 
z
" transform="scale(0.015625)"/>
       </defs>
       <use xlink:href="#DejaVuSans-34"/>
       <use xlink:href="#DejaVuSans-2e" x="63.623047"/>
       <use xlink:href="#DejaVuSans-30" x="95.410156"/>
      </g>
     </g>
    </g>
    <g id="text_14">
     <!-- Score -->
     <g style="fill: #262626" transform="translate(19.3575 230.378437) rotate(-90) scale(0.16 -0.16)">
      <defs>
       <path id="DejaVuSans-Bold-63" d="M 3366 3391 
L 3366 2478 
Q 3138 2634 2908 2709 
Q 2678 2784 2431 2784 
Q 1963 2784 1702 2511 
Q 1441 2238 1441 1747 
Q 1441 1256 1702 982 
Q 1963 709 2431 709 
Q 2694 709 2930 787 
Q 3166 866 3366 1019 
L 3366 103 
Q 3103 6 2833 -42 
Q 2563 -91 2291 -91 
Q 1344 -91 809 395 
Q 275 881 275 1747 
Q 275 2613 809 3098 
Q 1344 3584 2291 3584 
Q 2566 3584 2833 3536 
Q 3100 3488 3366 3391 
z
" transform="scale(0.015625)"/>
      </defs>
      <use xlink:href="#DejaVuSans-Bold-53"/>
      <use xlink:href="#DejaVuSans-Bold-63" x="72.021484"/>
      <use xlink:href="#DejaVuSans-Bold-6f" x="131.298828"/>
      <use xlink:href="#DejaVuSans-Bold-72" x="200"/>
      <use xlink:href="#DejaVuSans-Bold-65" x="249.316406"/>
     </g>
    </g>
   </g>
   <g id="patch_3">
    <path d="M 65.425156 374.137187 
L 65.425156 35.877187 
" style="fill: none; stroke: #cccccc; stroke-width: 1.875; stroke-linejoin: miter; stroke-linecap: square"/>
   </g>
   <g id="patch_4">
    <path d="M 65.425156 374.137187 
L 687.115156 374.137187 
" style="fill: none; stroke: #cccccc; stroke-width: 1.875; stroke-linejoin: miter; stroke-linecap: square"/>
   </g>
   <g id="patch_5">
    <path d="M 93.683793 374.137187 
L 187.879247 374.137187 
L 187.879247 362.933867 
L 93.683793 362.933867 
z
" clip-path="url(#pcc0a0b8cdf)" style="fill: #377eb8; stroke: #000000; stroke-width: 1.2; stroke-linejoin: miter"/>
   </g>
   <g id="patch_6">
    <path d="M 250.676217 374.137187 
L 344.871671 374.137187 
L 344.871671 358.646804 
L 250.676217 358.646804 
z
" clip-path="url(#pcc0a0b8cdf)" style="fill: #4daf4a; stroke: #000000; stroke-width: 1.2; stroke-linejoin: miter"/>
   </g>
   <g id="patch_7">
    <path d="M 407.668641 374.137187 
L 501.864096 374.137187 
L 501.864096 124.266935 
L 407.668641 124.266935 
z
" clip-path="url(#pcc0a0b8cdf)" style="fill: #984ea3; stroke: #000000; stroke-width: 1.2; stroke-linejoin: miter"/>
   </g>
   <g id="patch_8">
    <path d="M 564.661065 374.137187 
L 658.85652 374.137187 
L 658.85652 296.747434 
L 564.661065 296.747434 
z
" clip-path="url(#pcc0a0b8cdf)" style="fill: #ff7f00; stroke: #000000; stroke-width: 1.2; stroke-linejoin: miter"/>
   </g>
   <g id="text_15">
    <!-- 0.145 ± 0.083 -->
    <g style="fill: #262626" transform="translate(89.690504 358.295483) scale(0.13 -0.13)">
     <defs>
      <path id="DejaVuSans-Bold-30" d="M 2944 2338 
Q 2944 3213 2780 3570 
Q 2616 3928 2228 3928 
Q 1841 3928 1675 3570 
Q 1509 3213 1509 2338 
Q 1509 1453 1675 1090 
Q 1841 728 2228 728 
Q 2613 728 2778 1090 
Q 2944 1453 2944 2338 
z
M 4147 2328 
Q 4147 1169 3647 539 
Q 3147 -91 2228 -91 
Q 1306 -91 806 539 
Q 306 1169 306 2328 
Q 306 3491 806 4120 
Q 1306 4750 2228 4750 
Q 3147 4750 3647 4120 
Q 4147 3491 4147 2328 
z
" transform="scale(0.015625)"/>
      <path id="DejaVuSans-Bold-2e" d="M 653 1209 
L 1778 1209 
L 1778 0 
L 653 0 
L 653 1209 
z
" transform="scale(0.015625)"/>
      <path id="DejaVuSans-Bold-31" d="M 750 831 
L 1813 831 
L 1813 3847 
L 722 3622 
L 722 4441 
L 1806 4666 
L 2950 4666 
L 2950 831 
L 4013 831 
L 4013 0 
L 750 0 
L 750 831 
z
" transform="scale(0.015625)"/>
      <path id="DejaVuSans-Bold-34" d="M 2356 3675 
L 1038 1722 
L 2356 1722 
L 2356 3675 
z
M 2156 4666 
L 3494 4666 
L 3494 1722 
L 4159 1722 
L 4159 850 
L 3494 850 
L 3494 0 
L 2356 0 
L 2356 850 
L 288 850 
L 288 1881 
L 2156 4666 
z
" transform="scale(0.015625)"/>
      <path id="DejaVuSans-Bold-35" d="M 678 4666 
L 3669 4666 
L 3669 3781 
L 1638 3781 
L 1638 3059 
Q 1775 3097 1914 3117 
Q 2053 3138 2203 3138 
Q 3056 3138 3531 2711 
Q 4006 2284 4006 1522 
Q 4006 766 3489 337 
Q 2972 -91 2053 -91 
Q 1656 -91 1267 -14 
Q 878 63 494 219 
L 494 1166 
Q 875 947 1217 837 
Q 1559 728 1863 728 
Q 2300 728 2551 942 
Q 2803 1156 2803 1522 
Q 2803 1891 2551 2103 
Q 2300 2316 1863 2316 
Q 1603 2316 1309 2248 
Q 1016 2181 678 2041 
L 678 4666 
z
" transform="scale(0.015625)"/>
      <path id="DejaVuSans-Bold-b1" d="M 3053 4013 
L 3053 2906 
L 4684 2906 
L 4684 2169 
L 3053 2169 
L 3053 1063 
L 2309 1063 
L 2309 2169 
L 678 2169 
L 678 2906 
L 2309 2906 
L 2309 4013 
L 3053 4013 
z
M 678 744 
L 4684 744 
L 4684 0 
L 678 0 
L 678 744 
z
" transform="scale(0.015625)"/>
      <path id="DejaVuSans-Bold-38" d="M 2228 2088 
Q 1891 2088 1709 1903 
Q 1528 1719 1528 1375 
Q 1528 1031 1709 848 
Q 1891 666 2228 666 
Q 2563 666 2741 848 
Q 2919 1031 2919 1375 
Q 2919 1722 2741 1905 
Q 2563 2088 2228 2088 
z
M 1350 2484 
Q 925 2613 709 2878 
Q 494 3144 494 3541 
Q 494 4131 934 4440 
Q 1375 4750 2228 4750 
Q 3075 4750 3515 4442 
Q 3956 4134 3956 3541 
Q 3956 3144 3739 2878 
Q 3522 2613 3097 2484 
Q 3572 2353 3814 2058 
Q 4056 1763 4056 1313 
Q 4056 619 3595 264 
Q 3134 -91 2228 -91 
Q 1319 -91 855 264 
Q 391 619 391 1313 
Q 391 1763 633 2058 
Q 875 2353 1350 2484 
z
M 1631 3419 
Q 1631 3141 1786 2991 
Q 1941 2841 2228 2841 
Q 2509 2841 2662 2991 
Q 2816 3141 2816 3419 
Q 2816 3697 2662 3845 
Q 2509 3994 2228 3994 
Q 1941 3994 1786 3844 
Q 1631 3694 1631 3419 
z
" transform="scale(0.015625)"/>
      <path id="DejaVuSans-Bold-33" d="M 2981 2516 
Q 3453 2394 3698 2092 
Q 3944 1791 3944 1325 
Q 3944 631 3412 270 
Q 2881 -91 1863 -91 
Q 1503 -91 1142 -33 
Q 781 25 428 141 
L 428 1069 
Q 766 900 1098 814 
Q 1431 728 1753 728 
Q 2231 728 2486 893 
Q 2741 1059 2741 1369 
Q 2741 1688 2480 1852 
Q 2219 2016 1709 2016 
L 1228 2016 
L 1228 2791 
L 1734 2791 
Q 2188 2791 2409 2933 
Q 2631 3075 2631 3366 
Q 2631 3634 2415 3781 
Q 2200 3928 1806 3928 
Q 1516 3928 1219 3862 
Q 922 3797 628 3669 
L 628 4550 
Q 984 4650 1334 4700 
Q 1684 4750 2022 4750 
Q 2931 4750 3382 4451 
Q 3834 4153 3834 3553 
Q 3834 3144 3618 2883 
Q 3403 2622 2981 2516 
z
" transform="scale(0.015625)"/>
     </defs>
     <use xlink:href="#DejaVuSans-Bold-30"/>
     <use xlink:href="#DejaVuSans-Bold-2e" x="69.580078"/>
     <use xlink:href="#DejaVuSans-Bold-31" x="107.568359"/>
     <use xlink:href="#DejaVuSans-Bold-34" x="177.148438"/>
     <use xlink:href="#DejaVuSans-Bold-35" x="246.728516"/>
     <use xlink:href="#DejaVuSans-Bold-20" x="316.308594"/>
     <use xlink:href="#DejaVuSans-Bold-b1" x="351.123047"/>
     <use xlink:href="#DejaVuSans-Bold-20" x="434.912109"/>
     <use xlink:href="#DejaVuSans-Bold-30" x="469.726562"/>
     <use xlink:href="#DejaVuSans-Bold-2e" x="539.306641"/>
     <use xlink:href="#DejaVuSans-Bold-30" x="577.294922"/>
     <use xlink:href="#DejaVuSans-Bold-38" x="646.875"/>
     <use xlink:href="#DejaVuSans-Bold-33" x="716.455078"/>
    </g>
   </g>
   <g id="text_16">
    <!-- 0.200 ± 0.060 -->
    <g style="fill: #262626" transform="translate(246.682929 354.008421) scale(0.13 -0.13)">
     <defs>
      <path id="DejaVuSans-Bold-32" d="M 1844 884 
L 3897 884 
L 3897 0 
L 506 0 
L 506 884 
L 2209 2388 
Q 2438 2594 2547 2791 
Q 2656 2988 2656 3200 
Q 2656 3528 2436 3728 
Q 2216 3928 1850 3928 
Q 1569 3928 1234 3808 
Q 900 3688 519 3450 
L 519 4475 
Q 925 4609 1322 4679 
Q 1719 4750 2100 4750 
Q 2938 4750 3402 4381 
Q 3866 4013 3866 3353 
Q 3866 2972 3669 2642 
Q 3472 2313 2841 1759 
L 1844 884 
z
" transform="scale(0.015625)"/>
      <path id="DejaVuSans-Bold-36" d="M 2316 2303 
Q 2000 2303 1842 2098 
Q 1684 1894 1684 1484 
Q 1684 1075 1842 870 
Q 2000 666 2316 666 
Q 2634 666 2792 870 
Q 2950 1075 2950 1484 
Q 2950 1894 2792 2098 
Q 2634 2303 2316 2303 
z
M 3803 4544 
L 3803 3681 
Q 3506 3822 3243 3889 
Q 2981 3956 2731 3956 
Q 2194 3956 1894 3657 
Q 1594 3359 1544 2772 
Q 1750 2925 1990 3001 
Q 2231 3078 2516 3078 
Q 3231 3078 3670 2659 
Q 4109 2241 4109 1563 
Q 4109 813 3618 361 
Q 3128 -91 2303 -91 
Q 1394 -91 895 523 
Q 397 1138 397 2266 
Q 397 3422 980 4083 
Q 1563 4744 2578 4744 
Q 2900 4744 3203 4694 
Q 3506 4644 3803 4544 
z
" transform="scale(0.015625)"/>
     </defs>
     <use xlink:href="#DejaVuSans-Bold-30"/>
     <use xlink:href="#DejaVuSans-Bold-2e" x="69.580078"/>
     <use xlink:href="#DejaVuSans-Bold-32" x="107.568359"/>
     <use xlink:href="#DejaVuSans-Bold-30" x="177.148438"/>
     <use xlink:href="#DejaVuSans-Bold-30" x="246.728516"/>
     <use xlink:href="#DejaVuSans-Bold-20" x="316.308594"/>
     <use xlink:href="#DejaVuSans-Bold-b1" x="351.123047"/>
     <use xlink:href="#DejaVuSans-Bold-20" x="434.912109"/>
     <use xlink:href="#DejaVuSans-Bold-30" x="469.726562"/>
     <use xlink:href="#DejaVuSans-Bold-2e" x="539.306641"/>
     <use xlink:href="#DejaVuSans-Bold-30" x="577.294922"/>
     <use xlink:href="#DejaVuSans-Bold-36" x="646.875"/>
     <use xlink:href="#DejaVuSans-Bold-30" x="716.455078"/>
    </g>
   </g>
   <g id="text_17">
    <!-- 3.229 ± 0.992 -->
    <g style="fill: #262626" transform="translate(403.675353 119.628552) scale(0.13 -0.13)">
     <defs>
      <path id="DejaVuSans-Bold-39" d="M 641 103 
L 641 966 
Q 928 831 1190 764 
Q 1453 697 1709 697 
Q 2247 697 2547 995 
Q 2847 1294 2900 1881 
Q 2688 1725 2447 1647 
Q 2206 1569 1925 1569 
Q 1209 1569 770 1986 
Q 331 2403 331 3084 
Q 331 3838 820 4291 
Q 1309 4744 2131 4744 
Q 3044 4744 3544 4128 
Q 4044 3513 4044 2388 
Q 4044 1231 3459 570 
Q 2875 -91 1856 -91 
Q 1528 -91 1228 -42 
Q 928 6 641 103 
z
M 2125 2350 
Q 2441 2350 2600 2554 
Q 2759 2759 2759 3169 
Q 2759 3575 2600 3781 
Q 2441 3988 2125 3988 
Q 1809 3988 1650 3781 
Q 1491 3575 1491 3169 
Q 1491 2759 1650 2554 
Q 1809 2350 2125 2350 
z
" transform="scale(0.015625)"/>
     </defs>
     <use xlink:href="#DejaVuSans-Bold-33"/>
     <use xlink:href="#DejaVuSans-Bold-2e" x="69.580078"/>
     <use xlink:href="#DejaVuSans-Bold-32" x="107.568359"/>
     <use xlink:href="#DejaVuSans-Bold-32" x="177.148438"/>
     <use xlink:href="#DejaVuSans-Bold-39" x="246.728516"/>
     <use xlink:href="#DejaVuSans-Bold-20" x="316.308594"/>
     <use xlink:href="#DejaVuSans-Bold-b1" x="351.123047"/>
     <use xlink:href="#DejaVuSans-Bold-20" x="434.912109"/>
     <use xlink:href="#DejaVuSans-Bold-30" x="469.726562"/>
     <use xlink:href="#DejaVuSans-Bold-2e" x="539.306641"/>
     <use xlink:href="#DejaVuSans-Bold-39" x="577.294922"/>
     <use xlink:href="#DejaVuSans-Bold-39" x="646.875"/>
     <use xlink:href="#DejaVuSans-Bold-32" x="716.455078"/>
    </g>
   </g>
   <g id="text_18">
    <!-- 1.000 ± 0.000 -->
    <g style="fill: #262626" transform="translate(560.667777 292.10905) scale(0.13 -0.13)">
     <use xlink:href="#DejaVuSans-Bold-31"/>
     <use xlink:href="#DejaVuSans-Bold-2e" x="69.580078"/>
     <use xlink:href="#DejaVuSans-Bold-30" x="107.568359"/>
     <use xlink:href="#DejaVuSans-Bold-30" x="177.148438"/>
     <use xlink:href="#DejaVuSans-Bold-30" x="246.728516"/>
     <use xlink:href="#DejaVuSans-Bold-20" x="316.308594"/>
     <use xlink:href="#DejaVuSans-Bold-b1" x="351.123047"/>
     <use xlink:href="#DejaVuSans-Bold-20" x="434.912109"/>
     <use xlink:href="#DejaVuSans-Bold-30" x="469.726562"/>
     <use xlink:href="#DejaVuSans-Bold-2e" x="539.306641"/>
     <use xlink:href="#DejaVuSans-Bold-30" x="577.294922"/>
     <use xlink:href="#DejaVuSans-Bold-30" x="646.875"/>
     <use xlink:href="#DejaVuSans-Bold-30" x="716.455078"/>
    </g>
   </g>
   <g id="text_19">
    <!-- AddNeuroMed - CVAE Avg Test Metrics Across 5 Seeds -->
    <g style="fill: #262626" transform="translate(101.756094 20.877187) scale(0.18 -0.18)">
     <defs>
      <path id="DejaVuSans-Bold-64" d="M 2919 2988 
L 2919 4863 
L 4044 4863 
L 4044 0 
L 2919 0 
L 2919 506 
Q 2688 197 2409 53 
Q 2131 -91 1766 -91 
Q 1119 -91 703 423 
Q 288 938 288 1747 
Q 288 2556 703 3070 
Q 1119 3584 1766 3584 
Q 2128 3584 2408 3439 
Q 2688 3294 2919 2988 
z
M 2181 722 
Q 2541 722 2730 984 
Q 2919 1247 2919 1747 
Q 2919 2247 2730 2509 
Q 2541 2772 2181 2772 
Q 1825 2772 1636 2509 
Q 1447 2247 1447 1747 
Q 1447 1247 1636 984 
Q 1825 722 2181 722 
z
" transform="scale(0.015625)"/>
      <path id="DejaVuSans-Bold-4e" d="M 588 4666 
L 1931 4666 
L 3628 1466 
L 3628 4666 
L 4769 4666 
L 4769 0 
L 3425 0 
L 1728 3200 
L 1728 0 
L 588 0 
L 588 4666 
z
" transform="scale(0.015625)"/>
      <path id="DejaVuSans-Bold-75" d="M 500 1363 
L 500 3500 
L 1625 3500 
L 1625 3150 
Q 1625 2866 1622 2436 
Q 1619 2006 1619 1863 
Q 1619 1441 1641 1255 
Q 1663 1069 1716 984 
Q 1784 875 1895 815 
Q 2006 756 2150 756 
Q 2500 756 2700 1025 
Q 2900 1294 2900 1772 
L 2900 3500 
L 4019 3500 
L 4019 0 
L 2900 0 
L 2900 506 
Q 2647 200 2364 54 
Q 2081 -91 1741 -91 
Q 1134 -91 817 281 
Q 500 653 500 1363 
z
" transform="scale(0.015625)"/>
      <path id="DejaVuSans-Bold-2d" d="M 347 2297 
L 2309 2297 
L 2309 1388 
L 347 1388 
L 347 2297 
z
" transform="scale(0.015625)"/>
      <path id="DejaVuSans-Bold-56" d="M 31 4666 
L 1241 4666 
L 2478 1222 
L 3713 4666 
L 4922 4666 
L 3194 0 
L 1759 0 
L 31 4666 
z
" transform="scale(0.015625)"/>
      <path id="DejaVuSans-Bold-76" d="M 97 3500 
L 1216 3500 
L 2088 1081 
L 2956 3500 
L 4078 3500 
L 2700 0 
L 1472 0 
L 97 3500 
z
" transform="scale(0.015625)"/>
      <path id="DejaVuSans-Bold-67" d="M 2919 594 
Q 2688 288 2409 144 
Q 2131 0 1766 0 
Q 1125 0 706 504 
Q 288 1009 288 1791 
Q 288 2575 706 3076 
Q 1125 3578 1766 3578 
Q 2131 3578 2409 3434 
Q 2688 3291 2919 2981 
L 2919 3500 
L 4044 3500 
L 4044 353 
Q 4044 -491 3511 -936 
Q 2978 -1381 1966 -1381 
Q 1638 -1381 1331 -1331 
Q 1025 -1281 716 -1178 
L 716 -306 
Q 1009 -475 1290 -558 
Q 1572 -641 1856 -641 
Q 2406 -641 2662 -400 
Q 2919 -159 2919 353 
L 2919 594 
z
M 2181 2772 
Q 1834 2772 1640 2515 
Q 1447 2259 1447 1791 
Q 1447 1309 1634 1061 
Q 1822 813 2181 813 
Q 2531 813 2725 1069 
Q 2919 1325 2919 1791 
Q 2919 2259 2725 2515 
Q 2531 2772 2181 2772 
z
" transform="scale(0.015625)"/>
      <path id="DejaVuSans-Bold-54" d="M 31 4666 
L 4331 4666 
L 4331 3756 
L 2784 3756 
L 2784 0 
L 1581 0 
L 1581 3756 
L 31 3756 
L 31 4666 
z
" transform="scale(0.015625)"/>
     </defs>
     <use xlink:href="#DejaVuSans-Bold-41"/>
     <use xlink:href="#DejaVuSans-Bold-64" x="77.392578"/>
     <use xlink:href="#DejaVuSans-Bold-64" x="148.974609"/>
     <use xlink:href="#DejaVuSans-Bold-4e" x="220.556641"/>
     <use xlink:href="#DejaVuSans-Bold-65" x="304.248047"/>
     <use xlink:href="#DejaVuSans-Bold-75" x="372.070312"/>
     <use xlink:href="#DejaVuSans-Bold-72" x="443.261719"/>
     <use xlink:href="#DejaVuSans-Bold-6f" x="492.578125"/>
     <use xlink:href="#DejaVuSans-Bold-4d" x="561.279297"/>
     <use xlink:href="#DejaVuSans-Bold-65" x="660.791016"/>
     <use xlink:href="#DejaVuSans-Bold-64" x="728.613281"/>
     <use xlink:href="#DejaVuSans-Bold-20" x="800.195312"/>
     <use xlink:href="#DejaVuSans-Bold-2d" x="835.009766"/>
     <use xlink:href="#DejaVuSans-Bold-20" x="876.513672"/>
     <use xlink:href="#DejaVuSans-Bold-43" x="911.328125"/>
     <use xlink:href="#DejaVuSans-Bold-56" x="984.716797"/>
     <use xlink:href="#DejaVuSans-Bold-41" x="1055.359375"/>
     <use xlink:href="#DejaVuSans-Bold-45" x="1132.751953"/>
     <use xlink:href="#DejaVuSans-Bold-20" x="1201.0625"/>
     <use xlink:href="#DejaVuSans-Bold-41" x="1235.876953"/>
     <use xlink:href="#DejaVuSans-Bold-76" x="1309.644531"/>
     <use xlink:href="#DejaVuSans-Bold-67" x="1374.830078"/>
     <use xlink:href="#DejaVuSans-Bold-20" x="1446.412109"/>
     <use xlink:href="#DejaVuSans-Bold-54" x="1481.226562"/>
     <use xlink:href="#DejaVuSans-Bold-65" x="1536.189453"/>
     <use xlink:href="#DejaVuSans-Bold-73" x="1604.011719"/>
     <use xlink:href="#DejaVuSans-Bold-74" x="1663.533203"/>
     <use xlink:href="#DejaVuSans-Bold-20" x="1711.335938"/>
     <use xlink:href="#DejaVuSans-Bold-4d" x="1746.150391"/>
     <use xlink:href="#DejaVuSans-Bold-65" x="1845.662109"/>
     <use xlink:href="#DejaVuSans-Bold-74" x="1913.484375"/>
     <use xlink:href="#DejaVuSans-Bold-72" x="1961.287109"/>
     <use xlink:href="#DejaVuSans-Bold-69" x="2010.603516"/>
     <use xlink:href="#DejaVuSans-Bold-63" x="2044.880859"/>
     <use xlink:href="#DejaVuSans-Bold-73" x="2104.158203"/>
     <use xlink:href="#DejaVuSans-Bold-20" x="2163.679688"/>
     <use xlink:href="#DejaVuSans-Bold-41" x="2198.494141"/>
     <use xlink:href="#DejaVuSans-Bold-63" x="2275.886719"/>
     <use xlink:href="#DejaVuSans-Bold-72" x="2335.164062"/>
     <use xlink:href="#DejaVuSans-Bold-6f" x="2384.480469"/>
     <use xlink:href="#DejaVuSans-Bold-73" x="2453.181641"/>
     <use xlink:href="#DejaVuSans-Bold-73" x="2512.703125"/>
     <use xlink:href="#DejaVuSans-Bold-20" x="2572.224609"/>
     <use xlink:href="#DejaVuSans-Bold-35" x="2607.039062"/>
     <use xlink:href="#DejaVuSans-Bold-20" x="2676.619141"/>
     <use xlink:href="#DejaVuSans-Bold-53" x="2711.433594"/>
     <use xlink:href="#DejaVuSans-Bold-65" x="2783.455078"/>
     <use xlink:href="#DejaVuSans-Bold-65" x="2851.277344"/>
     <use xlink:href="#DejaVuSans-Bold-64" x="2919.099609"/>
     <use xlink:href="#DejaVuSans-Bold-73" x="2990.681641"/>
    </g>
   </g>
   <g id="LineCollection_1">
    <path d="M 140.78152 369.387806 
L 140.78152 356.479928 
" clip-path="url(#pcc0a0b8cdf)" style="fill: none; stroke: #1a1a1a; stroke-width: 2.25"/>
    <path d="M 297.773944 363.274446 
L 297.773944 354.019163 
" clip-path="url(#pcc0a0b8cdf)" style="fill: none; stroke: #1a1a1a; stroke-width: 2.25"/>
    <path d="M 454.766368 201.047937 
L 454.766368 47.485932 
" clip-path="url(#pcc0a0b8cdf)" style="fill: none; stroke: #1a1a1a; stroke-width: 2.25"/>
    <path d="M 611.758793 296.747857 
L 611.758793 296.747011 
" clip-path="url(#pcc0a0b8cdf)" style="fill: none; stroke: #1a1a1a; stroke-width: 2.25"/>
   </g>
   <g id="line2d_14">
    <defs>
     <path id="m53af96e3ce" d="M 8 0 
L -8 -0 
" style="stroke: #1a1a1a"/>
    </defs>
    <g clip-path="url(#pcc0a0b8cdf)">
     <use xlink:href="#m53af96e3ce" x="140.78152" y="369.387806" style="fill: #1a1a1a; stroke: #1a1a1a"/>
     <use xlink:href="#m53af96e3ce" x="297.773944" y="363.274446" style="fill: #1a1a1a; stroke: #1a1a1a"/>
     <use xlink:href="#m53af96e3ce" x="454.766368" y="201.047937" style="fill: #1a1a1a; stroke: #1a1a1a"/>
     <use xlink:href="#m53af96e3ce" x="611.758793" y="296.747857" style="fill: #1a1a1a; stroke: #1a1a1a"/>
    </g>
   </g>
   <g id="line2d_15">
    <g clip-path="url(#pcc0a0b8cdf)">
     <use xlink:href="#m53af96e3ce" x="140.78152" y="356.479928" style="fill: #1a1a1a; stroke: #1a1a1a"/>
     <use xlink:href="#m53af96e3ce" x="297.773944" y="354.019163" style="fill: #1a1a1a; stroke: #1a1a1a"/>
     <use xlink:href="#m53af96e3ce" x="454.766368" y="47.485932" style="fill: #1a1a1a; stroke: #1a1a1a"/>
     <use xlink:href="#m53af96e3ce" x="611.758793" y="296.747011" style="fill: #1a1a1a; stroke: #1a1a1a"/>
    </g>
   </g>
  </g>
 </g>
 <defs>
  <clipPath id="pcc0a0b8cdf">
   <rect x="65.425156" y="35.877187" width="621.69" height="338.26"/>
  </clipPath>
 </defs>
</svg>
