<?xml version="1.0" encoding="utf-8" standalone="no"?>
<!DOCTYPE svg PUBLIC "-//W3C//DTD SVG 1.1//EN"
  "http://www.w3.org/Graphics/SVG/1.1/DTD/svg11.dtd">
<svg xmlns:xlink="http://www.w3.org/1999/xlink" width="981.333922pt" height="549.797813pt" viewBox="0 0 981.333922 549.797813" xmlns="http://www.w3.org/2000/svg" version="1.1">
 <metadata>
  <rdf:RDF xmlns:dc="http://purl.org/dc/elements/1.1/" xmlns:cc="http://creativecommons.org/ns#" xmlns:rdf="http://www.w3.org/1999/02/22-rdf-syntax-ns#">
   <cc:Work>
    <dc:type rdf:resource="http://purl.org/dc/dcmitype/StillImage"/>
    <dc:date>2025-06-09T16:32:00.291806</dc:date>
    <dc:format>image/svg+xml</dc:format>
    <dc:creator>
     <cc:Agent>
      <dc:title>Matplotlib v3.8.4, https://matplotlib.org/</dc:title>
     </cc:Agent>
    </dc:creator>
   </cc:Work>
  </rdf:RDF>
 </metadata>
 <defs>
  <style type="text/css">*{stroke-linejoin: round; stroke-linecap: butt}</style>
 </defs>
 <g id="figure_1">
  <g id="patch_1">
   <path d="M 0 549.797813 
L 981.333922 549.797813 
L 981.333922 0 
L 0 0 
z
" style="fill: #ffffff"/>
  </g>
  <g id="axes_1">
   <g id="patch_2">
    <path d="M 78.68125 491.256563 
L 897.549432 491.256563 
L 897.549432 29.916562 
L 78.68125 29.916562 
z
" style="fill: #ffffff"/>
   </g>
   <g id="matplotlib.axis_1">
    <g id="xtick_1">
     <g id="line2d_1">
      <path d="M 198.616489 491.256563 
L 198.616489 29.916562 
" clip-path="url(#p601a0f68e8)" style="fill: none; stroke-dasharray: 5.55,2.4; stroke-dashoffset: 0; stroke: #cccccc; stroke-opacity: 0.7; stroke-width: 1.5"/>
     </g>
     <g id="text_1">
      <!-- 200 -->
      <g style="fill: #262626" transform="translate(183.346489 515.914063) scale(0.16 -0.16)">
       <defs>
        <path id="DejaVuSans-32" d="M 1228 531 
L 3431 531 
L 3431 0 
L 469 0 
L 469 531 
Q 828 903 1448 1529 
Q 2069 2156 2228 2338 
Q 2531 2678 2651 2914 
Q 2772 3150 2772 3378 
Q 2772 3750 2511 3984 
Q 2250 4219 1831 4219 
Q 1534 4219 1204 4116 
Q 875 4013 500 3803 
L 500 4441 
Q 881 4594 1212 4672 
Q 1544 4750 1819 4750 
Q 2544 4750 2975 4387 
Q 3406 4025 3406 3419 
Q 3406 3131 3298 2873 
Q 3191 2616 2906 2266 
Q 2828 2175 2409 1742 
Q 1991 1309 1228 531 
z
" transform="scale(0.015625)"/>
        <path id="DejaVuSans-30" d="M 2034 4250 
Q 1547 4250 1301 3770 
Q 1056 3291 1056 2328 
Q 1056 1369 1301 889 
Q 1547 409 2034 409 
Q 2525 409 2770 889 
Q 3016 1369 3016 2328 
Q 3016 3291 2770 3770 
Q 2525 4250 2034 4250 
z
M 2034 4750 
Q 2819 4750 3233 4129 
Q 3647 3509 3647 2328 
Q 3647 1150 3233 529 
Q 2819 -91 2034 -91 
Q 1250 -91 836 529 
Q 422 1150 422 2328 
Q 422 3509 836 4129 
Q 1250 4750 2034 4750 
z
" transform="scale(0.015625)"/>
       </defs>
       <use xlink:href="#DejaVuSans-32"/>
       <use xlink:href="#DejaVuSans-30" x="63.623047"/>
       <use xlink:href="#DejaVuSans-30" x="127.246094"/>
      </g>
     </g>
    </g>
    <g id="xtick_2">
     <g id="line2d_2">
      <path d="M 364.044404 491.256563 
L 364.044404 29.916562 
" clip-path="url(#p601a0f68e8)" style="fill: none; stroke-dasharray: 5.55,2.4; stroke-dashoffset: 0; stroke: #cccccc; stroke-opacity: 0.7; stroke-width: 1.5"/>
     </g>
     <g id="text_2">
      <!-- 400 -->
      <g style="fill: #262626" transform="translate(348.774404 515.914063) scale(0.16 -0.16)">
       <defs>
        <path id="DejaVuSans-34" d="M 2419 4116 
L 825 1625 
L 2419 1625 
L 2419 4116 
z
M 2253 4666 
L 3047 4666 
L 3047 1625 
L 3713 1625 
L 3713 1100 
L 3047 1100 
L 3047 0 
L 2419 0 
L 2419 1100 
L 313 1100 
L 313 1709 
L 2253 4666 
z
" transform="scale(0.015625)"/>
       </defs>
       <use xlink:href="#DejaVuSans-34"/>
       <use xlink:href="#DejaVuSans-30" x="63.623047"/>
       <use xlink:href="#DejaVuSans-30" x="127.246094"/>
      </g>
     </g>
    </g>
    <g id="xtick_3">
     <g id="line2d_3">
      <path d="M 529.47232 491.256563 
L 529.47232 29.916562 
" clip-path="url(#p601a0f68e8)" style="fill: none; stroke-dasharray: 5.55,2.4; stroke-dashoffset: 0; stroke: #cccccc; stroke-opacity: 0.7; stroke-width: 1.5"/>
     </g>
     <g id="text_3">
      <!-- 600 -->
      <g style="fill: #262626" transform="translate(514.20232 515.914063) scale(0.16 -0.16)">
       <defs>
        <path id="DejaVuSans-36" d="M 2113 2584 
Q 1688 2584 1439 2293 
Q 1191 2003 1191 1497 
Q 1191 994 1439 701 
Q 1688 409 2113 409 
Q 2538 409 2786 701 
Q 3034 994 3034 1497 
Q 3034 2003 2786 2293 
Q 2538 2584 2113 2584 
z
M 3366 4563 
L 3366 3988 
Q 3128 4100 2886 4159 
Q 2644 4219 2406 4219 
Q 1781 4219 1451 3797 
Q 1122 3375 1075 2522 
Q 1259 2794 1537 2939 
Q 1816 3084 2150 3084 
Q 2853 3084 3261 2657 
Q 3669 2231 3669 1497 
Q 3669 778 3244 343 
Q 2819 -91 2113 -91 
Q 1303 -91 875 529 
Q 447 1150 447 2328 
Q 447 3434 972 4092 
Q 1497 4750 2381 4750 
Q 2619 4750 2861 4703 
Q 3103 4656 3366 4563 
z
" transform="scale(0.015625)"/>
       </defs>
       <use xlink:href="#DejaVuSans-36"/>
       <use xlink:href="#DejaVuSans-30" x="63.623047"/>
       <use xlink:href="#DejaVuSans-30" x="127.246094"/>
      </g>
     </g>
    </g>
    <g id="xtick_4">
     <g id="line2d_4">
      <path d="M 694.900235 491.256563 
L 694.900235 29.916562 
" clip-path="url(#p601a0f68e8)" style="fill: none; stroke-dasharray: 5.55,2.4; stroke-dashoffset: 0; stroke: #cccccc; stroke-opacity: 0.7; stroke-width: 1.5"/>
     </g>
     <g id="text_4">
      <!-- 800 -->
      <g style="fill: #262626" transform="translate(679.630235 515.914063) scale(0.16 -0.16)">
       <defs>
        <path id="DejaVuSans-38" d="M 2034 2216 
Q 1584 2216 1326 1975 
Q 1069 1734 1069 1313 
Q 1069 891 1326 650 
Q 1584 409 2034 409 
Q 2484 409 2743 651 
Q 3003 894 3003 1313 
Q 3003 1734 2745 1975 
Q 2488 2216 2034 2216 
z
M 1403 2484 
Q 997 2584 770 2862 
Q 544 3141 544 3541 
Q 544 4100 942 4425 
Q 1341 4750 2034 4750 
Q 2731 4750 3128 4425 
Q 3525 4100 3525 3541 
Q 3525 3141 3298 2862 
Q 3072 2584 2669 2484 
Q 3125 2378 3379 2068 
Q 3634 1759 3634 1313 
Q 3634 634 3220 271 
Q 2806 -91 2034 -91 
Q 1263 -91 848 271 
Q 434 634 434 1313 
Q 434 1759 690 2068 
Q 947 2378 1403 2484 
z
M 1172 3481 
Q 1172 3119 1398 2916 
Q 1625 2713 2034 2713 
Q 2441 2713 2670 2916 
Q 2900 3119 2900 3481 
Q 2900 3844 2670 4047 
Q 2441 4250 2034 4250 
Q 1625 4250 1398 4047 
Q 1172 3844 1172 3481 
z
" transform="scale(0.015625)"/>
       </defs>
       <use xlink:href="#DejaVuSans-38"/>
       <use xlink:href="#DejaVuSans-30" x="63.623047"/>
       <use xlink:href="#DejaVuSans-30" x="127.246094"/>
      </g>
     </g>
    </g>
    <g id="xtick_5">
     <g id="line2d_5">
      <path d="M 860.328151 491.256563 
L 860.328151 29.916562 
" clip-path="url(#p601a0f68e8)" style="fill: none; stroke-dasharray: 5.55,2.4; stroke-dashoffset: 0; stroke: #cccccc; stroke-opacity: 0.7; stroke-width: 1.5"/>
     </g>
     <g id="text_5">
      <!-- 1000 -->
      <g style="fill: #262626" transform="translate(839.968151 515.914063) scale(0.16 -0.16)">
       <defs>
        <path id="DejaVuSans-31" d="M 794 531 
L 1825 531 
L 1825 4091 
L 703 3866 
L 703 4441 
L 1819 4666 
L 2450 4666 
L 2450 531 
L 3481 531 
L 3481 0 
L 794 0 
L 794 531 
z
" transform="scale(0.015625)"/>
       </defs>
       <use xlink:href="#DejaVuSans-31"/>
       <use xlink:href="#DejaVuSans-30" x="63.623047"/>
       <use xlink:href="#DejaVuSans-30" x="127.246094"/>
       <use xlink:href="#DejaVuSans-30" x="190.869141"/>
      </g>
     </g>
    </g>
    <g id="text_6">
     <!-- Epochs -->
     <g style="fill: #262626" transform="translate(452.284091 538.438438) scale(0.2 -0.2)">
      <defs>
       <path id="DejaVuSans-45" d="M 628 4666 
L 3578 4666 
L 3578 4134 
L 1259 4134 
L 1259 2753 
L 3481 2753 
L 3481 2222 
L 1259 2222 
L 1259 531 
L 3634 531 
L 3634 0 
L 628 0 
L 628 4666 
z
" transform="scale(0.015625)"/>
       <path id="DejaVuSans-70" d="M 1159 525 
L 1159 -1331 
L 581 -1331 
L 581 3500 
L 1159 3500 
L 1159 2969 
Q 1341 3281 1617 3432 
Q 1894 3584 2278 3584 
Q 2916 3584 3314 3078 
Q 3713 2572 3713 1747 
Q 3713 922 3314 415 
Q 2916 -91 2278 -91 
Q 1894 -91 1617 61 
Q 1341 213 1159 525 
z
M 3116 1747 
Q 3116 2381 2855 2742 
Q 2594 3103 2138 3103 
Q 1681 3103 1420 2742 
Q 1159 2381 1159 1747 
Q 1159 1113 1420 752 
Q 1681 391 2138 391 
Q 2594 391 2855 752 
Q 3116 1113 3116 1747 
z
" transform="scale(0.015625)"/>
       <path id="DejaVuSans-6f" d="M 1959 3097 
Q 1497 3097 1228 2736 
Q 959 2375 959 1747 
Q 959 1119 1226 758 
Q 1494 397 1959 397 
Q 2419 397 2687 759 
Q 2956 1122 2956 1747 
Q 2956 2369 2687 2733 
Q 2419 3097 1959 3097 
z
M 1959 3584 
Q 2709 3584 3137 3096 
Q 3566 2609 3566 1747 
Q 3566 888 3137 398 
Q 2709 -91 1959 -91 
Q 1206 -91 779 398 
Q 353 888 353 1747 
Q 353 2609 779 3096 
Q 1206 3584 1959 3584 
z
" transform="scale(0.015625)"/>
       <path id="DejaVuSans-63" d="M 3122 3366 
L 3122 2828 
Q 2878 2963 2633 3030 
Q 2388 3097 2138 3097 
Q 1578 3097 1268 2742 
Q 959 2388 959 1747 
Q 959 1106 1268 751 
Q 1578 397 2138 397 
Q 2388 397 2633 464 
Q 2878 531 3122 666 
L 3122 134 
Q 2881 22 2623 -34 
Q 2366 -91 2075 -91 
Q 1284 -91 818 406 
Q 353 903 353 1747 
Q 353 2603 823 3093 
Q 1294 3584 2113 3584 
Q 2378 3584 2631 3529 
Q 2884 3475 3122 3366 
z
" transform="scale(0.015625)"/>
       <path id="DejaVuSans-68" d="M 3513 2113 
L 3513 0 
L 2938 0 
L 2938 2094 
Q 2938 2591 2744 2837 
Q 2550 3084 2163 3084 
Q 1697 3084 1428 2787 
Q 1159 2491 1159 1978 
L 1159 0 
L 581 0 
L 581 4863 
L 1159 4863 
L 1159 2956 
Q 1366 3272 1645 3428 
Q 1925 3584 2291 3584 
Q 2894 3584 3203 3211 
Q 3513 2838 3513 2113 
z
" transform="scale(0.015625)"/>
       <path id="DejaVuSans-73" d="M 2834 3397 
L 2834 2853 
Q 2591 2978 2328 3040 
Q 2066 3103 1784 3103 
Q 1356 3103 1142 2972 
Q 928 2841 928 2578 
Q 928 2378 1081 2264 
Q 1234 2150 1697 2047 
L 1894 2003 
Q 2506 1872 2764 1633 
Q 3022 1394 3022 966 
Q 3022 478 2636 193 
Q 2250 -91 1575 -91 
Q 1294 -91 989 -36 
Q 684 19 347 128 
L 347 722 
Q 666 556 975 473 
Q 1284 391 1588 391 
Q 1994 391 2212 530 
Q 2431 669 2431 922 
Q 2431 1156 2273 1281 
Q 2116 1406 1581 1522 
L 1381 1569 
Q 847 1681 609 1914 
Q 372 2147 372 2553 
Q 372 3047 722 3315 
Q 1072 3584 1716 3584 
Q 2034 3584 2315 3537 
Q 2597 3491 2834 3397 
z
" transform="scale(0.015625)"/>
      </defs>
      <use xlink:href="#DejaVuSans-45"/>
      <use xlink:href="#DejaVuSans-70" x="63.183594"/>
      <use xlink:href="#DejaVuSans-6f" x="126.660156"/>
      <use xlink:href="#DejaVuSans-63" x="187.841797"/>
      <use xlink:href="#DejaVuSans-68" x="242.822266"/>
      <use xlink:href="#DejaVuSans-73" x="306.201172"/>
     </g>
    </g>
   </g>
   <g id="matplotlib.axis_2">
    <g id="ytick_1">
     <g id="line2d_6">
      <path d="M 78.68125 482.078753 
L 897.549432 482.078753 
" clip-path="url(#p601a0f68e8)" style="fill: none; stroke-dasharray: 5.55,2.4; stroke-dashoffset: 0; stroke: #cccccc; stroke-opacity: 0.7; stroke-width: 1.5"/>
     </g>
     <g id="text_7">
      <!-- 0.05 -->
      <g style="fill: #262626" transform="translate(30.55625 488.157503) scale(0.16 -0.16)">
       <defs>
        <path id="DejaVuSans-2e" d="M 684 794 
L 1344 794 
L 1344 0 
L 684 0 
L 684 794 
z
" transform="scale(0.015625)"/>
        <path id="DejaVuSans-35" d="M 691 4666 
L 3169 4666 
L 3169 4134 
L 1269 4134 
L 1269 2991 
Q 1406 3038 1543 3061 
Q 1681 3084 1819 3084 
Q 2600 3084 3056 2656 
Q 3513 2228 3513 1497 
Q 3513 744 3044 326 
Q 2575 -91 1722 -91 
Q 1428 -91 1123 -41 
Q 819 9 494 109 
L 494 744 
Q 775 591 1075 516 
Q 1375 441 1709 441 
Q 2250 441 2565 725 
Q 2881 1009 2881 1497 
Q 2881 1984 2565 2268 
Q 2250 2553 1709 2553 
Q 1456 2553 1204 2497 
Q 953 2441 691 2322 
L 691 4666 
z
" transform="scale(0.015625)"/>
       </defs>
       <use xlink:href="#DejaVuSans-30"/>
       <use xlink:href="#DejaVuSans-2e" x="63.623047"/>
       <use xlink:href="#DejaVuSans-30" x="95.410156"/>
       <use xlink:href="#DejaVuSans-35" x="159.033203"/>
      </g>
     </g>
    </g>
    <g id="ytick_2">
     <g id="line2d_7">
      <path d="M 78.68125 413.020968 
L 897.549432 413.020968 
" clip-path="url(#p601a0f68e8)" style="fill: none; stroke-dasharray: 5.55,2.4; stroke-dashoffset: 0; stroke: #cccccc; stroke-opacity: 0.7; stroke-width: 1.5"/>
     </g>
     <g id="text_8">
      <!-- 0.10 -->
      <g style="fill: #262626" transform="translate(30.55625 419.099718) scale(0.16 -0.16)">
       <use xlink:href="#DejaVuSans-30"/>
       <use xlink:href="#DejaVuSans-2e" x="63.623047"/>
       <use xlink:href="#DejaVuSans-31" x="95.410156"/>
       <use xlink:href="#DejaVuSans-30" x="159.033203"/>
      </g>
     </g>
    </g>
    <g id="ytick_3">
     <g id="line2d_8">
      <path d="M 78.68125 343.963182 
L 897.549432 343.963182 
" clip-path="url(#p601a0f68e8)" style="fill: none; stroke-dasharray: 5.55,2.4; stroke-dashoffset: 0; stroke: #cccccc; stroke-opacity: 0.7; stroke-width: 1.5"/>
     </g>
     <g id="text_9">
      <!-- 0.15 -->
      <g style="fill: #262626" transform="translate(30.55625 350.041932) scale(0.16 -0.16)">
       <use xlink:href="#DejaVuSans-30"/>
       <use xlink:href="#DejaVuSans-2e" x="63.623047"/>
       <use xlink:href="#DejaVuSans-31" x="95.410156"/>
       <use xlink:href="#DejaVuSans-35" x="159.033203"/>
      </g>
     </g>
    </g>
    <g id="ytick_4">
     <g id="line2d_9">
      <path d="M 78.68125 274.905397 
L 897.549432 274.905397 
" clip-path="url(#p601a0f68e8)" style="fill: none; stroke-dasharray: 5.55,2.4; stroke-dashoffset: 0; stroke: #cccccc; stroke-opacity: 0.7; stroke-width: 1.5"/>
     </g>
     <g id="text_10">
      <!-- 0.20 -->
      <g style="fill: #262626" transform="translate(30.55625 280.984147) scale(0.16 -0.16)">
       <use xlink:href="#DejaVuSans-30"/>
       <use xlink:href="#DejaVuSans-2e" x="63.623047"/>
       <use xlink:href="#DejaVuSans-32" x="95.410156"/>
       <use xlink:href="#DejaVuSans-30" x="159.033203"/>
      </g>
     </g>
    </g>
    <g id="ytick_5">
     <g id="line2d_10">
      <path d="M 78.68125 205.847612 
L 897.549432 205.847612 
" clip-path="url(#p601a0f68e8)" style="fill: none; stroke-dasharray: 5.55,2.4; stroke-dashoffset: 0; stroke: #cccccc; stroke-opacity: 0.7; stroke-width: 1.5"/>
     </g>
     <g id="text_11">
      <!-- 0.25 -->
      <g style="fill: #262626" transform="translate(30.55625 211.926362) scale(0.16 -0.16)">
       <use xlink:href="#DejaVuSans-30"/>
       <use xlink:href="#DejaVuSans-2e" x="63.623047"/>
       <use xlink:href="#DejaVuSans-32" x="95.410156"/>
       <use xlink:href="#DejaVuSans-35" x="159.033203"/>
      </g>
     </g>
    </g>
    <g id="ytick_6">
     <g id="line2d_11">
      <path d="M 78.68125 136.789826 
L 897.549432 136.789826 
" clip-path="url(#p601a0f68e8)" style="fill: none; stroke-dasharray: 5.55,2.4; stroke-dashoffset: 0; stroke: #cccccc; stroke-opacity: 0.7; stroke-width: 1.5"/>
     </g>
     <g id="text_12">
      <!-- 0.30 -->
      <g style="fill: #262626" transform="translate(30.55625 142.868576) scale(0.16 -0.16)">
       <defs>
        <path id="DejaVuSans-33" d="M 2597 2516 
Q 3050 2419 3304 2112 
Q 3559 1806 3559 1356 
Q 3559 666 3084 287 
Q 2609 -91 1734 -91 
Q 1441 -91 1130 -33 
Q 819 25 488 141 
L 488 750 
Q 750 597 1062 519 
Q 1375 441 1716 441 
Q 2309 441 2620 675 
Q 2931 909 2931 1356 
Q 2931 1769 2642 2001 
Q 2353 2234 1838 2234 
L 1294 2234 
L 1294 2753 
L 1863 2753 
Q 2328 2753 2575 2939 
Q 2822 3125 2822 3475 
Q 2822 3834 2567 4026 
Q 2313 4219 1838 4219 
Q 1578 4219 1281 4162 
Q 984 4106 628 3988 
L 628 4550 
Q 988 4650 1302 4700 
Q 1616 4750 1894 4750 
Q 2613 4750 3031 4423 
Q 3450 4097 3450 3541 
Q 3450 3153 3228 2886 
Q 3006 2619 2597 2516 
z
" transform="scale(0.015625)"/>
       </defs>
       <use xlink:href="#DejaVuSans-30"/>
       <use xlink:href="#DejaVuSans-2e" x="63.623047"/>
       <use xlink:href="#DejaVuSans-33" x="95.410156"/>
       <use xlink:href="#DejaVuSans-30" x="159.033203"/>
      </g>
     </g>
    </g>
    <g id="ytick_7">
     <g id="line2d_12">
      <path d="M 78.68125 67.732041 
L 897.549432 67.732041 
" clip-path="url(#p601a0f68e8)" style="fill: none; stroke-dasharray: 5.55,2.4; stroke-dashoffset: 0; stroke: #cccccc; stroke-opacity: 0.7; stroke-width: 1.5"/>
     </g>
     <g id="text_13">
      <!-- 0.35 -->
      <g style="fill: #262626" transform="translate(30.55625 73.810791) scale(0.16 -0.16)">
       <use xlink:href="#DejaVuSans-30"/>
       <use xlink:href="#DejaVuSans-2e" x="63.623047"/>
       <use xlink:href="#DejaVuSans-33" x="95.410156"/>
       <use xlink:href="#DejaVuSans-35" x="159.033203"/>
      </g>
     </g>
    </g>
    <g id="text_14">
     <!-- MSE Loss -->
     <g style="fill: #262626" transform="translate(22.396875 306.994375) rotate(-90) scale(0.2 -0.2)">
      <defs>
       <path id="DejaVuSans-4d" d="M 628 4666 
L 1569 4666 
L 2759 1491 
L 3956 4666 
L 4897 4666 
L 4897 0 
L 4281 0 
L 4281 4097 
L 3078 897 
L 2444 897 
L 1241 4097 
L 1241 0 
L 628 0 
L 628 4666 
z
" transform="scale(0.015625)"/>
       <path id="DejaVuSans-53" d="M 3425 4513 
L 3425 3897 
Q 3066 4069 2747 4153 
Q 2428 4238 2131 4238 
Q 1616 4238 1336 4038 
Q 1056 3838 1056 3469 
Q 1056 3159 1242 3001 
Q 1428 2844 1947 2747 
L 2328 2669 
Q 3034 2534 3370 2195 
Q 3706 1856 3706 1288 
Q 3706 609 3251 259 
Q 2797 -91 1919 -91 
Q 1588 -91 1214 -16 
Q 841 59 441 206 
L 441 856 
Q 825 641 1194 531 
Q 1563 422 1919 422 
Q 2459 422 2753 634 
Q 3047 847 3047 1241 
Q 3047 1584 2836 1778 
Q 2625 1972 2144 2069 
L 1759 2144 
Q 1053 2284 737 2584 
Q 422 2884 422 3419 
Q 422 4038 858 4394 
Q 1294 4750 2059 4750 
Q 2388 4750 2728 4690 
Q 3069 4631 3425 4513 
z
" transform="scale(0.015625)"/>
       <path id="DejaVuSans-20" transform="scale(0.015625)"/>
       <path id="DejaVuSans-4c" d="M 628 4666 
L 1259 4666 
L 1259 531 
L 3531 531 
L 3531 0 
L 628 0 
L 628 4666 
z
" transform="scale(0.015625)"/>
      </defs>
      <use xlink:href="#DejaVuSans-4d"/>
      <use xlink:href="#DejaVuSans-53" x="86.279297"/>
      <use xlink:href="#DejaVuSans-45" x="149.755859"/>
      <use xlink:href="#DejaVuSans-20" x="212.939453"/>
      <use xlink:href="#DejaVuSans-4c" x="244.726562"/>
      <use xlink:href="#DejaVuSans-6f" x="298.689453"/>
      <use xlink:href="#DejaVuSans-73" x="359.871094"/>
      <use xlink:href="#DejaVuSans-73" x="411.970703"/>
     </g>
    </g>
   </g>
   <g id="PolyCollection_1">
    <defs>
     <path id="me687a6916f" d="M 115.902531 -498.91125 
L 115.902531 -296.875724 
L 198.616489 -262.200699 
L 281.330447 -198.928084 
L 364.044404 -206.248272 
L 446.758362 -130.306956 
L 529.47232 -116.026015 
L 612.186278 -106.778722 
L 694.900235 -95.399811 
L 777.614193 -91.741518 
L 860.328151 -79.51125 
L 860.328151 -94.072286 
L 860.328151 -94.072286 
L 777.614193 -107.276644 
L 694.900235 -126.745208 
L 612.186278 -146.882947 
L 529.47232 -182.960658 
L 446.758362 -195.727314 
L 364.044404 -260.793341 
L 281.330447 -350.082134 
L 198.616489 -424.519845 
L 115.902531 -498.91125 
z
" style="stroke: #66c2a5; stroke-opacity: 0.2; stroke-width: 1.5"/>
    </defs>
    <g clip-path="url(#p601a0f68e8)">
     <use xlink:href="#me687a6916f" x="0" y="549.797813" style="fill: #66c2a5; fill-opacity: 0.2; stroke: #66c2a5; stroke-opacity: 0.2; stroke-width: 1.5"/>
    </g>
   </g>
   <g id="line2d_13">
    <path d="M 115.902531 151.904326 
L 198.616489 206.43754 
L 281.330447 275.292703 
L 364.044404 316.277006 
L 446.758362 386.780683 
L 529.47232 400.304476 
L 612.186278 422.966978 
L 694.900235 438.725303 
L 777.614193 450.288732 
L 860.328151 463.006045 
" clip-path="url(#p601a0f68e8)" style="fill: none; stroke: #66c2a5; stroke-width: 2.5; stroke-linecap: round"/>
    <defs>
     <path id="mf09018af30" d="M 0 4 
C 1.060812 4 2.078319 3.578535 2.828427 2.828427 
C 3.578535 2.078319 4 1.060812 4 0 
C 4 -1.060812 3.578535 -2.078319 2.828427 -2.828427 
C 2.078319 -3.578535 1.060812 -4 0 -4 
C -1.060812 -4 -2.078319 -3.578535 -2.828427 -2.828427 
C -3.578535 -2.078319 -4 -1.060812 -4 0 
C -4 1.060812 -3.578535 2.078319 -2.828427 2.828427 
C -2.078319 3.578535 -1.060812 4 0 4 
z
" style="stroke: #66c2a5"/>
    </defs>
    <g clip-path="url(#p601a0f68e8)">
     <use xlink:href="#mf09018af30" x="115.902531" y="151.904326" style="fill: #66c2a5; stroke: #66c2a5"/>
     <use xlink:href="#mf09018af30" x="198.616489" y="206.43754" style="fill: #66c2a5; stroke: #66c2a5"/>
     <use xlink:href="#mf09018af30" x="281.330447" y="275.292703" style="fill: #66c2a5; stroke: #66c2a5"/>
     <use xlink:href="#mf09018af30" x="364.044404" y="316.277006" style="fill: #66c2a5; stroke: #66c2a5"/>
     <use xlink:href="#mf09018af30" x="446.758362" y="386.780683" style="fill: #66c2a5; stroke: #66c2a5"/>
     <use xlink:href="#mf09018af30" x="529.47232" y="400.304476" style="fill: #66c2a5; stroke: #66c2a5"/>
     <use xlink:href="#mf09018af30" x="612.186278" y="422.966978" style="fill: #66c2a5; stroke: #66c2a5"/>
     <use xlink:href="#mf09018af30" x="694.900235" y="438.725303" style="fill: #66c2a5; stroke: #66c2a5"/>
     <use xlink:href="#mf09018af30" x="777.614193" y="450.288732" style="fill: #66c2a5; stroke: #66c2a5"/>
     <use xlink:href="#mf09018af30" x="860.328151" y="463.006045" style="fill: #66c2a5; stroke: #66c2a5"/>
    </g>
   </g>
   <g id="line2d_14">
    <path d="M 860.328151 491.256563 
L 860.328151 29.916562 
" clip-path="url(#p601a0f68e8)" style="fill: none; stroke-dasharray: 8.325,3.6; stroke-dashoffset: 0; stroke: #808080; stroke-opacity: 0.6; stroke-width: 2.25"/>
   </g>
   <g id="patch_3">
    <path d="M 78.68125 491.256563 
L 78.68125 29.916562 
" style="fill: none; stroke: #cccccc; stroke-width: 1.875; stroke-linejoin: miter; stroke-linecap: square"/>
   </g>
   <g id="patch_4">
    <path d="M 897.549432 491.256563 
L 897.549432 29.916562 
" style="fill: none; stroke: #cccccc; stroke-width: 1.875; stroke-linejoin: miter; stroke-linecap: square"/>
   </g>
   <g id="patch_5">
    <path d="M 78.68125 491.256563 
L 897.549432 491.256563 
" style="fill: none; stroke: #cccccc; stroke-width: 1.875; stroke-linejoin: miter; stroke-linecap: square"/>
   </g>
   <g id="patch_6">
    <path d="M 78.68125 29.916562 
L 897.549432 29.916562 
" style="fill: none; stroke: #cccccc; stroke-width: 1.875; stroke-linejoin: miter; stroke-linecap: square"/>
   </g>
   <g id="text_15">
    <g id="patch_7">
     <path d="M 864.639547 455.650115 
L 978.093922 455.650115 
L 978.093922 422.67899 
L 864.639547 422.67899 
z
" style="fill: #ffffff; opacity: 0.8; stroke: #808080; stroke-width: 1.5; stroke-linejoin: miter"/>
    </g>
    <!-- Best Epoch: 1000 -->
    <g style="fill: #262626" transform="translate(868.599547 435.757115) scale(0.12 -0.12)">
     <defs>
      <path id="DejaVuSans-42" d="M 1259 2228 
L 1259 519 
L 2272 519 
Q 2781 519 3026 730 
Q 3272 941 3272 1375 
Q 3272 1813 3026 2020 
Q 2781 2228 2272 2228 
L 1259 2228 
z
M 1259 4147 
L 1259 2741 
L 2194 2741 
Q 2656 2741 2882 2914 
Q 3109 3088 3109 3444 
Q 3109 3797 2882 3972 
Q 2656 4147 2194 4147 
L 1259 4147 
z
M 628 4666 
L 2241 4666 
Q 2963 4666 3353 4366 
Q 3744 4066 3744 3513 
Q 3744 3084 3544 2831 
Q 3344 2578 2956 2516 
Q 3422 2416 3680 2098 
Q 3938 1781 3938 1306 
Q 3938 681 3513 340 
Q 3088 0 2303 0 
L 628 0 
L 628 4666 
z
" transform="scale(0.015625)"/>
      <path id="DejaVuSans-65" d="M 3597 1894 
L 3597 1613 
L 953 1613 
Q 991 1019 1311 708 
Q 1631 397 2203 397 
Q 2534 397 2845 478 
Q 3156 559 3463 722 
L 3463 178 
Q 3153 47 2828 -22 
Q 2503 -91 2169 -91 
Q 1331 -91 842 396 
Q 353 884 353 1716 
Q 353 2575 817 3079 
Q 1281 3584 2069 3584 
Q 2775 3584 3186 3129 
Q 3597 2675 3597 1894 
z
M 3022 2063 
Q 3016 2534 2758 2815 
Q 2500 3097 2075 3097 
Q 1594 3097 1305 2825 
Q 1016 2553 972 2059 
L 3022 2063 
z
" transform="scale(0.015625)"/>
      <path id="DejaVuSans-74" d="M 1172 4494 
L 1172 3500 
L 2356 3500 
L 2356 3053 
L 1172 3053 
L 1172 1153 
Q 1172 725 1289 603 
Q 1406 481 1766 481 
L 2356 481 
L 2356 0 
L 1766 0 
Q 1100 0 847 248 
Q 594 497 594 1153 
L 594 3053 
L 172 3053 
L 172 3500 
L 594 3500 
L 594 4494 
L 1172 4494 
z
" transform="scale(0.015625)"/>
      <path id="DejaVuSans-3a" d="M 750 794 
L 1409 794 
L 1409 0 
L 750 0 
L 750 794 
z
M 750 3309 
L 1409 3309 
L 1409 2516 
L 750 2516 
L 750 3309 
z
" transform="scale(0.015625)"/>
     </defs>
     <use xlink:href="#DejaVuSans-42"/>
     <use xlink:href="#DejaVuSans-65" x="68.603516"/>
     <use xlink:href="#DejaVuSans-73" x="130.126953"/>
     <use xlink:href="#DejaVuSans-74" x="182.226562"/>
     <use xlink:href="#DejaVuSans-20" x="221.435547"/>
     <use xlink:href="#DejaVuSans-45" x="253.222656"/>
     <use xlink:href="#DejaVuSans-70" x="316.40625"/>
     <use xlink:href="#DejaVuSans-6f" x="379.882812"/>
     <use xlink:href="#DejaVuSans-63" x="441.064453"/>
     <use xlink:href="#DejaVuSans-68" x="496.044922"/>
     <use xlink:href="#DejaVuSans-3a" x="559.423828"/>
     <use xlink:href="#DejaVuSans-20" x="593.115234"/>
     <use xlink:href="#DejaVuSans-31" x="624.902344"/>
     <use xlink:href="#DejaVuSans-30" x="688.525391"/>
     <use xlink:href="#DejaVuSans-30" x="752.148438"/>
     <use xlink:href="#DejaVuSans-30" x="815.771484"/>
    </g>
    <!-- MSE Loss: 0.0638 -->
    <g style="fill: #262626" transform="translate(868.599547 449.19449) scale(0.12 -0.12)">
     <use xlink:href="#DejaVuSans-4d"/>
     <use xlink:href="#DejaVuSans-53" x="86.279297"/>
     <use xlink:href="#DejaVuSans-45" x="149.755859"/>
     <use xlink:href="#DejaVuSans-20" x="212.939453"/>
     <use xlink:href="#DejaVuSans-4c" x="244.726562"/>
     <use xlink:href="#DejaVuSans-6f" x="298.689453"/>
     <use xlink:href="#DejaVuSans-73" x="359.871094"/>
     <use xlink:href="#DejaVuSans-73" x="411.970703"/>
     <use xlink:href="#DejaVuSans-3a" x="464.070312"/>
     <use xlink:href="#DejaVuSans-20" x="497.761719"/>
     <use xlink:href="#DejaVuSans-30" x="529.548828"/>
     <use xlink:href="#DejaVuSans-2e" x="593.171875"/>
     <use xlink:href="#DejaVuSans-30" x="624.958984"/>
     <use xlink:href="#DejaVuSans-36" x="688.582031"/>
     <use xlink:href="#DejaVuSans-33" x="752.205078"/>
     <use xlink:href="#DejaVuSans-38" x="815.828125"/>
    </g>
   </g>
   <g id="text_16">
    <!-- AdNeuroMed - CVAE Gene Generator Performance (Mean ± Std across 5 Seeds) -->
    <g style="fill: #262626" transform="translate(50.048935 23.916562) scale(0.22 -0.22)">
     <defs>
      <path id="DejaVuSans-41" d="M 2188 4044 
L 1331 1722 
L 3047 1722 
L 2188 4044 
z
M 1831 4666 
L 2547 4666 
L 4325 0 
L 3669 0 
L 3244 1197 
L 1141 1197 
L 716 0 
L 50 0 
L 1831 4666 
z
" transform="scale(0.015625)"/>
      <path id="DejaVuSans-64" d="M 2906 2969 
L 2906 4863 
L 3481 4863 
L 3481 0 
L 2906 0 
L 2906 525 
Q 2725 213 2448 61 
Q 2172 -91 1784 -91 
Q 1150 -91 751 415 
Q 353 922 353 1747 
Q 353 2572 751 3078 
Q 1150 3584 1784 3584 
Q 2172 3584 2448 3432 
Q 2725 3281 2906 2969 
z
M 947 1747 
Q 947 1113 1208 752 
Q 1469 391 1925 391 
Q 2381 391 2643 752 
Q 2906 1113 2906 1747 
Q 2906 2381 2643 2742 
Q 2381 3103 1925 3103 
Q 1469 3103 1208 2742 
Q 947 2381 947 1747 
z
" transform="scale(0.015625)"/>
      <path id="DejaVuSans-4e" d="M 628 4666 
L 1478 4666 
L 3547 763 
L 3547 4666 
L 4159 4666 
L 4159 0 
L 3309 0 
L 1241 3903 
L 1241 0 
L 628 0 
L 628 4666 
z
" transform="scale(0.015625)"/>
      <path id="DejaVuSans-75" d="M 544 1381 
L 544 3500 
L 1119 3500 
L 1119 1403 
Q 1119 906 1312 657 
Q 1506 409 1894 409 
Q 2359 409 2629 706 
Q 2900 1003 2900 1516 
L 2900 3500 
L 3475 3500 
L 3475 0 
L 2900 0 
L 2900 538 
Q 2691 219 2414 64 
Q 2138 -91 1772 -91 
Q 1169 -91 856 284 
Q 544 659 544 1381 
z
M 1991 3584 
L 1991 3584 
z
" transform="scale(0.015625)"/>
      <path id="DejaVuSans-72" d="M 2631 2963 
Q 2534 3019 2420 3045 
Q 2306 3072 2169 3072 
Q 1681 3072 1420 2755 
Q 1159 2438 1159 1844 
L 1159 0 
L 581 0 
L 581 3500 
L 1159 3500 
L 1159 2956 
Q 1341 3275 1631 3429 
Q 1922 3584 2338 3584 
Q 2397 3584 2469 3576 
Q 2541 3569 2628 3553 
L 2631 2963 
z
" transform="scale(0.015625)"/>
      <path id="DejaVuSans-2d" d="M 313 2009 
L 1997 2009 
L 1997 1497 
L 313 1497 
L 313 2009 
z
" transform="scale(0.015625)"/>
      <path id="DejaVuSans-43" d="M 4122 4306 
L 4122 3641 
Q 3803 3938 3442 4084 
Q 3081 4231 2675 4231 
Q 1875 4231 1450 3742 
Q 1025 3253 1025 2328 
Q 1025 1406 1450 917 
Q 1875 428 2675 428 
Q 3081 428 3442 575 
Q 3803 722 4122 1019 
L 4122 359 
Q 3791 134 3420 21 
Q 3050 -91 2638 -91 
Q 1578 -91 968 557 
Q 359 1206 359 2328 
Q 359 3453 968 4101 
Q 1578 4750 2638 4750 
Q 3056 4750 3426 4639 
Q 3797 4528 4122 4306 
z
" transform="scale(0.015625)"/>
      <path id="DejaVuSans-56" d="M 1831 0 
L 50 4666 
L 709 4666 
L 2188 738 
L 3669 4666 
L 4325 4666 
L 2547 0 
L 1831 0 
z
" transform="scale(0.015625)"/>
      <path id="DejaVuSans-47" d="M 3809 666 
L 3809 1919 
L 2778 1919 
L 2778 2438 
L 4434 2438 
L 4434 434 
Q 4069 175 3628 42 
Q 3188 -91 2688 -91 
Q 1594 -91 976 548 
Q 359 1188 359 2328 
Q 359 3472 976 4111 
Q 1594 4750 2688 4750 
Q 3144 4750 3555 4637 
Q 3966 4525 4313 4306 
L 4313 3634 
Q 3963 3931 3569 4081 
Q 3175 4231 2741 4231 
Q 1884 4231 1454 3753 
Q 1025 3275 1025 2328 
Q 1025 1384 1454 906 
Q 1884 428 2741 428 
Q 3075 428 3337 486 
Q 3600 544 3809 666 
z
" transform="scale(0.015625)"/>
      <path id="DejaVuSans-6e" d="M 3513 2113 
L 3513 0 
L 2938 0 
L 2938 2094 
Q 2938 2591 2744 2837 
Q 2550 3084 2163 3084 
Q 1697 3084 1428 2787 
Q 1159 2491 1159 1978 
L 1159 0 
L 581 0 
L 581 3500 
L 1159 3500 
L 1159 2956 
Q 1366 3272 1645 3428 
Q 1925 3584 2291 3584 
Q 2894 3584 3203 3211 
Q 3513 2838 3513 2113 
z
" transform="scale(0.015625)"/>
      <path id="DejaVuSans-61" d="M 2194 1759 
Q 1497 1759 1228 1600 
Q 959 1441 959 1056 
Q 959 750 1161 570 
Q 1363 391 1709 391 
Q 2188 391 2477 730 
Q 2766 1069 2766 1631 
L 2766 1759 
L 2194 1759 
z
M 3341 1997 
L 3341 0 
L 2766 0 
L 2766 531 
Q 2569 213 2275 61 
Q 1981 -91 1556 -91 
Q 1019 -91 701 211 
Q 384 513 384 1019 
Q 384 1609 779 1909 
Q 1175 2209 1959 2209 
L 2766 2209 
L 2766 2266 
Q 2766 2663 2505 2880 
Q 2244 3097 1772 3097 
Q 1472 3097 1187 3025 
Q 903 2953 641 2809 
L 641 3341 
Q 956 3463 1253 3523 
Q 1550 3584 1831 3584 
Q 2591 3584 2966 3190 
Q 3341 2797 3341 1997 
z
" transform="scale(0.015625)"/>
      <path id="DejaVuSans-50" d="M 1259 4147 
L 1259 2394 
L 2053 2394 
Q 2494 2394 2734 2622 
Q 2975 2850 2975 3272 
Q 2975 3691 2734 3919 
Q 2494 4147 2053 4147 
L 1259 4147 
z
M 628 4666 
L 2053 4666 
Q 2838 4666 3239 4311 
Q 3641 3956 3641 3272 
Q 3641 2581 3239 2228 
Q 2838 1875 2053 1875 
L 1259 1875 
L 1259 0 
L 628 0 
L 628 4666 
z
" transform="scale(0.015625)"/>
      <path id="DejaVuSans-66" d="M 2375 4863 
L 2375 4384 
L 1825 4384 
Q 1516 4384 1395 4259 
Q 1275 4134 1275 3809 
L 1275 3500 
L 2222 3500 
L 2222 3053 
L 1275 3053 
L 1275 0 
L 697 0 
L 697 3053 
L 147 3053 
L 147 3500 
L 697 3500 
L 697 3744 
Q 697 4328 969 4595 
Q 1241 4863 1831 4863 
L 2375 4863 
z
" transform="scale(0.015625)"/>
      <path id="DejaVuSans-6d" d="M 3328 2828 
Q 3544 3216 3844 3400 
Q 4144 3584 4550 3584 
Q 5097 3584 5394 3201 
Q 5691 2819 5691 2113 
L 5691 0 
L 5113 0 
L 5113 2094 
Q 5113 2597 4934 2840 
Q 4756 3084 4391 3084 
Q 3944 3084 3684 2787 
Q 3425 2491 3425 1978 
L 3425 0 
L 2847 0 
L 2847 2094 
Q 2847 2600 2669 2842 
Q 2491 3084 2119 3084 
Q 1678 3084 1418 2786 
Q 1159 2488 1159 1978 
L 1159 0 
L 581 0 
L 581 3500 
L 1159 3500 
L 1159 2956 
Q 1356 3278 1631 3431 
Q 1906 3584 2284 3584 
Q 2666 3584 2933 3390 
Q 3200 3197 3328 2828 
z
" transform="scale(0.015625)"/>
      <path id="DejaVuSans-28" d="M 1984 4856 
Q 1566 4138 1362 3434 
Q 1159 2731 1159 2009 
Q 1159 1288 1364 580 
Q 1569 -128 1984 -844 
L 1484 -844 
Q 1016 -109 783 600 
Q 550 1309 550 2009 
Q 550 2706 781 3412 
Q 1013 4119 1484 4856 
L 1984 4856 
z
" transform="scale(0.015625)"/>
      <path id="DejaVuSans-b1" d="M 2944 4013 
L 2944 2803 
L 4684 2803 
L 4684 2272 
L 2944 2272 
L 2944 1063 
L 2419 1063 
L 2419 2272 
L 678 2272 
L 678 2803 
L 2419 2803 
L 2419 4013 
L 2944 4013 
z
M 678 531 
L 4684 531 
L 4684 0 
L 678 0 
L 678 531 
z
" transform="scale(0.015625)"/>
      <path id="DejaVuSans-29" d="M 513 4856 
L 1013 4856 
Q 1481 4119 1714 3412 
Q 1947 2706 1947 2009 
Q 1947 1309 1714 600 
Q 1481 -109 1013 -844 
L 513 -844 
Q 928 -128 1133 580 
Q 1338 1288 1338 2009 
Q 1338 2731 1133 3434 
Q 928 4138 513 4856 
z
" transform="scale(0.015625)"/>
     </defs>
     <use xlink:href="#DejaVuSans-41"/>
     <use xlink:href="#DejaVuSans-64" x="66.658203"/>
     <use xlink:href="#DejaVuSans-4e" x="130.134766"/>
     <use xlink:href="#DejaVuSans-65" x="204.939453"/>
     <use xlink:href="#DejaVuSans-75" x="266.462891"/>
     <use xlink:href="#DejaVuSans-72" x="329.841797"/>
     <use xlink:href="#DejaVuSans-6f" x="368.705078"/>
     <use xlink:href="#DejaVuSans-4d" x="429.886719"/>
     <use xlink:href="#DejaVuSans-65" x="516.166016"/>
     <use xlink:href="#DejaVuSans-64" x="577.689453"/>
     <use xlink:href="#DejaVuSans-20" x="641.166016"/>
     <use xlink:href="#DejaVuSans-2d" x="672.953125"/>
     <use xlink:href="#DejaVuSans-20" x="709.037109"/>
     <use xlink:href="#DejaVuSans-43" x="740.824219"/>
     <use xlink:href="#DejaVuSans-56" x="810.648438"/>
     <use xlink:href="#DejaVuSans-41" x="872.681641"/>
     <use xlink:href="#DejaVuSans-45" x="941.089844"/>
     <use xlink:href="#DejaVuSans-20" x="1004.273438"/>
     <use xlink:href="#DejaVuSans-47" x="1036.060547"/>
     <use xlink:href="#DejaVuSans-65" x="1113.550781"/>
     <use xlink:href="#DejaVuSans-6e" x="1175.074219"/>
     <use xlink:href="#DejaVuSans-65" x="1238.453125"/>
     <use xlink:href="#DejaVuSans-20" x="1299.976562"/>
     <use xlink:href="#DejaVuSans-47" x="1331.763672"/>
     <use xlink:href="#DejaVuSans-65" x="1409.253906"/>
     <use xlink:href="#DejaVuSans-6e" x="1470.777344"/>
     <use xlink:href="#DejaVuSans-65" x="1534.15625"/>
     <use xlink:href="#DejaVuSans-72" x="1595.679688"/>
     <use xlink:href="#DejaVuSans-61" x="1636.792969"/>
     <use xlink:href="#DejaVuSans-74" x="1698.072266"/>
     <use xlink:href="#DejaVuSans-6f" x="1737.28125"/>
     <use xlink:href="#DejaVuSans-72" x="1798.462891"/>
     <use xlink:href="#DejaVuSans-20" x="1839.576172"/>
     <use xlink:href="#DejaVuSans-50" x="1871.363281"/>
     <use xlink:href="#DejaVuSans-65" x="1928.041016"/>
     <use xlink:href="#DejaVuSans-72" x="1989.564453"/>
     <use xlink:href="#DejaVuSans-66" x="2030.677734"/>
     <use xlink:href="#DejaVuSans-6f" x="2065.882812"/>
     <use xlink:href="#DejaVuSans-72" x="2127.064453"/>
     <use xlink:href="#DejaVuSans-6d" x="2166.427734"/>
     <use xlink:href="#DejaVuSans-61" x="2263.839844"/>
     <use xlink:href="#DejaVuSans-6e" x="2325.119141"/>
     <use xlink:href="#DejaVuSans-63" x="2388.498047"/>
     <use xlink:href="#DejaVuSans-65" x="2443.478516"/>
     <use xlink:href="#DejaVuSans-20" x="2505.001953"/>
     <use xlink:href="#DejaVuSans-28" x="2536.789062"/>
     <use xlink:href="#DejaVuSans-4d" x="2575.802734"/>
     <use xlink:href="#DejaVuSans-65" x="2662.082031"/>
     <use xlink:href="#DejaVuSans-61" x="2723.605469"/>
     <use xlink:href="#DejaVuSans-6e" x="2784.884766"/>
     <use xlink:href="#DejaVuSans-20" x="2848.263672"/>
     <use xlink:href="#DejaVuSans-b1" x="2880.050781"/>
     <use xlink:href="#DejaVuSans-20" x="2963.839844"/>
     <use xlink:href="#DejaVuSans-53" x="2995.626953"/>
     <use xlink:href="#DejaVuSans-74" x="3059.103516"/>
     <use xlink:href="#DejaVuSans-64" x="3098.3125"/>
     <use xlink:href="#DejaVuSans-20" x="3161.789062"/>
     <use xlink:href="#DejaVuSans-61" x="3193.576172"/>
     <use xlink:href="#DejaVuSans-63" x="3254.855469"/>
     <use xlink:href="#DejaVuSans-72" x="3309.835938"/>
     <use xlink:href="#DejaVuSans-6f" x="3348.699219"/>
     <use xlink:href="#DejaVuSans-73" x="3409.880859"/>
     <use xlink:href="#DejaVuSans-73" x="3461.980469"/>
     <use xlink:href="#DejaVuSans-20" x="3514.080078"/>
     <use xlink:href="#DejaVuSans-35" x="3545.867188"/>
     <use xlink:href="#DejaVuSans-20" x="3609.490234"/>
     <use xlink:href="#DejaVuSans-53" x="3641.277344"/>
     <use xlink:href="#DejaVuSans-65" x="3704.753906"/>
     <use xlink:href="#DejaVuSans-65" x="3766.277344"/>
     <use xlink:href="#DejaVuSans-64" x="3827.800781"/>
     <use xlink:href="#DejaVuSans-73" x="3891.277344"/>
     <use xlink:href="#DejaVuSans-29" x="3943.376953"/>
    </g>
   </g>
   <g id="legend_1">
    <g id="patch_8">
     <path d="M 89.88125 91.622187 
L 251.92375 91.622187 
Q 255.12375 91.622187 255.12375 88.422187 
L 255.12375 41.116562 
Q 255.12375 37.916562 251.92375 37.916562 
L 89.88125 37.916562 
Q 86.68125 37.916562 86.68125 41.116562 
L 86.68125 88.422187 
Q 86.68125 91.622187 89.88125 91.622187 
z
" style="fill: #ffffff; opacity: 0.8; stroke: #cccccc; stroke-width: 1.5; stroke-linejoin: miter"/>
    </g>
    <g id="text_17">
     <!-- Metric -->
     <g style="fill: #262626" transform="translate(142.922344 57.99375) scale(0.18 -0.18)">
      <defs>
       <path id="DejaVuSans-69" d="M 603 3500 
L 1178 3500 
L 1178 0 
L 603 0 
L 603 3500 
z
M 603 4863 
L 1178 4863 
L 1178 4134 
L 603 4134 
L 603 4863 
z
" transform="scale(0.015625)"/>
      </defs>
      <use xlink:href="#DejaVuSans-4d"/>
      <use xlink:href="#DejaVuSans-65" x="86.279297"/>
      <use xlink:href="#DejaVuSans-74" x="147.802734"/>
      <use xlink:href="#DejaVuSans-72" x="187.011719"/>
      <use xlink:href="#DejaVuSans-69" x="228.125"/>
      <use xlink:href="#DejaVuSans-63" x="255.908203"/>
     </g>
    </g>
    <g id="line2d_15">
     <path d="M 93.08125 76.294687 
L 109.08125 76.294687 
L 125.08125 76.294687 
" style="fill: none; stroke: #66c2a5; stroke-width: 2.5; stroke-linecap: round"/>
     <g>
      <use xlink:href="#mf09018af30" x="109.08125" y="76.294687" style="fill: #66c2a5; stroke: #66c2a5"/>
     </g>
    </g>
    <g id="text_18">
     <!-- Test MSE Loss -->
     <g style="fill: #262626" transform="translate(137.88125 81.894687) scale(0.16 -0.16)">
      <defs>
       <path id="DejaVuSans-54" d="M -19 4666 
L 3928 4666 
L 3928 4134 
L 2272 4134 
L 2272 0 
L 1638 0 
L 1638 4134 
L -19 4134 
L -19 4666 
z
" transform="scale(0.015625)"/>
      </defs>
      <use xlink:href="#DejaVuSans-54"/>
      <use xlink:href="#DejaVuSans-65" x="44.083984"/>
      <use xlink:href="#DejaVuSans-73" x="105.607422"/>
      <use xlink:href="#DejaVuSans-74" x="157.707031"/>
      <use xlink:href="#DejaVuSans-20" x="196.916016"/>
      <use xlink:href="#DejaVuSans-4d" x="228.703125"/>
      <use xlink:href="#DejaVuSans-53" x="314.982422"/>
      <use xlink:href="#DejaVuSans-45" x="378.458984"/>
      <use xlink:href="#DejaVuSans-20" x="441.642578"/>
      <use xlink:href="#DejaVuSans-4c" x="473.429688"/>
      <use xlink:href="#DejaVuSans-6f" x="527.392578"/>
      <use xlink:href="#DejaVuSans-73" x="588.574219"/>
      <use xlink:href="#DejaVuSans-73" x="640.673828"/>
     </g>
    </g>
   </g>
  </g>
 </g>
 <defs>
  <clipPath id="p601a0f68e8">
   <rect x="78.68125" y="29.916562" width="818.868182" height="461.34"/>
  </clipPath>
 </defs>
</svg>
