<?xml version="1.0" encoding="utf-8" standalone="no"?>
<!DOCTYPE svg PUBLIC "-//W3C//DTD SVG 1.1//EN"
  "http://www.w3.org/Graphics/SVG/1.1/DTD/svg11.dtd">
<svg xmlns:xlink="http://www.w3.org/1999/xlink" width="551.52pt" height="263.998125pt" viewBox="0 0 551.52 263.998125" xmlns="http://www.w3.org/2000/svg" version="1.1">
 <metadata>
  <rdf:RDF xmlns:dc="http://purl.org/dc/elements/1.1/" xmlns:cc="http://creativecommons.org/ns#" xmlns:rdf="http://www.w3.org/1999/02/22-rdf-syntax-ns#">
   <cc:Work>
    <dc:type rdf:resource="http://purl.org/dc/dcmitype/StillImage"/>
    <dc:date>2025-05-04T17:26:23.886411</dc:date>
    <dc:format>image/svg+xml</dc:format>
    <dc:creator>
     <cc:Agent>
      <dc:title>Matplotlib v3.8.4, https://matplotlib.org/</dc:title>
     </cc:Agent>
    </dc:creator>
   </cc:Work>
  </rdf:RDF>
 </metadata>
 <defs>
  <style type="text/css">*{stroke-linejoin: round; stroke-linecap: butt}</style>
 </defs>
 <g id="figure_1">
  <g id="patch_1">
   <path d="M 0 263.998125 
L 551.52 263.998125 
L 551.52 0 
L 0 0 
z
" style="fill: #ffffff"/>
  </g>
  <g id="axes_1">
   <g id="patch_2">
    <path d="M 7.2 256.798125 
L 544.32 256.798125 
L 544.32 16.318125 
L 7.2 16.318125 
z
" style="fill: #ffffff"/>
   </g>
   <g id="matplotlib.axis_1"/>
   <g id="matplotlib.axis_2"/>
   <g id="PolyCollection_1"/>
   <g id="PolyCollection_2">
    <defs>
     <path id="mb4ea2c1b9b" d="M 31.614545 -18.130909 
L 31.614545 -18.20425 
L 32.593084 -18.209097 
L 33.571623 -18.214243 
L 34.550162 -18.219705 
L 35.528701 -18.225501 
L 36.50724 -18.231649 
L 37.485779 -18.238169 
L 38.464318 -18.245082 
L 39.442857 -18.252409 
L 40.421396 -18.260173 
L 41.399934 -18.268398 
L 42.378473 -18.277109 
L 43.357012 -18.286332 
L 44.335551 -18.296094 
L 45.31409 -18.306423 
L 46.292629 -18.317352 
L 47.271168 -18.328909 
L 48.249707 -18.341129 
L 49.228246 -18.354046 
L 50.206784 -18.367695 
L 51.185323 -18.382115 
L 52.163862 -18.397345 
L 53.142401 -18.413425 
L 54.12094 -18.430399 
L 55.099479 -18.448311 
L 56.078018 -18.467208 
L 57.056557 -18.487138 
L 58.035096 -18.508153 
L 59.013635 -18.530304 
L 59.992173 -18.553648 
L 60.970712 -18.57824 
L 61.949251 -18.604142 
L 62.92779 -18.631416 
L 63.906329 -18.660124 
L 64.884868 -18.690336 
L 65.863407 -18.722121 
L 66.841946 -18.755551 
L 67.820485 -18.790701 
L 68.799024 -18.827651 
L 69.777562 -18.86648 
L 70.756101 -18.907274 
L 71.73464 -18.95012 
L 72.713179 -18.995108 
L 73.691718 -19.042333 
L 74.670257 -19.091891 
L 75.648796 -19.143883 
L 76.627335 -19.198414 
L 77.605874 -19.255591 
L 78.584412 -19.315527 
L 79.562951 -19.378335 
L 80.54149 -19.444137 
L 81.520029 -19.513054 
L 82.498568 -19.585213 
L 83.477107 -19.660747 
L 84.455646 -19.739791 
L 85.434185 -19.822483 
L 86.412724 -19.908969 
L 87.391263 -19.999396 
L 88.369801 -20.093918 
L 89.34834 -20.192691 
L 90.326879 -20.295877 
L 91.305418 -20.403643 
L 92.283957 -20.516161 
L 93.262496 -20.633606 
L 94.241035 -20.756158 
L 95.219574 -20.884004 
L 96.198113 -21.017334 
L 97.176651 -21.156344 
L 98.15519 -21.301233 
L 99.133729 -21.452207 
L 100.112268 -21.609476 
L 101.090807 -21.773256 
L 102.069346 -21.943768 
L 103.047885 -22.121235 
L 104.026424 -22.30589 
L 105.004963 -22.497967 
L 105.983502 -22.697706 
L 106.96204 -22.905355 
L 107.940579 -23.121162 
L 108.919118 -23.345383 
L 109.897657 -23.578278 
L 110.876196 -23.820113 
L 111.854735 -24.071157 
L 112.833274 -24.331685 
L 113.811813 -24.601975 
L 114.790352 -24.882312 
L 115.768891 -25.172984 
L 116.747429 -25.474282 
L 117.725968 -25.786503 
L 118.704507 -26.109948 
L 119.683046 -26.444921 
L 120.661585 -26.791731 
L 121.640124 -27.150688 
L 122.618663 -27.522109 
L 123.597202 -27.906312 
L 124.575741 -28.303618 
L 125.554279 -28.714351 
L 126.532818 -29.138838 
L 127.511357 -29.577409 
L 128.489896 -30.030393 
L 129.468435 -30.498125 
L 130.446974 -30.980939 
L 131.425513 -31.479171 
L 132.404052 -31.993157 
L 133.382591 -32.523234 
L 134.36113 -33.069742 
L 135.339668 -33.633016 
L 136.318207 -34.213394 
L 137.296746 -34.811213 
L 138.275285 -35.426809 
L 139.253824 -36.060514 
L 140.232363 -36.712661 
L 141.210902 -37.383579 
L 142.189441 -38.073595 
L 143.16798 -38.783033 
L 144.146518 -39.512211 
L 145.125057 -40.261446 
L 146.103596 -41.031049 
L 147.082135 -41.821326 
L 148.060674 -42.632576 
L 149.039213 -43.465094 
L 150.017752 -44.319168 
L 150.996291 -45.195077 
L 151.97483 -46.093095 
L 152.953369 -47.013485 
L 153.931907 -47.956503 
L 154.910446 -48.922395 
L 155.888985 -49.911399 
L 156.867524 -50.923738 
L 157.846063 -51.959629 
L 158.824602 -53.019274 
L 159.803141 -54.102864 
L 160.78168 -55.210578 
L 161.760219 -56.34258 
L 162.738758 -57.49902 
L 163.717296 -58.680035 
L 164.695835 -59.885747 
L 165.674374 -61.11626 
L 166.652913 -62.371664 
L 167.631452 -63.65203 
L 168.609991 -64.957415 
L 169.58853 -66.287853 
L 170.567069 -67.643365 
L 171.545608 -69.023949 
L 172.524146 -70.429585 
L 173.502685 -71.860231 
L 174.481224 -73.315828 
L 175.459763 -74.796292 
L 176.438302 -76.30152 
L 177.416841 -77.831385 
L 178.39538 -79.385739 
L 179.373919 -80.96441 
L 180.352458 -82.567202 
L 181.330997 -84.193898 
L 182.309535 -85.844253 
L 183.288074 -87.518 
L 184.266613 -89.214845 
L 185.245152 -90.934472 
L 186.223691 -92.676537 
L 187.20223 -94.44067 
L 188.180769 -96.226476 
L 189.159308 -98.033534 
L 190.137847 -99.861396 
L 191.116385 -101.709587 
L 192.094924 -103.577607 
L 193.073463 -105.464928 
L 194.052002 -107.370996 
L 195.030541 -109.295229 
L 196.00908 -111.237019 
L 196.987619 -113.195732 
L 197.966158 -115.170706 
L 198.944697 -117.161253 
L 199.923236 -119.16666 
L 200.901774 -121.186186 
L 201.880313 -123.219064 
L 202.858852 -125.264503 
L 203.837391 -127.321686 
L 204.81593 -129.389771 
L 205.794469 -131.467892 
L 206.773008 -133.555157 
L 207.751547 -135.650652 
L 208.730086 -137.753441 
L 209.708625 -139.862562 
L 210.687163 -141.977035 
L 211.665702 -144.095855 
L 212.644241 -146.217999 
L 213.62278 -148.342422 
L 214.601319 -150.468062 
L 215.579858 -152.593838 
L 216.558397 -154.718649 
L 217.536936 -156.84138 
L 218.515475 -158.960898 
L 219.494013 -161.076058 
L 220.472552 -163.185698 
L 221.451091 -165.288645 
L 222.42963 -167.383712 
L 223.408169 -169.469703 
L 224.386708 -171.545412 
L 225.365247 -173.609624 
L 226.343786 -175.661114 
L 227.322325 -177.698655 
L 228.300864 -179.721012 
L 229.279402 -181.726946 
L 230.257941 -183.715216 
L 231.23648 -185.684579 
L 232.215019 -187.633792 
L 233.193558 -189.561613 
L 234.172097 -191.466803 
L 235.150636 -193.348124 
L 236.129175 -195.204345 
L 237.107714 -197.034243 
L 238.086253 -198.836598 
L 239.064791 -200.610203 
L 240.04333 -202.353859 
L 241.021869 -204.066381 
L 242.000408 -205.746593 
L 242.978947 -207.393336 
L 243.957486 -209.005467 
L 244.936025 -210.581859 
L 245.914564 -212.121402 
L 246.893103 -213.623008 
L 247.871641 -215.085609 
L 248.85018 -216.508157 
L 249.828719 -217.88963 
L 250.807258 -219.229028 
L 251.785797 -220.525381 
L 252.764336 -221.77774 
L 253.742875 -222.985189 
L 254.721414 -224.146838 
L 255.699953 -225.26183 
L 256.678492 -226.329336 
L 257.65703 -227.348563 
L 258.635569 -228.318748 
L 259.614108 -229.239165 
L 260.592647 -230.109121 
L 261.571186 -230.927961 
L 262.549725 -231.695065 
L 263.528264 -232.409851 
L 264.506803 -233.071777 
L 265.485342 -233.680339 
L 266.46388 -234.235072 
L 267.442419 -234.735552 
L 268.420958 -235.181397 
L 269.399497 -235.572263 
L 270.378036 -235.907852 
L 271.356575 -236.187904 
L 272.335114 -236.412206 
L 273.313653 -236.580584 
L 274.292192 -236.692907 
L 275.270731 -236.749091 
L 276.249269 -236.749091 
L 277.227808 -236.692907 
L 278.206347 -236.580584 
L 279.184886 -236.412206 
L 280.163425 -236.187904 
L 281.141964 -235.907852 
L 282.120503 -235.572263 
L 283.099042 -235.181397 
L 284.077581 -234.735552 
L 285.05612 -234.235072 
L 286.034658 -233.680339 
L 287.013197 -233.071777 
L 287.991736 -232.409851 
L 288.970275 -231.695065 
L 289.948814 -230.927961 
L 290.927353 -230.109121 
L 291.905892 -229.239165 
L 292.884431 -228.318748 
L 293.86297 -227.348563 
L 294.841508 -226.329336 
L 295.820047 -225.26183 
L 296.798586 -224.146838 
L 297.777125 -222.985189 
L 298.755664 -221.77774 
L 299.734203 -220.525381 
L 300.712742 -219.229028 
L 301.691281 -217.88963 
L 302.66982 -216.508157 
L 303.648359 -215.085609 
L 304.626897 -213.623008 
L 305.605436 -212.121402 
L 306.583975 -210.581859 
L 307.562514 -209.005467 
L 308.541053 -207.393336 
L 309.519592 -205.746593 
L 310.498131 -204.066381 
L 311.47667 -202.353859 
L 312.455209 -200.610203 
L 313.433747 -198.836598 
L 314.412286 -197.034243 
L 315.390825 -195.204345 
L 316.369364 -193.348124 
L 317.347903 -191.466803 
L 318.326442 -189.561613 
L 319.304981 -187.633792 
L 320.28352 -185.684579 
L 321.262059 -183.715216 
L 322.240598 -181.726946 
L 323.219136 -179.721012 
L 324.197675 -177.698655 
L 325.176214 -175.661114 
L 326.154753 -173.609624 
L 327.133292 -171.545412 
L 328.111831 -169.469703 
L 329.09037 -167.383712 
L 330.068909 -165.288645 
L 331.047448 -163.185698 
L 332.025987 -161.076058 
L 333.004525 -158.960898 
L 333.983064 -156.84138 
L 334.961603 -154.718649 
L 335.940142 -152.593838 
L 336.918681 -150.468062 
L 337.89722 -148.342422 
L 338.875759 -146.217999 
L 339.854298 -144.095855 
L 340.832837 -141.977035 
L 341.811375 -139.862562 
L 342.789914 -137.753441 
L 343.768453 -135.650652 
L 344.746992 -133.555157 
L 345.725531 -131.467892 
L 346.70407 -129.389771 
L 347.682609 -127.321686 
L 348.661148 -125.264503 
L 349.639687 -123.219064 
L 350.618226 -121.186186 
L 351.596764 -119.16666 
L 352.575303 -117.161253 
L 353.553842 -115.170706 
L 354.532381 -113.195732 
L 355.51092 -111.237019 
L 356.489459 -109.295229 
L 357.467998 -107.370996 
L 358.446537 -105.464928 
L 359.425076 -103.577607 
L 360.403615 -101.709587 
L 361.382153 -99.861396 
L 362.360692 -98.033534 
L 363.339231 -96.226476 
L 364.31777 -94.44067 
L 365.296309 -92.676537 
L 366.274848 -90.934472 
L 367.253387 -89.214845 
L 368.231926 -87.518 
L 369.210465 -85.844253 
L 370.189003 -84.193898 
L 371.167542 -82.567202 
L 372.146081 -80.96441 
L 373.12462 -79.385739 
L 374.103159 -77.831385 
L 375.081698 -76.30152 
L 376.060237 -74.796292 
L 377.038776 -73.315828 
L 378.017315 -71.860231 
L 378.995854 -70.429585 
L 379.974392 -69.023949 
L 380.952931 -67.643365 
L 381.93147 -66.287853 
L 382.910009 -64.957415 
L 383.888548 -63.65203 
L 384.867087 -62.371664 
L 385.845626 -61.11626 
L 386.824165 -59.885747 
L 387.802704 -58.680035 
L 388.781242 -57.49902 
L 389.759781 -56.34258 
L 390.73832 -55.210578 
L 391.716859 -54.102864 
L 392.695398 -53.019274 
L 393.673937 -51.959629 
L 394.652476 -50.923738 
L 395.631015 -49.911399 
L 396.609554 -48.922395 
L 397.588093 -47.956503 
L 398.566631 -47.013485 
L 399.54517 -46.093095 
L 400.523709 -45.195077 
L 401.502248 -44.319168 
L 402.480787 -43.465094 
L 403.459326 -42.632576 
L 404.437865 -41.821326 
L 405.416404 -41.031049 
L 406.394943 -40.261446 
L 407.373482 -39.512211 
L 408.35202 -38.783033 
L 409.330559 -38.073595 
L 410.309098 -37.383579 
L 411.287637 -36.712661 
L 412.266176 -36.060514 
L 413.244715 -35.426809 
L 414.223254 -34.811213 
L 415.201793 -34.213394 
L 416.180332 -33.633016 
L 417.15887 -33.069742 
L 418.137409 -32.523234 
L 419.115948 -31.993157 
L 420.094487 -31.479171 
L 421.073026 -30.980939 
L 422.051565 -30.498125 
L 423.030104 -30.030393 
L 424.008643 -29.577409 
L 424.987182 -29.138838 
L 425.965721 -28.714351 
L 426.944259 -28.303618 
L 427.922798 -27.906312 
L 428.901337 -27.522109 
L 429.879876 -27.150688 
L 430.858415 -26.791731 
L 431.836954 -26.444921 
L 432.815493 -26.109948 
L 433.794032 -25.786503 
L 434.772571 -25.474282 
L 435.751109 -25.172984 
L 436.729648 -24.882312 
L 437.708187 -24.601975 
L 438.686726 -24.331685 
L 439.665265 -24.071157 
L 440.643804 -23.820113 
L 441.622343 -23.578278 
L 442.600882 -23.345383 
L 443.579421 -23.121162 
L 444.55796 -22.905355 
L 445.536498 -22.697706 
L 446.515037 -22.497967 
L 447.493576 -22.30589 
L 448.472115 -22.121235 
L 449.450654 -21.943768 
L 450.429193 -21.773256 
L 451.407732 -21.609476 
L 452.386271 -21.452207 
L 453.36481 -21.301233 
L 454.343349 -21.156344 
L 455.321887 -21.017334 
L 456.300426 -20.884004 
L 457.278965 -20.756158 
L 458.257504 -20.633606 
L 459.236043 -20.516161 
L 460.214582 -20.403643 
L 461.193121 -20.295877 
L 462.17166 -20.192691 
L 463.150199 -20.093918 
L 464.128737 -19.999396 
L 465.107276 -19.908969 
L 466.085815 -19.822483 
L 467.064354 -19.739791 
L 468.042893 -19.660747 
L 469.021432 -19.585213 
L 469.999971 -19.513054 
L 470.97851 -19.444137 
L 471.957049 -19.378335 
L 472.935588 -19.315527 
L 473.914126 -19.255591 
L 474.892665 -19.198414 
L 475.871204 -19.143883 
L 476.849743 -19.091891 
L 477.828282 -19.042333 
L 478.806821 -18.995108 
L 479.78536 -18.95012 
L 480.763899 -18.907274 
L 481.742438 -18.86648 
L 482.720976 -18.827651 
L 483.699515 -18.790701 
L 484.678054 -18.755551 
L 485.656593 -18.722121 
L 486.635132 -18.690336 
L 487.613671 -18.660124 
L 488.59221 -18.631416 
L 489.570749 -18.604142 
L 490.549288 -18.57824 
L 491.527827 -18.553648 
L 492.506365 -18.530304 
L 493.484904 -18.508153 
L 494.463443 -18.487138 
L 495.441982 -18.467208 
L 496.420521 -18.448311 
L 497.39906 -18.430399 
L 498.377599 -18.413425 
L 499.356138 -18.397345 
L 500.334677 -18.382115 
L 501.313216 -18.367695 
L 502.291754 -18.354046 
L 503.270293 -18.341129 
L 504.248832 -18.328909 
L 505.227371 -18.317352 
L 506.20591 -18.306423 
L 507.184449 -18.296094 
L 508.162988 -18.286332 
L 509.141527 -18.277109 
L 510.120066 -18.268398 
L 511.098604 -18.260173 
L 512.077143 -18.252409 
L 513.055682 -18.245082 
L 514.034221 -18.238169 
L 515.01276 -18.231649 
L 515.991299 -18.225501 
L 516.969838 -18.219705 
L 517.948377 -18.214243 
L 518.926916 -18.209097 
L 519.905455 -18.20425 
L 519.905455 -18.130909 
L 519.905455 -18.130909 
L 518.926916 -18.130909 
L 517.948377 -18.130909 
L 516.969838 -18.130909 
L 515.991299 -18.130909 
L 515.01276 -18.130909 
L 514.034221 -18.130909 
L 513.055682 -18.130909 
L 512.077143 -18.130909 
L 511.098604 -18.130909 
L 510.120066 -18.130909 
L 509.141527 -18.130909 
L 508.162988 -18.130909 
L 507.184449 -18.130909 
L 506.20591 -18.130909 
L 505.227371 -18.130909 
L 504.248832 -18.130909 
L 503.270293 -18.130909 
L 502.291754 -18.130909 
L 501.313216 -18.130909 
L 500.334677 -18.130909 
L 499.356138 -18.130909 
L 498.377599 -18.130909 
L 497.39906 -18.130909 
L 496.420521 -18.130909 
L 495.441982 -18.130909 
L 494.463443 -18.130909 
L 493.484904 -18.130909 
L 492.506365 -18.130909 
L 491.527827 -18.130909 
L 490.549288 -18.130909 
L 489.570749 -18.130909 
L 488.59221 -18.130909 
L 487.613671 -18.130909 
L 486.635132 -18.130909 
L 485.656593 -18.130909 
L 484.678054 -18.130909 
L 483.699515 -18.130909 
L 482.720976 -18.130909 
L 481.742438 -18.130909 
L 480.763899 -18.130909 
L 479.78536 -18.130909 
L 478.806821 -18.130909 
L 477.828282 -18.130909 
L 476.849743 -18.130909 
L 475.871204 -18.130909 
L 474.892665 -18.130909 
L 473.914126 -18.130909 
L 472.935588 -18.130909 
L 471.957049 -18.130909 
L 470.97851 -18.130909 
L 469.999971 -18.130909 
L 469.021432 -18.130909 
L 468.042893 -18.130909 
L 467.064354 -18.130909 
L 466.085815 -18.130909 
L 465.107276 -18.130909 
L 464.128737 -18.130909 
L 463.150199 -18.130909 
L 462.17166 -18.130909 
L 461.193121 -18.130909 
L 460.214582 -18.130909 
L 459.236043 -18.130909 
L 458.257504 -18.130909 
L 457.278965 -18.130909 
L 456.300426 -18.130909 
L 455.321887 -18.130909 
L 454.343349 -18.130909 
L 453.36481 -18.130909 
L 452.386271 -18.130909 
L 451.407732 -18.130909 
L 450.429193 -18.130909 
L 449.450654 -18.130909 
L 448.472115 -18.130909 
L 447.493576 -18.130909 
L 446.515037 -18.130909 
L 445.536498 -18.130909 
L 444.55796 -18.130909 
L 443.579421 -18.130909 
L 442.600882 -18.130909 
L 441.622343 -18.130909 
L 440.643804 -18.130909 
L 439.665265 -18.130909 
L 438.686726 -18.130909 
L 437.708187 -18.130909 
L 436.729648 -18.130909 
L 435.751109 -18.130909 
L 434.772571 -18.130909 
L 433.794032 -18.130909 
L 432.815493 -18.130909 
L 431.836954 -18.130909 
L 430.858415 -18.130909 
L 429.879876 -18.130909 
L 428.901337 -18.130909 
L 427.922798 -18.130909 
L 426.944259 -18.130909 
L 425.965721 -18.130909 
L 424.987182 -18.130909 
L 424.008643 -18.130909 
L 423.030104 -18.130909 
L 422.051565 -18.130909 
L 421.073026 -18.130909 
L 420.094487 -18.130909 
L 419.115948 -18.130909 
L 418.137409 -18.130909 
L 417.15887 -18.130909 
L 416.180332 -18.130909 
L 415.201793 -18.130909 
L 414.223254 -18.130909 
L 413.244715 -18.130909 
L 412.266176 -18.130909 
L 411.287637 -18.130909 
L 410.309098 -18.130909 
L 409.330559 -18.130909 
L 408.35202 -18.130909 
L 407.373482 -18.130909 
L 406.394943 -18.130909 
L 405.416404 -18.130909 
L 404.437865 -18.130909 
L 403.459326 -18.130909 
L 402.480787 -18.130909 
L 401.502248 -18.130909 
L 400.523709 -18.130909 
L 399.54517 -18.130909 
L 398.566631 -18.130909 
L 397.588093 -18.130909 
L 396.609554 -18.130909 
L 395.631015 -18.130909 
L 394.652476 -18.130909 
L 393.673937 -18.130909 
L 392.695398 -18.130909 
L 391.716859 -18.130909 
L 390.73832 -18.130909 
L 389.759781 -18.130909 
L 388.781242 -18.130909 
L 387.802704 -18.130909 
L 386.824165 -18.130909 
L 385.845626 -18.130909 
L 384.867087 -18.130909 
L 383.888548 -18.130909 
L 382.910009 -18.130909 
L 381.93147 -18.130909 
L 380.952931 -18.130909 
L 379.974392 -18.130909 
L 378.995854 -18.130909 
L 378.017315 -18.130909 
L 377.038776 -18.130909 
L 376.060237 -18.130909 
L 375.081698 -18.130909 
L 374.103159 -18.130909 
L 373.12462 -18.130909 
L 372.146081 -18.130909 
L 371.167542 -18.130909 
L 370.189003 -18.130909 
L 369.210465 -18.130909 
L 368.231926 -18.130909 
L 367.253387 -18.130909 
L 366.274848 -18.130909 
L 365.296309 -18.130909 
L 364.31777 -18.130909 
L 363.339231 -18.130909 
L 362.360692 -18.130909 
L 361.382153 -18.130909 
L 360.403615 -18.130909 
L 359.425076 -18.130909 
L 358.446537 -18.130909 
L 357.467998 -18.130909 
L 356.489459 -18.130909 
L 355.51092 -18.130909 
L 354.532381 -18.130909 
L 353.553842 -18.130909 
L 352.575303 -18.130909 
L 351.596764 -18.130909 
L 350.618226 -18.130909 
L 349.639687 -18.130909 
L 348.661148 -18.130909 
L 347.682609 -18.130909 
L 346.70407 -18.130909 
L 345.725531 -18.130909 
L 344.746992 -18.130909 
L 343.768453 -18.130909 
L 342.789914 -18.130909 
L 341.811375 -18.130909 
L 340.832837 -18.130909 
L 339.854298 -18.130909 
L 338.875759 -18.130909 
L 337.89722 -18.130909 
L 336.918681 -18.130909 
L 335.940142 -18.130909 
L 334.961603 -18.130909 
L 333.983064 -18.130909 
L 333.004525 -18.130909 
L 332.025987 -18.130909 
L 331.047448 -18.130909 
L 330.068909 -18.130909 
L 329.09037 -18.130909 
L 328.111831 -18.130909 
L 327.133292 -18.130909 
L 326.154753 -18.130909 
L 325.176214 -18.130909 
L 324.197675 -18.130909 
L 323.219136 -18.130909 
L 322.240598 -18.130909 
L 321.262059 -18.130909 
L 320.28352 -18.130909 
L 319.304981 -18.130909 
L 318.326442 -18.130909 
L 317.347903 -18.130909 
L 316.369364 -18.130909 
L 315.390825 -18.130909 
L 314.412286 -18.130909 
L 313.433747 -18.130909 
L 312.455209 -18.130909 
L 311.47667 -18.130909 
L 310.498131 -18.130909 
L 309.519592 -18.130909 
L 308.541053 -18.130909 
L 307.562514 -18.130909 
L 306.583975 -18.130909 
L 305.605436 -18.130909 
L 304.626897 -18.130909 
L 303.648359 -18.130909 
L 302.66982 -18.130909 
L 301.691281 -18.130909 
L 300.712742 -18.130909 
L 299.734203 -18.130909 
L 298.755664 -18.130909 
L 297.777125 -18.130909 
L 296.798586 -18.130909 
L 295.820047 -18.130909 
L 294.841508 -18.130909 
L 293.86297 -18.130909 
L 292.884431 -18.130909 
L 291.905892 -18.130909 
L 290.927353 -18.130909 
L 289.948814 -18.130909 
L 288.970275 -18.130909 
L 287.991736 -18.130909 
L 287.013197 -18.130909 
L 286.034658 -18.130909 
L 285.05612 -18.130909 
L 284.077581 -18.130909 
L 283.099042 -18.130909 
L 282.120503 -18.130909 
L 281.141964 -18.130909 
L 280.163425 -18.130909 
L 279.184886 -18.130909 
L 278.206347 -18.130909 
L 277.227808 -18.130909 
L 276.249269 -18.130909 
L 275.270731 -18.130909 
L 274.292192 -18.130909 
L 273.313653 -18.130909 
L 272.335114 -18.130909 
L 271.356575 -18.130909 
L 270.378036 -18.130909 
L 269.399497 -18.130909 
L 268.420958 -18.130909 
L 267.442419 -18.130909 
L 266.46388 -18.130909 
L 265.485342 -18.130909 
L 264.506803 -18.130909 
L 263.528264 -18.130909 
L 262.549725 -18.130909 
L 261.571186 -18.130909 
L 260.592647 -18.130909 
L 259.614108 -18.130909 
L 258.635569 -18.130909 
L 257.65703 -18.130909 
L 256.678492 -18.130909 
L 255.699953 -18.130909 
L 254.721414 -18.130909 
L 253.742875 -18.130909 
L 252.764336 -18.130909 
L 251.785797 -18.130909 
L 250.807258 -18.130909 
L 249.828719 -18.130909 
L 248.85018 -18.130909 
L 247.871641 -18.130909 
L 246.893103 -18.130909 
L 245.914564 -18.130909 
L 244.936025 -18.130909 
L 243.957486 -18.130909 
L 242.978947 -18.130909 
L 242.000408 -18.130909 
L 241.021869 -18.130909 
L 240.04333 -18.130909 
L 239.064791 -18.130909 
L 238.086253 -18.130909 
L 237.107714 -18.130909 
L 236.129175 -18.130909 
L 235.150636 -18.130909 
L 234.172097 -18.130909 
L 233.193558 -18.130909 
L 232.215019 -18.130909 
L 231.23648 -18.130909 
L 230.257941 -18.130909 
L 229.279402 -18.130909 
L 228.300864 -18.130909 
L 227.322325 -18.130909 
L 226.343786 -18.130909 
L 225.365247 -18.130909 
L 224.386708 -18.130909 
L 223.408169 -18.130909 
L 222.42963 -18.130909 
L 221.451091 -18.130909 
L 220.472552 -18.130909 
L 219.494013 -18.130909 
L 218.515475 -18.130909 
L 217.536936 -18.130909 
L 216.558397 -18.130909 
L 215.579858 -18.130909 
L 214.601319 -18.130909 
L 213.62278 -18.130909 
L 212.644241 -18.130909 
L 211.665702 -18.130909 
L 210.687163 -18.130909 
L 209.708625 -18.130909 
L 208.730086 -18.130909 
L 207.751547 -18.130909 
L 206.773008 -18.130909 
L 205.794469 -18.130909 
L 204.81593 -18.130909 
L 203.837391 -18.130909 
L 202.858852 -18.130909 
L 201.880313 -18.130909 
L 200.901774 -18.130909 
L 199.923236 -18.130909 
L 198.944697 -18.130909 
L 197.966158 -18.130909 
L 196.987619 -18.130909 
L 196.00908 -18.130909 
L 195.030541 -18.130909 
L 194.052002 -18.130909 
L 193.073463 -18.130909 
L 192.094924 -18.130909 
L 191.116385 -18.130909 
L 190.137847 -18.130909 
L 189.159308 -18.130909 
L 188.180769 -18.130909 
L 187.20223 -18.130909 
L 186.223691 -18.130909 
L 185.245152 -18.130909 
L 184.266613 -18.130909 
L 183.288074 -18.130909 
L 182.309535 -18.130909 
L 181.330997 -18.130909 
L 180.352458 -18.130909 
L 179.373919 -18.130909 
L 178.39538 -18.130909 
L 177.416841 -18.130909 
L 176.438302 -18.130909 
L 175.459763 -18.130909 
L 174.481224 -18.130909 
L 173.502685 -18.130909 
L 172.524146 -18.130909 
L 171.545608 -18.130909 
L 170.567069 -18.130909 
L 169.58853 -18.130909 
L 168.609991 -18.130909 
L 167.631452 -18.130909 
L 166.652913 -18.130909 
L 165.674374 -18.130909 
L 164.695835 -18.130909 
L 163.717296 -18.130909 
L 162.738758 -18.130909 
L 161.760219 -18.130909 
L 160.78168 -18.130909 
L 159.803141 -18.130909 
L 158.824602 -18.130909 
L 157.846063 -18.130909 
L 156.867524 -18.130909 
L 155.888985 -18.130909 
L 154.910446 -18.130909 
L 153.931907 -18.130909 
L 152.953369 -18.130909 
L 151.97483 -18.130909 
L 150.996291 -18.130909 
L 150.017752 -18.130909 
L 149.039213 -18.130909 
L 148.060674 -18.130909 
L 147.082135 -18.130909 
L 146.103596 -18.130909 
L 145.125057 -18.130909 
L 144.146518 -18.130909 
L 143.16798 -18.130909 
L 142.189441 -18.130909 
L 141.210902 -18.130909 
L 140.232363 -18.130909 
L 139.253824 -18.130909 
L 138.275285 -18.130909 
L 137.296746 -18.130909 
L 136.318207 -18.130909 
L 135.339668 -18.130909 
L 134.36113 -18.130909 
L 133.382591 -18.130909 
L 132.404052 -18.130909 
L 131.425513 -18.130909 
L 130.446974 -18.130909 
L 129.468435 -18.130909 
L 128.489896 -18.130909 
L 127.511357 -18.130909 
L 126.532818 -18.130909 
L 125.554279 -18.130909 
L 124.575741 -18.130909 
L 123.597202 -18.130909 
L 122.618663 -18.130909 
L 121.640124 -18.130909 
L 120.661585 -18.130909 
L 119.683046 -18.130909 
L 118.704507 -18.130909 
L 117.725968 -18.130909 
L 116.747429 -18.130909 
L 115.768891 -18.130909 
L 114.790352 -18.130909 
L 113.811813 -18.130909 
L 112.833274 -18.130909 
L 111.854735 -18.130909 
L 110.876196 -18.130909 
L 109.897657 -18.130909 
L 108.919118 -18.130909 
L 107.940579 -18.130909 
L 106.96204 -18.130909 
L 105.983502 -18.130909 
L 105.004963 -18.130909 
L 104.026424 -18.130909 
L 103.047885 -18.130909 
L 102.069346 -18.130909 
L 101.090807 -18.130909 
L 100.112268 -18.130909 
L 99.133729 -18.130909 
L 98.15519 -18.130909 
L 97.176651 -18.130909 
L 96.198113 -18.130909 
L 95.219574 -18.130909 
L 94.241035 -18.130909 
L 93.262496 -18.130909 
L 92.283957 -18.130909 
L 91.305418 -18.130909 
L 90.326879 -18.130909 
L 89.34834 -18.130909 
L 88.369801 -18.130909 
L 87.391263 -18.130909 
L 86.412724 -18.130909 
L 85.434185 -18.130909 
L 84.455646 -18.130909 
L 83.477107 -18.130909 
L 82.498568 -18.130909 
L 81.520029 -18.130909 
L 80.54149 -18.130909 
L 79.562951 -18.130909 
L 78.584412 -18.130909 
L 77.605874 -18.130909 
L 76.627335 -18.130909 
L 75.648796 -18.130909 
L 74.670257 -18.130909 
L 73.691718 -18.130909 
L 72.713179 -18.130909 
L 71.73464 -18.130909 
L 70.756101 -18.130909 
L 69.777562 -18.130909 
L 68.799024 -18.130909 
L 67.820485 -18.130909 
L 66.841946 -18.130909 
L 65.863407 -18.130909 
L 64.884868 -18.130909 
L 63.906329 -18.130909 
L 62.92779 -18.130909 
L 61.949251 -18.130909 
L 60.970712 -18.130909 
L 59.992173 -18.130909 
L 59.013635 -18.130909 
L 58.035096 -18.130909 
L 57.056557 -18.130909 
L 56.078018 -18.130909 
L 55.099479 -18.130909 
L 54.12094 -18.130909 
L 53.142401 -18.130909 
L 52.163862 -18.130909 
L 51.185323 -18.130909 
L 50.206784 -18.130909 
L 49.228246 -18.130909 
L 48.249707 -18.130909 
L 47.271168 -18.130909 
L 46.292629 -18.130909 
L 45.31409 -18.130909 
L 44.335551 -18.130909 
L 43.357012 -18.130909 
L 42.378473 -18.130909 
L 41.399934 -18.130909 
L 40.421396 -18.130909 
L 39.442857 -18.130909 
L 38.464318 -18.130909 
L 37.485779 -18.130909 
L 36.50724 -18.130909 
L 35.528701 -18.130909 
L 34.550162 -18.130909 
L 33.571623 -18.130909 
L 32.593084 -18.130909 
L 31.614545 -18.130909 
z
" style="stroke: #a6bddb; stroke-opacity: 0.6; stroke-width: 1.5"/>
    </defs>
    <g clip-path="url(#pfdab709bc7)">
     <use xlink:href="#mb4ea2c1b9b" x="0" y="263.998125" style="fill: #a6bddb; fill-opacity: 0.6; stroke: #a6bddb; stroke-opacity: 0.6; stroke-width: 1.5"/>
    </g>
   </g>
   <g id="line2d_1">
    <path d="M 31.614545 245.793875 
L 53.142401 245.5847 
L 66.841946 245.242574 
L 76.627335 244.799711 
L 85.434185 244.175642 
L 92.283957 243.481964 
L 98.15519 242.696892 
L 104.026424 241.692235 
L 108.919118 240.652742 
L 113.811813 239.39615 
L 118.704507 237.888177 
L 122.618663 236.476016 
L 126.532818 234.859287 
L 130.446974 233.017186 
L 134.36113 230.928383 
L 138.275285 228.571316 
L 142.189441 225.92453 
L 146.103596 222.967076 
L 150.017752 219.678957 
L 153.931907 216.041622 
L 157.846063 212.038496 
L 161.760219 207.655545 
L 165.674374 202.881865 
L 169.58853 197.710272 
L 173.502685 192.137894 
L 177.416841 186.16674 
L 181.330997 179.804227 
L 185.245152 173.063653 
L 190.137847 164.136729 
L 195.030541 154.702896 
L 200.901774 142.811939 
L 207.751547 128.347473 
L 229.279402 82.271179 
L 234.172097 72.531322 
L 238.086253 65.161527 
L 242.000408 58.251532 
L 245.914564 51.876723 
L 248.85018 47.489968 
L 251.785797 43.472744 
L 254.721414 39.851287 
L 257.65703 36.649562 
L 260.592647 33.889004 
L 262.549725 32.30306 
L 264.506803 30.926348 
L 266.46388 29.763053 
L 268.420958 28.816728 
L 270.378036 28.090273 
L 272.335114 27.585919 
L 274.292192 27.305218 
L 276.249269 27.249034 
L 278.206347 27.417541 
L 280.163425 27.810221 
L 282.120503 28.425862 
L 284.077581 29.262573 
L 286.034658 30.317786 
L 287.991736 31.588274 
L 289.948814 33.070164 
L 291.905892 34.75896 
L 294.841508 37.668789 
L 297.777125 41.012936 
L 300.712742 44.769097 
L 303.648359 48.912516 
L 306.583975 53.416266 
L 310.498131 59.931744 
L 314.412286 66.963882 
L 318.326442 74.436512 
L 323.219136 84.277113 
L 329.09037 96.614413 
L 339.854298 119.90227 
L 348.661148 138.733622 
L 354.532381 150.802393 
L 359.425076 160.420518 
L 364.31777 169.557455 
L 369.210465 178.153872 
L 373.12462 184.612386 
L 377.038776 190.682297 
L 380.952931 196.35476 
L 384.867087 201.626461 
L 388.781242 206.499105 
L 392.695398 210.978851 
L 396.609554 215.07573 
L 400.523709 218.803048 
L 404.437865 222.176799 
L 408.35202 225.215092 
L 412.266176 227.937611 
L 416.180332 230.365109 
L 420.094487 232.518954 
L 424.008643 234.420716 
L 427.922798 236.091813 
L 431.836954 237.553204 
L 436.729648 239.115813 
L 441.622343 240.419847 
L 446.515037 241.500158 
L 452.386271 242.545918 
L 458.257504 243.364519 
L 465.107276 244.089156 
L 472.935588 244.682598 
L 481.742438 245.131645 
L 493.484904 245.489972 
L 509.141527 245.721016 
L 519.905455 245.793875 
L 519.905455 245.793875 
" clip-path="url(#pfdab709bc7)" style="fill: none; stroke: #a6bddb; stroke-width: 2; stroke-linecap: round"/>
   </g>
   <g id="line2d_2">
    <path d="M 275.76 256.798125 
L 275.76 16.318125 
" clip-path="url(#pfdab709bc7)" style="fill: none; stroke-dasharray: 5.55,2.4; stroke-dashoffset: 0; stroke: #e74c3c; stroke-width: 1.5"/>
   </g>
   <g id="line2d_3">
    <path d="M 214.723636 256.798125 
L 214.723636 16.318125 
" clip-path="url(#pfdab709bc7)" style="fill: none; stroke-dasharray: 1,1.65; stroke-dashoffset: 0; stroke: #808080"/>
   </g>
   <g id="line2d_4">
    <path d="M 336.796364 256.798125 
L 336.796364 16.318125 
" clip-path="url(#pfdab709bc7)" style="fill: none; stroke-dasharray: 1,1.65; stroke-dashoffset: 0; stroke: #808080"/>
   </g>
   <g id="text_1">
    <!-- μ -->
    <g style="fill: #e74c3c" transform="translate(271.9425 16.318125) scale(0.12 -0.12)">
     <defs>
      <path id="DejaVuSans-3bc" d="M 544 -1331 
L 544 3500 
L 1119 3500 
L 1119 1325 
Q 1119 872 1334 640 
Q 1550 409 1972 409 
Q 2434 409 2667 671 
Q 2900 934 2900 1459 
L 2900 3500 
L 3475 3500 
L 3475 806 
Q 3475 619 3529 530 
Q 3584 441 3700 441 
Q 3728 441 3778 458 
Q 3828 475 3916 513 
L 3916 50 
Q 3788 -22 3673 -56 
Q 3559 -91 3450 -91 
Q 3234 -91 3106 31 
Q 2978 153 2931 403 
Q 2775 156 2548 32 
Q 2322 -91 2016 -91 
Q 1697 -91 1473 31 
Q 1250 153 1119 397 
L 1119 -1331 
L 544 -1331 
z
" transform="scale(0.015625)"/>
     </defs>
     <use xlink:href="#DejaVuSans-3bc"/>
    </g>
   </g>
   <g id="text_2">
    <!-- μ - σ -->
    <g style="fill: #808080" transform="translate(192.059574 44.738489) scale(0.1 -0.1)">
     <defs>
      <path id="DejaVuSans-20" transform="scale(0.015625)"/>
      <path id="DejaVuSans-2d" d="M 313 2009 
L 1997 2009 
L 1997 1497 
L 313 1497 
L 313 2009 
z
" transform="scale(0.015625)"/>
      <path id="DejaVuSans-3c3" d="M 1959 3044 
Q 1484 3044 1228 2700 
Q 959 2341 959 1747 
Q 959 1119 1226 758 
Q 1494 397 1959 397 
Q 2419 397 2687 759 
Q 2956 1122 2956 1747 
Q 2956 2319 2688 2700 
Q 2441 3044 1959 3044 
z
M 1959 3500 
L 3869 3500 
L 3869 2925 
L 3225 2925 
Q 3566 2438 3566 1747 
Q 3566 888 3138 400 
Q 2709 -91 1959 -91 
Q 1206 -91 781 400 
Q 353 888 353 1747 
Q 353 2613 781 3097 
Q 1134 3500 1959 3500 
z
" transform="scale(0.015625)"/>
     </defs>
     <use xlink:href="#DejaVuSans-3bc"/>
     <use xlink:href="#DejaVuSans-20" x="63.623047"/>
     <use xlink:href="#DejaVuSans-2d" x="95.410156"/>
     <use xlink:href="#DejaVuSans-20" x="131.494141"/>
     <use xlink:href="#DejaVuSans-3c3" x="163.28125"/>
    </g>
   </g>
   <g id="text_3">
    <!-- μ + σ -->
    <g style="fill: #808080" transform="translate(336.796364 44.738489) scale(0.1 -0.1)">
     <defs>
      <path id="DejaVuSans-2b" d="M 2944 4013 
L 2944 2272 
L 4684 2272 
L 4684 1741 
L 2944 1741 
L 2944 0 
L 2419 0 
L 2419 1741 
L 678 1741 
L 678 2272 
L 2419 2272 
L 2419 4013 
L 2944 4013 
z
" transform="scale(0.015625)"/>
     </defs>
     <use xlink:href="#DejaVuSans-3bc"/>
     <use xlink:href="#DejaVuSans-20" x="63.623047"/>
     <use xlink:href="#DejaVuSans-2b" x="95.410156"/>
     <use xlink:href="#DejaVuSans-20" x="179.199219"/>
     <use xlink:href="#DejaVuSans-3c3" x="210.986328"/>
    </g>
   </g>
  </g>
 </g>
 <defs>
  <clipPath id="pfdab709bc7">
   <rect x="7.2" y="16.318125" width="537.12" height="240.48"/>
  </clipPath>
 </defs>
</svg>
