<?xml version="1.0" encoding="utf-8" standalone="no"?>
<!DOCTYPE svg PUBLIC "-//W3C//DTD SVG 1.1//EN"
  "http://www.w3.org/Graphics/SVG/1.1/DTD/svg11.dtd">
<svg xmlns:xlink="http://www.w3.org/1999/xlink" width="1004.558807pt" height="550.742188pt" viewBox="0 0 1004.558807 550.742188" xmlns="http://www.w3.org/2000/svg" version="1.1">
 <metadata>
  <rdf:RDF xmlns:dc="http://purl.org/dc/elements/1.1/" xmlns:cc="http://creativecommons.org/ns#" xmlns:rdf="http://www.w3.org/1999/02/22-rdf-syntax-ns#">
   <cc:Work>
    <dc:type rdf:resource="http://purl.org/dc/dcmitype/StillImage"/>
    <dc:date>2025-06-04T18:59:46.190995</dc:date>
    <dc:format>image/svg+xml</dc:format>
    <dc:creator>
     <cc:Agent>
      <dc:title>Matplotlib v3.8.4, https://matplotlib.org/</dc:title>
     </cc:Agent>
    </dc:creator>
   </cc:Work>
  </rdf:RDF>
 </metadata>
 <defs>
  <style type="text/css">*{stroke-linejoin: round; stroke-linecap: butt}</style>
 </defs>
 <g id="figure_1">
  <g id="patch_1">
   <path d="M 0 550.742188 
L 1004.558807 550.742188 
L 1004.558807 0 
L 0 0 
z
" style="fill: #ffffff"/>
  </g>
  <g id="axes_1">
   <g id="patch_2">
    <path d="M 88.663648 494.136563 
L 901.53604 494.136563 
L 901.53604 29.916562 
L 88.663648 29.916562 
z
" style="fill: #ffffff"/>
   </g>
   <g id="matplotlib.axis_1">
    <g id="xtick_1">
     <g id="line2d_1">
      <path d="M 183.952517 494.136563 
L 183.952517 29.916562 
" clip-path="url(#p5290d0fd53)" style="fill: none; stroke-dasharray: 5.55,2.4; stroke-dashoffset: 0; stroke: #cccccc; stroke-opacity: 0.7; stroke-width: 1.5"/>
     </g>
     <g id="text_1">
      <!-- 5 -->
      <g style="fill: #262626" transform="translate(179.498767 517.274375) scale(0.14 -0.14)">
       <defs>
        <path id="DejaVuSans-35" d="M 691 4666 
L 3169 4666 
L 3169 4134 
L 1269 4134 
L 1269 2991 
Q 1406 3038 1543 3061 
Q 1681 3084 1819 3084 
Q 2600 3084 3056 2656 
Q 3513 2228 3513 1497 
Q 3513 744 3044 326 
Q 2575 -91 1722 -91 
Q 1428 -91 1123 -41 
Q 819 9 494 109 
L 494 744 
Q 775 591 1075 516 
Q 1375 441 1709 441 
Q 2250 441 2565 725 
Q 2881 1009 2881 1497 
Q 2881 1984 2565 2268 
Q 2250 2553 1709 2553 
Q 1456 2553 1204 2497 
Q 953 2441 691 2322 
L 691 4666 
z
" transform="scale(0.015625)"/>
       </defs>
       <use xlink:href="#DejaVuSans-35"/>
      </g>
     </g>
    </g>
    <g id="xtick_2">
     <g id="line2d_2">
      <path d="M 281.186056 494.136563 
L 281.186056 29.916562 
" clip-path="url(#p5290d0fd53)" style="fill: none; stroke-dasharray: 5.55,2.4; stroke-dashoffset: 0; stroke: #cccccc; stroke-opacity: 0.7; stroke-width: 1.5"/>
     </g>
     <g id="text_2">
      <!-- 10 -->
      <g style="fill: #262626" transform="translate(272.278556 517.274375) scale(0.14 -0.14)">
       <defs>
        <path id="DejaVuSans-31" d="M 794 531 
L 1825 531 
L 1825 4091 
L 703 3866 
L 703 4441 
L 1819 4666 
L 2450 4666 
L 2450 531 
L 3481 531 
L 3481 0 
L 794 0 
L 794 531 
z
" transform="scale(0.015625)"/>
        <path id="DejaVuSans-30" d="M 2034 4250 
Q 1547 4250 1301 3770 
Q 1056 3291 1056 2328 
Q 1056 1369 1301 889 
Q 1547 409 2034 409 
Q 2525 409 2770 889 
Q 3016 1369 3016 2328 
Q 3016 3291 2770 3770 
Q 2525 4250 2034 4250 
z
M 2034 4750 
Q 2819 4750 3233 4129 
Q 3647 3509 3647 2328 
Q 3647 1150 3233 529 
Q 2819 -91 2034 -91 
Q 1250 -91 836 529 
Q 422 1150 422 2328 
Q 422 3509 836 4129 
Q 1250 4750 2034 4750 
z
" transform="scale(0.015625)"/>
       </defs>
       <use xlink:href="#DejaVuSans-31"/>
       <use xlink:href="#DejaVuSans-30" x="63.623047"/>
      </g>
     </g>
    </g>
    <g id="xtick_3">
     <g id="line2d_3">
      <path d="M 378.419596 494.136563 
L 378.419596 29.916562 
" clip-path="url(#p5290d0fd53)" style="fill: none; stroke-dasharray: 5.55,2.4; stroke-dashoffset: 0; stroke: #cccccc; stroke-opacity: 0.7; stroke-width: 1.5"/>
     </g>
     <g id="text_3">
      <!-- 15 -->
      <g style="fill: #262626" transform="translate(369.512096 517.274375) scale(0.14 -0.14)">
       <use xlink:href="#DejaVuSans-31"/>
       <use xlink:href="#DejaVuSans-35" x="63.623047"/>
      </g>
     </g>
    </g>
    <g id="xtick_4">
     <g id="line2d_4">
      <path d="M 475.653136 494.136563 
L 475.653136 29.916562 
" clip-path="url(#p5290d0fd53)" style="fill: none; stroke-dasharray: 5.55,2.4; stroke-dashoffset: 0; stroke: #cccccc; stroke-opacity: 0.7; stroke-width: 1.5"/>
     </g>
     <g id="text_4">
      <!-- 20 -->
      <g style="fill: #262626" transform="translate(466.745636 517.274375) scale(0.14 -0.14)">
       <defs>
        <path id="DejaVuSans-32" d="M 1228 531 
L 3431 531 
L 3431 0 
L 469 0 
L 469 531 
Q 828 903 1448 1529 
Q 2069 2156 2228 2338 
Q 2531 2678 2651 2914 
Q 2772 3150 2772 3378 
Q 2772 3750 2511 3984 
Q 2250 4219 1831 4219 
Q 1534 4219 1204 4116 
Q 875 4013 500 3803 
L 500 4441 
Q 881 4594 1212 4672 
Q 1544 4750 1819 4750 
Q 2544 4750 2975 4387 
Q 3406 4025 3406 3419 
Q 3406 3131 3298 2873 
Q 3191 2616 2906 2266 
Q 2828 2175 2409 1742 
Q 1991 1309 1228 531 
z
" transform="scale(0.015625)"/>
       </defs>
       <use xlink:href="#DejaVuSans-32"/>
       <use xlink:href="#DejaVuSans-30" x="63.623047"/>
      </g>
     </g>
    </g>
    <g id="xtick_5">
     <g id="line2d_5">
      <path d="M 572.886676 494.136563 
L 572.886676 29.916562 
" clip-path="url(#p5290d0fd53)" style="fill: none; stroke-dasharray: 5.55,2.4; stroke-dashoffset: 0; stroke: #cccccc; stroke-opacity: 0.7; stroke-width: 1.5"/>
     </g>
     <g id="text_5">
      <!-- 25 -->
      <g style="fill: #262626" transform="translate(563.979176 517.274375) scale(0.14 -0.14)">
       <use xlink:href="#DejaVuSans-32"/>
       <use xlink:href="#DejaVuSans-35" x="63.623047"/>
      </g>
     </g>
    </g>
    <g id="xtick_6">
     <g id="line2d_6">
      <path d="M 670.120215 494.136563 
L 670.120215 29.916562 
" clip-path="url(#p5290d0fd53)" style="fill: none; stroke-dasharray: 5.55,2.4; stroke-dashoffset: 0; stroke: #cccccc; stroke-opacity: 0.7; stroke-width: 1.5"/>
     </g>
     <g id="text_6">
      <!-- 30 -->
      <g style="fill: #262626" transform="translate(661.212715 517.274375) scale(0.14 -0.14)">
       <defs>
        <path id="DejaVuSans-33" d="M 2597 2516 
Q 3050 2419 3304 2112 
Q 3559 1806 3559 1356 
Q 3559 666 3084 287 
Q 2609 -91 1734 -91 
Q 1441 -91 1130 -33 
Q 819 25 488 141 
L 488 750 
Q 750 597 1062 519 
Q 1375 441 1716 441 
Q 2309 441 2620 675 
Q 2931 909 2931 1356 
Q 2931 1769 2642 2001 
Q 2353 2234 1838 2234 
L 1294 2234 
L 1294 2753 
L 1863 2753 
Q 2328 2753 2575 2939 
Q 2822 3125 2822 3475 
Q 2822 3834 2567 4026 
Q 2313 4219 1838 4219 
Q 1578 4219 1281 4162 
Q 984 4106 628 3988 
L 628 4550 
Q 988 4650 1302 4700 
Q 1616 4750 1894 4750 
Q 2613 4750 3031 4423 
Q 3450 4097 3450 3541 
Q 3450 3153 3228 2886 
Q 3006 2619 2597 2516 
z
" transform="scale(0.015625)"/>
       </defs>
       <use xlink:href="#DejaVuSans-33"/>
       <use xlink:href="#DejaVuSans-30" x="63.623047"/>
      </g>
     </g>
    </g>
    <g id="xtick_7">
     <g id="line2d_7">
      <path d="M 767.353755 494.136563 
L 767.353755 29.916562 
" clip-path="url(#p5290d0fd53)" style="fill: none; stroke-dasharray: 5.55,2.4; stroke-dashoffset: 0; stroke: #cccccc; stroke-opacity: 0.7; stroke-width: 1.5"/>
     </g>
     <g id="text_7">
      <!-- 35 -->
      <g style="fill: #262626" transform="translate(758.446255 517.274375) scale(0.14 -0.14)">
       <use xlink:href="#DejaVuSans-33"/>
       <use xlink:href="#DejaVuSans-35" x="63.623047"/>
      </g>
     </g>
    </g>
    <g id="xtick_8">
     <g id="line2d_8">
      <path d="M 864.587295 494.136563 
L 864.587295 29.916562 
" clip-path="url(#p5290d0fd53)" style="fill: none; stroke-dasharray: 5.55,2.4; stroke-dashoffset: 0; stroke: #cccccc; stroke-opacity: 0.7; stroke-width: 1.5"/>
     </g>
     <g id="text_8">
      <!-- 40 -->
      <g style="fill: #262626" transform="translate(855.679795 517.274375) scale(0.14 -0.14)">
       <defs>
        <path id="DejaVuSans-34" d="M 2419 4116 
L 825 1625 
L 2419 1625 
L 2419 4116 
z
M 2253 4666 
L 3047 4666 
L 3047 1625 
L 3713 1625 
L 3713 1100 
L 3047 1100 
L 3047 0 
L 2419 0 
L 2419 1100 
L 313 1100 
L 313 1709 
L 2253 4666 
z
" transform="scale(0.015625)"/>
       </defs>
       <use xlink:href="#DejaVuSans-34"/>
       <use xlink:href="#DejaVuSans-30" x="63.623047"/>
      </g>
     </g>
    </g>
    <g id="text_9">
     <!-- Epochs -->
     <g style="fill: #262626" transform="translate(459.268594 539.382813) scale(0.2 -0.2)">
      <defs>
       <path id="DejaVuSans-45" d="M 628 4666 
L 3578 4666 
L 3578 4134 
L 1259 4134 
L 1259 2753 
L 3481 2753 
L 3481 2222 
L 1259 2222 
L 1259 531 
L 3634 531 
L 3634 0 
L 628 0 
L 628 4666 
z
" transform="scale(0.015625)"/>
       <path id="DejaVuSans-70" d="M 1159 525 
L 1159 -1331 
L 581 -1331 
L 581 3500 
L 1159 3500 
L 1159 2969 
Q 1341 3281 1617 3432 
Q 1894 3584 2278 3584 
Q 2916 3584 3314 3078 
Q 3713 2572 3713 1747 
Q 3713 922 3314 415 
Q 2916 -91 2278 -91 
Q 1894 -91 1617 61 
Q 1341 213 1159 525 
z
M 3116 1747 
Q 3116 2381 2855 2742 
Q 2594 3103 2138 3103 
Q 1681 3103 1420 2742 
Q 1159 2381 1159 1747 
Q 1159 1113 1420 752 
Q 1681 391 2138 391 
Q 2594 391 2855 752 
Q 3116 1113 3116 1747 
z
" transform="scale(0.015625)"/>
       <path id="DejaVuSans-6f" d="M 1959 3097 
Q 1497 3097 1228 2736 
Q 959 2375 959 1747 
Q 959 1119 1226 758 
Q 1494 397 1959 397 
Q 2419 397 2687 759 
Q 2956 1122 2956 1747 
Q 2956 2369 2687 2733 
Q 2419 3097 1959 3097 
z
M 1959 3584 
Q 2709 3584 3137 3096 
Q 3566 2609 3566 1747 
Q 3566 888 3137 398 
Q 2709 -91 1959 -91 
Q 1206 -91 779 398 
Q 353 888 353 1747 
Q 353 2609 779 3096 
Q 1206 3584 1959 3584 
z
" transform="scale(0.015625)"/>
       <path id="DejaVuSans-63" d="M 3122 3366 
L 3122 2828 
Q 2878 2963 2633 3030 
Q 2388 3097 2138 3097 
Q 1578 3097 1268 2742 
Q 959 2388 959 1747 
Q 959 1106 1268 751 
Q 1578 397 2138 397 
Q 2388 397 2633 464 
Q 2878 531 3122 666 
L 3122 134 
Q 2881 22 2623 -34 
Q 2366 -91 2075 -91 
Q 1284 -91 818 406 
Q 353 903 353 1747 
Q 353 2603 823 3093 
Q 1294 3584 2113 3584 
Q 2378 3584 2631 3529 
Q 2884 3475 3122 3366 
z
" transform="scale(0.015625)"/>
       <path id="DejaVuSans-68" d="M 3513 2113 
L 3513 0 
L 2938 0 
L 2938 2094 
Q 2938 2591 2744 2837 
Q 2550 3084 2163 3084 
Q 1697 3084 1428 2787 
Q 1159 2491 1159 1978 
L 1159 0 
L 581 0 
L 581 4863 
L 1159 4863 
L 1159 2956 
Q 1366 3272 1645 3428 
Q 1925 3584 2291 3584 
Q 2894 3584 3203 3211 
Q 3513 2838 3513 2113 
z
" transform="scale(0.015625)"/>
       <path id="DejaVuSans-73" d="M 2834 3397 
L 2834 2853 
Q 2591 2978 2328 3040 
Q 2066 3103 1784 3103 
Q 1356 3103 1142 2972 
Q 928 2841 928 2578 
Q 928 2378 1081 2264 
Q 1234 2150 1697 2047 
L 1894 2003 
Q 2506 1872 2764 1633 
Q 3022 1394 3022 966 
Q 3022 478 2636 193 
Q 2250 -91 1575 -91 
Q 1294 -91 989 -36 
Q 684 19 347 128 
L 347 722 
Q 666 556 975 473 
Q 1284 391 1588 391 
Q 1994 391 2212 530 
Q 2431 669 2431 922 
Q 2431 1156 2273 1281 
Q 2116 1406 1581 1522 
L 1381 1569 
Q 847 1681 609 1914 
Q 372 2147 372 2553 
Q 372 3047 722 3315 
Q 1072 3584 1716 3584 
Q 2034 3584 2315 3537 
Q 2597 3491 2834 3397 
z
" transform="scale(0.015625)"/>
      </defs>
      <use xlink:href="#DejaVuSans-45"/>
      <use xlink:href="#DejaVuSans-70" x="63.183594"/>
      <use xlink:href="#DejaVuSans-6f" x="126.660156"/>
      <use xlink:href="#DejaVuSans-63" x="187.841797"/>
      <use xlink:href="#DejaVuSans-68" x="242.822266"/>
      <use xlink:href="#DejaVuSans-73" x="306.201172"/>
     </g>
    </g>
   </g>
   <g id="matplotlib.axis_2">
    <g id="ytick_1">
     <g id="line2d_9">
      <path d="M 88.663648 473.035653 
L 901.53604 473.035653 
" clip-path="url(#p5290d0fd53)" style="fill: none; stroke-dasharray: 5.55,2.4; stroke-dashoffset: 0; stroke: #cccccc; stroke-opacity: 0.7; stroke-width: 1.5"/>
     </g>
     <g id="text_10">
      <!-- 0.0 -->
      <g style="fill: #262626" transform="translate(53.899273 478.35456) scale(0.14 -0.14)">
       <defs>
        <path id="DejaVuSans-2e" d="M 684 794 
L 1344 794 
L 1344 0 
L 684 0 
L 684 794 
z
" transform="scale(0.015625)"/>
       </defs>
       <use xlink:href="#DejaVuSans-30"/>
       <use xlink:href="#DejaVuSans-2e" x="63.623047"/>
       <use xlink:href="#DejaVuSans-30" x="95.410156"/>
      </g>
     </g>
    </g>
    <g id="ytick_2">
     <g id="line2d_10">
      <path d="M 88.663648 388.632017 
L 901.53604 388.632017 
" clip-path="url(#p5290d0fd53)" style="fill: none; stroke-dasharray: 5.55,2.4; stroke-dashoffset: 0; stroke: #cccccc; stroke-opacity: 0.7; stroke-width: 1.5"/>
     </g>
     <g id="text_11">
      <!-- 0.2 -->
      <g style="fill: #262626" transform="translate(53.899273 393.950923) scale(0.14 -0.14)">
       <use xlink:href="#DejaVuSans-30"/>
       <use xlink:href="#DejaVuSans-2e" x="63.623047"/>
       <use xlink:href="#DejaVuSans-32" x="95.410156"/>
      </g>
     </g>
    </g>
    <g id="ytick_3">
     <g id="line2d_11">
      <path d="M 88.663648 304.228381 
L 901.53604 304.228381 
" clip-path="url(#p5290d0fd53)" style="fill: none; stroke-dasharray: 5.55,2.4; stroke-dashoffset: 0; stroke: #cccccc; stroke-opacity: 0.7; stroke-width: 1.5"/>
     </g>
     <g id="text_12">
      <!-- 0.4 -->
      <g style="fill: #262626" transform="translate(53.899273 309.547287) scale(0.14 -0.14)">
       <use xlink:href="#DejaVuSans-30"/>
       <use xlink:href="#DejaVuSans-2e" x="63.623047"/>
       <use xlink:href="#DejaVuSans-34" x="95.410156"/>
      </g>
     </g>
    </g>
    <g id="ytick_4">
     <g id="line2d_12">
      <path d="M 88.663648 219.824744 
L 901.53604 219.824744 
" clip-path="url(#p5290d0fd53)" style="fill: none; stroke-dasharray: 5.55,2.4; stroke-dashoffset: 0; stroke: #cccccc; stroke-opacity: 0.7; stroke-width: 1.5"/>
     </g>
     <g id="text_13">
      <!-- 0.6 -->
      <g style="fill: #262626" transform="translate(53.899273 225.143651) scale(0.14 -0.14)">
       <defs>
        <path id="DejaVuSans-36" d="M 2113 2584 
Q 1688 2584 1439 2293 
Q 1191 2003 1191 1497 
Q 1191 994 1439 701 
Q 1688 409 2113 409 
Q 2538 409 2786 701 
Q 3034 994 3034 1497 
Q 3034 2003 2786 2293 
Q 2538 2584 2113 2584 
z
M 3366 4563 
L 3366 3988 
Q 3128 4100 2886 4159 
Q 2644 4219 2406 4219 
Q 1781 4219 1451 3797 
Q 1122 3375 1075 2522 
Q 1259 2794 1537 2939 
Q 1816 3084 2150 3084 
Q 2853 3084 3261 2657 
Q 3669 2231 3669 1497 
Q 3669 778 3244 343 
Q 2819 -91 2113 -91 
Q 1303 -91 875 529 
Q 447 1150 447 2328 
Q 447 3434 972 4092 
Q 1497 4750 2381 4750 
Q 2619 4750 2861 4703 
Q 3103 4656 3366 4563 
z
" transform="scale(0.015625)"/>
       </defs>
       <use xlink:href="#DejaVuSans-30"/>
       <use xlink:href="#DejaVuSans-2e" x="63.623047"/>
       <use xlink:href="#DejaVuSans-36" x="95.410156"/>
      </g>
     </g>
    </g>
    <g id="ytick_5">
     <g id="line2d_13">
      <path d="M 88.663648 135.421108 
L 901.53604 135.421108 
" clip-path="url(#p5290d0fd53)" style="fill: none; stroke-dasharray: 5.55,2.4; stroke-dashoffset: 0; stroke: #cccccc; stroke-opacity: 0.7; stroke-width: 1.5"/>
     </g>
     <g id="text_14">
      <!-- 0.8 -->
      <g style="fill: #262626" transform="translate(53.899273 140.740014) scale(0.14 -0.14)">
       <defs>
        <path id="DejaVuSans-38" d="M 2034 2216 
Q 1584 2216 1326 1975 
Q 1069 1734 1069 1313 
Q 1069 891 1326 650 
Q 1584 409 2034 409 
Q 2484 409 2743 651 
Q 3003 894 3003 1313 
Q 3003 1734 2745 1975 
Q 2488 2216 2034 2216 
z
M 1403 2484 
Q 997 2584 770 2862 
Q 544 3141 544 3541 
Q 544 4100 942 4425 
Q 1341 4750 2034 4750 
Q 2731 4750 3128 4425 
Q 3525 4100 3525 3541 
Q 3525 3141 3298 2862 
Q 3072 2584 2669 2484 
Q 3125 2378 3379 2068 
Q 3634 1759 3634 1313 
Q 3634 634 3220 271 
Q 2806 -91 2034 -91 
Q 1263 -91 848 271 
Q 434 634 434 1313 
Q 434 1759 690 2068 
Q 947 2378 1403 2484 
z
M 1172 3481 
Q 1172 3119 1398 2916 
Q 1625 2713 2034 2713 
Q 2441 2713 2670 2916 
Q 2900 3119 2900 3481 
Q 2900 3844 2670 4047 
Q 2441 4250 2034 4250 
Q 1625 4250 1398 4047 
Q 1172 3844 1172 3481 
z
" transform="scale(0.015625)"/>
       </defs>
       <use xlink:href="#DejaVuSans-30"/>
       <use xlink:href="#DejaVuSans-2e" x="63.623047"/>
       <use xlink:href="#DejaVuSans-38" x="95.410156"/>
      </g>
     </g>
    </g>
    <g id="ytick_6">
     <g id="line2d_14">
      <path d="M 88.663648 51.017472 
L 901.53604 51.017472 
" clip-path="url(#p5290d0fd53)" style="fill: none; stroke-dasharray: 5.55,2.4; stroke-dashoffset: 0; stroke: #cccccc; stroke-opacity: 0.7; stroke-width: 1.5"/>
     </g>
     <g id="text_15">
      <!-- 1.0 -->
      <g style="fill: #262626" transform="translate(53.899273 56.336378) scale(0.14 -0.14)">
       <use xlink:href="#DejaVuSans-31"/>
       <use xlink:href="#DejaVuSans-2e" x="63.623047"/>
       <use xlink:href="#DejaVuSans-30" x="95.410156"/>
      </g>
     </g>
    </g>
    <g id="text_16">
     <!-- Normalized Score (0-1) -->
     <g style="fill: #262626" transform="translate(45.739898 377.234375) rotate(-90) scale(0.2 -0.2)">
      <defs>
       <path id="DejaVuSans-4e" d="M 628 4666 
L 1478 4666 
L 3547 763 
L 3547 4666 
L 4159 4666 
L 4159 0 
L 3309 0 
L 1241 3903 
L 1241 0 
L 628 0 
L 628 4666 
z
" transform="scale(0.015625)"/>
       <path id="DejaVuSans-72" d="M 2631 2963 
Q 2534 3019 2420 3045 
Q 2306 3072 2169 3072 
Q 1681 3072 1420 2755 
Q 1159 2438 1159 1844 
L 1159 0 
L 581 0 
L 581 3500 
L 1159 3500 
L 1159 2956 
Q 1341 3275 1631 3429 
Q 1922 3584 2338 3584 
Q 2397 3584 2469 3576 
Q 2541 3569 2628 3553 
L 2631 2963 
z
" transform="scale(0.015625)"/>
       <path id="DejaVuSans-6d" d="M 3328 2828 
Q 3544 3216 3844 3400 
Q 4144 3584 4550 3584 
Q 5097 3584 5394 3201 
Q 5691 2819 5691 2113 
L 5691 0 
L 5113 0 
L 5113 2094 
Q 5113 2597 4934 2840 
Q 4756 3084 4391 3084 
Q 3944 3084 3684 2787 
Q 3425 2491 3425 1978 
L 3425 0 
L 2847 0 
L 2847 2094 
Q 2847 2600 2669 2842 
Q 2491 3084 2119 3084 
Q 1678 3084 1418 2786 
Q 1159 2488 1159 1978 
L 1159 0 
L 581 0 
L 581 3500 
L 1159 3500 
L 1159 2956 
Q 1356 3278 1631 3431 
Q 1906 3584 2284 3584 
Q 2666 3584 2933 3390 
Q 3200 3197 3328 2828 
z
" transform="scale(0.015625)"/>
       <path id="DejaVuSans-61" d="M 2194 1759 
Q 1497 1759 1228 1600 
Q 959 1441 959 1056 
Q 959 750 1161 570 
Q 1363 391 1709 391 
Q 2188 391 2477 730 
Q 2766 1069 2766 1631 
L 2766 1759 
L 2194 1759 
z
M 3341 1997 
L 3341 0 
L 2766 0 
L 2766 531 
Q 2569 213 2275 61 
Q 1981 -91 1556 -91 
Q 1019 -91 701 211 
Q 384 513 384 1019 
Q 384 1609 779 1909 
Q 1175 2209 1959 2209 
L 2766 2209 
L 2766 2266 
Q 2766 2663 2505 2880 
Q 2244 3097 1772 3097 
Q 1472 3097 1187 3025 
Q 903 2953 641 2809 
L 641 3341 
Q 956 3463 1253 3523 
Q 1550 3584 1831 3584 
Q 2591 3584 2966 3190 
Q 3341 2797 3341 1997 
z
" transform="scale(0.015625)"/>
       <path id="DejaVuSans-6c" d="M 603 4863 
L 1178 4863 
L 1178 0 
L 603 0 
L 603 4863 
z
" transform="scale(0.015625)"/>
       <path id="DejaVuSans-69" d="M 603 3500 
L 1178 3500 
L 1178 0 
L 603 0 
L 603 3500 
z
M 603 4863 
L 1178 4863 
L 1178 4134 
L 603 4134 
L 603 4863 
z
" transform="scale(0.015625)"/>
       <path id="DejaVuSans-7a" d="M 353 3500 
L 3084 3500 
L 3084 2975 
L 922 459 
L 3084 459 
L 3084 0 
L 275 0 
L 275 525 
L 2438 3041 
L 353 3041 
L 353 3500 
z
" transform="scale(0.015625)"/>
       <path id="DejaVuSans-65" d="M 3597 1894 
L 3597 1613 
L 953 1613 
Q 991 1019 1311 708 
Q 1631 397 2203 397 
Q 2534 397 2845 478 
Q 3156 559 3463 722 
L 3463 178 
Q 3153 47 2828 -22 
Q 2503 -91 2169 -91 
Q 1331 -91 842 396 
Q 353 884 353 1716 
Q 353 2575 817 3079 
Q 1281 3584 2069 3584 
Q 2775 3584 3186 3129 
Q 3597 2675 3597 1894 
z
M 3022 2063 
Q 3016 2534 2758 2815 
Q 2500 3097 2075 3097 
Q 1594 3097 1305 2825 
Q 1016 2553 972 2059 
L 3022 2063 
z
" transform="scale(0.015625)"/>
       <path id="DejaVuSans-64" d="M 2906 2969 
L 2906 4863 
L 3481 4863 
L 3481 0 
L 2906 0 
L 2906 525 
Q 2725 213 2448 61 
Q 2172 -91 1784 -91 
Q 1150 -91 751 415 
Q 353 922 353 1747 
Q 353 2572 751 3078 
Q 1150 3584 1784 3584 
Q 2172 3584 2448 3432 
Q 2725 3281 2906 2969 
z
M 947 1747 
Q 947 1113 1208 752 
Q 1469 391 1925 391 
Q 2381 391 2643 752 
Q 2906 1113 2906 1747 
Q 2906 2381 2643 2742 
Q 2381 3103 1925 3103 
Q 1469 3103 1208 2742 
Q 947 2381 947 1747 
z
" transform="scale(0.015625)"/>
       <path id="DejaVuSans-20" transform="scale(0.015625)"/>
       <path id="DejaVuSans-53" d="M 3425 4513 
L 3425 3897 
Q 3066 4069 2747 4153 
Q 2428 4238 2131 4238 
Q 1616 4238 1336 4038 
Q 1056 3838 1056 3469 
Q 1056 3159 1242 3001 
Q 1428 2844 1947 2747 
L 2328 2669 
Q 3034 2534 3370 2195 
Q 3706 1856 3706 1288 
Q 3706 609 3251 259 
Q 2797 -91 1919 -91 
Q 1588 -91 1214 -16 
Q 841 59 441 206 
L 441 856 
Q 825 641 1194 531 
Q 1563 422 1919 422 
Q 2459 422 2753 634 
Q 3047 847 3047 1241 
Q 3047 1584 2836 1778 
Q 2625 1972 2144 2069 
L 1759 2144 
Q 1053 2284 737 2584 
Q 422 2884 422 3419 
Q 422 4038 858 4394 
Q 1294 4750 2059 4750 
Q 2388 4750 2728 4690 
Q 3069 4631 3425 4513 
z
" transform="scale(0.015625)"/>
       <path id="DejaVuSans-28" d="M 1984 4856 
Q 1566 4138 1362 3434 
Q 1159 2731 1159 2009 
Q 1159 1288 1364 580 
Q 1569 -128 1984 -844 
L 1484 -844 
Q 1016 -109 783 600 
Q 550 1309 550 2009 
Q 550 2706 781 3412 
Q 1013 4119 1484 4856 
L 1984 4856 
z
" transform="scale(0.015625)"/>
       <path id="DejaVuSans-2d" d="M 313 2009 
L 1997 2009 
L 1997 1497 
L 313 1497 
L 313 2009 
z
" transform="scale(0.015625)"/>
       <path id="DejaVuSans-29" d="M 513 4856 
L 1013 4856 
Q 1481 4119 1714 3412 
Q 1947 2706 1947 2009 
Q 1947 1309 1714 600 
Q 1481 -109 1013 -844 
L 513 -844 
Q 928 -128 1133 580 
Q 1338 1288 1338 2009 
Q 1338 2731 1133 3434 
Q 928 4138 513 4856 
z
" transform="scale(0.015625)"/>
      </defs>
      <use xlink:href="#DejaVuSans-4e"/>
      <use xlink:href="#DejaVuSans-6f" x="74.804688"/>
      <use xlink:href="#DejaVuSans-72" x="135.986328"/>
      <use xlink:href="#DejaVuSans-6d" x="175.349609"/>
      <use xlink:href="#DejaVuSans-61" x="272.761719"/>
      <use xlink:href="#DejaVuSans-6c" x="334.041016"/>
      <use xlink:href="#DejaVuSans-69" x="361.824219"/>
      <use xlink:href="#DejaVuSans-7a" x="389.607422"/>
      <use xlink:href="#DejaVuSans-65" x="442.097656"/>
      <use xlink:href="#DejaVuSans-64" x="503.621094"/>
      <use xlink:href="#DejaVuSans-20" x="567.097656"/>
      <use xlink:href="#DejaVuSans-53" x="598.884766"/>
      <use xlink:href="#DejaVuSans-63" x="662.361328"/>
      <use xlink:href="#DejaVuSans-6f" x="717.341797"/>
      <use xlink:href="#DejaVuSans-72" x="778.523438"/>
      <use xlink:href="#DejaVuSans-65" x="817.386719"/>
      <use xlink:href="#DejaVuSans-20" x="878.910156"/>
      <use xlink:href="#DejaVuSans-28" x="910.697266"/>
      <use xlink:href="#DejaVuSans-30" x="949.710938"/>
      <use xlink:href="#DejaVuSans-2d" x="1013.333984"/>
      <use xlink:href="#DejaVuSans-31" x="1049.417969"/>
      <use xlink:href="#DejaVuSans-29" x="1113.041016"/>
     </g>
    </g>
   </g>
   <g id="line2d_15">
    <path d="M 125.612393 51.017472 
L 164.505809 97.331905 
L 203.399224 104.883306 
L 242.29264 115.122689 
L 281.186056 160.828769 
L 320.079472 174.521081 
L 358.972888 195.616566 
L 397.866304 221.1791 
L 436.75972 248.408855 
L 475.653136 290.677834 
L 514.546552 293.247905 
L 553.439968 297.116972 
L 592.333384 314.945215 
L 631.226799 366.534676 
L 670.120215 378.946882 
L 709.013631 387.272878 
L 747.907047 436.53111 
L 786.800463 433.859071 
L 825.693879 434.342388 
L 864.587295 473.035653 
" clip-path="url(#p5290d0fd53)" style="fill: none; stroke: #3b528b; stroke-width: 2.5; stroke-linecap: round"/>
    <defs>
     <path id="mb5f906cd63" d="M 0 4 
C 1.060812 4 2.078319 3.578535 2.828427 2.828427 
C 3.578535 2.078319 4 1.060812 4 0 
C 4 -1.060812 3.578535 -2.078319 2.828427 -2.828427 
C 2.078319 -3.578535 1.060812 -4 0 -4 
C -1.060812 -4 -2.078319 -3.578535 -2.828427 -2.828427 
C -3.578535 -2.078319 -4 -1.060812 -4 0 
C -4 1.060812 -3.578535 2.078319 -2.828427 2.828427 
C -2.078319 3.578535 -1.060812 4 0 4 
z
" style="stroke: #3b528b"/>
    </defs>
    <g clip-path="url(#p5290d0fd53)">
     <use xlink:href="#mb5f906cd63" x="125.612393" y="51.017472" style="fill: #3b528b; stroke: #3b528b"/>
     <use xlink:href="#mb5f906cd63" x="164.505809" y="97.331905" style="fill: #3b528b; stroke: #3b528b"/>
     <use xlink:href="#mb5f906cd63" x="203.399224" y="104.883306" style="fill: #3b528b; stroke: #3b528b"/>
     <use xlink:href="#mb5f906cd63" x="242.29264" y="115.122689" style="fill: #3b528b; stroke: #3b528b"/>
     <use xlink:href="#mb5f906cd63" x="281.186056" y="160.828769" style="fill: #3b528b; stroke: #3b528b"/>
     <use xlink:href="#mb5f906cd63" x="320.079472" y="174.521081" style="fill: #3b528b; stroke: #3b528b"/>
     <use xlink:href="#mb5f906cd63" x="358.972888" y="195.616566" style="fill: #3b528b; stroke: #3b528b"/>
     <use xlink:href="#mb5f906cd63" x="397.866304" y="221.1791" style="fill: #3b528b; stroke: #3b528b"/>
     <use xlink:href="#mb5f906cd63" x="436.75972" y="248.408855" style="fill: #3b528b; stroke: #3b528b"/>
     <use xlink:href="#mb5f906cd63" x="475.653136" y="290.677834" style="fill: #3b528b; stroke: #3b528b"/>
     <use xlink:href="#mb5f906cd63" x="514.546552" y="293.247905" style="fill: #3b528b; stroke: #3b528b"/>
     <use xlink:href="#mb5f906cd63" x="553.439968" y="297.116972" style="fill: #3b528b; stroke: #3b528b"/>
     <use xlink:href="#mb5f906cd63" x="592.333384" y="314.945215" style="fill: #3b528b; stroke: #3b528b"/>
     <use xlink:href="#mb5f906cd63" x="631.226799" y="366.534676" style="fill: #3b528b; stroke: #3b528b"/>
     <use xlink:href="#mb5f906cd63" x="670.120215" y="378.946882" style="fill: #3b528b; stroke: #3b528b"/>
     <use xlink:href="#mb5f906cd63" x="709.013631" y="387.272878" style="fill: #3b528b; stroke: #3b528b"/>
     <use xlink:href="#mb5f906cd63" x="747.907047" y="436.53111" style="fill: #3b528b; stroke: #3b528b"/>
     <use xlink:href="#mb5f906cd63" x="786.800463" y="433.859071" style="fill: #3b528b; stroke: #3b528b"/>
     <use xlink:href="#mb5f906cd63" x="825.693879" y="434.342388" style="fill: #3b528b; stroke: #3b528b"/>
     <use xlink:href="#mb5f906cd63" x="864.587295" y="473.035653" style="fill: #3b528b; stroke: #3b528b"/>
    </g>
   </g>
   <g id="line2d_16">
    <path d="M 125.612393 473.035653 
L 164.505809 440.629554 
L 203.399224 434.874034 
L 242.29264 370.324716 
L 281.186056 347.875192 
L 320.079472 354.630072 
L 358.972888 349.408776 
L 397.866304 287.00233 
L 436.75972 267.090493 
L 475.653136 255.681886 
L 514.546552 263.964116 
L 553.439968 232.214914 
L 592.333384 207.13089 
L 631.226799 191.508711 
L 670.120215 154.4917 
L 709.013631 145.387143 
L 747.907047 144.292403 
L 786.800463 122.671889 
L 825.693879 93.576444 
L 864.587295 51.017472 
" clip-path="url(#p5290d0fd53)" style="fill: none; stroke: #21918c; stroke-width: 2.5; stroke-linecap: round"/>
    <defs>
     <path id="mf040f06616" d="M -4 4 
L 4 4 
L 4 -4 
L -4 -4 
z
" style="stroke: #21918c; stroke-linejoin: miter"/>
    </defs>
    <g clip-path="url(#p5290d0fd53)">
     <use xlink:href="#mf040f06616" x="125.612393" y="473.035653" style="fill: #21918c; stroke: #21918c; stroke-linejoin: miter"/>
     <use xlink:href="#mf040f06616" x="164.505809" y="440.629554" style="fill: #21918c; stroke: #21918c; stroke-linejoin: miter"/>
     <use xlink:href="#mf040f06616" x="203.399224" y="434.874034" style="fill: #21918c; stroke: #21918c; stroke-linejoin: miter"/>
     <use xlink:href="#mf040f06616" x="242.29264" y="370.324716" style="fill: #21918c; stroke: #21918c; stroke-linejoin: miter"/>
     <use xlink:href="#mf040f06616" x="281.186056" y="347.875192" style="fill: #21918c; stroke: #21918c; stroke-linejoin: miter"/>
     <use xlink:href="#mf040f06616" x="320.079472" y="354.630072" style="fill: #21918c; stroke: #21918c; stroke-linejoin: miter"/>
     <use xlink:href="#mf040f06616" x="358.972888" y="349.408776" style="fill: #21918c; stroke: #21918c; stroke-linejoin: miter"/>
     <use xlink:href="#mf040f06616" x="397.866304" y="287.00233" style="fill: #21918c; stroke: #21918c; stroke-linejoin: miter"/>
     <use xlink:href="#mf040f06616" x="436.75972" y="267.090493" style="fill: #21918c; stroke: #21918c; stroke-linejoin: miter"/>
     <use xlink:href="#mf040f06616" x="475.653136" y="255.681886" style="fill: #21918c; stroke: #21918c; stroke-linejoin: miter"/>
     <use xlink:href="#mf040f06616" x="514.546552" y="263.964116" style="fill: #21918c; stroke: #21918c; stroke-linejoin: miter"/>
     <use xlink:href="#mf040f06616" x="553.439968" y="232.214914" style="fill: #21918c; stroke: #21918c; stroke-linejoin: miter"/>
     <use xlink:href="#mf040f06616" x="592.333384" y="207.13089" style="fill: #21918c; stroke: #21918c; stroke-linejoin: miter"/>
     <use xlink:href="#mf040f06616" x="631.226799" y="191.508711" style="fill: #21918c; stroke: #21918c; stroke-linejoin: miter"/>
     <use xlink:href="#mf040f06616" x="670.120215" y="154.4917" style="fill: #21918c; stroke: #21918c; stroke-linejoin: miter"/>
     <use xlink:href="#mf040f06616" x="709.013631" y="145.387143" style="fill: #21918c; stroke: #21918c; stroke-linejoin: miter"/>
     <use xlink:href="#mf040f06616" x="747.907047" y="144.292403" style="fill: #21918c; stroke: #21918c; stroke-linejoin: miter"/>
     <use xlink:href="#mf040f06616" x="786.800463" y="122.671889" style="fill: #21918c; stroke: #21918c; stroke-linejoin: miter"/>
     <use xlink:href="#mf040f06616" x="825.693879" y="93.576444" style="fill: #21918c; stroke: #21918c; stroke-linejoin: miter"/>
     <use xlink:href="#mf040f06616" x="864.587295" y="51.017472" style="fill: #21918c; stroke: #21918c; stroke-linejoin: miter"/>
    </g>
   </g>
   <g id="line2d_17">
    <path d="M 125.612393 473.035653 
L 164.505809 454.878992 
L 203.399224 435.003471 
L 242.29264 409.799236 
L 281.186056 389.802161 
L 320.079472 382.661834 
L 358.972888 336.177077 
L 397.866304 303.382598 
L 436.75972 287.264368 
L 475.653136 267.298914 
L 514.546552 217.573525 
L 553.439968 255.415239 
L 592.333384 232.112285 
L 631.226799 199.669825 
L 670.120215 202.396949 
L 709.013631 134.407868 
L 747.907047 100.756694 
L 786.800463 77.971813 
L 825.693879 84.087463 
L 864.587295 51.017472 
" clip-path="url(#p5290d0fd53)" style="fill: none; stroke: #5ec962; stroke-width: 2.5; stroke-linecap: round"/>
    <defs>
     <path id="mae4f36d48b" d="M -0 5.656854 
L 5.656854 0 
L 0 -5.656854 
L -5.656854 -0 
z
" style="stroke: #5ec962; stroke-linejoin: miter"/>
    </defs>
    <g clip-path="url(#p5290d0fd53)">
     <use xlink:href="#mae4f36d48b" x="125.612393" y="473.035653" style="fill: #5ec962; stroke: #5ec962; stroke-linejoin: miter"/>
     <use xlink:href="#mae4f36d48b" x="164.505809" y="454.878992" style="fill: #5ec962; stroke: #5ec962; stroke-linejoin: miter"/>
     <use xlink:href="#mae4f36d48b" x="203.399224" y="435.003471" style="fill: #5ec962; stroke: #5ec962; stroke-linejoin: miter"/>
     <use xlink:href="#mae4f36d48b" x="242.29264" y="409.799236" style="fill: #5ec962; stroke: #5ec962; stroke-linejoin: miter"/>
     <use xlink:href="#mae4f36d48b" x="281.186056" y="389.802161" style="fill: #5ec962; stroke: #5ec962; stroke-linejoin: miter"/>
     <use xlink:href="#mae4f36d48b" x="320.079472" y="382.661834" style="fill: #5ec962; stroke: #5ec962; stroke-linejoin: miter"/>
     <use xlink:href="#mae4f36d48b" x="358.972888" y="336.177077" style="fill: #5ec962; stroke: #5ec962; stroke-linejoin: miter"/>
     <use xlink:href="#mae4f36d48b" x="397.866304" y="303.382598" style="fill: #5ec962; stroke: #5ec962; stroke-linejoin: miter"/>
     <use xlink:href="#mae4f36d48b" x="436.75972" y="287.264368" style="fill: #5ec962; stroke: #5ec962; stroke-linejoin: miter"/>
     <use xlink:href="#mae4f36d48b" x="475.653136" y="267.298914" style="fill: #5ec962; stroke: #5ec962; stroke-linejoin: miter"/>
     <use xlink:href="#mae4f36d48b" x="514.546552" y="217.573525" style="fill: #5ec962; stroke: #5ec962; stroke-linejoin: miter"/>
     <use xlink:href="#mae4f36d48b" x="553.439968" y="255.415239" style="fill: #5ec962; stroke: #5ec962; stroke-linejoin: miter"/>
     <use xlink:href="#mae4f36d48b" x="592.333384" y="232.112285" style="fill: #5ec962; stroke: #5ec962; stroke-linejoin: miter"/>
     <use xlink:href="#mae4f36d48b" x="631.226799" y="199.669825" style="fill: #5ec962; stroke: #5ec962; stroke-linejoin: miter"/>
     <use xlink:href="#mae4f36d48b" x="670.120215" y="202.396949" style="fill: #5ec962; stroke: #5ec962; stroke-linejoin: miter"/>
     <use xlink:href="#mae4f36d48b" x="709.013631" y="134.407868" style="fill: #5ec962; stroke: #5ec962; stroke-linejoin: miter"/>
     <use xlink:href="#mae4f36d48b" x="747.907047" y="100.756694" style="fill: #5ec962; stroke: #5ec962; stroke-linejoin: miter"/>
     <use xlink:href="#mae4f36d48b" x="786.800463" y="77.971813" style="fill: #5ec962; stroke: #5ec962; stroke-linejoin: miter"/>
     <use xlink:href="#mae4f36d48b" x="825.693879" y="84.087463" style="fill: #5ec962; stroke: #5ec962; stroke-linejoin: miter"/>
     <use xlink:href="#mae4f36d48b" x="864.587295" y="51.017472" style="fill: #5ec962; stroke: #5ec962; stroke-linejoin: miter"/>
    </g>
   </g>
   <g id="line2d_18">
    <path d="M 864.587295 494.136563 
L 864.587295 29.916562 
" clip-path="url(#p5290d0fd53)" style="fill: none; stroke-dasharray: 8.325,3.6; stroke-dashoffset: 0; stroke: #808080; stroke-opacity: 0.6; stroke-width: 2.25"/>
   </g>
   <g id="patch_3">
    <path d="M 88.663648 494.136563 
L 88.663648 29.916562 
" style="fill: none; stroke: #cccccc; stroke-width: 1.875; stroke-linejoin: miter; stroke-linecap: square"/>
   </g>
   <g id="patch_4">
    <path d="M 901.53604 494.136563 
L 901.53604 29.916562 
" style="fill: none; stroke: #cccccc; stroke-width: 1.875; stroke-linejoin: miter; stroke-linecap: square"/>
   </g>
   <g id="patch_5">
    <path d="M 88.663648 494.136563 
L 901.53604 494.136563 
" style="fill: none; stroke: #cccccc; stroke-width: 1.875; stroke-linejoin: miter; stroke-linecap: square"/>
   </g>
   <g id="patch_6">
    <path d="M 88.663648 29.916562 
L 901.53604 29.916562 
" style="fill: none; stroke: #cccccc; stroke-width: 1.875; stroke-linejoin: miter; stroke-linecap: square"/>
   </g>
   <g id="text_17">
    <g id="patch_7">
     <path d="M 866.461307 455.894744 
L 1001.318807 455.894744 
L 1001.318807 422.923619 
L 866.461307 422.923619 
z
" style="fill: #ffffff; opacity: 0.8; stroke: #808080; stroke-width: 1.5; stroke-linejoin: miter"/>
    </g>
    <!-- Best Epoch: 40 -->
    <g style="fill: #262626" transform="translate(870.421307 436.001744) scale(0.12 -0.12)">
     <defs>
      <path id="DejaVuSans-42" d="M 1259 2228 
L 1259 519 
L 2272 519 
Q 2781 519 3026 730 
Q 3272 941 3272 1375 
Q 3272 1813 3026 2020 
Q 2781 2228 2272 2228 
L 1259 2228 
z
M 1259 4147 
L 1259 2741 
L 2194 2741 
Q 2656 2741 2882 2914 
Q 3109 3088 3109 3444 
Q 3109 3797 2882 3972 
Q 2656 4147 2194 4147 
L 1259 4147 
z
M 628 4666 
L 2241 4666 
Q 2963 4666 3353 4366 
Q 3744 4066 3744 3513 
Q 3744 3084 3544 2831 
Q 3344 2578 2956 2516 
Q 3422 2416 3680 2098 
Q 3938 1781 3938 1306 
Q 3938 681 3513 340 
Q 3088 0 2303 0 
L 628 0 
L 628 4666 
z
" transform="scale(0.015625)"/>
      <path id="DejaVuSans-74" d="M 1172 4494 
L 1172 3500 
L 2356 3500 
L 2356 3053 
L 1172 3053 
L 1172 1153 
Q 1172 725 1289 603 
Q 1406 481 1766 481 
L 2356 481 
L 2356 0 
L 1766 0 
Q 1100 0 847 248 
Q 594 497 594 1153 
L 594 3053 
L 172 3053 
L 172 3500 
L 594 3500 
L 594 4494 
L 1172 4494 
z
" transform="scale(0.015625)"/>
      <path id="DejaVuSans-3a" d="M 750 794 
L 1409 794 
L 1409 0 
L 750 0 
L 750 794 
z
M 750 3309 
L 1409 3309 
L 1409 2516 
L 750 2516 
L 750 3309 
z
" transform="scale(0.015625)"/>
     </defs>
     <use xlink:href="#DejaVuSans-42"/>
     <use xlink:href="#DejaVuSans-65" x="68.603516"/>
     <use xlink:href="#DejaVuSans-73" x="130.126953"/>
     <use xlink:href="#DejaVuSans-74" x="182.226562"/>
     <use xlink:href="#DejaVuSans-20" x="221.435547"/>
     <use xlink:href="#DejaVuSans-45" x="253.222656"/>
     <use xlink:href="#DejaVuSans-70" x="316.40625"/>
     <use xlink:href="#DejaVuSans-6f" x="379.882812"/>
     <use xlink:href="#DejaVuSans-63" x="441.064453"/>
     <use xlink:href="#DejaVuSans-68" x="496.044922"/>
     <use xlink:href="#DejaVuSans-3a" x="559.423828"/>
     <use xlink:href="#DejaVuSans-20" x="593.115234"/>
     <use xlink:href="#DejaVuSans-34" x="624.902344"/>
     <use xlink:href="#DejaVuSans-30" x="688.525391"/>
    </g>
    <!-- Original Loss: 0.1280 -->
    <g style="fill: #262626" transform="translate(870.421307 449.439119) scale(0.12 -0.12)">
     <defs>
      <path id="DejaVuSans-4f" d="M 2522 4238 
Q 1834 4238 1429 3725 
Q 1025 3213 1025 2328 
Q 1025 1447 1429 934 
Q 1834 422 2522 422 
Q 3209 422 3611 934 
Q 4013 1447 4013 2328 
Q 4013 3213 3611 3725 
Q 3209 4238 2522 4238 
z
M 2522 4750 
Q 3503 4750 4090 4092 
Q 4678 3434 4678 2328 
Q 4678 1225 4090 567 
Q 3503 -91 2522 -91 
Q 1538 -91 948 565 
Q 359 1222 359 2328 
Q 359 3434 948 4092 
Q 1538 4750 2522 4750 
z
" transform="scale(0.015625)"/>
      <path id="DejaVuSans-67" d="M 2906 1791 
Q 2906 2416 2648 2759 
Q 2391 3103 1925 3103 
Q 1463 3103 1205 2759 
Q 947 2416 947 1791 
Q 947 1169 1205 825 
Q 1463 481 1925 481 
Q 2391 481 2648 825 
Q 2906 1169 2906 1791 
z
M 3481 434 
Q 3481 -459 3084 -895 
Q 2688 -1331 1869 -1331 
Q 1566 -1331 1297 -1286 
Q 1028 -1241 775 -1147 
L 775 -588 
Q 1028 -725 1275 -790 
Q 1522 -856 1778 -856 
Q 2344 -856 2625 -561 
Q 2906 -266 2906 331 
L 2906 616 
Q 2728 306 2450 153 
Q 2172 0 1784 0 
Q 1141 0 747 490 
Q 353 981 353 1791 
Q 353 2603 747 3093 
Q 1141 3584 1784 3584 
Q 2172 3584 2450 3431 
Q 2728 3278 2906 2969 
L 2906 3500 
L 3481 3500 
L 3481 434 
z
" transform="scale(0.015625)"/>
      <path id="DejaVuSans-6e" d="M 3513 2113 
L 3513 0 
L 2938 0 
L 2938 2094 
Q 2938 2591 2744 2837 
Q 2550 3084 2163 3084 
Q 1697 3084 1428 2787 
Q 1159 2491 1159 1978 
L 1159 0 
L 581 0 
L 581 3500 
L 1159 3500 
L 1159 2956 
Q 1366 3272 1645 3428 
Q 1925 3584 2291 3584 
Q 2894 3584 3203 3211 
Q 3513 2838 3513 2113 
z
" transform="scale(0.015625)"/>
      <path id="DejaVuSans-4c" d="M 628 4666 
L 1259 4666 
L 1259 531 
L 3531 531 
L 3531 0 
L 628 0 
L 628 4666 
z
" transform="scale(0.015625)"/>
     </defs>
     <use xlink:href="#DejaVuSans-4f"/>
     <use xlink:href="#DejaVuSans-72" x="78.710938"/>
     <use xlink:href="#DejaVuSans-69" x="119.824219"/>
     <use xlink:href="#DejaVuSans-67" x="147.607422"/>
     <use xlink:href="#DejaVuSans-69" x="211.083984"/>
     <use xlink:href="#DejaVuSans-6e" x="238.867188"/>
     <use xlink:href="#DejaVuSans-61" x="302.246094"/>
     <use xlink:href="#DejaVuSans-6c" x="363.525391"/>
     <use xlink:href="#DejaVuSans-20" x="391.308594"/>
     <use xlink:href="#DejaVuSans-4c" x="423.095703"/>
     <use xlink:href="#DejaVuSans-6f" x="477.058594"/>
     <use xlink:href="#DejaVuSans-73" x="538.240234"/>
     <use xlink:href="#DejaVuSans-73" x="590.339844"/>
     <use xlink:href="#DejaVuSans-3a" x="642.439453"/>
     <use xlink:href="#DejaVuSans-20" x="676.130859"/>
     <use xlink:href="#DejaVuSans-30" x="707.917969"/>
     <use xlink:href="#DejaVuSans-2e" x="771.541016"/>
     <use xlink:href="#DejaVuSans-31" x="803.328125"/>
     <use xlink:href="#DejaVuSans-32" x="866.951172"/>
     <use xlink:href="#DejaVuSans-38" x="930.574219"/>
     <use xlink:href="#DejaVuSans-30" x="994.197266"/>
    </g>
   </g>
   <g id="text_18">
    <!-- AdNeuroMed - Gene Expression Model Performance (Normalized Metrics Across 5 Seeds) -->
    <g style="fill: #262626" transform="translate(7.2 23.916562) scale(0.22 -0.22)">
     <defs>
      <path id="DejaVuSans-41" d="M 2188 4044 
L 1331 1722 
L 3047 1722 
L 2188 4044 
z
M 1831 4666 
L 2547 4666 
L 4325 0 
L 3669 0 
L 3244 1197 
L 1141 1197 
L 716 0 
L 50 0 
L 1831 4666 
z
" transform="scale(0.015625)"/>
      <path id="DejaVuSans-75" d="M 544 1381 
L 544 3500 
L 1119 3500 
L 1119 1403 
Q 1119 906 1312 657 
Q 1506 409 1894 409 
Q 2359 409 2629 706 
Q 2900 1003 2900 1516 
L 2900 3500 
L 3475 3500 
L 3475 0 
L 2900 0 
L 2900 538 
Q 2691 219 2414 64 
Q 2138 -91 1772 -91 
Q 1169 -91 856 284 
Q 544 659 544 1381 
z
M 1991 3584 
L 1991 3584 
z
" transform="scale(0.015625)"/>
      <path id="DejaVuSans-4d" d="M 628 4666 
L 1569 4666 
L 2759 1491 
L 3956 4666 
L 4897 4666 
L 4897 0 
L 4281 0 
L 4281 4097 
L 3078 897 
L 2444 897 
L 1241 4097 
L 1241 0 
L 628 0 
L 628 4666 
z
" transform="scale(0.015625)"/>
      <path id="DejaVuSans-47" d="M 3809 666 
L 3809 1919 
L 2778 1919 
L 2778 2438 
L 4434 2438 
L 4434 434 
Q 4069 175 3628 42 
Q 3188 -91 2688 -91 
Q 1594 -91 976 548 
Q 359 1188 359 2328 
Q 359 3472 976 4111 
Q 1594 4750 2688 4750 
Q 3144 4750 3555 4637 
Q 3966 4525 4313 4306 
L 4313 3634 
Q 3963 3931 3569 4081 
Q 3175 4231 2741 4231 
Q 1884 4231 1454 3753 
Q 1025 3275 1025 2328 
Q 1025 1384 1454 906 
Q 1884 428 2741 428 
Q 3075 428 3337 486 
Q 3600 544 3809 666 
z
" transform="scale(0.015625)"/>
      <path id="DejaVuSans-78" d="M 3513 3500 
L 2247 1797 
L 3578 0 
L 2900 0 
L 1881 1375 
L 863 0 
L 184 0 
L 1544 1831 
L 300 3500 
L 978 3500 
L 1906 2253 
L 2834 3500 
L 3513 3500 
z
" transform="scale(0.015625)"/>
      <path id="DejaVuSans-50" d="M 1259 4147 
L 1259 2394 
L 2053 2394 
Q 2494 2394 2734 2622 
Q 2975 2850 2975 3272 
Q 2975 3691 2734 3919 
Q 2494 4147 2053 4147 
L 1259 4147 
z
M 628 4666 
L 2053 4666 
Q 2838 4666 3239 4311 
Q 3641 3956 3641 3272 
Q 3641 2581 3239 2228 
Q 2838 1875 2053 1875 
L 1259 1875 
L 1259 0 
L 628 0 
L 628 4666 
z
" transform="scale(0.015625)"/>
      <path id="DejaVuSans-66" d="M 2375 4863 
L 2375 4384 
L 1825 4384 
Q 1516 4384 1395 4259 
Q 1275 4134 1275 3809 
L 1275 3500 
L 2222 3500 
L 2222 3053 
L 1275 3053 
L 1275 0 
L 697 0 
L 697 3053 
L 147 3053 
L 147 3500 
L 697 3500 
L 697 3744 
Q 697 4328 969 4595 
Q 1241 4863 1831 4863 
L 2375 4863 
z
" transform="scale(0.015625)"/>
     </defs>
     <use xlink:href="#DejaVuSans-41"/>
     <use xlink:href="#DejaVuSans-64" x="66.658203"/>
     <use xlink:href="#DejaVuSans-4e" x="130.134766"/>
     <use xlink:href="#DejaVuSans-65" x="204.939453"/>
     <use xlink:href="#DejaVuSans-75" x="266.462891"/>
     <use xlink:href="#DejaVuSans-72" x="329.841797"/>
     <use xlink:href="#DejaVuSans-6f" x="368.705078"/>
     <use xlink:href="#DejaVuSans-4d" x="429.886719"/>
     <use xlink:href="#DejaVuSans-65" x="516.166016"/>
     <use xlink:href="#DejaVuSans-64" x="577.689453"/>
     <use xlink:href="#DejaVuSans-20" x="641.166016"/>
     <use xlink:href="#DejaVuSans-2d" x="672.953125"/>
     <use xlink:href="#DejaVuSans-20" x="709.037109"/>
     <use xlink:href="#DejaVuSans-47" x="740.824219"/>
     <use xlink:href="#DejaVuSans-65" x="818.314453"/>
     <use xlink:href="#DejaVuSans-6e" x="879.837891"/>
     <use xlink:href="#DejaVuSans-65" x="943.216797"/>
     <use xlink:href="#DejaVuSans-20" x="1004.740234"/>
     <use xlink:href="#DejaVuSans-45" x="1036.527344"/>
     <use xlink:href="#DejaVuSans-78" x="1099.710938"/>
     <use xlink:href="#DejaVuSans-70" x="1158.890625"/>
     <use xlink:href="#DejaVuSans-72" x="1222.367188"/>
     <use xlink:href="#DejaVuSans-65" x="1261.230469"/>
     <use xlink:href="#DejaVuSans-73" x="1322.753906"/>
     <use xlink:href="#DejaVuSans-73" x="1374.853516"/>
     <use xlink:href="#DejaVuSans-69" x="1426.953125"/>
     <use xlink:href="#DejaVuSans-6f" x="1454.736328"/>
     <use xlink:href="#DejaVuSans-6e" x="1515.917969"/>
     <use xlink:href="#DejaVuSans-20" x="1579.296875"/>
     <use xlink:href="#DejaVuSans-4d" x="1611.083984"/>
     <use xlink:href="#DejaVuSans-6f" x="1697.363281"/>
     <use xlink:href="#DejaVuSans-64" x="1758.544922"/>
     <use xlink:href="#DejaVuSans-65" x="1822.021484"/>
     <use xlink:href="#DejaVuSans-6c" x="1883.544922"/>
     <use xlink:href="#DejaVuSans-20" x="1911.328125"/>
     <use xlink:href="#DejaVuSans-50" x="1943.115234"/>
     <use xlink:href="#DejaVuSans-65" x="1999.792969"/>
     <use xlink:href="#DejaVuSans-72" x="2061.316406"/>
     <use xlink:href="#DejaVuSans-66" x="2102.429688"/>
     <use xlink:href="#DejaVuSans-6f" x="2137.634766"/>
     <use xlink:href="#DejaVuSans-72" x="2198.816406"/>
     <use xlink:href="#DejaVuSans-6d" x="2238.179688"/>
     <use xlink:href="#DejaVuSans-61" x="2335.591797"/>
     <use xlink:href="#DejaVuSans-6e" x="2396.871094"/>
     <use xlink:href="#DejaVuSans-63" x="2460.25"/>
     <use xlink:href="#DejaVuSans-65" x="2515.230469"/>
     <use xlink:href="#DejaVuSans-20" x="2576.753906"/>
     <use xlink:href="#DejaVuSans-28" x="2608.541016"/>
     <use xlink:href="#DejaVuSans-4e" x="2647.554688"/>
     <use xlink:href="#DejaVuSans-6f" x="2722.359375"/>
     <use xlink:href="#DejaVuSans-72" x="2783.541016"/>
     <use xlink:href="#DejaVuSans-6d" x="2822.904297"/>
     <use xlink:href="#DejaVuSans-61" x="2920.316406"/>
     <use xlink:href="#DejaVuSans-6c" x="2981.595703"/>
     <use xlink:href="#DejaVuSans-69" x="3009.378906"/>
     <use xlink:href="#DejaVuSans-7a" x="3037.162109"/>
     <use xlink:href="#DejaVuSans-65" x="3089.652344"/>
     <use xlink:href="#DejaVuSans-64" x="3151.175781"/>
     <use xlink:href="#DejaVuSans-20" x="3214.652344"/>
     <use xlink:href="#DejaVuSans-4d" x="3246.439453"/>
     <use xlink:href="#DejaVuSans-65" x="3332.71875"/>
     <use xlink:href="#DejaVuSans-74" x="3394.242188"/>
     <use xlink:href="#DejaVuSans-72" x="3433.451172"/>
     <use xlink:href="#DejaVuSans-69" x="3474.564453"/>
     <use xlink:href="#DejaVuSans-63" x="3502.347656"/>
     <use xlink:href="#DejaVuSans-73" x="3557.328125"/>
     <use xlink:href="#DejaVuSans-20" x="3609.427734"/>
     <use xlink:href="#DejaVuSans-41" x="3641.214844"/>
     <use xlink:href="#DejaVuSans-63" x="3707.873047"/>
     <use xlink:href="#DejaVuSans-72" x="3762.853516"/>
     <use xlink:href="#DejaVuSans-6f" x="3801.716797"/>
     <use xlink:href="#DejaVuSans-73" x="3862.898438"/>
     <use xlink:href="#DejaVuSans-73" x="3914.998047"/>
     <use xlink:href="#DejaVuSans-20" x="3967.097656"/>
     <use xlink:href="#DejaVuSans-35" x="3998.884766"/>
     <use xlink:href="#DejaVuSans-20" x="4062.507812"/>
     <use xlink:href="#DejaVuSans-53" x="4094.294922"/>
     <use xlink:href="#DejaVuSans-65" x="4157.771484"/>
     <use xlink:href="#DejaVuSans-65" x="4219.294922"/>
     <use xlink:href="#DejaVuSans-64" x="4280.818359"/>
     <use xlink:href="#DejaVuSans-73" x="4344.294922"/>
     <use xlink:href="#DejaVuSans-29" x="4396.394531"/>
    </g>
   </g>
   <g id="legend_1">
    <g id="patch_8">
     <path d="M 348.494844 486.136563 
L 641.704844 486.136563 
Q 644.904844 486.136563 644.904844 482.936563 
L 644.904844 388.660938 
Q 644.904844 385.460938 641.704844 385.460938 
L 348.494844 385.460938 
Q 345.294844 385.460938 345.294844 388.660938 
L 345.294844 482.936563 
Q 345.294844 486.136563 348.494844 486.136563 
z
" style="fill: #ffffff; opacity: 0.8; stroke: #cccccc; stroke-width: 1.5; stroke-linejoin: miter"/>
    </g>
    <g id="text_19">
     <!-- Metric -->
     <g style="fill: #262626" transform="translate(467.119688 405.538125) scale(0.18 -0.18)">
      <use xlink:href="#DejaVuSans-4d"/>
      <use xlink:href="#DejaVuSans-65" x="86.279297"/>
      <use xlink:href="#DejaVuSans-74" x="147.802734"/>
      <use xlink:href="#DejaVuSans-72" x="187.011719"/>
      <use xlink:href="#DejaVuSans-69" x="228.125"/>
      <use xlink:href="#DejaVuSans-63" x="255.908203"/>
     </g>
    </g>
    <g id="line2d_19">
     <path d="M 351.694844 423.839063 
L 367.694844 423.839063 
L 383.694844 423.839063 
" style="fill: none; stroke: #3b528b; stroke-width: 2.5; stroke-linecap: round"/>
     <g>
      <use xlink:href="#mb5f906cd63" x="367.694844" y="423.839063" style="fill: #3b528b; stroke: #3b528b"/>
     </g>
    </g>
    <g id="text_20">
     <!-- Normalized CrossEntropy Loss -->
     <g style="fill: #262626" transform="translate(396.494844 429.439063) scale(0.16 -0.16)">
      <defs>
       <path id="DejaVuSans-43" d="M 4122 4306 
L 4122 3641 
Q 3803 3938 3442 4084 
Q 3081 4231 2675 4231 
Q 1875 4231 1450 3742 
Q 1025 3253 1025 2328 
Q 1025 1406 1450 917 
Q 1875 428 2675 428 
Q 3081 428 3442 575 
Q 3803 722 4122 1019 
L 4122 359 
Q 3791 134 3420 21 
Q 3050 -91 2638 -91 
Q 1578 -91 968 557 
Q 359 1206 359 2328 
Q 359 3453 968 4101 
Q 1578 4750 2638 4750 
Q 3056 4750 3426 4639 
Q 3797 4528 4122 4306 
z
" transform="scale(0.015625)"/>
       <path id="DejaVuSans-79" d="M 2059 -325 
Q 1816 -950 1584 -1140 
Q 1353 -1331 966 -1331 
L 506 -1331 
L 506 -850 
L 844 -850 
Q 1081 -850 1212 -737 
Q 1344 -625 1503 -206 
L 1606 56 
L 191 3500 
L 800 3500 
L 1894 763 
L 2988 3500 
L 3597 3500 
L 2059 -325 
z
" transform="scale(0.015625)"/>
      </defs>
      <use xlink:href="#DejaVuSans-4e"/>
      <use xlink:href="#DejaVuSans-6f" x="74.804688"/>
      <use xlink:href="#DejaVuSans-72" x="135.986328"/>
      <use xlink:href="#DejaVuSans-6d" x="175.349609"/>
      <use xlink:href="#DejaVuSans-61" x="272.761719"/>
      <use xlink:href="#DejaVuSans-6c" x="334.041016"/>
      <use xlink:href="#DejaVuSans-69" x="361.824219"/>
      <use xlink:href="#DejaVuSans-7a" x="389.607422"/>
      <use xlink:href="#DejaVuSans-65" x="442.097656"/>
      <use xlink:href="#DejaVuSans-64" x="503.621094"/>
      <use xlink:href="#DejaVuSans-20" x="567.097656"/>
      <use xlink:href="#DejaVuSans-43" x="598.884766"/>
      <use xlink:href="#DejaVuSans-72" x="668.708984"/>
      <use xlink:href="#DejaVuSans-6f" x="707.572266"/>
      <use xlink:href="#DejaVuSans-73" x="768.753906"/>
      <use xlink:href="#DejaVuSans-73" x="820.853516"/>
      <use xlink:href="#DejaVuSans-45" x="872.953125"/>
      <use xlink:href="#DejaVuSans-6e" x="936.136719"/>
      <use xlink:href="#DejaVuSans-74" x="999.515625"/>
      <use xlink:href="#DejaVuSans-72" x="1038.724609"/>
      <use xlink:href="#DejaVuSans-6f" x="1077.587891"/>
      <use xlink:href="#DejaVuSans-70" x="1138.769531"/>
      <use xlink:href="#DejaVuSans-79" x="1202.246094"/>
      <use xlink:href="#DejaVuSans-20" x="1261.425781"/>
      <use xlink:href="#DejaVuSans-4c" x="1293.212891"/>
      <use xlink:href="#DejaVuSans-6f" x="1347.175781"/>
      <use xlink:href="#DejaVuSans-73" x="1408.357422"/>
      <use xlink:href="#DejaVuSans-73" x="1460.457031"/>
     </g>
    </g>
    <g id="line2d_20">
     <path d="M 351.694844 447.324063 
L 367.694844 447.324063 
L 383.694844 447.324063 
" style="fill: none; stroke: #21918c; stroke-width: 2.5; stroke-linecap: round"/>
     <g>
      <use xlink:href="#mf040f06616" x="367.694844" y="447.324063" style="fill: #21918c; stroke: #21918c; stroke-linejoin: miter"/>
     </g>
    </g>
    <g id="text_21">
     <!-- Normalized Test Accuracy -->
     <g style="fill: #262626" transform="translate(396.494844 452.924063) scale(0.16 -0.16)">
      <defs>
       <path id="DejaVuSans-54" d="M -19 4666 
L 3928 4666 
L 3928 4134 
L 2272 4134 
L 2272 0 
L 1638 0 
L 1638 4134 
L -19 4134 
L -19 4666 
z
" transform="scale(0.015625)"/>
      </defs>
      <use xlink:href="#DejaVuSans-4e"/>
      <use xlink:href="#DejaVuSans-6f" x="74.804688"/>
      <use xlink:href="#DejaVuSans-72" x="135.986328"/>
      <use xlink:href="#DejaVuSans-6d" x="175.349609"/>
      <use xlink:href="#DejaVuSans-61" x="272.761719"/>
      <use xlink:href="#DejaVuSans-6c" x="334.041016"/>
      <use xlink:href="#DejaVuSans-69" x="361.824219"/>
      <use xlink:href="#DejaVuSans-7a" x="389.607422"/>
      <use xlink:href="#DejaVuSans-65" x="442.097656"/>
      <use xlink:href="#DejaVuSans-64" x="503.621094"/>
      <use xlink:href="#DejaVuSans-20" x="567.097656"/>
      <use xlink:href="#DejaVuSans-54" x="598.884766"/>
      <use xlink:href="#DejaVuSans-65" x="642.96875"/>
      <use xlink:href="#DejaVuSans-73" x="704.492188"/>
      <use xlink:href="#DejaVuSans-74" x="756.591797"/>
      <use xlink:href="#DejaVuSans-20" x="795.800781"/>
      <use xlink:href="#DejaVuSans-41" x="827.587891"/>
      <use xlink:href="#DejaVuSans-63" x="894.246094"/>
      <use xlink:href="#DejaVuSans-63" x="949.226562"/>
      <use xlink:href="#DejaVuSans-75" x="1004.207031"/>
      <use xlink:href="#DejaVuSans-72" x="1067.585938"/>
      <use xlink:href="#DejaVuSans-61" x="1108.699219"/>
      <use xlink:href="#DejaVuSans-63" x="1169.978516"/>
      <use xlink:href="#DejaVuSans-79" x="1224.958984"/>
     </g>
    </g>
    <g id="line2d_21">
     <path d="M 351.694844 470.809063 
L 367.694844 470.809063 
L 383.694844 470.809063 
" style="fill: none; stroke: #5ec962; stroke-width: 2.5; stroke-linecap: round"/>
     <g>
      <use xlink:href="#mae4f36d48b" x="367.694844" y="470.809063" style="fill: #5ec962; stroke: #5ec962; stroke-linejoin: miter"/>
     </g>
    </g>
    <g id="text_22">
     <!-- Normalized Test F1 Score -->
     <g style="fill: #262626" transform="translate(396.494844 476.409063) scale(0.16 -0.16)">
      <defs>
       <path id="DejaVuSans-46" d="M 628 4666 
L 3309 4666 
L 3309 4134 
L 1259 4134 
L 1259 2759 
L 3109 2759 
L 3109 2228 
L 1259 2228 
L 1259 0 
L 628 0 
L 628 4666 
z
" transform="scale(0.015625)"/>
      </defs>
      <use xlink:href="#DejaVuSans-4e"/>
      <use xlink:href="#DejaVuSans-6f" x="74.804688"/>
      <use xlink:href="#DejaVuSans-72" x="135.986328"/>
      <use xlink:href="#DejaVuSans-6d" x="175.349609"/>
      <use xlink:href="#DejaVuSans-61" x="272.761719"/>
      <use xlink:href="#DejaVuSans-6c" x="334.041016"/>
      <use xlink:href="#DejaVuSans-69" x="361.824219"/>
      <use xlink:href="#DejaVuSans-7a" x="389.607422"/>
      <use xlink:href="#DejaVuSans-65" x="442.097656"/>
      <use xlink:href="#DejaVuSans-64" x="503.621094"/>
      <use xlink:href="#DejaVuSans-20" x="567.097656"/>
      <use xlink:href="#DejaVuSans-54" x="598.884766"/>
      <use xlink:href="#DejaVuSans-65" x="642.96875"/>
      <use xlink:href="#DejaVuSans-73" x="704.492188"/>
      <use xlink:href="#DejaVuSans-74" x="756.591797"/>
      <use xlink:href="#DejaVuSans-20" x="795.800781"/>
      <use xlink:href="#DejaVuSans-46" x="827.587891"/>
      <use xlink:href="#DejaVuSans-31" x="885.107422"/>
      <use xlink:href="#DejaVuSans-20" x="948.730469"/>
      <use xlink:href="#DejaVuSans-53" x="980.517578"/>
      <use xlink:href="#DejaVuSans-63" x="1043.994141"/>
      <use xlink:href="#DejaVuSans-6f" x="1098.974609"/>
      <use xlink:href="#DejaVuSans-72" x="1160.15625"/>
      <use xlink:href="#DejaVuSans-65" x="1199.019531"/>
     </g>
    </g>
   </g>
  </g>
 </g>
 <defs>
  <clipPath id="p5290d0fd53">
   <rect x="88.663648" y="29.916562" width="812.872392" height="464.22"/>
  </clipPath>
 </defs>
</svg>
